 <svg  version="1.0" xmlns="http://www.w3.org/2000/svg"  width="478.000000pt" height="319.000000pt" viewBox="0 0 478.000000 319.000000"  preserveAspectRatio="xMidYMid meet">  <g transform="translate(0.000000,319.000000) scale(0.100000,-0.100000)" fill="#00ffff" stroke="none"> <path d="M3809 2096 c-2 -2 -96 -7 -209 -11 -113 -4 -208 -9 -211 -11 -3 -2 -50 -4 -105 -5 l-99 -1 2 -87 c1 -47 2 -96 2 -108 1 -30 41 -33 41 -3 0 25 -17 26 -23 3 -3 -10 -4 27 -4 82 0 56 2 75 4 43 2 -32 7 -58 11 -58 4 0 5 25 4 55 -3 34 0 55 7 55 6 0 12 -39 14 -102 l3 -103 2 103 2 102 30 0 c17 0 30 -5 30 -12 0 -9 3 -9 8 -2 4 6 15 13 25 17 14 5 17 0 16 -36 0 -23 -3 -36 -6 -29 -2 6 -9 12 -14 12 -6 0 -7 -4 -4 -10 3 -5 2 -10 -4 -10 -5 0 -12 6 -14 13 -3 6 -6 2 -6 -10 -1 -19 3 -21 40 -17 27 4 39 2 34 -5 -3 -6 -1 -11 4 -11 6 0 11 7 11 15 0 8 -7 15 -15 15 -11 0 -15 11 -15 43 1 39 2 41 15 23 15 -20 15 -20 17 0 1 10 4 -8 8 -41 l7 -60 1 58 c2 69 19 76 25 10 l3 -48 2 50 c2 36 5 46 12 35 6 -10 10 -11 10 -2 0 6 9 12 20 12 19 0 20 -6 19 -97 -1 -54 -4 -86 -6 -70 -2 15 -8 27 -12 27 -5 0 -6 -11 -3 -25 2 -15 0 -25 -7 -25 -6 0 -11 8 -12 18 0 14 -2 14 -9 -3 -7 -18 -8 -16 -12 10 l-5 30 -2 -27 c-1 -21 -6 -28 -21 -28 -16 0 -20 7 -20 35 0 30 -3 35 -23 35 -20 0 -23 -5 -21 -32 1 -18 -1 -23 -3 -10 -4 22 -43 33 -43 12 0 -5 7 -10 15 -10 21 0 19 -30 -2 -31 -17 0 -17 -1 -1 -7 9 -4 59 -6 110 -4 l93 3 -3 98 c-4 93 -3 99 17 104 19 5 21 1 23 -51 l1 -57 6 60 c5 53 7 58 18 40 12 -20 12 -20 13 0 1 20 1 20 10 0 9 -20 9 -20 9 0 1 17 3 17 11 5 6 -10 10 -11 10 -2 0 6 5 12 10 12 6 0 10 -18 10 -40 0 -37 -2 -40 -27 -41 l-28 -1 30 -7 c49 -11 65 -3 64 33 -2 30 -2 30 -6 4 -7 -42 -23 -33 -23 12 0 34 3 40 21 40 20 0 21 -4 17 -65 -4 -64 -3 -65 22 -64 18 0 20 2 9 7 -11 5 -16 24 -18 65 l-2 57 45 0 46 0 1 -65 c3 -126 4 -120 -31 -123 -19 -1 -30 2 -30 10 0 9 -3 8 -10 -2 -9 -13 -10 -13 -10 0 0 13 -1 13 -10 0 -9 -13 -11 -13 -20 0 -6 10 -10 11 -10 3 0 -7 -9 -13 -19 -13 -11 0 -22 6 -24 13 -4 10 -6 10 -6 0 -1 -7 -12 -13 -26 -13 -14 0 -25 -3 -25 -7 0 -5 56 -6 125 -5 86 3 125 0 125 -7 0 -10 -18 -12 -127 -14 -16 -1 -23 -7 -23 -21 0 -17 2 -18 10 -6 8 12 11 13 19 1 5 -7 10 -9 12 -3 4 10 35 15 72 13 13 -1 17 -8 15 -23 -2 -18 -11 -24 -43 -29 l-40 -6 43 -1 c34 -2 42 -6 42 -21 0 -11 -6 -22 -12 -24 -10 -4 -10 -6 0 -6 6 -1 12 -8 12 -16 0 -10 -10 -15 -30 -15 -17 0 -30 5 -30 13 0 8 -4 7 -10 -3 -9 -13 -11 -13 -20 0 -8 12 -10 11 -10 -7 0 -20 5 -22 59 -20 l58 1 6 120 c8 150 -1 306 -18 306 -6 0 -14 -2 -16 -4z m-419 -196 c0 -16 -4 -30 -10 -30 -5 0 -10 14 -10 30 0 17 5 30 10 30 6 0 10 -13 10 -30z"/> <path d="M3117 2064 c-1 -1 -78 -4 -172 -8 -93 -3 -225 -9 -292 -12 l-123 -7 2 -105 1 -105 60 7 c33 3 109 6 168 6 l109 0 -1 33 c-1 24 -3 27 -7 12 -5 -14 -16 -20 -37 -20 -16 0 -33 -4 -37 -10 -5 -6 -8 -5 -8 3 0 6 -5 12 -11 12 -5 0 -7 -4 -4 -10 3 -5 1 -10 -4 -10 -6 0 -11 6 -11 13 0 8 -4 7 -10 -3 -7 -10 -9 15 -9 80 1 63 4 87 9 70 8 -24 8 -24 9 -2 1 23 21 32 21 10 0 -10 3 -9 9 1 7 11 9 11 14 0 4 -10 6 -10 6 -1 1 6 14 12 30 12 28 0 30 -3 34 -42 l4 -43 3 50 3 50 7 -50 7 -50 1 43 c1 23 7 42 12 42 6 0 11 -19 12 -42 l1 -43 7 50 7 50 1 -52 c2 -49 1 -52 -25 -56 l-28 -4 28 -2 c15 0 27 -5 27 -11 0 -5 9 -10 20 -10 11 0 20 5 20 11 0 6 -7 9 -15 5 -9 -3 -15 0 -15 8 0 9 15 15 40 18 38 3 40 2 40 -24 0 -20 -4 -26 -17 -24 -10 2 -27 0 -38 -5 -17 -7 -16 -8 8 -8 19 -1 27 -6 27 -18 0 -15 -2 -16 -10 -3 -6 10 -10 11 -10 3 0 -7 -9 -13 -20 -13 -11 0 -20 6 -20 13 0 8 -3 8 -9 -2 -7 -11 -10 -9 -14 10 -4 23 -4 23 -6 2 -1 -25 -16 -31 -24 -10 -3 6 -6 2 -6 -11 -1 -22 2 -23 37 -18 20 3 78 5 127 6 l91 0 -4 99 c-2 62 1 102 8 106 6 4 10 -15 10 -54 0 -34 4 -61 10 -61 6 0 10 28 10 65 0 63 -1 65 -26 63 -14 -2 -26 -3 -27 -4z m-137 -37 c0 -7 4 -6 10 3 7 11 10 6 10 -21 0 -33 -3 -37 -30 -41 -29 -4 -30 -3 -30 32 0 29 4 36 20 37 11 1 20 -4 20 -10z m69 -79 c0 -51 -3 -87 -6 -80 -2 6 -9 12 -14 12 -6 0 -7 -4 -4 -10 3 -5 1 -10 -4 -10 -6 0 -11 7 -11 15 0 8 6 15 13 15 10 0 14 13 14 40 0 27 -4 40 -14 40 -8 0 -13 12 -13 35 0 28 4 35 20 35 19 0 20 -6 19 -92z m31 80 c0 28 20 9 21 -20 l2 -33 7 35 c7 34 7 34 9 -12 1 -46 0 -48 -26 -49 l-28 -2 29 -4 c22 -4 26 -7 15 -14 -10 -6 -10 -9 -1 -9 7 0 12 -13 11 -32 l-1 -33 -8 30 -8 30 -1 -30 c-1 -23 -3 -27 -11 -15 -9 13 -11 13 -20 0 -7 -10 -10 14 -10 80 0 65 3 90 10 80 6 -10 10 -11 10 -2z m-394 -7 c11 9 14 7 15 -12 l1 -24 8 25 c7 22 8 21 9 -12 1 -32 -2 -38 -19 -38 -11 0 -20 5 -20 11 0 6 -6 5 -15 -3 -28 -26 -41 -35 -55 -41 -11 -4 -9 -6 5 -7 20 -1 20 -1 0 -10 -17 -7 -17 -9 -2 -9 9 -1 17 -5 17 -11 0 -15 77 -12 83 3 3 6 5 -1 5 -18 0 -16 -2 -24 -5 -17 -2 6 -9 12 -14 12 -6 0 -7 -4 -4 -10 3 -5 1 -10 -4 -10 -6 0 -11 6 -12 13 0 8 -2 8 -6 -2 -5 -11 -7 -11 -14 0 -7 12 -9 11 -9 -1 0 -13 -1 -13 -10 0 -6 10 -10 11 -10 3 0 -7 -9 -13 -20 -13 -14 0 -20 7 -21 23 -1 21 -1 21 -9 -3 -7 -21 -8 -19 -9 18 -1 26 -6 42 -13 43 -10 0 -10 2 0 6 6 2 13 23 13 46 l2 42 7 -35 7 -35 2 33 c1 25 5 32 21 32 12 0 20 -7 21 -17 1 -15 2 -14 7 2 5 20 5 20 13 0 7 -18 8 -18 9 5 1 14 4 19 7 12 4 -10 8 -10 19 -1z m-129 -53 c-2 -13 -4 -5 -4 17 -1 22 1 32 4 23 2 -10 2 -28 0 -40z m163 -33 c0 -8 -7 -15 -15 -15 -8 0 -15 -7 -15 -15 0 -9 -9 -15 -25 -15 -20 0 -25 5 -25 24 0 21 5 25 38 29 20 2 38 4 40 5 1 1 2 -5 2 -13z m-163 -72 c-3 -10 -5 -4 -5 12 0 17 2 24 5 18 2 -7 2 -21 0 -30z"/> <path d="M2507 2043 c-11 -10 -8 -123 3 -123 6 0 10 28 10 65 0 65 -1 71 -13 58z"/> <path d="M2280 2029 c-85 -4 -199 -8 -252 -10 l-98 -4 -1 -77 c-1 -43 -2 -87 -2 -99 -1 -20 2 -21 148 -20 83 1 159 4 170 6 11 2 70 4 131 4 l111 1 1 104 2 104 -28 -2 c-15 0 -97 -4 -182 -7z m142 -29 c3 14 5 -18 6 -70 0 -61 -3 -86 -8 -70 l-8 25 -2 -25 c-1 -14 -4 -19 -7 -12 -4 10 -8 10 -19 1 -11 -9 -14 -8 -14 5 0 9 5 16 11 16 22 0 39 30 38 67 l-2 38 -7 -40 c-6 -31 -7 -34 -9 -12 0 15 -7 27 -13 28 -7 0 -21 2 -30 4 -10 2 -18 -1 -18 -6 0 -5 -21 -10 -47 -10 -43 -1 -45 -2 -18 -9 l30 -8 -27 -1 c-26 -1 -28 -4 -30 -43 l-1 -43 -7 45 -7 45 -1 -42 -2 -41 -50 0 c-40 -1 -50 3 -51 16 -1 11 -4 8 -9 -8 -7 -22 -8 -21 -9 13 -1 20 4 37 9 37 6 0 10 5 10 12 0 6 -3 9 -6 5 -13 -13 -34 23 -33 55 l2 33 7 -35 c7 -35 7 -35 9 -5 1 30 2 30 54 30 28 -1 55 4 59 10 4 5 8 -6 9 -25 l2 -35 7 35 c5 23 8 28 9 13 0 -13 5 -23 10 -23 5 0 7 9 4 20 -3 11 0 20 6 20 6 0 11 -6 11 -12 0 -9 4 -8 10 2 7 11 10 7 11 -20 l2 -35 6 30 c7 35 50 50 52 18 0 -16 1 -16 8 2 8 19 8 19 19 0 11 -19 11 -19 13 5 l1 25 7 -25 8 -25 5 25z m34 -12 c-7 -5 -3 -8 9 -9 19 -1 19 -2 1 -6 -15 -4 -16 -7 -5 -14 11 -7 11 -9 -3 -9 -14 0 -18 8 -18 35 0 30 2 34 14 23 10 -9 11 -15 2 -20z m-396 -9 c0 -38 -12 -49 -54 -50 -35 -1 -37 -2 -16 -9 22 -7 20 -8 -15 -9 -29 0 -36 2 -25 9 13 9 13 10 0 11 -8 1 10 5 40 9 l55 7 -52 1 c-48 2 -53 4 -52 25 0 21 1 21 9 2 5 -11 9 -15 9 -8 1 13 53 31 84 30 9 -1 17 -9 17 -18z m17 -31 c-2 -13 -4 -5 -4 17 -1 22 1 32 4 23 2 -10 2 -28 0 -40z m388 -18 c-11 -5 -14 -9 -6 -9 11 -1 11 -4 1 -16 -9 -10 -9 -15 -1 -15 6 0 11 -9 11 -21 0 -11 -4 -18 -9 -15 -5 4 -12 0 -14 -6 -3 -7 -6 11 -6 40 -1 48 1 52 22 51 21 0 21 -1 2 -9z m-85 -25 c0 -19 -5 -25 -21 -25 -22 0 -49 22 -49 39 0 6 16 11 35 11 31 0 35 -3 35 -25z m-282 -32 c-1 -44 -2 -45 -5 -10 -2 20 -9 35 -14 32 -5 -4 -7 -11 -4 -16 4 -5 -8 -9 -24 -9 -27 0 -30 3 -29 25 2 22 7 25 40 25 l38 0 -2 -47z m217 12 c28 -27 32 -45 10 -45 -8 0 -16 10 -16 23 l-2 22 -4 -22 c-3 -15 -12 -23 -24 -23 -15 0 -19 7 -19 35 0 43 20 46 55 10z m-312 7 c-9 -6 -7 -12 7 -22 11 -8 20 -21 19 -30 0 -12 -2 -12 -6 -1 -5 11 -7 11 -14 0 -6 -10 -9 -11 -9 -1 0 6 -6 12 -14 12 -8 0 -17 -6 -19 -12 -3 -7 -6 4 -6 25 -1 34 1 37 27 37 17 0 22 -3 15 -8z m-56 -49 c-3 -10 -5 -4 -5 12 0 17 2 24 5 18 2 -7 2 -21 0 -30z m410 5 c-3 -8 -6 -5 -6 6 -1 11 2 17 5 13 3 -3 4 -12 1 -19z m-310 -10 c-3 -8 -6 -5 -6 6 -1 11 2 17 5 13 3 -3 4 -12 1 -19z m33 6 c0 -8 -5 -12 -10 -9 -6 4 -8 11 -5 16 9 14 15 11 15 -7z"/> <path d="M2128 1973 c7 -3 16 -2 19 1 4 3 -2 6 -13 5 -11 0 -14 -3 -6 -6z"/> <path d="M2198 1973 c7 -3 16 -2 19 1 4 3 -2 6 -13 5 -11 0 -14 -3 -6 -6z"/> <path d="M2143 1953 c15 -2 39 -2 55 0 15 2 2 4 -28 4 -30 0 -43 -2 -27 -4z"/> <path d="M2168 1933 c12 -2 30 -2 40 0 9 3 -1 5 -23 4 -22 0 -30 -2 -17 -4z"/> <path d="M2183 1913 c9 -2 23 -2 30 0 6 3 -1 5 -18 5 -16 0 -22 -2 -12 -5z"/> <path d="M3463 1990 c0 -25 2 -35 4 -22 2 12 2 32 0 45 -2 12 -4 2 -4 -23z"/> <path d="M1560 2011 l-55 -6 -8 -50 c-11 -66 -14 -89 -15 -158 -1 -32 -6 -56 -11 -53 -4 3 -8 -12 -8 -34 0 -22 4 -40 9 -40 5 0 9 -19 8 -42 -3 -65 -1 -122 4 -117 3 2 7 92 11 199 5 196 14 263 35 284 8 8 9 6 4 -9 -7 -19 -7 -19 13 -2 11 9 36 17 56 17 l37 0 0 -51 c0 -43 3 -50 16 -45 9 3 28 7 42 7 23 1 22 3 -8 9 -33 7 -33 7 15 9 48 1 48 0 28 -16 -17 -14 -19 -21 -10 -40 5 -13 14 -23 19 -23 4 0 8 -4 8 -10 0 -11 -32 -1 -42 14 -5 7 -8 7 -8 -1 0 -7 -4 -13 -10 -13 -12 0 -8 42 5 53 6 5 1 7 -10 5 -16 -3 -21 -12 -23 -50 -3 -42 -1 -47 15 -41 10 4 22 11 26 17 6 8 10 7 14 -1 3 -9 30 -13 84 -13 75 0 79 1 79 23 1 12 3 57 7 100 l5 78 -118 -3 c-66 -1 -128 0 -139 3 -11 4 -45 3 -75 0z m190 -46 c0 -23 -3 -25 -47 -24 -47 2 -47 2 -13 9 l35 7 -34 2 c-44 1 -36 9 12 13 20 1 37 6 37 10 0 4 2 8 5 8 3 0 5 -11 5 -25z m17 -12 c-3 -10 -5 -4 -5 12 0 17 2 24 5 18 2 -7 2 -21 0 -30z m91 28 c6 -1 12 -8 12 -16 0 -8 -6 -15 -12 -16 -10 0 -10 -2 0 -6 6 -2 12 -14 12 -24 0 -12 -4 -17 -11 -14 -13 9 -8 -27 6 -37 14 -10 -9 -30 -39 -33 -20 -3 -26 1 -26 16 0 10 6 19 13 19 8 0 7 4 -3 10 -12 8 -12 10 -1 10 9 0 7 6 -7 19 -13 11 -22 30 -22 47 0 31 -3 30 78 25z m-69 -113 c-1 -24 -3 -35 -6 -25 -2 9 -13 17 -24 17 -14 0 -19 7 -19 25 0 20 5 25 25 25 23 0 25 -4 24 -42z"/> <path d="M1901 1958 c1 -72 5 -68 12 10 2 28 0 52 -4 52 -5 0 -9 -28 -8 -62z"/> <path d="M3543 1950 c0 -25 2 -35 4 -22 2 12 2 32 0 45 -2 12 -4 2 -4 -23z"/> <path d="M1310 1960 c0 -20 -33 -29 -44 -11 -3 5 -27 6 -53 4 -37 -4 -55 -12 -76 -34 -15 -17 -31 -27 -36 -25 -11 7 -61 -57 -61 -77 0 -10 -7 -13 -19 -10 -10 3 -22 0 -25 -6 -5 -7 1 -10 13 -8 11 1 21 -2 23 -8 2 -6 -22 -11 -54 -13 -56 -2 -58 -1 -58 22 0 25 -16 43 -28 32 -3 -4 -1 -16 6 -26 17 -27 17 -27 -29 -33 -64 -8 -76 -26 -60 -87 12 -48 12 -53 -8 -74 -24 -26 -26 -44 -6 -70 14 -18 17 -17 67 32 29 28 50 54 47 57 -4 3 -25 -5 -48 -18 -22 -13 -38 -27 -34 -31 4 -4 0 -4 -10 -1 -15 6 -13 11 13 43 17 21 26 38 20 40 -5 2 -10 12 -10 21 0 15 13 19 83 24 121 10 207 8 207 -3 0 -5 8 -10 17 -10 15 0 16 2 3 15 -14 13 -73 28 -110 28 -25 0 -153 -14 -182 -19 -16 -3 -28 -1 -28 4 0 17 61 31 127 31 34 0 68 3 75 8 7 4 25 8 41 9 15 1 34 7 42 14 23 19 12 22 -21 5 -27 -14 -29 -14 -32 5 -2 11 8 34 22 51 14 17 26 27 26 22 0 -5 -5 -14 -12 -21 -9 -9 -8 -12 5 -12 11 0 17 8 17 25 0 16 6 25 15 25 8 0 15 6 15 13 0 7 14 18 32 25 35 13 48 8 30 -10 -7 -7 -12 -26 -12 -42 -1 -33 -33 -81 -49 -72 -5 3 -12 -1 -15 -10 -9 -23 -8 -24 11 -17 12 5 14 3 8 -8 -4 -8 1 -5 12 6 11 11 19 26 19 34 -1 8 10 18 24 22 14 4 19 7 13 8 -23 2 -14 35 18 69 23 25 34 30 40 21 4 -7 3 -22 -3 -32 -8 -16 -12 -17 -19 -6 -6 9 -9 10 -9 2 0 -7 7 -16 16 -21 13 -7 7 -18 -36 -62 -48 -50 -51 -55 -34 -67 10 -7 24 -13 32 -13 8 0 12 -6 9 -14 -3 -8 1 -17 9 -20 9 -4 12 -11 8 -18 -5 -8 0 -7 11 2 17 14 18 13 13 -7 -4 -17 -2 -23 9 -23 10 0 14 6 10 19 -3 12 1 18 11 17 8 0 17 5 20 13 3 9 0 11 -9 6 -11 -6 -12 -5 -1 6 6 7 12 20 12 29 -1 12 -2 12 -11 -2 -5 -10 -17 -18 -25 -18 -9 0 -12 -5 -8 -11 4 -7 1 -10 -7 -7 -8 3 -13 13 -13 22 1 9 -2 16 -8 16 -5 0 -6 5 -3 10 4 6 -6 10 -24 10 l-29 0 49 49 c49 49 58 66 39 73 -7 2 -5 11 4 23 12 16 17 17 37 7 13 -6 17 -11 9 -11 -29 2 -40 -1 -40 -12 0 -6 6 -9 12 -7 23 8 50 -39 47 -80 -2 -20 -8 -40 -14 -44 -17 -12 11 -31 45 -30 20 0 30 -4 27 -11 -2 -7 -14 -11 -26 -10 -13 2 -20 -1 -16 -7 4 -6 15 -10 24 -8 10 2 17 -1 17 -7 -1 -5 -10 -9 -22 -7 -13 1 -25 -6 -34 -23 -7 -14 -17 -25 -22 -25 -4 0 -8 -8 -8 -17 1 -15 3 -15 20 5 10 12 20 28 22 34 2 6 10 8 17 4 8 -5 9 -12 3 -19 -6 -7 -17 -30 -26 -52 l-16 -40 24 29 c14 17 22 35 19 40 -3 6 0 6 7 -1 17 -15 -7 -83 -30 -83 -23 0 -70 -76 -70 -113 0 -23 -9 -41 -31 -61 -27 -26 -32 -27 -45 -14 -8 8 -17 32 -19 52 -3 36 -2 37 24 31 26 -5 28 -4 26 27 -1 18 -14 73 -29 122 -14 48 -26 96 -26 106 0 10 -7 21 -16 24 -9 3 -12 2 -9 -5 4 -6 -1 -17 -11 -25 -16 -12 -16 -13 -2 -8 12 4 17 0 16 -13 -1 -15 15 -74 49 -185 6 -19 -12 -25 -22 -8 -10 16 -35 119 -35 143 0 12 -5 29 -11 37 -8 11 -9 1 -6 -37 2 -29 0 -56 -4 -60 -5 -5 0 -32 11 -61 21 -54 18 -60 -24 -41 -30 14 -45 76 -25 106 9 16 8 25 -6 46 -9 15 -22 27 -27 27 -6 0 -5 -6 2 -15 14 -17 4 -53 -21 -74 -19 -16 -39 -95 -39 -154 0 -26 2 -28 16 -16 9 8 14 22 11 37 -2 13 0 42 5 65 11 49 31 76 27 37 -3 -39 22 -86 45 -82 15 3 17 0 12 -13 -5 -13 -3 -15 6 -8 25 18 43 9 46 -24 3 -32 2 -33 -36 -33 -34 0 -39 3 -38 22 2 31 -17 32 -31 1 -24 -50 -20 -53 78 -53 81 0 94 2 124 26 40 30 47 46 35 79 -8 22 -6 26 15 31 14 3 36 3 50 0 23 -6 25 -3 25 25 0 17 9 47 21 65 18 30 19 37 7 64 -7 17 -17 30 -22 30 -5 0 0 10 12 23 12 12 22 36 22 52 0 17 0 54 0 82 1 64 -15 90 -75 123 -37 20 -45 30 -45 52 0 16 -4 28 -10 28 -5 0 -10 -9 -10 -20z m99 -106 c16 -18 19 -29 12 -38 -7 -8 -6 -20 3 -37 17 -32 16 -59 -1 -52 -7 3 -10 10 -6 16 4 6 -4 7 -23 3 -28 -7 -28 -7 -9 14 18 20 18 21 0 14 -13 -6 -16 -4 -10 5 15 26 24 81 11 80 -24 -3 -37 1 -31 11 10 17 30 11 54 -16z m11 -318 c0 -3 -4 -8 -10 -11 -5 -3 -10 -1 -10 4 0 6 5 11 10 11 6 0 10 -2 10 -4z m-33 -51 c9 -24 -1 -27 -15 -5 -8 13 -8 20 -2 20 6 0 13 -7 17 -15z"/> <path d="M2748 1973 c6 -2 18 -2 25 0 6 3 1 5 -13 5 -14 0 -19 -2 -12 -5z"/> <path d="M3290 1955 c0 -17 -6 -25 -17 -26 -14 0 -15 -2 -3 -6 8 -3 18 -11 22 -17 4 -6 8 8 8 32 0 23 -2 42 -5 42 -3 0 -5 -11 -5 -25z"/> <path d="M1596 1953 c-6 -14 -5 -15 5 -6 7 7 10 15 7 18 -3 3 -9 -2 -12 -12z"/> <path d="M3260 1950 c0 -5 5 -10 10 -10 6 0 10 5 10 10 0 6 -4 10 -10 10 -5 0 -10 -4 -10 -10z"/> <path d="M3592 1930 c0 -14 2 -19 5 -12 2 6 2 18 0 25 -3 6 -5 1 -5 -13z"/> <path d="M3622 1943 c9 -2 19 -12 21 -21 3 -12 5 -10 6 6 1 17 -4 22 -21 21 -16 -1 -18 -3 -6 -6z"/> <path d="M3768 1943 c6 -2 18 -2 25 0 6 3 1 5 -13 5 -14 0 -19 -2 -12 -5z"/> <path d="M2742 1910 c0 -19 2 -27 5 -17 2 9 2 25 0 35 -3 9 -5 1 -5 -18z"/> <path d="M2823 1933 c9 -2 25 -2 35 0 9 3 1 5 -18 5 -19 0 -27 -2 -17 -5z"/> <path d="M3423 1933 c9 -2 25 -2 35 0 9 3 1 5 -18 5 -19 0 -27 -2 -17 -5z"/> <path d="M3660 1921 c0 -6 9 -9 20 -8 11 1 20 5 20 9 0 4 -9 8 -20 8 -11 0 -20 -4 -20 -9z"/> <path d="M2838 1913 c6 -2 18 -2 25 0 6 3 1 5 -13 5 -14 0 -19 -2 -12 -5z"/> <path d="M3410 1909 c0 -5 5 -7 10 -4 6 3 10 8 10 11 0 2 -4 4 -10 4 -5 0 -10 -5 -10 -11z"/> <path d="M3150 1750 c0 -100 4 -160 10 -160 6 0 10 60 10 160 0 100 -4 160 -10 160 -6 0 -10 -60 -10 -160z"/> <path d="M1526 1879 c-14 -17 -15 -24 -5 -33 9 -8 10 -8 5 1 -3 6 1 16 10 21 19 10 54 4 54 -9 0 -5 5 -9 10 -9 27 0 2 35 -31 43 -18 5 -30 1 -43 -14z"/> <path d="M3542 1880 c0 -14 2 -19 5 -12 2 6 2 18 0 25 -3 6 -5 1 -5 -13z"/> <path d="M3560 1880 c0 -11 4 -20 9 -20 6 0 9 9 8 20 -1 11 -5 20 -9 20 -4 0 -8 -9 -8 -20z"/> <path d="M2500 1735 c0 -85 3 -155 8 -155 4 0 9 70 10 155 2 103 -1 155 -8 155 -6 0 -10 -54 -10 -155z"/> <path d="M3267 1876 c-4 -10 -5 -21 -2 -24 9 -9 17 6 13 25 -3 17 -4 17 -11 -1z"/> <path d="M3292 1870 c0 -14 2 -19 5 -12 2 6 2 18 0 25 -3 6 -5 1 -5 -13z"/> <path d="M1902 1784 c-1 -50 -4 -120 -7 -155 -4 -54 -3 -59 5 -31 6 18 9 87 7 155 -2 108 -3 112 -5 31z"/> <path d="M3608 1843 l-68 -4 0 -84 0 -85 70 0 70 0 -1 33 -1 32 -8 -30 c-8 -31 -9 -32 -15 -2 -6 32 -15 32 -16 1 l-1 -29 -8 30 c-8 30 -8 30 -9 4 -1 -19 -6 -26 -18 -25 -14 1 -19 14 -24 61 l-6 60 -1 -63 c-3 -87 -22 -70 -22 19 0 42 4 69 11 69 5 0 7 -4 4 -10 -3 -5 -1 -10 4 -10 6 0 11 6 11 13 0 8 4 7 10 -3 6 -10 10 -11 10 -2 0 6 9 12 19 12 11 0 22 -6 24 -12 4 -10 6 -10 6 0 1 6 8 12 16 12 8 0 15 5 15 10 0 6 -1 9 -2 8 -2 -1 -33 -3 -70 -5z"/> <path d="M1535 1830 c-3 -5 1 -10 9 -10 9 0 16 5 16 10 0 6 -4 10 -9 10 -6 0 -13 -4 -16 -10z"/> <path d="M1616 1832 c-3 -6 -1 -14 5 -17 14 -9 20 -2 10 14 -6 8 -11 9 -15 3z"/> <path d="M3268 1832 l-78 -3 0 -84 c0 -47 4 -85 8 -85 5 0 6 36 4 80 -3 54 0 80 7 80 6 0 10 -3 10 -7 -1 -5 0 -42 2 -83 l3 -75 6 85 6 85 2 -81 2 -80 70 0 70 1 0 53 c0 28 -4 52 -8 52 -5 0 -7 -20 -5 -45 3 -27 0 -45 -6 -45 -6 0 -11 33 -13 78 l-3 77 -77 -3z m31 -34 c1 15 7 22 21 22 18 0 20 -7 20 -72 0 -51 -3 -68 -10 -58 -6 10 -10 11 -10 3 0 -7 -4 -13 -10 -13 -5 0 -11 21 -12 48 l-1 47 -7 -50 c-6 -47 -7 -45 -7 25 -1 51 2 67 7 50 8 -24 8 -24 9 -2z m-29 -58 c0 -33 -4 -60 -9 -60 -5 0 -10 27 -10 60 0 33 4 60 10 60 5 0 9 -27 9 -60z"/> <path d="M3360 1821 c0 -12 5 -21 10 -21 6 0 10 6 10 14 0 8 -4 18 -10 21 -5 3 -10 -3 -10 -14z"/> <path d="M3392 1755 l-2 -90 55 3 55 4 0 84 0 84 -30 0 c-27 0 -30 -3 -29 -32 l2 -33 5 30 c4 26 5 28 12 10 7 -17 9 -17 9 -2 1 9 6 17 11 17 6 0 10 -32 9 -77 -1 -57 -3 -70 -9 -48 l-8 30 -1 -27 c-2 -46 -20 -31 -24 20 l-3 47 -4 -50 -3 -50 -7 50 -7 50 -1 -47 c-3 -80 -21 -54 -25 35 l-3 82 -2 -90z"/> <path d="M3414 1810 c0 -16 4 -30 8 -30 5 0 8 14 8 30 0 17 -4 30 -9 30 -5 0 -8 -13 -7 -30z"/> <path d="M3510 1810 c0 -16 4 -30 8 -30 5 0 9 14 10 30 0 17 -4 30 -9 30 -5 0 -9 -13 -9 -30z"/> <path d="M1286 1821 c-6 -10 31 -51 46 -51 15 0 8 16 -16 39 -14 13 -26 18 -30 12z"/> <path d="M2997 1823 c-2 -1 -77 -3 -167 -4 -91 -2 -195 -5 -232 -7 l-68 -4 0 -80 0 -81 208 6 c114 4 251 7 305 7 l98 0 -2 50 c-2 41 -6 50 -21 50 -15 0 -18 -9 -19 -47 l-2 -48 -7 40 -7 40 -2 -37 c0 -21 -5 -38 -11 -38 -6 0 -11 35 -12 83 l-2 82 -6 -85 -6 -85 -2 82 c-2 76 -4 82 -22 80 -12 -1 -22 -2 -23 -4z m-246 -32 c8 12 11 12 19 -1 8 -12 10 -12 10 5 0 17 2 17 10 5 9 -13 10 -13 10 0 0 13 1 13 10 0 6 -10 10 -11 10 -2 0 6 5 12 11 12 5 0 7 -4 4 -10 -3 -5 -2 -10 4 -10 5 0 12 6 14 13 3 6 5 -22 5 -63 0 -41 -3 -65 -5 -52 -2 12 -8 22 -13 22 -4 0 -6 -9 -3 -20 5 -17 0 -20 -26 -20 -25 0 -31 4 -32 23 l-2 22 -4 -22 c-7 -35 -26 -28 -21 7 3 17 1 30 -4 30 -4 0 -9 -17 -10 -37 -1 -28 -3 -23 -8 22 l-7 60 -2 -55 c-2 -44 -5 -50 -11 -30 -8 24 -8 24 -9 3 -1 -16 -7 -23 -21 -23 -14 0 -20 7 -21 23 -1 21 -1 21 -9 -3 -7 -23 -8 -23 -10 10 l-3 35 -7 -35 c-4 -19 -8 -31 -9 -26 0 5 -8 3 -16 -4 -13 -11 -15 -5 -17 46 l-1 59 -7 -60 -7 -60 -1 75 c-1 52 1 70 8 60 6 -10 10 -11 10 -2 0 6 10 12 23 11 21 0 21 -1 2 -9 -19 -8 -19 -9 3 -9 12 -1 22 4 22 9 0 6 14 10 31 10 17 0 28 -4 24 -10 -3 -5 -1 -10 4 -10 6 0 11 6 11 13 0 8 4 7 10 -3 8 -13 10 -12 11 5 1 19 2 19 6 1 4 -15 7 -16 14 -5z m139 7 c0 6 5 12 10 12 6 0 10 -30 10 -70 0 -38 -4 -70 -9 -70 -6 0 -8 9 -6 20 2 11 0 20 -5 20 -5 0 -11 -10 -13 -22 -2 -13 -5 11 -5 52 -1 52 1 70 8 60 6 -10 10 -11 10 -2z m63 -7 c21 0 21 1 2 9 -19 8 -19 9 3 9 12 1 22 -5 23 -11 0 -9 2 -9 6 1 5 11 7 11 14 0 6 -10 9 -11 9 -1 0 6 5 12 10 12 6 0 10 -7 10 -15 0 -11 -13 -15 -52 -17 l-53 -2 53 -3 52 -4 0 -50 c0 -57 -19 -67 -22 -11 l-1 37 -5 -40 -6 -40 -6 40 -7 40 -2 -40 c-1 -30 -4 -36 -11 -25 -6 10 -10 11 -10 3 0 -7 -4 -13 -10 -13 -17 0 -11 28 8 33 13 4 12 5 -5 6 -15 1 -23 -6 -26 -21 -2 -13 -5 11 -5 52 0 41 2 69 5 63 2 -7 14 -13 26 -12z m-394 -73 c-1 -68 -6 -61 -11 15 -2 26 0 47 4 47 5 0 7 -28 7 -62z m558 -20 c-2 -13 -4 -5 -4 17 -1 22 1 32 4 23 2 -10 2 -28 0 -40z"/> <path d="M2835 1770 c3 -5 8 -10 11 -10 2 0 4 5 4 10 0 6 -5 10 -11 10 -5 0 -7 -4 -4 -10z"/> <path d="M2628 1763 c18 -2 45 -2 60 0 15 2 0 4 -33 4 -33 0 -45 -2 -27 -4z"/> <path d="M2748 1763 c6 -2 18 -2 25 0 6 3 1 5 -13 5 -14 0 -19 -2 -12 -5z"/> <path d="M2663 1743 c9 -2 25 -2 35 0 9 3 1 5 -18 5 -19 0 -27 -2 -17 -5z"/> <path d="M2818 1743 c6 -2 18 -2 25 0 6 3 1 5 -13 5 -14 0 -19 -2 -12 -5z"/> <path d="M2671 1694 c0 -11 3 -14 6 -6 3 7 2 16 -1 19 -3 4 -6 -2 -5 -13z"/> <path d="M2791 1694 c0 -11 3 -14 6 -6 3 7 2 16 -1 19 -3 4 -6 -2 -5 -13z"/> <path d="M3073 1810 c2 -25 14 -26 20 -2 3 10 5 6 6 -10 2 -41 35 -38 38 2 2 28 0 30 -32 30 -28 0 -33 -4 -32 -20z m44 -22 c-3 -7 -5 -2 -5 12 0 14 2 19 5 13 2 -7 2 -19 0 -25z"/> <path d="M1090 1810 c-13 -9 -13 -10 0 -10 8 0 22 5 30 10 13 9 13 10 0 10 -8 0 -22 -5 -30 -10z"/> <path d="M2215 1803 c-22 -2 -96 -4 -165 -5 l-125 -3 -3 -79 -3 -79 263 6 c145 4 272 7 283 7 18 0 20 7 22 81 l1 81 -116 -4 c-65 -1 -135 -4 -157 -5z m214 -75 c-1 -52 -3 -66 -9 -48 -7 21 -15 12 -11 -12 0 -5 -3 -8 -9 -8 -5 0 -10 10 -11 23 -1 21 -1 21 -9 -3 l-8 -25 -2 25 -2 25 -8 -25 c-4 -14 -8 -19 -9 -12 -1 6 -14 12 -30 12 -16 0 -32 -6 -34 -12 -3 -7 -6 3 -8 22 l-2 35 -7 -35 c-6 -29 -8 -23 -9 33 -1 63 0 67 22 66 21 0 21 -1 2 -9 -17 -7 -15 -9 13 -9 19 -1 32 4 32 12 0 8 4 7 10 -3 9 -13 10 -13 10 0 0 13 1 13 10 0 9 -13 10 -13 10 0 0 12 2 12 9 1 6 -9 11 -10 15 -2 4 6 12 9 17 6 5 -4 9 -1 9 4 0 6 2 11 5 11 3 0 5 -33 4 -72z m40 25 c0 -16 -1 -16 -9 2 -8 19 -9 19 -9 -2 -1 -13 4 -23 9 -23 6 0 10 -7 10 -15 0 -8 -4 -15 -9 -15 -5 0 -12 -10 -14 -22 -2 -13 -5 10 -6 50 -1 65 1 72 14 58 8 -8 15 -23 14 -33z m-296 30 c-7 -2 -21 -2 -30 0 -10 3 -4 5 12 5 17 0 24 -2 18 -5z m50 0 c-7 -2 -19 -2 -25 0 -7 3 -2 5 12 5 14 0 19 -2 13 -5z m-242 -12 c6 10 9 11 9 2 0 -7 7 -13 15 -13 8 0 15 6 16 13 0 8 2 8 6 -2 5 -11 7 -11 14 0 5 9 9 -10 9 -49 0 -40 -4 -61 -10 -57 -5 3 -10 2 -10 -4 0 -17 -30 0 -31 18 -1 9 -4 6 -9 -9 -4 -14 -9 -18 -9 -10 -1 13 -2 13 -11 0 -7 -11 -10 -3 -11 30 l-2 45 -7 -40 c-7 -39 -7 -39 -8 15 -1 39 1 51 8 40 8 -12 10 -10 11 10 0 14 3 19 6 11 5 -11 7 -11 14 0z m119 -55 c0 -49 -2 -55 -20 -53 -17 1 -20 8 -20 54 0 46 3 53 20 53 18 0 20 -7 20 -54z m17 -28 c-2 -18 -4 -6 -4 27 0 33 2 48 4 33 2 -15 2 -42 0 -60z m131 25 l-1 -58 -7 55 c-6 53 -7 53 -8 13 -2 -39 -5 -43 -27 -43 -14 0 -25 -4 -25 -8 0 -5 -7 -9 -15 -9 -8 0 -15 5 -15 11 0 6 -5 4 -10 -4 -7 -11 -10 2 -10 43 l0 57 60 0 60 0 -2 -57z m-25 -50 c-7 -2 -19 -2 -25 0 -7 3 -2 5 12 5 14 0 19 -2 13 -5z m110 0 c-7 -2 -19 -2 -25 0 -7 3 -2 5 12 5 14 0 19 -2 13 -5z"/> <path d="M2313 1753 c9 -2 23 -2 30 0 6 3 -1 5 -18 5 -16 0 -22 -2 -12 -5z"/> <path d="M2283 1733 c9 -2 25 -2 35 0 9 3 1 5 -18 5 -19 0 -27 -2 -17 -5z"/> <path d="M2388 1733 c6 -2 18 -2 25 0 6 3 1 5 -13 5 -14 0 -19 -2 -12 -5z"/> <path d="M1991 1714 c0 -11 3 -14 6 -6 3 7 2 16 -1 19 -3 4 -6 -2 -5 -13z"/> <path d="M2173 1753 c9 -2 25 -2 35 0 9 3 1 5 -18 5 -19 0 -27 -2 -17 -5z"/> <path d="M2188 1733 c7 -3 16 -2 19 1 4 3 -2 6 -13 5 -11 0 -14 -3 -6 -6z"/> <path d="M1590 1791 c0 -5 5 -13 10 -16 6 -3 10 -2 10 4 0 5 -4 13 -10 16 -5 3 -10 2 -10 -4z"/> <path d="M1778 1792 l-98 -3 0 -64 c0 -35 -3 -71 -7 -80 -5 -16 3 -17 98 -11 56 4 105 8 106 10 2 2 3 37 1 77 l-3 74 -97 -3z m-49 -49 c0 9 8 17 17 17 8 0 12 5 9 10 -3 6 -1 10 4 10 6 0 11 -6 11 -12 0 -9 4 -8 10 2 7 11 10 0 12 -40 1 -50 2 -51 5 -12 4 41 5 42 41 42 28 0 33 -3 22 -10 -10 -6 -11 -10 -2 -10 6 0 12 -7 12 -15 0 -8 -5 -15 -10 -15 -12 0 -9 -22 5 -32 6 -4 0 -8 -12 -8 -13 0 -23 -6 -23 -12 0 -9 -4 -8 -10 2 -6 10 -10 11 -10 3 0 -8 -13 -13 -30 -13 -17 0 -30 5 -31 13 0 8 -2 8 -6 -2 -5 -11 -7 -11 -14 0 -6 10 -9 11 -9 2 0 -7 -4 -13 -9 -13 -5 0 -8 24 -6 53 4 77 7 85 15 52 4 -16 8 -22 9 -12z m129 30 c-10 -2 -28 -2 -40 0 -13 2 -5 4 17 4 22 1 32 -1 23 -4z"/> <path d="M1743 1715 c0 -22 2 -30 4 -17 2 12 2 30 0 40 -3 9 -5 -1 -4 -23z"/> <path d="M3642 1780 c0 -14 2 -19 5 -12 2 6 2 18 0 25 -3 6 -5 1 -5 -13z"/> <path d="M3672 1770 c0 -19 2 -27 5 -17 2 9 2 25 0 35 -3 9 -5 1 -5 -18z"/> <path d="M3693 1760 c1 -21 10 -18 13 5 1 8 -2 15 -6 15 -5 0 -8 -9 -7 -20z"/> <path d="M3722 1750 c0 -19 2 -27 5 -17 2 9 2 25 0 35 -3 9 -5 1 -5 -18z"/> <path d="M3515 1720 c0 -27 3 -50 8 -50 4 0 7 23 7 50 0 28 -3 50 -7 50 -5 0 -8 -22 -8 -50z"/> <path d="M1270 1750 c0 -6 7 -10 15 -10 8 0 15 2 15 4 0 2 -7 6 -15 10 -8 3 -15 1 -15 -4z"/> <path d="M1602 1737 c-12 -13 -22 -29 -22 -36 0 -7 12 2 26 19 31 36 27 50 -4 17z"/> <path d="M3692 1700 c1 -16 5 -30 10 -30 4 0 8 14 8 30 0 17 -4 30 -9 30 -5 0 -9 -13 -9 -30z"/> <path d="M965 1680 c-3 -5 -1 -10 4 -10 6 0 11 5 11 10 0 6 -2 10 -4 10 -3 0 -8 -4 -11 -10z"/> <path d="M1038 1683 c12 -3 22 -9 22 -14 0 -13 22 -11 43 5 16 13 12 14 -35 13 -29 0 -43 -2 -30 -4z"/> <path d="M878 1673 c7 -3 16 -2 19 1 4 3 -2 6 -13 5 -11 0 -14 -3 -6 -6z"/> <path d="M3341 1610 c2 -30 3 -31 6 -7 2 15 9 27 15 27 7 0 8 -13 5 -35 -3 -19 -2 -35 4 -35 5 0 9 19 9 43 0 36 -3 43 -20 43 -17 0 -20 -6 -19 -36z"/> <path d="M3392 1530 l3 -121 30 3 c30 3 30 3 33 71 2 37 -1 67 -5 67 -4 0 -6 -25 -5 -55 3 -35 0 -55 -7 -55 -7 0 -12 38 -13 108 l-2 107 -6 -120 c-6 -117 -6 -118 -10 -40 -2 44 -3 97 -3 118 1 20 -3 37 -9 37 -6 0 -8 -47 -6 -120z"/> <path d="M3442 1604 c2 -24 6 -44 10 -44 4 0 5 16 4 35 -2 19 0 35 5 35 5 0 9 -47 9 -105 0 -85 3 -103 14 -99 8 3 17 0 21 -6 4 -7 11 -8 18 -1 8 6 11 44 9 118 -3 101 -5 109 -23 109 -20 0 -21 -5 -17 -103 1 -57 0 -103 -4 -103 -5 0 -8 46 -8 103 0 96 -1 103 -20 104 -18 2 -20 -4 -18 -43z m78 -81 c0 -58 -2 -104 -5 -101 -3 2 -8 50 -11 106 -5 74 -4 102 5 102 7 0 11 -33 11 -107z"/> <path d="M3540 1630 c0 -11 5 -20 10 -20 6 0 10 9 10 20 0 11 -4 20 -10 20 -5 0 -10 -9 -10 -20z"/> <path d="M3571 1535 l1 -111 140 0 c134 1 139 2 134 21 -3 11 -6 62 -6 113 l0 92 -85 0 -85 0 0 -30 c0 -23 4 -30 20 -30 14 0 20 7 20 23 0 20 5 22 57 25 31 1 54 0 50 -4 -4 -4 -2 -13 4 -21 9 -10 7 -13 -7 -13 -12 0 -15 -3 -8 -8 16 -10 24 -62 10 -62 -6 0 -4 -5 4 -10 13 -9 13 -10 0 -10 -13 0 -13 -1 0 -10 13 -9 13 -10 0 -10 -13 0 -13 -1 0 -10 12 -8 13 -11 1 -19 -11 -7 -11 -9 0 -14 8 -3 4 -6 -9 -6 -13 -1 -20 3 -17 9 3 6 1 10 -4 10 -6 0 -11 -4 -11 -10 0 -5 -5 -10 -11 -10 -5 0 -7 5 -4 10 3 6 2 10 -4 10 -5 0 -12 -6 -14 -12 -5 -11 -12 122 -8 145 0 4 -4 7 -9 7 -7 0 -8 -28 -4 -80 5 -57 4 -80 -5 -80 -6 0 -12 21 -13 53 l-1 52 -7 -55 c-4 -30 -7 -43 -8 -27 -1 15 -7 27 -12 27 -6 0 -8 -11 -6 -25 3 -14 0 -25 -5 -25 -5 0 -9 23 -9 52 0 28 -3 48 -7 44 -4 -4 -6 -27 -4 -51 2 -40 0 -45 -18 -45 -19 0 -21 6 -23 83 l-2 82 -6 -85 c-3 -47 -7 -83 -8 -80 -2 3 -5 47 -9 98 -5 81 -4 92 11 92 9 0 16 4 16 9 0 6 -9 9 -20 8 -20 -1 -21 -7 -19 -112z m129 79 c0 -8 -4 -14 -10 -14 -5 0 -10 9 -10 21 0 11 5 17 10 14 6 -3 10 -13 10 -21z"/> <path d="M3623 1585 c0 -38 2 -60 4 -47 2 12 11 22 19 22 8 0 14 9 14 20 0 25 -19 27 -22 3 0 -10 -4 2 -8 27 -6 41 -7 38 -7 -25z"/> <path d="M3643 1630 c1 -11 5 -20 9 -20 4 0 8 9 8 20 0 11 -4 20 -9 20 -6 0 -9 -9 -8 -20z"/> <path d="M1240 1628 c0 -7 5 -20 10 -28 8 -12 10 -11 10 7 0 12 -4 25 -10 28 -5 3 -10 0 -10 -7z"/> <path d="M1520 1618 c0 -19 2 -20 10 -8 13 19 13 30 0 30 -5 0 -10 -10 -10 -22z"/> <path d="M2684 1632 l-151 -2 -1 -106 -2 -105 305 2 305 1 -2 110 -1 109 -151 -3 c-83 -2 -219 -4 -302 -6z m313 -34 c-3 -7 -5 -2 -5 12 0 14 2 19 5 13 2 -7 2 -19 0 -25z m50 -110 c-2 -29 -3 -8 -3 47 0 55 1 79 3 53 2 -26 2 -71 0 -100z m33 47 c0 -57 -4 -95 -10 -95 -6 0 -10 38 -10 95 0 57 4 95 10 95 6 0 10 -38 10 -95z m28 -52 c3 24 22 22 22 -3 0 -11 -6 -20 -14 -20 -8 0 -17 -6 -19 -12 -3 -7 -5 32 -4 87 l1 100 6 -85 c3 -47 7 -77 8 -67z m9 115 c-3 -7 -5 -2 -5 12 0 14 2 19 5 13 2 -7 2 -19 0 -25z m-528 -43 c1 39 5 64 8 58 2 -7 17 -13 31 -14 l27 -1 -30 -13 c-24 -11 -26 -14 -10 -16 17 -1 17 -2 3 -6 -26 -6 -22 -27 7 -43 14 -7 25 -18 25 -24 0 -6 5 -4 10 4 9 13 10 13 10 0 0 -13 1 -13 10 0 6 10 10 11 10 3 0 -7 5 -13 10 -13 6 0 10 7 10 15 0 15 -16 19 -52 16 -13 -2 -18 5 -18 23 0 21 5 26 25 26 14 0 25 -4 25 -10 0 -5 7 -10 15 -10 12 0 15 -13 15 -55 0 -51 -2 -55 -22 -54 -22 0 -22 1 -3 9 19 8 19 9 -2 9 -13 1 -23 -3 -23 -9 0 -5 -7 -10 -15 -10 -8 0 -15 5 -15 10 0 6 -8 11 -17 12 -10 1 7 4 37 8 l55 7 -67 1 c-68 2 -68 2 -69 -25 -1 -17 -3 -21 -6 -10 -2 9 -12 18 -21 18 -15 1 -15 2 1 6 14 4 17 17 19 81 l2 77 6 -70 6 -70 3 70z m104 58 c-7 -2 -19 -2 -25 0 -7 3 -2 5 12 5 14 0 19 -2 13 -5z m145 0 c-15 -2 -42 -2 -60 0 -18 2 -6 4 27 4 33 0 48 -2 33 -4z m52 -33 c5 0 7 9 5 20 -2 11 0 20 6 20 5 0 9 -6 9 -12 0 -9 4 -8 10 2 6 10 10 11 10 3 0 -7 10 -13 23 -12 21 0 21 1 2 9 -19 8 -19 9 3 9 13 1 22 -5 22 -14 0 -10 -10 -15 -27 -16 -25 0 -26 -1 -8 -9 17 -7 17 -9 3 -9 -14 -1 -18 -10 -18 -42 0 -25 4 -38 10 -34 6 4 7 11 4 17 -4 7 -2 8 4 4 7 -4 12 -17 13 -29 1 -20 2 -20 9 3 l8 25 2 -25 c2 -24 3 -23 10 5 4 17 8 24 9 18 2 -18 21 -16 21 2 0 11 -11 15 -41 15 -28 0 -39 4 -36 13 2 6 10 11 16 10 6 -2 11 4 11 12 0 9 9 15 24 15 19 0 24 4 21 20 -2 11 0 20 4 20 4 0 8 -40 9 -90 1 -83 0 -90 -18 -90 -11 0 -20 6 -21 13 0 10 -2 10 -6 0 -2 -7 -14 -13 -24 -13 -11 0 -17 5 -14 10 3 6 1 10 -4 10 -6 0 -12 -6 -13 -12 -1 -7 -5 23 -8 67 l-6 80 -2 -77 c-1 -47 -6 -78 -13 -78 -5 0 -7 5 -4 10 3 6 2 10 -4 10 -5 0 -12 -6 -14 -12 -3 -7 -5 30 -5 82 0 52 3 85 5 73 2 -13 8 -23 13 -23z m-333 8 c-3 -8 -6 -5 -6 6 -1 11 2 17 5 13 3 -3 4 -12 1 -19z m160 -20 c-3 -7 -5 -2 -5 12 0 14 2 19 5 13 2 -7 2 -19 0 -25z m46 -97 c17 1 18 2 5 6 -15 4 -18 16 -18 64 l0 59 55 0 55 0 0 -80 0 -80 -57 2 -58 1 55 7 55 7 -57 1 c-46 2 -57 -1 -61 -15 -3 -10 -4 23 -4 72 1 76 1 80 4 23 4 -63 6 -68 26 -67z m359 64 c3 -14 1 -25 -3 -25 -5 0 -9 11 -9 25 0 14 2 25 4 25 2 0 6 -11 8 -25z m-562 -20 c0 -19 -4 -35 -9 -35 -5 0 -8 8 -6 18 2 9 4 25 4 35 2 32 11 17 11 -18z m37 -77 c-3 -7 -5 -2 -5 12 0 14 2 19 5 13 2 -7 2 -19 0 -25z"/> <path d="M2601 1504 c0 -11 3 -14 6 -6 3 7 2 16 -1 19 -3 4 -6 -2 -5 -13z"/> <path d="M2880 1545 c0 -14 2 -25 4 -25 2 0 6 11 8 25 3 14 1 25 -3 25 -5 0 -9 -11 -9 -25z"/> <path d="M2880 1490 c0 -11 4 -20 9 -20 5 0 7 9 4 20 -3 11 -7 20 -9 20 -2 0 -4 -9 -4 -20z"/> <path d="M2793 1555 c0 -22 2 -30 4 -17 2 12 2 30 0 40 -3 9 -5 -1 -4 -23z"/> <path d="M2842 1545 c0 -16 2 -22 5 -12 2 9 2 23 0 30 -3 6 -5 -1 -5 -18z"/> <path d="M2772 1540 c0 -14 2 -19 5 -12 2 6 2 18 0 25 -3 6 -5 1 -5 -13z"/> <path d="M2765 1500 c-3 -5 -1 -10 4 -10 6 0 11 5 11 10 0 6 -2 10 -4 10 -3 0 -8 -4 -11 -10z"/> <path d="M2840 1496 c0 -8 -12 -17 -27 -19 -26 -4 -26 -4 5 -6 26 -1 32 3 32 19 0 11 -2 20 -5 20 -3 0 -5 -6 -5 -14z"/> <path d="M3190 1530 c0 -67 -4 -110 -10 -110 -6 0 -10 30 -10 70 0 39 -3 70 -7 70 -5 0 -8 -34 -8 -75 0 -75 0 -76 25 -73 25 3 25 3 25 111 0 59 3 107 8 107 4 0 7 -47 7 -104 0 -69 4 -107 12 -112 7 -5 8 -3 3 6 -6 10 -4 12 9 7 17 -7 18 1 14 98 -2 58 -1 105 4 105 4 0 8 -47 8 -105 0 -89 2 -104 15 -99 8 4 15 1 15 -5 0 -7 14 -10 38 -8 l37 4 1 64 1 64 -7 -65 c-6 -62 -15 -50 -12 18 1 17 -3 32 -8 32 -6 0 -11 -26 -12 -57 l-1 -58 -7 60 -7 60 -2 -60 c-1 -33 -5 -54 -8 -47 -2 6 -11 12 -19 12 -11 0 -14 19 -12 98 1 65 3 78 5 40 2 -32 9 -58 14 -58 7 0 8 20 4 55 -5 36 -4 55 3 55 6 0 13 -12 15 -27 4 -26 4 -26 6 5 1 32 1 32 -45 32 l-46 0 7 -100 c5 -71 4 -100 -4 -100 -7 0 -11 34 -11 100 0 93 -1 100 -20 100 -19 0 -20 -7 -20 -110z"/> <path d="M2127 1623 l-208 -3 2 -38 c5 -74 -1 -172 -11 -172 -5 0 -11 30 -13 68 l-3 67 -2 -67 c-1 -38 -5 -68 -10 -68 -4 0 -6 47 -4 104 l2 105 -80 -2 c-56 -1 -80 -6 -80 -14 0 -18 -18 -16 -37 2 -22 23 -30 11 -28 -45 1 -36 -2 -50 -12 -50 -9 0 -13 -15 -13 -50 l0 -50 -66 0 -66 0 4 37 c2 22 -2 38 -9 40 -8 3 -11 -9 -10 -39 l2 -43 370 -1 c204 0 341 2 305 6 -44 4 -3 7 130 8 l195 2 0 105 0 105 -75 -2 c-41 -2 -169 -4 -283 -5z m-80 -35 c-3 -8 -6 -5 -6 6 -1 11 2 17 5 13 3 -3 4 -12 1 -19z m20 -10 c-3 -7 -5 -2 -5 12 0 14 2 19 5 13 2 -7 2 -19 0 -25z m31 1 c2 -19 -2 -28 -8 -24 -12 7 -14 55 -2 55 4 0 9 -14 10 -31z m30 -11 l2 42 60 0 60 0 0 -90 c0 -57 -4 -90 -11 -90 -5 0 -7 5 -4 10 4 6 -20 10 -65 10 -41 0 -69 4 -65 9 3 5 1 12 -5 16 -6 4 -10 -5 -10 -22 0 -22 -2 -25 -10 -13 -6 10 -10 11 -10 3 0 -9 -18 -13 -62 -11 l-63 1 60 7 60 7 -70 3 -70 4 70 6 70 6 -67 2 -68 2 0 31 c0 17 7 38 16 46 13 13 13 17 2 24 -10 7 -10 9 2 10 10 0 8 3 -5 9 -19 8 -19 9 3 9 12 1 22 -5 23 -11 0 -9 2 -9 6 1 5 11 7 11 14 0 6 -10 9 -11 9 -1 0 6 7 12 16 12 26 0 9 -25 -22 -31 -16 -4 -23 -7 -16 -8 6 0 12 -14 12 -29 0 -16 6 -29 13 -29 22 -1 42 -8 49 -18 5 -6 8 -4 9 5 0 8 5 4 9 -10 8 -24 8 -23 9 8 1 29 -2 32 -29 32 -23 0 -30 4 -30 20 0 14 7 20 21 20 27 0 49 -23 50 -52 0 -22 1 -22 9 -3 5 11 10 40 11 65 l2 45 7 -45 7 -45 1 43z m139 -95 c-2 -27 -3 -5 -3 47 0 52 1 74 3 48 2 -27 2 -69 0 -95z m76 130 c-13 -2 -33 -2 -45 0 -13 2 -3 4 22 4 25 0 35 -2 23 -4z m72 -3 c-17 -7 -17 -9 -2 -9 9 -1 17 -7 17 -13 0 -10 2 -10 8 -2 5 9 11 8 20 -2 7 -8 8 -14 2 -14 -15 0 -12 -30 3 -31 8 0 8 -2 -2 -6 -11 -5 -11 -7 0 -14 10 -6 11 -9 2 -9 -7 0 -13 -7 -13 -15 0 -8 5 -15 10 -15 6 0 10 -5 10 -11 0 -5 -4 -8 -9 -4 -5 3 -12 -3 -14 -12 -3 -11 -5 -8 -6 10 -1 20 -6 27 -20 27 -14 0 -21 -8 -24 -27 -2 -16 -5 14 -6 65 -1 89 0 92 22 91 21 0 21 -1 2 -9z m-689 -36 c-9 -8 -16 -24 -16 -35 0 -12 -7 -19 -20 -19 -21 0 -26 16 -10 40 6 9 5 17 -3 22 -7 4 2 8 21 8 18 0 32 5 33 13 0 9 2 9 6 0 2 -7 -3 -20 -11 -29z m31 14 c-3 -8 -6 -5 -6 6 -1 11 2 17 5 13 3 -3 4 -12 1 -19z m88 12 c-20 -9 -20 -9 0 -10 20 -1 20 -1 0 -10 -20 -9 -20 -9 0 -10 20 -1 20 -1 0 -10 -17 -7 -17 -9 -2 -9 33 -2 19 -31 -15 -32 l-33 -2 35 -7 c19 -4 28 -8 20 -9 -13 -1 -13 -2 0 -11 11 -7 3 -10 -30 -11 l-45 -2 45 -7 c42 -7 43 -7 10 -9 -27 -1 -31 -4 -20 -11 13 -8 12 -10 -2 -10 -10 0 -18 5 -18 10 0 6 -32 11 -72 12 l-73 2 63 3 c56 4 62 6 62 26 0 18 2 19 10 7 7 -11 10 -7 10 18 0 19 5 32 13 32 8 0 7 4 -3 10 -13 8 -12 10 5 11 20 1 20 1 0 7 -20 5 -20 5 0 13 19 7 19 8 -2 8 -12 1 -24 -5 -26 -11 -3 -8 -6 -6 -6 5 -1 14 7 17 47 16 35 0 42 -3 27 -9z m480 -10 c-22 -4 -33 -8 -25 -9 11 -1 12 -3 3 -9 -7 -4 -14 -37 -16 -72 -3 -63 -3 -62 -5 18 l-2 82 43 -1 42 -2 -40 -7z m55 -35 c0 -22 -4 -25 -40 -25 -22 0 -40 3 -40 7 0 15 37 42 58 42 17 1 22 -5 22 -24z m-600 -10 c0 -20 -5 -25 -25 -25 -20 0 -25 5 -25 25 0 20 5 25 25 25 20 0 25 -5 25 -25z m545 -35 c9 -14 42 -12 48 3 3 6 5 -8 5 -33 0 -25 -2 -38 -5 -29 -4 18 -52 14 -65 -5 -5 -6 -8 -1 -8 12 0 19 6 22 38 24 l37 1 -37 4 c-25 3 -38 9 -38 19 0 16 16 19 25 4z m-585 -12 c0 -9 4 -8 10 2 8 13 10 12 10 -2 0 -15 -9 -18 -57 -17 -32 1 -47 4 -33 7 l25 5 -25 8 c-20 5 -15 7 23 8 31 1 47 -3 47 -11z m690 -32 c0 -8 -4 -18 -10 -21 -5 -3 -10 3 -10 14 0 12 5 21 10 21 6 0 10 -6 10 -14z m-727 -23 c-7 -2 -19 -2 -25 0 -7 3 -2 5 12 5 14 0 19 -2 13 -5z m50 0 c-7 -2 -19 -2 -25 0 -7 3 -2 5 12 5 14 0 19 -2 13 -5z m104 1 c-3 -3 -12 -4 -19 -1 -8 3 -5 6 6 6 11 1 17 -2 13 -5z m300 0 c-3 -3 -12 -4 -19 -1 -8 3 -5 6 6 6 11 1 17 -2 13 -5z m-94 -21 c-18 -2 -48 -2 -65 0 -18 2 -4 4 32 4 36 0 50 -2 33 -4z"/> <path d="M2153 1593 c9 -2 23 -2 30 0 6 3 -1 5 -18 5 -16 0 -22 -2 -12 -5z"/> <path d="M2208 1593 c6 -2 18 -2 25 0 6 3 1 5 -13 5 -14 0 -19 -2 -12 -5z"/> <path d="M2141 1564 c0 -11 3 -14 6 -6 3 7 2 16 -1 19 -3 4 -6 -2 -5 -13z"/> <path d="M2220 1526 c0 -9 5 -16 10 -16 6 0 10 4 10 9 0 6 -4 13 -10 16 -5 3 -10 -1 -10 -9z"/> <path d="M1941 1514 c0 -11 3 -14 6 -6 3 7 2 16 -1 19 -3 4 -6 -2 -5 -13z"/> <path d="M2220 1480 c0 -11 2 -20 4 -20 2 0 6 9 9 20 3 11 1 20 -4 20 -5 0 -9 -9 -9 -20z"/> <path d="M2433 1525 c0 -22 2 -30 4 -17 2 12 2 30 0 40 -3 9 -5 -1 -4 -23z"/> <path d="M1276 1611 c-4 -5 -3 -17 1 -27 5 -12 3 -15 -6 -9 -15 9 -7 -40 14 -90 10 -23 14 -25 14 -10 0 11 -3 27 -9 35 -6 9 -5 17 3 22 9 6 9 8 -1 8 -9 0 -10 11 -6 40 6 38 2 51 -10 31z"/> <path d="M3548 1513 c2 -49 6 -90 8 -92 2 -2 4 37 4 87 0 51 -4 92 -9 92 -4 0 -6 -39 -3 -87z"/> <path d="M926 1580 c-10 -3 -17 -10 -16 -15 1 -5 -7 -12 -17 -16 -10 -4 22 -6 71 -4 103 5 129 15 36 15 -69 0 -76 5 -17 13 21 3 41 8 45 12 8 8 -77 4 -102 -5z"/> <path d="M1317 1573 c-4 -3 -7 -11 -7 -17 0 -6 5 -5 12 2 6 6 9 14 7 17 -3 3 -9 2 -12 -2z"/> <path d="M3325 1560 c-3 -5 -1 -10 4 -10 6 0 11 5 11 10 0 6 -2 10 -4 10 -3 0 -8 -4 -11 -10z"/> <path d="M3680 1559 c0 -5 5 -7 10 -4 6 3 10 8 10 11 0 2 -4 4 -10 4 -5 0 -10 -5 -10 -11z"/> <path d="M1575 1540 c3 -5 8 -10 11 -10 2 0 4 5 4 10 0 6 -5 10 -11 10 -5 0 -7 -4 -4 -10z"/> <path d="M2500 1482 c0 -40 3 -72 8 -72 8 0 7 129 -2 138 -3 3 -6 -27 -6 -66z"/> <path d="M3670 1520 c0 -11 5 -20 10 -20 6 0 10 9 10 20 0 11 -4 20 -10 20 -5 0 -10 -9 -10 -20z"/> <path d="M1530 1520 c0 -5 5 -10 11 -10 5 0 7 5 4 10 -3 6 -8 10 -11 10 -2 0 -4 -4 -4 -10z"/> <path d="M1300 1510 c0 -6 7 -10 15 -10 8 0 15 2 15 4 0 2 -7 6 -15 10 -8 3 -15 1 -15 -4z"/> <path d="M774 1475 c-15 -33 -15 -39 0 -78 18 -48 20 -61 8 -53 -12 7 -249 -227 -244 -242 2 -8 36 -12 118 -12 l114 0 20 32 c11 18 16 36 11 42 -10 13 -51 123 -51 136 0 12 65 40 92 40 11 0 22 -9 25 -20 3 -11 11 -20 17 -20 17 0 82 -57 74 -65 -3 -3 -37 -17 -74 -29 -61 -21 -96 -46 -64 -46 25 0 156 52 175 69 32 30 64 43 87 35 18 -5 19 -4 8 8 -16 17 -68 12 -92 -10 -16 -13 -21 -11 -60 27 -24 22 -46 41 -51 41 -12 0 -57 101 -57 129 0 20 -2 21 -15 11 -19 -16 -19 -28 0 -64 9 -18 12 -33 7 -38 -6 -6 -16 9 -26 38 -14 42 -14 50 -1 70 8 13 11 25 5 29 -5 3 -16 -11 -26 -30z m-23 -275 c20 -59 21 -72 10 -82 -8 -8 -11 -8 -8 -2 4 7 0 14 -8 17 -9 4 -12 1 -8 -9 3 -8 -1 -14 -11 -14 -9 0 -16 6 -16 13 0 8 -4 7 -10 -3 -9 -13 -11 -13 -20 0 -9 13 -11 13 -21 0 -7 -10 -12 -11 -15 -4 -3 6 -16 9 -29 6 -14 -2 -25 -2 -25 1 0 3 27 33 60 67 33 34 60 66 60 71 0 5 4 9 8 9 5 0 20 -31 33 -70z"/> <path d="M3622 1490 c0 -14 2 -19 5 -12 2 6 2 18 0 25 -3 6 -5 1 -5 -13z"/> <path d="M3862 1460 c0 -19 2 -27 5 -17 2 9 2 25 0 35 -3 9 -5 1 -5 -18z"/> <path d="M1537 1473 c-12 -11 -8 -21 13 -26 17 -4 18 -2 9 14 -11 21 -13 22 -22 12z"/> <path d="M1066 1408 c-3 -13 -1 -27 4 -32 7 -7 10 1 10 22 0 37 -5 41 -14 10z"/> <path d="M918 1403 c7 -3 16 -2 19 1 4 3 -2 6 -13 5 -11 0 -14 -3 -6 -6z"/> <path d="M2238 1403 c6 -2 18 -2 25 0 6 3 1 5 -13 5 -14 0 -19 -2 -12 -5z"/> <path d="M736 1378 c-18 -25 -21 -53 -5 -43 6 4 8 10 5 13 -3 3 1 14 11 24 9 10 14 21 11 24 -3 3 -13 -5 -22 -18z"/> </g> </svg> 