 <svg  version="1.0" xmlns="http://www.w3.org/2000/svg"  width="478.000000pt" height="319.000000pt" viewBox="0 0 478.000000 319.000000"  preserveAspectRatio="xMidYMid meet">  <g transform="translate(0.000000,319.000000) scale(0.100000,-0.100000)" fill="#00ffff" stroke="none"> <path d="M3579 2745 c-3 -2 -29 -8 -59 -14 -80 -14 -584 -145 -775 -201 -55 -16 -194 -53 -310 -81 -115 -28 -286 -73 -380 -99 -93 -27 -253 -70 -354 -96 l-184 -47 -39 41 c-21 23 -42 42 -45 42 -4 0 -14 7 -23 15 -9 8 -48 31 -86 50 -38 19 -62 34 -53 35 30 0 84 -23 132 -57 44 -31 48 -32 42 -12 -16 50 -110 108 -176 109 -19 0 -40 5 -45 10 -8 8 -15 6 -23 -4 -10 -11 -6 -18 21 -38 38 -27 65 -44 93 -56 11 -5 44 -28 74 -51 44 -32 55 -47 57 -72 2 -23 -1 -29 -12 -25 -16 6 -19 -10 -4 -19 6 -3 17 1 26 9 16 17 34 18 74 7 15 -4 38 -2 58 6 17 7 32 11 32 8 0 -3 12 1 28 9 21 11 173 53 327 91 27 6 133 -123 113 -138 -9 -6 -8 -7 5 -3 9 3 17 2 17 -2 0 -4 34 -47 75 -97 41 -49 75 -94 75 -100 0 -6 9 -16 21 -23 15 -9 8 4 -20 45 -23 32 -50 67 -59 78 -21 25 -127 164 -164 215 l-28 38 103 27 c56 15 120 33 142 40 22 7 112 29 200 49 88 20 186 44 218 53 31 9 59 14 60 12 30 -39 192 -259 245 -334 39 -55 75 -104 79 -110 55 -68 98 -142 94 -160 -2 -5 1 -7 4 -3 8 8 21 -7 79 -89 20 -29 33 -53 29 -53 -5 0 -2 -4 4 -8 7 -4 28 -30 48 -57 l35 -50 -23 -6 c-13 -4 -77 -12 -143 -18 -65 -7 -137 -14 -159 -16 -22 -2 -89 -9 -150 -15 -60 -5 -136 -12 -167 -15 l-58 -6 -45 47 c-25 26 -45 44 -45 40 0 -4 9 -17 21 -29 29 -31 53 -67 47 -72 -5 -5 -106 112 -182 210 -21 27 -44 55 -50 60 -6 6 -27 31 -46 57 -19 26 -42 47 -50 48 -9 0 -11 -3 -4 -8 6 -4 29 -30 51 -59 22 -29 43 -49 47 -46 3 4 6 1 6 -6 0 -12 52 -76 142 -178 56 -63 52 -69 -44 -77 -131 -11 -330 -31 -402 -41 -30 -4 -43 -1 -57 14 -10 10 -17 20 -16 22 1 2 -26 32 -61 67 -81 82 -81 64 1 -23 67 -72 83 -95 69 -95 -7 0 -116 113 -141 147 -3 4 -19 19 -36 33 -16 14 0 -8 35 -48 69 -77 97 -118 89 -126 -7 -7 -245 -26 -269 -21 -11 2 -18 0 -15 -6 4 -5 -7 -9 -24 -9 -16 0 -32 6 -34 13 -4 9 -6 9 -6 0 -1 -7 -7 -13 -14 -13 -7 0 -13 -9 -13 -19 0 -11 3 -18 6 -16 8 5 236 30 455 50 88 9 198 19 245 24 98 10 355 34 615 57 99 8 239 22 310 30 72 8 184 19 250 24 66 5 188 16 270 25 244 26 345 35 440 41 132 7 158 12 151 30 -3 8 -41 68 -83 132 -43 64 -82 125 -88 134 -72 122 -459 705 -485 733 -36 38 -36 22 0 -27 29 -40 194 -290 493 -748 71 -108 116 -187 113 -196 -3 -8 -2 -12 3 -9 5 3 12 1 16 -5 4 -6 -16 -10 -52 -10 -63 -1 -118 -5 -173 -14 -19 -3 -78 -8 -130 -11 -52 -3 -124 -10 -159 -16 -35 -5 -110 -12 -165 -14 -56 -3 -101 -5 -101 -6 0 -4 -47 -10 -80 -10 -30 0 -45 6 -60 24 -43 53 -111 141 -120 157 -6 10 -17 25 -24 34 -7 9 -10 16 -7 16 4 0 1 7 -6 15 -7 8 -19 22 -27 30 -7 9 -15 14 -18 11 -3 -3 22 -43 55 -88 108 -147 155 -218 149 -224 -6 -7 -105 125 -219 291 -41 61 -113 163 -159 228 -46 65 -102 144 -124 175 -22 32 -64 89 -93 126 -30 37 -51 71 -47 74 7 8 10 8 420 116 182 48 358 92 392 99 34 6 59 15 57 19 -6 9 -38 11 -45 3z m-2106 -531 c-6 -16 -16 -11 -19 11 -1 8 4 11 11 8 8 -2 11 -11 8 -19z"/> <path d="M990 2535 c-7 -8 -19 -15 -28 -15 -8 0 -24 -7 -33 -16 -17 -16 -53 -23 -124 -27 -21 -1 -31 -7 -31 -19 0 -9 5 -13 11 -10 5 4 26 7 45 7 19 1 41 5 49 9 11 7 11 4 1 -15 -12 -23 -12 -23 6 -8 18 15 54 22 54 11 0 -3 -18 -29 -40 -59 -23 -29 -36 -53 -31 -53 12 0 -1 -39 -30 -96 -17 -34 -19 -35 -20 -14 0 14 -12 -11 -27 -55 -15 -44 -24 -83 -19 -86 7 -5 -36 -59 -48 -59 -8 0 -6 28 3 32 5 2 12 16 16 31 4 19 3 26 -4 22 -23 -14 -8 24 16 40 38 25 23 28 -36 9 -34 -11 -54 -24 -60 -38 -10 -27 -91 -106 -130 -127 -57 -31 -63 -40 -43 -59 10 -9 34 -20 53 -24 39 -7 90 -28 90 -36 0 -3 -4 -21 -10 -39 -12 -44 5 -108 32 -117 11 -3 24 -17 29 -31 13 -34 3 -43 -12 -10 -11 25 -43 30 -58 10 -3 -5 -22 -9 -41 -10 -69 -3 -87 -17 -124 -97 -19 -41 -40 -77 -45 -81 -6 -3 -11 -16 -11 -29 0 -12 -5 -27 -12 -34 -6 -6 -13 -18 -14 -27 -1 -8 -12 -28 -24 -45 -25 -35 -19 -50 20 -50 16 0 49 -13 73 -30 49 -33 67 -37 67 -16 0 8 -13 17 -30 21 -16 4 -32 11 -35 16 -8 12 7 11 41 -1 21 -8 29 -8 36 2 15 24 8 30 -32 26 -31 -3 -39 0 -35 10 3 8 5 16 5 18 0 2 10 4 23 4 18 0 19 -2 7 -11 -13 -9 -13 -10 0 -6 8 2 14 10 13 16 -2 6 4 11 13 11 8 0 13 -4 10 -9 -3 -5 1 -12 10 -15 11 -4 15 -2 11 8 -3 8 -1 17 6 19 29 10 -3 15 -37 6 -28 -8 -41 -8 -45 0 -4 6 -13 -4 -21 -24 -9 -23 -19 -34 -28 -30 -7 3 -15 5 -17 5 -2 0 -1 9 2 20 3 11 12 20 19 20 8 0 14 5 14 10 0 6 -4 10 -9 10 -18 0 -21 33 -5 51 9 10 13 23 9 28 -3 6 3 23 14 37 24 30 29 20 6 -12 -8 -12 -12 -24 -9 -27 3 -3 -3 -18 -13 -33 l-18 -29 27 20 c15 11 26 25 24 31 -6 15 14 34 34 34 12 0 15 -9 12 -40 -2 -22 -9 -40 -14 -40 -6 0 -8 11 -6 24 3 14 1 31 -3 38 -5 8 -9 -5 -9 -34 0 -41 3 -48 20 -48 17 0 20 7 20 46 0 43 1 46 23 40 12 -4 69 -17 126 -28 82 -18 105 -26 112 -42 7 -16 8 -12 5 17 -3 20 -2 37 2 37 9 0 32 -94 32 -130 1 -22 2 -23 11 -8 7 13 5 33 -6 70 -20 69 -19 84 10 146 27 57 22 65 -19 27 -20 -19 -25 -31 -21 -46 5 -16 3 -20 -6 -17 -18 6 -23 88 -6 88 17 1 -12 16 -44 23 -23 6 -26 4 -22 -17 3 -14 -1 -25 -10 -29 -10 -4 -13 1 -9 20 4 23 -9 42 -30 43 -7 0 -29 -93 -23 -99 2 -2 10 18 16 45 11 43 14 46 19 24 3 -14 2 -41 -3 -60 -18 -66 -18 -67 -28 -45 -8 19 -9 19 -6 -2 2 -25 -3 -26 -58 -12 -22 6 -51 13 -65 16 -40 7 -43 18 -13 44 35 30 55 73 41 87 -6 6 -6 12 1 16 6 4 11 0 11 -8 0 -9 4 -16 10 -16 5 0 7 -8 4 -17 -5 -15 -4 -15 5 -3 18 25 22 4 6 -33 -11 -26 -22 -37 -36 -37 -12 0 -19 -5 -17 -12 9 -25 33 -18 48 14 l14 33 7 -25 c7 -24 7 -24 8 5 1 17 5 45 10 63 6 20 6 32 0 32 -5 0 -9 -4 -9 -10 0 -17 -14 -11 -28 11 -13 20 -12 21 27 14 27 -4 41 -3 41 4 0 6 5 11 11 11 5 0 8 -4 4 -10 -3 -5 14 -14 37 -20 24 -6 72 -19 108 -30 35 -10 66 -17 68 -15 2 2 2 16 -1 32 -4 27 -5 27 -12 6 -7 -22 -25 -32 -25 -14 0 15 32 36 51 33 13 -2 19 7 24 38 4 23 13 44 21 47 9 3 12 18 10 44 -2 21 0 36 4 34 4 -3 11 2 14 10 4 13 10 14 26 5 24 -13 26 -35 4 -44 -22 -8 -22 -9 -17 22 4 21 2 24 -6 12 -16 -23 -13 -36 14 -67 19 -22 24 -24 25 -10 0 9 -6 17 -12 18 -7 0 2 7 20 15 40 18 79 3 66 -24 -10 -23 -5 -115 7 -127 6 -6 16 -5 29 3 16 10 20 10 20 -2 0 -26 -26 -39 -52 -25 -31 16 -38 28 -31 60 6 31 -30 78 -43 57 -4 -7 -2 -14 4 -16 17 -5 2 -32 -19 -32 -10 0 -19 -6 -19 -12 0 -10 -2 -10 -9 0 -4 8 -12 14 -16 14 -8 0 -25 -22 -25 -34 0 -5 9 -8 20 -8 22 0 27 -16 8 -23 -9 -3 -7 -10 7 -21 24 -18 35 -20 35 -5 0 5 -4 8 -9 4 -5 -3 -12 -1 -16 5 -3 5 3 10 14 10 12 0 21 5 21 11 0 6 -7 9 -15 5 -8 -3 -15 -1 -15 4 0 5 9 12 20 15 11 3 20 11 20 16 0 5 5 9 10 9 12 0 13 -43 1 -55 -5 -6 -12 -21 -16 -34 -5 -18 -4 -22 5 -16 9 6 11 4 5 -5 -5 -8 -3 -11 6 -8 9 3 13 16 11 33 -3 26 -2 27 14 14 9 -8 19 -13 20 -12 10 7 34 -12 34 -26 0 -28 -20 -42 -42 -30 -11 6 -22 8 -25 6 -2 -3 5 -8 17 -12 13 -4 19 -12 16 -21 -3 -9 1 -14 14 -14 15 0 20 7 20 26 0 14 4 23 10 19 6 -4 9 6 8 27 -2 22 1 32 10 31 7 -2 12 8 13 25 0 24 1 25 9 7 7 -17 9 -14 9 13 1 27 -2 33 -18 30 -21 -3 -61 28 -61 48 0 28 20 22 59 -16 22 -22 46 -39 53 -38 7 2 12 -4 10 -14 -2 -11 3 -15 15 -12 20 4 60 -22 50 -33 -4 -3 -19 -1 -34 6 -23 11 -25 10 -14 -3 10 -12 9 -25 -5 -68 -11 -31 -20 -46 -22 -36 -2 10 3 31 11 47 11 21 12 32 4 40 -24 24 -43 9 -74 -58 -39 -81 -39 -81 -13 -81 11 0 20 -4 20 -9 0 -5 -6 -8 -12 -7 -20 3 -108 46 -163 80 -27 18 -62 37 -77 44 -26 11 -28 10 -28 -11 -1 -12 -7 -33 -15 -47 -11 -21 -11 -28 0 -40 7 -8 15 -24 18 -35 4 -17 5 -17 6 4 1 23 2 24 21 6 11 -10 20 -14 20 -10 0 5 11 -2 25 -15 20 -18 25 -20 25 -8 0 9 -5 18 -12 20 -6 2 20 3 58 1 38 -1 82 -3 97 -3 17 0 27 -5 25 -11 -4 -11 -42 -18 -115 -21 -18 -1 -33 -3 -33 -5 0 -1 15 -9 33 -17 32 -16 53 -16 73 -3 7 4 14 -2 17 -14 4 -16 2 -19 -16 -14 -20 6 -21 5 -4 -8 22 -18 22 -31 1 -23 -14 6 -15 4 -4 -9 7 -9 9 -15 4 -14 -19 3 -29 -1 -19 -9 7 -4 5 -24 -6 -56 -18 -55 -20 -54 -43 27 -9 31 -21 57 -26 57 -15 0 -22 -43 -10 -70 9 -23 10 -22 4 7 -3 18 -3 33 0 33 13 0 36 -75 36 -116 0 -24 5 -44 10 -44 6 0 10 -12 10 -27 0 -16 7 -37 15 -47 20 -27 19 -42 -2 -25 -11 10 -14 10 -9 2 9 -16 1 -16 -41 -1 -30 11 -45 28 -24 28 5 0 16 12 26 26 15 24 15 28 1 57 l-16 32 0 -35 c-1 -21 -4 -29 -8 -20 -4 9 -15 16 -24 16 -10 1 -22 2 -27 3 -8 1 -25 37 -35 76 -3 11 -4 5 -2 -13 2 -21 -2 -32 -11 -32 -14 0 -16 8 -13 58 1 17 -3 32 -9 32 -14 0 -14 20 -1 40 9 13 11 13 20 0 5 -8 10 -11 10 -5 0 22 69 -62 70 -85 0 -14 5 -32 11 -40 8 -11 9 -7 5 18 -16 89 -17 91 -57 109 -35 16 -38 21 -33 48 11 54 18 58 47 31 14 -13 40 -27 57 -31 16 -4 30 -13 30 -21 0 -8 5 -14 10 -14 16 0 11 24 -8 41 -10 8 -23 14 -30 11 -7 -2 -15 3 -18 12 -3 9 -11 16 -17 16 -6 0 -19 8 -29 17 -19 17 -20 16 -39 -7 -10 -14 -19 -34 -19 -45 0 -11 -9 -29 -21 -39 -16 -13 -19 -24 -14 -44 3 -15 9 -40 12 -56 8 -41 -13 -25 -27 22 -7 20 -17 42 -23 47 -7 7 -8 4 -3 -8 3 -11 9 -30 12 -44 l7 -25 -37 24 c-27 17 -36 30 -36 51 0 31 -16 36 -25 7 -6 -20 -25 -28 -25 -10 0 5 9 26 21 46 l20 37 -45 -6 -45 -7 11 28 c7 15 19 37 26 50 8 12 12 26 8 29 -8 8 -35 -27 -36 -45 0 -15 -45 -88 -60 -97 -34 -21 17 103 53 126 13 9 0 29 -19 29 -8 0 -17 -13 -21 -30 -3 -17 -10 -33 -16 -37 -6 -4 -8 2 -5 14 3 12 2 27 -3 34 -10 15 -13 3 -10 -37 2 -23 -36 -143 -50 -159 -12 -12 -11 -28 0 -20 6 3 30 8 54 10 24 2 55 9 68 14 24 10 24 10 2 12 -13 1 -26 2 -30 4 -52 14 -63 19 -63 27 0 6 8 7 18 3 9 -3 37 -12 62 -18 25 -6 49 -17 53 -24 4 -7 16 -13 26 -13 10 0 25 -8 34 -18 9 -9 56 -37 106 -62 49 -25 90 -48 90 -52 1 -4 -32 -7 -71 -7 -94 1 -95 1 -74 -14 18 -13 120 -8 159 8 13 5 17 2 17 -13 0 -18 -7 -21 -52 -24 -50 -3 -50 -7 -4 -22 17 -6 15 -10 -19 -42 -50 -46 -66 -39 -59 23 4 36 3 44 -5 33 -6 -8 -11 -23 -11 -32 0 -10 -4 -18 -10 -18 -14 0 -32 39 -26 56 3 8 -1 14 -10 14 -15 0 -14 -11 3 -57 3 -7 -3 -10 -16 -6 -23 6 -28 19 -9 25 6 2 8 10 4 16 -10 17 -53 15 -60 -3 -8 -21 -46 -2 -46 22 0 9 -5 31 -12 49 -11 31 -9 35 20 65 33 34 38 44 24 53 -5 3 -19 -9 -31 -25 -17 -23 -26 -28 -34 -20 -6 6 -20 11 -31 10 -19 0 -18 -1 4 -10 34 -14 35 -16 16 -38 -26 -29 -46 -16 -46 30 0 40 -13 52 -24 23 -3 -8 -3 -33 0 -55 5 -32 4 -39 -10 -39 -9 0 -21 12 -26 26 -11 27 -5 48 11 39 5 -4 9 -1 9 4 0 6 -4 11 -10 11 -10 0 -7 49 6 85 6 20 6 20 -8 0 -8 -11 -20 -33 -25 -50 -10 -30 -14 -31 -63 -20 -21 5 -28 0 -42 -25 -22 -39 -22 -49 -1 -72 15 -17 14 -18 -30 -18 -25 0 -49 5 -52 10 -14 23 -35 7 -62 -47 -16 -32 -46 -88 -67 -125 -20 -37 -35 -72 -31 -78 4 -6 48 -31 98 -56 50 -26 104 -58 118 -72 15 -14 34 -27 42 -28 8 -1 25 -12 37 -24 17 -17 19 -24 9 -36 -6 -8 -18 -14 -25 -14 -14 0 -20 -29 -6 -31 4 0 64 -2 134 -4 121 -3 129 -3 143 18 21 30 9 35 -19 8 -14 -13 -29 -21 -34 -17 -5 3 -52 6 -106 7 -58 1 -93 6 -88 11 14 14 45 17 64 6 32 -16 19 7 -15 26 -19 11 -27 21 -19 23 7 3 23 -1 35 -9 28 -18 107 -50 107 -43 0 3 -35 21 -77 40 -43 20 -87 41 -98 47 -11 6 -76 40 -145 76 -69 36 -129 68 -133 72 -5 4 11 43 35 86 25 44 52 96 62 117 17 37 36 49 36 22 0 -8 -22 -58 -50 -112 -51 -99 -58 -123 -39 -123 12 0 79 71 79 85 0 5 -14 -7 -31 -28 -17 -21 -34 -36 -36 -33 -7 7 36 66 69 96 15 13 28 30 28 37 0 8 -8 5 -21 -8 -35 -35 -33 -13 2 25 18 20 34 34 37 31 3 -3 11 0 19 7 7 6 17 8 21 4 4 -4 -3 -15 -16 -24 -12 -10 -24 -28 -27 -41 -2 -13 -10 -29 -16 -37 -10 -12 -8 -13 7 -7 11 4 4 -8 -18 -31 -24 -24 -35 -43 -31 -54 5 -11 2 -14 -10 -9 -8 3 -21 -1 -27 -9 -11 -12 -6 -14 26 -14 34 0 122 -33 134 -51 3 -4 28 -13 55 -20 28 -6 68 -20 90 -29 69 -31 138 -50 123 -35 -12 12 -220 85 -243 85 -8 0 -15 5 -15 10 0 14 32 12 71 -4 64 -26 82 -29 77 -15 -3 8 -10 15 -16 15 -7 1 -15 3 -19 4 -5 2 -12 4 -18 5 -34 9 -55 18 -55 26 0 5 7 6 15 3 8 -4 15 -1 15 5 0 6 -7 11 -15 11 -15 0 -21 16 -7 22 4 2 27 43 52 91 56 111 60 115 108 91 49 -25 48 -24 37 -32 -20 -14 -79 -152 -66 -152 5 0 12 10 16 23 4 12 9 24 10 27 1 3 6 15 10 28 9 26 25 29 26 5 1 -10 2 -22 3 -28 1 -5 6 -31 10 -57 6 -37 13 -48 26 -48 10 0 21 -6 23 -12 3 -7 6 -1 6 13 1 31 30 102 32 79 1 -17 17 26 18 53 1 9 -3 17 -9 17 -5 0 -10 -7 -10 -15 0 -14 -10 -37 -32 -75 -5 -8 -11 -23 -14 -32 -12 -34 -21 -18 -28 44 -4 35 -9 77 -12 95 -6 40 5 47 56 33 50 -14 60 -32 62 -122 l2 -73 3 60 c2 33 10 63 16 67 7 4 7 8 2 8 -6 0 -11 9 -12 21 -2 20 -1 20 20 5 53 -39 64 -38 106 6 31 31 44 38 54 30 7 -6 32 -14 56 -18 l44 -7 -24 -18 c-28 -22 -13 -25 26 -5 14 8 21 16 15 18 -8 2 -4 13 10 28 15 17 23 21 27 12 2 -7 11 -19 19 -26 9 -10 12 -28 9 -52 -5 -38 -15 -59 -15 -31 0 9 -4 17 -10 17 -5 0 -10 5 -10 11 0 6 7 9 15 5 13 -5 13 -1 -1 27 -22 43 -28 47 -20 14 3 -15 3 -27 -1 -26 -20 3 -34 -2 -31 -12 2 -6 7 -9 11 -7 12 5 50 -65 49 -92 0 -29 14 -50 33 -50 27 0 73 50 79 86 10 48 -5 64 -51 57 -33 -6 -36 -4 -29 13 19 46 18 51 -18 68 -19 9 -38 21 -42 27 -4 8 -9 7 -15 -2 -5 -9 -10 -4 -15 17 -3 16 -12 38 -19 49 -14 23 1 68 68 205 17 36 33 68 35 73 2 4 -1 7 -6 7 -6 0 -15 -12 -20 -27 -6 -16 -11 -23 -11 -16 -1 7 10 38 24 69 29 66 29 65 10 58 -20 -8 -31 22 -15 41 23 28 37 17 37 -27 1 -24 -4 -51 -9 -61 -5 -10 -7 -21 -4 -24 4 -5 36 58 49 98 5 15 12 13 61 -10 51 -24 55 -28 50 -53 -8 -38 4 -35 21 6 11 27 22 35 51 40 20 4 34 9 32 12 -3 2 -28 0 -56 -6 -46 -8 -55 -7 -96 16 -25 14 -46 27 -46 29 0 15 21 55 29 55 6 0 8 -7 5 -15 -5 -11 1 -13 30 -8 25 4 36 2 36 -7 0 -7 7 -10 15 -6 18 7 45 -3 45 -16 0 -6 -7 -8 -14 -5 -10 4 -13 1 -10 -8 5 -13 27 -11 49 6 15 11 49 14 63 6 42 -27 -31 55 -223 249 -229 231 -247 251 -234 259 17 11 -17 28 -41 20 -16 -5 -19 -12 -14 -33 4 -15 10 -34 15 -42 7 -12 8 -10 9 8 0 33 18 27 28 -10 4 -17 14 -34 22 -36 13 -5 13 -3 1 11 -25 30 -1 18 29 -15 27 -29 28 -33 12 -42 -9 -5 -20 -13 -23 -18 -6 -9 -28 14 -56 58 -10 17 -11 16 -6 -5 4 -14 17 -37 30 -51 13 -15 30 -35 38 -46 8 -10 15 -14 15 -7 0 6 -4 15 -10 18 -16 10 -12 21 13 32 26 12 48 7 41 -11 -2 -6 7 -23 21 -36 14 -13 25 -19 25 -13 0 6 -7 16 -15 23 -8 7 -15 17 -15 23 0 6 11 0 25 -13 14 -13 24 -29 21 -36 -5 -14 21 -54 36 -54 7 0 6 6 -2 15 -7 8 -10 15 -7 15 6 0 49 -42 78 -76 9 -10 38 -39 63 -63 26 -23 44 -46 41 -50 -4 -3 -22 11 -42 32 -19 21 -37 36 -40 33 -10 -10 -33 16 -49 52 -8 19 -17 32 -21 28 -4 -3 -1 -12 5 -18 7 -7 12 -19 12 -28 -1 -13 -3 -12 -14 3 -7 9 -16 17 -20 17 -13 0 -104 97 -110 118 -4 12 -14 22 -21 22 -11 0 -6 -15 15 -52 16 -29 35 -53 42 -53 7 0 12 -8 10 -17 -2 -16 34 -45 51 -40 16 5 118 -68 111 -80 -4 -6 -3 -8 4 -5 15 10 42 -3 42 -20 0 -11 7 -14 21 -10 23 6 68 -27 55 -40 -4 -4 -11 -1 -15 6 -5 7 -25 15 -46 16 -20 1 -40 6 -43 11 -10 13 -119 86 -164 109 -21 11 -38 24 -38 30 0 17 -54 90 -70 93 -8 2 -17 7 -20 11 -3 5 -15 11 -27 15 -13 4 -23 14 -23 21 0 9 -6 12 -15 9 -9 -4 -15 0 -15 9 0 10 -7 13 -20 10 -16 -4 -20 1 -26 36 -9 58 -22 60 -18 4 2 -26 9 -50 15 -54 14 -8 2 -49 -14 -49 -31 1 -39 18 -33 66 7 57 1 66 -66 110 l-47 31 32 33 c18 19 24 28 15 21 -15 -11 -18 -11 -18 3 0 9 4 16 8 16 4 0 14 16 21 36 10 27 16 33 22 23 6 -10 9 -8 9 8 0 12 9 46 21 75 11 29 19 63 16 75 -2 13 -1 23 3 23 4 0 10 10 13 22 4 12 9 19 12 16 4 -3 2 -15 -3 -25 -14 -25 -26 -173 -14 -173 5 0 12 39 15 86 3 47 11 92 18 100 8 10 8 14 0 14 -15 0 -14 13 5 36 15 19 15 19 9 -2 -3 -12 -1 -32 4 -45 10 -24 10 -23 10 5 1 35 22 96 33 96 4 0 8 9 8 19 0 11 6 18 15 17 21 -3 85 -67 85 -85 0 -9 5 -23 11 -31 8 -11 9 -7 5 18 -4 20 -2 31 4 27 6 -3 10 -12 10 -20 0 -8 4 -17 10 -20 6 -3 7 1 4 12 -3 10 10 1 29 -19 19 -21 37 -38 41 -38 4 0 17 -10 27 -22 19 -22 20 -22 10 -2 -6 12 -27 38 -47 59 l-36 37 21 22 c12 12 18 26 14 29 -12 13 -43 7 -43 -7 0 -8 -4 -18 -10 -21 -14 -9 -50 13 -50 30 0 8 -6 15 -14 15 -7 0 -25 11 -40 25 -31 29 -39 30 -56 10z m-31 -90 c0 -5 -4 -2 -10 8 -6 10 -15 14 -22 10 -7 -4 -5 1 3 11 13 17 14 17 21 -1 4 -10 8 -22 8 -28z m-149 -290 c-6 -15 -13 -25 -16 -23 -2 3 1 17 7 32 16 34 23 27 9 -9z m-87 -66 c13 -9 0 -28 -27 -39 -17 -7 -18 -9 -3 -9 10 -1 15 -6 12 -11 -4 -6 -10 -8 -15 -5 -5 3 -11 1 -15 -5 -3 -5 -11 -10 -17 -10 -7 0 -6 6 2 15 7 8 8 15 4 15 -5 0 -15 -9 -22 -20 -7 -11 -17 -20 -23 -20 -8 0 -7 5 1 15 8 10 9 15 2 15 -6 0 -15 -8 -21 -17 -5 -10 -12 -15 -15 -13 -3 3 13 23 35 44 22 22 37 32 33 22 -5 -12 -2 -15 10 -10 9 3 17 10 17 15 3 20 5 25 13 39 9 12 10 12 14 0 3 -8 9 -18 15 -21z m82 -102 c51 -33 66 -60 44 -81 -9 -8 -10 -8 -5 2 5 8 -1 12 -21 13 -24 0 -25 1 -8 9 23 9 18 12 -49 29 -43 11 -53 6 -101 -48 l-22 -24 -36 22 c-20 12 -49 24 -63 27 -52 9 -56 20 -17 48 23 17 26 17 20 3 -10 -27 22 -22 163 23 39 13 42 12 95 -23z m-68 -53 c-3 -3 -12 -4 -19 -1 -8 3 -5 6 6 6 11 1 17 -2 13 -5z m53 -19 c7 -8 20 -15 29 -15 9 0 23 -5 31 -10 13 -9 13 -11 1 -19 -10 -7 -22 -3 -39 10 -30 23 -42 17 -18 -10 38 -42 8 -134 -49 -150 -33 -9 -29 -11 48 -31 51 -14 53 -16 33 -42 -16 -22 -36 -23 -36 -2 0 9 5 12 13 8 8 -5 8 -3 -2 9 -7 9 -17 14 -23 11 -5 -3 -14 -1 -21 4 -7 5 -25 12 -41 16 -15 4 -26 10 -22 13 10 10 -15 33 -35 33 -27 0 -38 49 -15 66 11 8 13 14 7 19 -19 11 -12 25 14 25 14 0 42 -7 62 -15 42 -18 46 -18 38 -5 -9 14 -73 40 -99 40 -20 0 -20 1 4 20 30 24 49 25 78 4 12 -8 22 -11 22 -5 0 5 -4 13 -10 16 -5 3 -10 10 -10 16 0 14 26 11 40 -6z m135 -123 c1 -12 -2 -19 -6 -16 -7 4 -57 -58 -51 -63 9 -10 -2 -19 -25 -18 -33 0 -41 20 -17 46 9 10 14 19 10 19 -4 0 -17 -10 -28 -22 -27 -32 -10 0 24 42 21 28 34 35 59 34 26 -1 33 -5 34 -22z m100 18 c3 -5 1 -10 -4 -10 -6 0 -11 5 -11 10 0 6 2 10 4 10 3 0 8 -4 11 -10z m-245 -154 c0 -3 -4 -8 -10 -11 -5 -3 -10 -1 -10 4 0 6 5 11 10 11 6 0 10 -2 10 -4z m-275 -45 c-15 -31 -35 -49 -35 -33 0 10 39 62 46 62 2 0 -2 -13 -11 -29z m245 -45 c0 -19 3 -42 7 -52 5 -13 3 -16 -10 -11 -10 4 -23 -3 -36 -18 -15 -21 -51 -35 -51 -21 0 15 24 66 31 66 5 0 9 9 9 20 0 11 5 20 11 20 7 0 9 -10 7 -25 -3 -14 -1 -25 3 -25 5 0 9 18 9 40 0 22 5 40 10 40 6 0 10 -15 10 -34z m555 24 c3 -6 -1 -7 -9 -4 -18 7 -21 14 -7 14 6 0 13 -4 16 -10z m-382 -75 c20 -14 37 -30 37 -35 0 -5 8 -6 17 -3 15 6 16 5 3 -9 -12 -12 -18 -13 -29 -4 -12 8 -13 8 -7 -1 4 -9 1 -13 -9 -13 -11 0 -15 5 -11 15 7 20 -3 47 -16 39 -5 -3 -4 -11 3 -20 9 -11 8 -14 -2 -14 -27 1 -51 28 -44 49 8 27 12 26 58 -4z m-202 -48 c-10 -9 -11 -8 -5 6 3 10 9 15 12 12 3 -3 0 -11 -7 -18z m305 -24 c-12 -12 -58 -15 -51 -3 3 5 18 10 32 10 15 0 23 -3 19 -7z m-639 -65 c-3 -8 -6 -5 -6 6 -1 11 2 17 5 13 3 -3 4 -12 1 -19z m303 -64 c0 -8 -5 -12 -10 -9 -6 4 -8 11 -5 16 9 14 15 11 15 -7z m-55 -14 c-3 -4 1 -10 9 -13 10 -4 12 1 9 16 -4 22 -4 22 11 2 14 -16 14 -20 2 -27 -8 -5 -27 -4 -41 2 -23 9 -25 13 -15 25 12 15 35 11 25 -5z m-190 -136 c16 -12 17 -16 6 -24 -14 -8 -60 16 -61 33 0 12 34 7 55 -9z m-23 -39 c27 -11 38 -11 47 -2 10 9 12 8 9 -7 -2 -13 -13 -19 -39 -22 -40 -3 -76 16 -65 34 9 15 7 15 48 -3z m163 -25 c3 -5 -3 -10 -14 -10 -12 0 -21 -7 -21 -15 0 -8 -4 -15 -10 -15 -14 0 -13 23 2 38 15 15 35 16 43 2z m45 -31 c0 -21 -1 -22 -24 -13 -12 5 -13 10 -5 25 12 23 29 16 29 -12z m-132 -10 c8 -12 10 -19 5 -16 -5 3 -9 -10 -9 -29 0 -19 -4 -34 -9 -34 -6 1 -9 18 -8 38 1 32 1 34 -7 12 -4 -14 -8 -37 -9 -52 -1 -16 -10 -37 -21 -48 -11 -11 -20 -31 -20 -44 0 -27 -30 -86 -44 -86 -4 0 -5 8 -1 18 16 38 15 55 -2 25 -16 -32 -33 -43 -33 -22 0 5 -4 8 -8 5 -4 -2 -13 -1 -20 3 -8 5 -1 28 24 79 19 40 39 72 44 72 4 0 11 12 15 27 3 14 13 36 21 47 14 20 14 20 14 -2 0 -12 4 -22 9 -22 4 0 6 11 3 25 -4 21 -1 25 19 25 14 0 30 -9 37 -21z m-178 -14 c-7 -9 -15 -13 -18 -10 -3 2 1 11 8 20 7 9 15 13 18 10 3 -2 -1 -11 -8 -20z m201 -18 c-10 -9 -11 -8 -5 6 3 10 9 15 12 12 3 -3 0 -11 -7 -18z m-158 -29 c-13 -12 -25 -19 -28 -16 -3 3 1 13 10 22 9 9 22 16 28 16 6 0 2 -10 -10 -22z m96 -97 c-6 -18 -14 -30 -17 -27 -2 3 1 19 8 36 16 40 23 33 9 -9z m757 -6 c-3 -8 -1 -15 4 -15 5 0 11 8 13 18 4 14 5 14 6 1 2 -33 -68 -113 -84 -97 -13 13 -12 57 2 62 9 4 11 1 7 -6 -4 -7 -3 -8 4 -4 6 4 9 13 6 21 -4 9 3 18 17 24 32 13 32 13 25 -4z"/> <path d="M778 1831 c2 -23 8 -44 13 -47 14 -8 11 50 -4 70 -11 15 -12 12 -9 -23z"/> <path d="M870 1768 c-12 -22 -12 -22 6 -6 10 10 15 20 12 24 -4 3 -12 -5 -18 -18z"/> <path d="M326 853 c-6 -14 -5 -15 5 -6 7 7 10 15 7 18 -3 3 -9 -2 -12 -12z"/> <path d="M1020 2488 c0 -8 7 -21 15 -28 19 -16 19 -1 0 24 -12 16 -15 17 -15 4z"/> <path d="M849 2446 c-2 -3 -16 -7 -29 -9 -42 -8 -60 -18 -60 -33 0 -25 -40 -95 -50 -89 -14 9 -12 -9 3 -24 6 -8 7 -11 1 -8 -14 8 -47 -27 -49 -52 -1 -11 -14 -35 -29 -55 -15 -20 -24 -41 -20 -48 4 -6 3 -8 -3 -5 -11 7 -58 -71 -49 -80 2 -3 9 5 16 16 24 46 93 130 131 161 42 33 48 54 7 26 -29 -21 -44 -21 -27 0 21 25 57 35 78 22 16 -10 17 -14 3 -40 -8 -16 -12 -32 -8 -35 3 -3 11 7 18 23 6 16 19 37 27 47 8 10 15 27 16 39 2 19 1 19 -16 -3 -10 -13 -21 -20 -25 -16 -4 4 17 33 47 65 73 75 95 109 35 52 -58 -55 -62 -59 -84 -89 -15 -19 -22 -22 -37 -14 -17 10 -17 11 2 17 14 4 24 20 30 44 9 38 41 55 35 18 -3 -17 -2 -18 12 -7 17 15 22 36 6 26 -18 -11 -11 8 12 32 12 13 19 23 16 23 -2 0 -7 -2 -9 -4z"/> <path d="M986 2370 c4 -19 7 -46 7 -60 -1 -18 9 -33 38 -54 21 -16 51 -48 66 -70 15 -23 28 -35 31 -28 2 7 -18 38 -45 68 -26 31 -51 61 -54 67 -16 29 -30 64 -33 80 -1 9 -6 20 -10 24 -5 4 -5 -8 0 -27z"/> <path d="M1065 2380 c-3 -5 -15 -10 -26 -10 -11 0 -19 -7 -19 -16 0 -13 3 -14 14 -5 15 13 23 6 46 -44 8 -16 23 -40 33 -52 11 -12 16 -26 13 -32 -5 -7 0 -8 11 -4 10 3 15 3 11 -2 -10 -10 19 -38 32 -30 6 4 2 18 -11 36 -12 17 -18 33 -15 36 3 4 6 2 6 -3 0 -5 21 -16 48 -23 26 -8 53 -19 61 -25 10 -8 9 -2 -3 22 -9 18 -15 39 -13 45 3 7 11 -3 20 -22 l15 -34 7 52 c5 35 3 56 -5 66 -22 26 -30 16 -12 -15 13 -22 14 -32 5 -41 -8 -8 -19 -1 -42 31 -35 48 -37 48 -16 -3 8 -20 15 -47 15 -59 -1 -21 -2 -21 -11 -5 -6 9 -15 15 -20 11 -5 -3 -8 0 -7 6 4 16 -55 50 -63 37 -9 -13 -63 69 -54 82 3 6 2 11 -4 11 -5 0 -13 -4 -16 -10z m125 -110 c0 -5 -7 -7 -15 -4 -8 4 -15 8 -15 10 0 2 7 4 15 4 8 0 15 -4 15 -10z"/> <path d="M1121 2359 c-1 -9 7 -23 17 -30 15 -12 16 -12 6 1 -6 8 -14 22 -17 30 -5 13 -6 12 -6 -1z"/> <path d="M2780 2360 c0 -5 5 -10 10 -10 6 0 10 5 10 10 0 6 -4 10 -10 10 -5 0 -10 -4 -10 -10z"/> <path d="M3030 2349 c0 -5 5 -7 10 -4 6 3 10 8 10 11 0 2 -4 4 -10 4 -5 0 -10 -5 -10 -11z"/> <path d="M1321 2303 c0 -5 4 -17 9 -28 8 -17 8 -16 7 8 -1 15 -5 27 -9 27 -4 0 -8 -3 -7 -7z"/> <path d="M2096 2282 c-3 -5 1 -9 9 -9 8 0 12 4 9 9 -3 4 -7 8 -9 8 -2 0 -6 -4 -9 -8z"/> <path d="M2385 2280 c-3 -5 -1 -10 4 -10 6 0 11 5 11 10 0 6 -2 10 -4 10 -3 0 -8 -4 -11 -10z"/> <path d="M940 2225 c0 -30 -4 -63 -9 -73 -5 -9 -14 -37 -21 -61 -6 -23 -14 -49 -17 -57 -3 -8 0 -14 5 -14 6 0 13 8 15 18 3 11 5 8 6 -9 0 -15 8 -40 16 -55 8 -16 15 -38 15 -49 1 -19 1 -19 12 -1 8 14 7 25 -5 45 -8 14 -16 46 -17 71 -3 80 -1 90 16 83 8 -3 13 -12 10 -20 -3 -8 -1 -11 5 -8 5 4 21 -1 34 -9 36 -24 31 -4 -7 28 -17 14 -29 26 -25 26 4 0 3 9 -3 19 -12 23 -3 51 16 51 8 0 14 -3 14 -8 0 -4 14 -13 30 -20 17 -8 35 -23 41 -34 12 -23 8 -21 -43 14 -16 11 -28 17 -28 13 0 -10 54 -54 68 -55 17 0 15 -20 -3 -20 -8 0 -15 -4 -15 -10 0 -5 4 -10 9 -10 6 0 13 5 16 10 3 6 15 10 26 10 23 0 25 13 4 34 -8 8 -15 19 -15 24 0 12 -89 112 -99 112 -4 0 -12 -12 -18 -27 l-11 -28 -1 27 c-1 15 -5 30 -11 33 -6 4 -10 -15 -10 -50z m70 0 c11 -13 10 -14 -4 -9 -9 3 -16 10 -16 15 0 13 6 11 20 -6z"/> <path d="M1375 2270 c3 -5 8 -10 11 -10 2 0 4 5 4 10 0 6 -5 10 -11 10 -5 0 -7 -4 -4 -10z"/> <path d="M2237 2248 c2 -5 10 -8 18 -8 8 0 16 3 18 8 3 4 -5 7 -18 7 -13 0 -21 -3 -18 -7z"/> <path d="M2186 2235 c4 -8 11 -15 16 -15 6 0 5 6 -2 15 -7 8 -14 15 -16 15 -2 0 -1 -7 2 -15z"/> <path d="M2780 2240 c-8 -5 -12 -12 -9 -15 4 -3 12 1 19 10 14 17 11 19 -10 5z"/> <path d="M730 2218 c-23 -26 -27 -46 -4 -28 16 14 38 50 30 50 -3 0 -14 -10 -26 -22z"/> <path d="M1831 2231 c-7 -5 -9 -11 -5 -14 5 -3 15 1 22 9 14 16 5 18 -17 5z"/> <path d="M2095 2230 c3 -5 8 -10 11 -10 2 0 4 5 4 10 0 6 -5 10 -11 10 -5 0 -7 -4 -4 -10z"/> <path d="M3057 2229 c7 -7 15 -10 18 -7 3 3 -2 9 -12 12 -14 6 -15 5 -6 -5z"/> <path d="M1315 2210 c7 -21 -10 -28 -18 -7 -4 9 -6 9 -6 0 -1 -6 4 -15 10 -19 7 -4 -1 -12 -21 -20 -41 -18 -55 -18 -74 1 -8 8 -17 11 -20 7 -3 -5 6 -15 19 -22 20 -11 33 -11 67 0 24 7 53 13 66 15 31 3 36 10 23 32 -9 16 -10 16 -11 -5 0 -13 -4 -20 -10 -17 -5 3 -10 17 -10 31 0 13 -5 24 -11 24 -6 0 -8 -9 -4 -20z"/> <path d="M2305 2220 c3 -5 10 -10 16 -10 5 0 9 5 9 10 0 6 -7 10 -16 10 -8 0 -12 -4 -9 -10z"/> <path d="M1788 2198 c5 -5 16 -8 23 -6 8 3 3 7 -10 11 -17 4 -21 3 -13 -5z"/> <path d="M1881 2194 c0 -11 3 -14 6 -6 3 7 2 16 -1 19 -3 4 -6 -2 -5 -13z"/> <path d="M1395 2190 c-3 -5 -1 -10 4 -10 6 0 11 5 11 10 0 6 -2 10 -4 10 -3 0 -8 -4 -11 -10z"/> <path d="M975 2180 c3 -5 8 -10 11 -10 2 0 4 5 4 10 0 6 -5 10 -11 10 -5 0 -7 -4 -4 -10z"/> <path d="M2160 2180 c0 -5 5 -10 10 -10 6 0 10 5 10 10 0 6 -4 10 -10 10 -5 0 -10 -4 -10 -10z"/> <path d="M2260 2170 c0 -5 5 -10 11 -10 5 0 7 5 4 10 -3 6 -8 10 -11 10 -2 0 -4 -4 -4 -10z"/> <path d="M1136 2151 c-10 -28 4 -44 29 -35 15 6 16 9 3 18 -8 6 -17 18 -20 26 -3 11 -7 9 -12 -9z"/> <path d="M1410 2160 c0 -13 38 -55 44 -49 2 2 -7 17 -20 32 -13 15 -24 23 -24 17z"/> <path d="M1450 2158 c0 -5 26 -36 59 -70 32 -35 85 -94 119 -133 69 -80 234 -253 206 -215 -11 14 -38 45 -61 69 -24 24 -43 48 -43 52 0 4 -28 36 -62 71 -35 35 -98 102 -140 148 -43 47 -78 82 -78 78z"/> <path d="M2020 2149 c0 -5 5 -7 10 -4 6 3 10 8 10 11 0 2 -4 4 -10 4 -5 0 -10 -5 -10 -11z"/> <path d="M2160 2154 c0 -3 17 -27 38 -53 21 -25 49 -62 62 -81 54 -79 271 -343 292 -356 6 -4 -4 14 -23 41 -19 26 -42 53 -51 59 -10 6 -18 15 -18 19 0 5 -6 14 -12 22 -30 31 -76 90 -76 95 1 3 -17 24 -40 47 -23 23 -42 47 -42 52 0 5 -4 11 -8 13 -4 2 -18 20 -31 41 l-23 37 27 0 c14 0 36 -5 48 -11 21 -10 21 -10 3 5 -11 9 -30 16 -42 16 -13 0 -28 8 -34 18 -9 15 -10 14 -5 -5 4 -13 2 -23 -3 -23 -12 0 -24 29 -17 41 4 5 -1 6 -9 3 -11 -4 -16 0 -16 10 0 9 -4 16 -10 16 -5 0 -10 -3 -10 -6z"/> <path d="M2520 2156 c0 -2 7 -6 15 -10 8 -3 15 -1 15 4 0 6 -7 10 -15 10 -8 0 -15 -2 -15 -4z"/> <path d="M2735 2140 c-3 -5 -1 -10 4 -10 6 0 11 5 11 10 0 6 -2 10 -4 10 -3 0 -8 -4 -11 -10z"/> <path d="M877 2098 c-14 -18 -24 -35 -21 -38 3 -3 12 4 19 15 8 11 19 26 26 33 6 7 9 16 6 18 -3 3 -16 -10 -30 -28z"/> <path d="M2300 2120 c0 -5 5 -10 11 -10 5 0 7 5 4 10 -3 6 -8 10 -11 10 -2 0 -4 -4 -4 -10z"/> <path d="M2678 2123 c7 -3 16 -2 19 1 4 3 -2 6 -13 5 -11 0 -14 -3 -6 -6z"/> <path d="M2565 2110 c3 -5 8 -10 11 -10 2 0 4 5 4 10 0 6 -5 10 -11 10 -5 0 -7 -4 -4 -10z"/> <path d="M3619 2103 c-13 -16 -12 -17 4 -4 9 7 17 15 17 17 0 8 -8 3 -21 -13z"/> <path d="M2694 2096 c1 -8 5 -18 8 -22 4 -3 5 1 4 10 -1 8 -5 18 -8 22 -4 3 -5 -1 -4 -10z"/> <path d="M2928 2103 c7 -3 16 -2 19 1 4 3 -2 6 -13 5 -11 0 -14 -3 -6 -6z"/> <path d="M1486 2062 c22 -22 64 -68 94 -102 30 -34 85 -94 123 -133 37 -39 67 -74 67 -78 0 -4 7 -10 16 -13 22 -9 9 10 -57 79 -31 33 -101 109 -155 169 -55 60 -105 111 -113 114 -7 2 4 -14 25 -36z"/> <path d="M2408 2093 c7 -3 16 -2 19 1 4 3 -2 6 -13 5 -11 0 -14 -3 -6 -6z"/> <path d="M2780 2090 c0 -5 5 -10 10 -10 6 0 10 5 10 10 0 6 -4 10 -10 10 -5 0 -10 -4 -10 -10z"/> <path d="M819 2064 c-13 -15 -18 -25 -10 -22 13 4 49 48 39 48 -2 0 -15 -12 -29 -26z"/> <path d="M2560 2080 c0 -5 5 -10 11 -10 5 0 7 5 4 10 -3 6 -8 10 -11 10 -2 0 -4 -4 -4 -10z"/> <path d="M2426 2064 c-5 -13 -4 -14 7 -6 7 6 24 9 38 6 21 -4 22 -3 4 5 -30 14 -42 13 -49 -5z"/> <path d="M2726 2072 c-3 -5 1 -9 9 -9 8 0 15 4 15 9 0 4 -4 8 -9 8 -6 0 -12 -4 -15 -8z"/> <path d="M3968 2073 c7 -3 16 -2 19 1 4 3 -2 6 -13 5 -11 0 -14 -3 -6 -6z"/> <path d="M2860 2060 c0 -6 7 -10 15 -10 8 0 15 2 15 4 0 2 -7 6 -15 10 -8 3 -15 1 -15 -4z"/> <path d="M2560 2047 c0 -10 8 -17 18 -17 9 0 13 4 7 8 -5 4 -13 11 -17 16 -5 5 -8 2 -8 -7z"/> <path d="M3006 2052 c-3 -5 1 -9 9 -9 8 0 12 4 9 9 -3 4 -7 8 -9 8 -2 0 -6 -4 -9 -8z"/> <path d="M846 2023 c9 -36 10 -38 16 -16 3 10 -1 24 -9 32 -12 10 -13 8 -7 -16z"/> <path d="M2795 2040 c3 -5 8 -10 11 -10 2 0 4 5 4 10 0 6 -5 10 -11 10 -5 0 -7 -4 -4 -10z"/> <path d="M2721 2032 c-2 -22 19 -52 34 -52 8 0 15 4 15 10 0 5 -6 7 -14 4 -9 -3 -18 5 -24 23 -6 15 -11 22 -11 15z"/> <path d="M3790 2029 c0 -5 5 -7 10 -4 6 3 10 8 10 11 0 2 -4 4 -10 4 -5 0 -10 -5 -10 -11z"/> <path d="M2848 2023 c7 -3 16 -2 19 1 4 3 -2 6 -13 5 -11 0 -14 -3 -6 -6z"/> <path d="M2645 2010 c3 -5 8 -10 11 -10 2 0 4 5 4 10 0 6 -5 10 -11 10 -5 0 -7 -4 -4 -10z"/> <path d="M2790 2010 c0 -5 5 -10 11 -10 5 0 7 5 4 10 -3 6 -8 10 -11 10 -2 0 -4 -4 -4 -10z"/> <path d="M3225 2010 c-3 -5 -1 -10 4 -10 6 0 11 5 11 10 0 6 -2 10 -4 10 -3 0 -8 -4 -11 -10z"/> <path d="M2830 1986 c0 -2 7 -9 15 -16 13 -11 14 -10 9 4 -5 14 -24 23 -24 12z"/> <path d="M3195 1979 c-4 -6 -5 -12 -2 -15 2 -3 7 2 10 11 7 17 1 20 -8 4z"/> <path d="M3026 1955 c-3 -9 0 -15 9 -15 9 0 12 6 9 15 -4 8 -7 15 -9 15 -2 0 -5 -7 -9 -15z"/> <path d="M1050 1936 c0 -9 5 -16 10 -16 6 0 10 4 10 9 0 6 -4 13 -10 16 -5 3 -10 -1 -10 -9z"/> <path d="M2986 1942 c-3 -5 1 -9 9 -9 8 0 15 4 15 9 0 4 -4 8 -9 8 -6 0 -12 -4 -15 -8z"/> <path d="M3088 1943 c7 -3 16 -2 19 1 4 3 -2 6 -13 5 -11 0 -14 -3 -6 -6z"/> <path d="M3178 1943 c7 -3 16 -2 19 1 4 3 -2 6 -13 5 -11 0 -14 -3 -6 -6z"/> <path d="M3488 1943 c7 -3 16 -2 19 1 4 3 -2 6 -13 5 -11 0 -14 -3 -6 -6z"/> <path d="M3100 1916 c0 -2 8 -10 18 -17 15 -13 16 -12 3 4 -13 16 -21 21 -21 13z"/> <path d="M3244 1908 c-4 -6 -3 -8 4 -4 5 3 13 0 15 -6 3 -8 6 -6 6 5 1 19 -14 23 -25 5z"/> <path d="M3370 1910 c0 -5 5 -10 11 -10 5 0 7 5 4 10 -3 6 -8 10 -11 10 -2 0 -4 -4 -4 -10z"/> <path d="M3470 1891 c0 -17 2 -31 4 -31 8 0 13 51 5 56 -5 3 -9 -9 -9 -25z"/> <path d="M4145 1910 c3 -5 8 -10 11 -10 2 0 4 5 4 10 0 6 -5 10 -11 10 -5 0 -7 -4 -4 -10z"/> <path d="M3318 1883 c7 -3 16 -2 19 1 4 3 -2 6 -13 5 -11 0 -14 -3 -6 -6z"/> <path d="M3357 1883 c-4 -3 -7 -13 -7 -22 1 -13 3 -13 11 2 11 19 8 33 -4 20z"/> <path d="M3505 1870 c3 -5 11 -10 16 -10 6 0 7 5 4 10 -3 6 -11 10 -16 10 -6 0 -7 -4 -4 -10z"/> <path d="M3845 1861 c-3 -5 -1 -12 5 -16 5 -3 10 1 10 9 0 18 -6 21 -15 7z"/> <path d="M3902 1859 c2 -7 10 -15 17 -17 8 -3 12 1 9 9 -2 7 -10 15 -17 17 -8 3 -12 -1 -9 -9z"/> <path d="M3646 1845 c-3 -8 5 -15 20 -18 29 -5 29 -6 5 15 -15 13 -21 14 -25 3z"/> <path d="M3940 1834 c-13 -16 -13 -17 1 -12 9 4 21 2 27 -4 6 -6 12 -6 16 1 4 6 1 11 -8 11 -8 0 -16 5 -18 11 -2 7 -10 4 -18 -7z"/> <path d="M4007 1821 c-4 -17 -3 -21 5 -13 5 5 8 16 6 23 -3 8 -7 3 -11 -10z"/> <path d="M4105 1830 c-3 -5 -2 -10 4 -10 5 0 13 5 16 10 3 6 2 10 -4 10 -5 0 -13 -4 -16 -10z"/> <path d="M4060 1819 c0 -5 5 -7 10 -4 6 3 10 8 10 11 0 2 -4 4 -10 4 -5 0 -10 -5 -10 -11z"/> <path d="M3830 1805 c0 -8 5 -15 10 -15 6 0 10 7 10 15 0 8 -4 15 -10 15 -5 0 -10 -7 -10 -15z"/> <path d="M3960 1780 c-23 -7 -23 -8 -3 -9 12 -1 25 4 28 9 3 6 5 10 3 9 -2 -1 -14 -5 -28 -9z"/> <path d="M4055 1780 c-3 -5 -1 -10 4 -10 6 0 11 5 11 10 0 6 -2 10 -4 10 -3 0 -8 -4 -11 -10z"/> <path d="M4187 1780 c8 -9 9 -19 2 -32 -5 -10 -7 -18 -5 -18 3 0 10 9 15 19 8 14 7 22 -7 32 -14 11 -15 11 -5 -1z"/> <path d="M4120 1770 c0 -5 7 -10 16 -10 8 0 12 5 9 10 -3 6 -10 10 -16 10 -5 0 -9 -4 -9 -10z"/> <path d="M4227 1755 c-4 -8 -2 -17 3 -20 6 -4 10 3 10 14 0 25 -6 27 -13 6z"/> <path d="M957 1733 c-12 -12 -7 -19 15 -20 13 -1 18 1 13 5 -6 4 -13 11 -16 15 -3 4 -9 4 -12 0z"/> <path d="M1864 1695 c8 -8 18 -15 22 -15 3 0 1 7 -6 15 -7 8 -17 15 -22 15 -5 0 -3 -7 6 -15z"/> <path d="M910 1620 c0 -5 5 -10 11 -10 5 0 7 5 4 10 -3 6 -8 10 -11 10 -2 0 -4 -4 -4 -10z"/> <path d="M622 1595 c0 -16 2 -22 5 -12 2 9 2 23 0 30 -3 6 -5 -1 -5 -18z"/> <path d="M978 1545 c-4 -17 -1 -25 8 -25 8 0 14 9 14 19 0 30 -17 34 -22 6z"/> <path d="M1460 1496 c0 -33 2 -37 15 -26 8 7 15 8 15 2 0 -5 -9 -16 -19 -23 -11 -8 -22 -25 -26 -39 -8 -24 -7 -24 18 -8 32 22 63 4 54 -31 -4 -17 -2 -21 10 -17 8 3 17 6 19 6 12 0 0 25 -25 53 -17 17 -28 35 -25 39 9 14 21 9 32 -14 10 -21 11 -22 11 -3 0 11 -17 38 -39 59 l-40 40 0 -38z"/> <path d="M1512 1514 c14 -14 21 -15 30 -6 8 8 9 12 1 12 -6 0 -20 3 -30 6 -17 7 -17 6 -1 -12z"/> <path d="M1020 1505 c7 -9 15 -13 17 -11 7 7 -7 26 -19 26 -6 0 -6 -6 2 -15z"/> <path d="M1557 1469 c7 -7 15 -10 18 -7 3 3 -2 9 -12 12 -14 6 -15 5 -6 -5z"/> <path d="M526 1447 c-5 -15 -6 -31 -2 -34 11 -11 18 5 14 34 l-4 28 -8 -28z"/> <path d="M1557 1415 c5 -35 5 -43 1 -70 -2 -15 3 -21 21 -23 13 -2 21 0 19 5 -2 4 6 18 19 30 17 16 23 18 23 8 0 -8 4 -15 9 -15 13 0 -14 -53 -39 -75 -24 -22 -54 -13 -47 15 3 11 1 20 -4 20 -16 0 -10 -50 7 -57 41 -16 107 56 102 112 -3 27 -6 30 -41 32 -26 1 -43 8 -56 24 l-19 23 5 -29z m63 -45 c0 -5 -5 -10 -11 -10 -5 0 -7 5 -4 10 3 6 8 10 11 10 2 0 4 -4 4 -10z"/> <path d="M696 1421 c-4 -5 0 -12 6 -15 9 -3 8 -8 -4 -16 -24 -15 -23 -35 2 -37 11 -1 20 2 20 6 0 4 6 16 14 26 12 17 15 15 34 -28 12 -26 23 -47 26 -47 8 0 -37 104 -49 112 -14 11 -43 10 -49 -1z"/> <path d="M297 1343 c-23 -22 -2 -42 83 -81 50 -22 90 -37 90 -33 0 5 -38 26 -84 46 -68 31 -82 41 -79 56 5 20 1 24 -10 12z"/> <path d="M913 1303 c9 -2 23 -2 30 0 6 3 -1 5 -18 5 -16 0 -22 -2 -12 -5z"/> <path d="M700 1207 c0 -2 9 -25 21 -51 11 -25 17 -51 13 -58 -5 -7 -3 -8 6 -3 9 5 10 2 5 -14 -5 -16 -3 -20 10 -15 17 7 16 15 -15 94 -9 24 -22 46 -29 48 -6 2 -11 2 -11 -1z"/> <path d="M941 1144 c0 -11 3 -14 6 -6 3 7 2 16 -1 19 -3 4 -6 -2 -5 -13z"/> <path d="M660 1145 c0 -2 15 -12 33 -20 l32 -16 -25 20 c-24 20 -40 26 -40 16z"/> <path d="M570 1024 c0 -15 27 -50 34 -43 4 3 -2 17 -13 30 -11 13 -20 19 -21 13z"/> <path d="M541 974 c0 -11 3 -14 6 -6 3 7 2 16 -1 19 -3 4 -6 -2 -5 -13z"/> <path d="M676 955 c4 -16 9 -33 11 -38 7 -12 23 3 22 21 0 14 -2 13 -9 -3 -9 -20 -9 -20 -9 0 -1 11 -6 27 -11 35 -8 11 -9 7 -4 -15z"/> <path d="M880 918 c-11 -12 -20 -25 -20 -30 0 -4 -21 -52 -46 -106 -43 -91 -74 -125 -74 -80 0 10 -4 18 -8 18 -12 0 -9 -43 3 -52 16 -12 -14 -9 -37 3 -14 7 -23 8 -30 1 -12 -12 74 -28 91 -18 5 4 12 2 16 -4 3 -5 15 -10 26 -10 12 0 17 5 14 10 -4 6 0 22 9 35 18 27 22 70 6 60 -5 -3 -10 -16 -10 -28 -1 -24 -26 -64 -36 -55 -3 3 -1 14 4 25 59 117 80 162 86 186 6 25 8 26 22 12 8 -8 12 -20 9 -25 -4 -7 3 -8 22 -4 l28 7 -25 -28 -25 -28 32 17 c40 20 49 20 33 1 -7 -8 -18 -15 -26 -15 -7 0 -18 -9 -24 -19 -12 -24 10 -23 38 2 10 9 24 17 30 17 27 0 9 31 -33 56 -46 26 -55 39 -33 46 13 5 2 28 -12 28 -5 0 -18 -10 -30 -22z"/> <path d="M835 920 c-3 -5 -4 -10 0 -10 3 0 -2 -16 -10 -37 -23 -54 -10 -52 14 2 12 26 21 49 21 51 0 8 -19 3 -25 -6z"/> <path d="M802 890 c0 -19 2 -27 5 -17 2 9 2 25 0 35 -3 9 -5 1 -5 -18z"/> <path d="M536 901 c-4 -5 -3 -23 0 -38 l7 -28 8 30 c8 29 -3 56 -15 36z"/> <path d="M484 852 c4 -43 11 -60 21 -51 2 3 -3 25 -11 49 l-14 45 4 -43z"/> <path d="M742 835 c-1 -16 1 -54 5 -83 l6 -53 22 38 c13 21 26 49 29 63 7 24 6 24 -8 6 -9 -11 -16 -28 -16 -38 0 -10 -5 -18 -11 -18 -5 0 -7 5 -4 10 4 6 2 16 -3 23 -6 7 -12 28 -15 47 -4 33 -4 33 -5 5z"/> <path d="M604 809 c3 -20 9 -46 13 -56 7 -17 6 -17 -17 -2 -17 11 -27 29 -31 55 l-5 39 -14 -28 c-9 -19 -10 -31 -4 -35 6 -4 13 -14 17 -24 3 -9 19 -19 36 -23 17 -4 31 -10 31 -14 0 -6 17 -14 85 -40 6 -2 4 2 -2 10 -7 7 -14 27 -14 44 l-1 30 -8 -30 c-6 -25 -8 -27 -15 -12 -4 9 -4 28 -1 42 4 14 2 25 -4 25 -9 0 -14 -17 -13 -47 1 -7 -3 -13 -8 -13 -5 0 -9 1 -9 3 0 1 -7 24 -15 50 -8 26 -10 45 -5 42 6 -4 10 -14 10 -23 0 -9 5 -24 11 -32 8 -12 9 -11 6 5 -3 11 -8 32 -11 46 -3 15 -12 26 -22 26 -13 0 -15 -7 -10 -38z"/> <path d="M876 818 c-2 -7 -8 -28 -14 -45 -6 -19 -6 -33 -1 -33 5 0 9 7 9 15 0 8 5 15 11 15 5 0 7 4 4 10 -3 5 -1 19 5 30 7 14 8 20 0 20 -6 0 -12 -6 -14 -12z"/> <path d="M970 790 c-8 -5 -11 -10 -6 -10 5 0 3 -7 -4 -15 -7 -8 -8 -15 -3 -15 5 0 15 11 21 25 13 28 13 28 -8 15z"/> <path d="M924 735 c-1 -14 -9 -36 -18 -50 -9 -14 -16 -27 -16 -30 1 -8 -27 -35 -35 -35 -4 0 -5 16 -3 35 2 19 3 35 1 35 -5 0 -35 -62 -31 -65 2 -1 17 -7 33 -14 26 -10 21 -11 -38 -7 -38 2 -74 9 -80 15 -13 13 -27 14 -27 3 0 -14 93 -42 138 -42 42 0 43 1 68 55 14 30 22 60 18 66 -4 7 -3 9 3 6 6 -4 13 3 16 14 3 12 3 18 0 15 -3 -3 -11 1 -17 9 -9 13 -11 11 -12 -10z"/> <path d="M466 711 c5 -5 20 -12 34 -15 24 -7 24 -6 6 8 -21 17 -57 23 -40 7z"/> <path d="M558 673 c6 -2 18 -2 25 0 6 3 1 5 -13 5 -14 0 -19 -2 -12 -5z"/> <path d="M613 653 c9 -2 17 -8 17 -13 0 -5 7 -7 16 -3 13 5 13 7 2 14 -7 5 -22 8 -33 8 -17 -1 -17 -2 -2 -6z"/> </g> </svg> 