 <svg  version="1.0" xmlns="http://www.w3.org/2000/svg"  width="478.000000pt" height="319.000000pt" viewBox="0 0 478.000000 319.000000"  preserveAspectRatio="xMidYMid meet">  <g transform="translate(0.000000,319.000000) scale(0.100000,-0.100000)" fill="#00ffff" stroke="none"> <path d="M2245 2919 c-22 -5 -73 -14 -113 -19 -40 -6 -84 -15 -98 -20 -14 -6 -41 -10 -60 -10 l-34 0 0 -49 c0 -28 5 -53 10 -56 6 -3 10 0 10 7 0 8 4 7 11 -4 12 -22 0 -98 -16 -98 -13 0 -45 -42 -45 -60 0 -5 5 -10 10 -10 6 0 10 9 10 19 0 12 11 25 27 33 26 12 30 11 56 -19 16 -18 26 -37 22 -43 -3 -5 -1 -10 5 -10 7 0 10 -7 6 -15 -3 -8 -1 -15 5 -15 17 0 -2 73 -25 92 -18 15 -19 19 -6 28 12 8 11 10 -7 10 -13 0 -23 5 -23 11 0 6 7 8 16 5 15 -6 15 -4 3 11 -13 15 -12 16 8 11 20 -5 21 -4 12 13 -5 10 -14 19 -19 19 -14 0 -12 18 3 23 6 2 4 3 -5 2 -9 -2 -19 2 -21 9 -7 18 4 36 21 36 10 0 13 3 7 8 -22 16 -15 33 12 29 15 -2 48 3 73 10 25 8 56 11 68 8 13 -3 30 -1 38 6 8 6 14 8 14 5 0 -4 9 -2 19 4 14 7 21 6 24 -3 4 -9 6 -9 6 1 1 15 51 16 51 1 0 -5 -4 -8 -8 -5 -5 3 -9 -1 -9 -8 0 -8 5 -12 11 -10 6 2 26 -11 44 -31 l33 -35 -40 -6 c-22 -4 -39 -10 -36 -14 2 -4 29 -2 60 3 62 12 76 6 52 -21 -11 -12 -16 -32 -14 -56 2 -42 -6 -47 -85 -50 -21 0 -38 -5 -38 -11 0 -9 -62 -47 -137 -83 -18 -9 -33 -20 -33 -25 0 -4 5 -5 10 -2 17 11 11 -7 -7 -21 -10 -7 -15 -16 -11 -20 6 -6 92 55 108 77 12 16 98 57 130 62 19 3 43 8 53 12 13 6 17 2 17 -19 0 -26 -13 -35 -25 -16 -10 16 -25 12 -25 -6 0 -10 6 -14 15 -10 17 6 29 -27 23 -65 -3 -24 -64 -73 -79 -63 -18 10 -8 22 23 28 17 3 29 8 26 11 -2 3 -20 0 -39 -6 -64 -20 -249 -55 -249 -47 0 4 -5 8 -11 8 -6 0 -9 -6 -6 -12 4 -13 -50 -98 -62 -98 -4 0 -15 10 -25 21 -13 16 -20 18 -26 9 -5 -7 -17 -10 -31 -5 -16 4 -20 3 -11 -3 11 -7 9 -11 -8 -15 -17 -4 -20 -2 -15 11 5 14 4 14 -12 0 -10 -8 -26 -14 -35 -13 -10 2 -18 -1 -18 -6 0 -5 -7 -9 -16 -9 -9 0 -29 -11 -46 -25 -16 -14 -37 -25 -46 -25 -11 0 -13 3 -6 8 9 5 8 11 -2 20 -11 10 -14 10 -14 0 0 -9 -3 -9 -10 2 -5 8 -10 30 -10 49 0 30 -2 33 -26 28 -22 -4 -25 -2 -20 18 5 20 3 22 -15 18 -18 -5 -20 -3 -14 17 4 14 3 25 -5 30 -7 4 -9 13 -6 19 10 16 26 4 26 -19 0 -10 6 -20 13 -22 40 -15 50 36 16 83 -18 26 -49 43 -34 19 3 -5 -5 -21 -18 -34 -23 -23 -24 -28 -15 -71 8 -37 13 -45 26 -40 14 5 15 4 5 -6 -16 -16 -17 -33 -3 -24 7 4 9 -3 4 -22 -6 -27 -6 -27 9 -8 14 19 15 18 35 -15 l21 -33 -31 -44 c-17 -24 -35 -43 -40 -43 -11 0 -10 38 2 45 6 3 10 17 10 31 0 20 -4 24 -17 20 -17 -5 -121 -26 -130 -26 -2 0 -2 -4 2 -9 3 -6 15 -8 28 -5 12 3 40 8 61 11 63 10 34 -12 -36 -27 -34 -8 -56 -16 -49 -18 7 -2 33 1 57 8 48 14 72 7 33 -9 -16 -7 -19 -10 -7 -10 9 -1 20 -6 24 -12 12 -19 -20 -37 -71 -40 l-50 -3 -11 64 c-14 82 -43 182 -57 195 -7 7 -8 5 -4 -7 15 -43 28 -101 23 -105 -8 -8 -56 45 -56 62 0 8 4 15 9 15 5 0 9 11 9 25 0 21 -3 23 -15 14 -9 -9 -11 -14 -3 -19 7 -5 6 -11 -5 -20 -12 -10 -15 -10 -15 1 0 8 -9 31 -20 51 -14 27 -17 43 -11 60 8 21 10 22 16 4 5 -10 12 -32 16 -50 8 -29 8 -29 4 7 -3 31 -1 38 10 33 9 -3 15 0 15 8 0 15 155 50 173 39 7 -4 8 0 2 13 -4 10 -10 29 -13 42 -2 13 -10 21 -16 19 -12 -5 -12 -11 -1 -39 5 -13 -3 -18 -45 -27 -28 -6 -59 -11 -70 -11 -10 0 -22 -4 -25 -10 -10 -16 -45 -12 -45 6 0 11 6 14 18 10 15 -5 15 -5 1 7 -9 7 -20 27 -23 45 -6 26 -4 32 9 32 9 0 14 4 10 9 -3 6 11 15 32 20 51 14 63 14 63 -4 0 -9 6 -12 17 -8 12 5 15 2 10 -10 -4 -11 0 -15 14 -14 23 2 26 22 4 31 -8 3 -15 12 -15 21 0 19 -27 19 -98 -1 -78 -23 -82 -26 -69 -75 7 -31 7 -43 -2 -49 -7 -4 -12 -10 -12 -14 4 -28 -1 -34 -21 -28 -20 5 -21 3 -11 -10 7 -8 31 -49 52 -91 22 -43 53 -91 70 -108 17 -17 31 -36 31 -44 0 -7 12 -38 26 -69 19 -41 29 -54 38 -47 20 16 71 18 68 2 -3 -16 17 -33 30 -25 4 3 8 16 8 30 0 15 6 24 15 24 8 0 15 6 15 13 1 6 20 33 43 58 35 38 45 44 55 32 7 -7 11 -17 7 -22 -3 -5 1 -12 7 -15 7 -3 3 -3 -8 -1 -14 4 -24 0 -28 -10 -3 -9 -2 -13 4 -10 20 12 9 -14 -11 -29 -21 -14 -21 -46 0 -46 6 0 8 6 5 14 -3 8 3 16 15 19 13 3 21 13 21 26 0 12 6 21 14 21 8 0 17 13 21 29 8 35 39 66 60 58 8 -4 15 -3 15 2 0 5 25 11 56 15 31 3 64 11 75 16 14 8 21 6 29 -11 10 -17 8 -25 -9 -43 -12 -13 -19 -30 -16 -38 5 -11 -6 -23 -34 -39 -46 -25 -49 -36 -23 -70 11 -13 63 -89 117 -169 54 -80 103 -151 110 -158 9 -10 33 0 118 52 68 42 113 64 124 60 13 -4 15 -3 5 4 -10 7 18 28 105 78 65 38 124 68 130 68 7 -1 10 2 8 7 -3 4 9 15 26 24 23 12 34 14 43 5 8 -8 7 -13 -3 -20 -20 -12 3 -40 33 -41 11 0 15 -3 9 -6 -22 -8 -14 -25 10 -19 12 3 16 3 10 0 -20 -9 -15 -24 5 -17 15 6 16 5 2 -12 -14 -17 -13 -17 10 -10 23 7 24 7 10 -10 -14 -17 -13 -18 3 -12 9 3 17 2 17 -3 0 -5 -9 -11 -19 -15 -23 -7 -49 -35 -33 -35 6 0 17 6 24 13 18 18 48 28 48 17 0 -6 -4 -10 -10 -10 -5 0 -10 -4 -10 -9 0 -5 10 -7 23 -5 15 4 10 -2 -15 -18 -21 -13 -38 -26 -38 -30 0 -4 15 1 33 12 39 24 54 26 36 4 -12 -15 -11 -16 11 -9 23 7 24 7 10 -10 -14 -17 -13 -18 3 -12 15 6 17 3 11 -15 -6 -21 -5 -22 11 -8 16 13 18 13 13 0 -4 -13 -33 -34 -85 -61 -13 -7 -23 -16 -23 -21 0 -10 1 -9 69 34 50 31 70 36 50 12 -12 -15 -11 -16 11 -10 24 7 24 7 5 -9 -11 -9 -29 -22 -40 -29 -11 -8 -17 -17 -14 -20 3 -3 14 3 25 13 12 10 31 22 45 26 24 7 24 7 4 -12 -11 -10 -28 -22 -37 -26 -10 -3 -18 -11 -18 -17 0 -6 18 1 40 15 22 14 40 21 40 15 0 -6 -16 -20 -35 -32 -20 -11 -34 -23 -31 -25 3 -3 21 5 41 17 46 29 57 20 13 -11 -18 -13 -35 -26 -38 -29 -3 -3 -16 -7 -30 -8 -21 -4 -22 -2 -11 12 12 14 12 16 -3 10 -19 -7 -20 -16 -4 -32 9 -9 8 -12 -4 -12 -9 0 -23 -6 -30 -14 -8 -7 -24 -17 -36 -20 -12 -4 -22 -12 -22 -17 0 -5 -6 -9 -13 -9 -12 0 -25 -9 -74 -49 -6 -6 -23 -13 -37 -17 -14 -3 -23 -10 -20 -15 3 -5 -2 -9 -10 -9 -8 0 -21 -6 -28 -14 -8 -7 -24 -17 -36 -20 -12 -4 -22 -12 -22 -17 0 -6 -4 -8 -8 -5 -5 3 -18 -3 -29 -13 -23 -22 -63 -36 -63 -23 0 5 16 17 35 26 19 9 35 22 35 27 0 6 -16 1 -36 -11 -19 -12 -38 -20 -41 -16 -4 3 -1 6 5 6 7 0 12 5 12 11 0 6 -9 8 -22 4 -21 -6 -20 -4 6 19 16 14 33 26 38 26 4 0 8 5 8 10 0 6 -21 -1 -47 -16 -46 -27 -47 -27 -28 -5 l20 24 -22 -7 c-14 -5 -23 -3 -23 3 0 6 5 11 10 11 6 0 10 5 10 12 0 9 -3 9 -12 0 -14 -14 -28 -16 -28 -4 0 5 16 17 35 28 19 10 35 22 35 27 0 5 -16 -1 -36 -13 -33 -21 -64 -20 -34 1 11 8 8 8 -10 3 -21 -6 -23 -5 -12 8 19 23 5 50 -22 42 -19 -6 -20 -5 -6 11 14 17 13 17 -10 11 -25 -7 -25 -7 -5 10 19 16 19 16 -10 10 -27 -6 -28 -5 -12 7 23 19 21 26 -5 21 -16 -4 -11 2 14 18 48 29 50 44 3 16 -35 -20 -65 -17 -35 3 11 8 10 9 -7 4 -29 -8 -30 1 -2 16 16 8 23 8 28 0 5 -8 13 -6 27 5 18 14 18 15 -6 9 -24 -6 -24 -5 -6 9 23 18 36 20 36 6 0 -5 7 -7 15 -4 8 4 15 10 15 15 0 4 -8 5 -17 2 -16 -6 -17 -5 -3 12 14 17 13 17 -10 10 -22 -7 -23 -6 -11 9 14 17 5 21 -18 7 -9 -6 -10 -11 -2 -15 16 -10 14 -26 -3 -26 -8 0 -22 -7 -30 -16 -9 -8 -16 -12 -16 -8 0 3 -7 1 -15 -6 -9 -8 -15 -8 -15 -2 0 6 6 12 13 15 6 2 9 8 5 12 -4 4 -14 2 -23 -5 -8 -7 -15 -8 -15 -3 0 5 57 43 126 84 69 41 137 82 152 91 15 9 46 27 70 40 45 23 58 35 49 45 -3 3 -57 -25 -119 -63 -178 -106 -208 -124 -213 -124 -2 0 -25 -13 -50 -29 l-45 -28 56 -84 c31 -46 73 -109 94 -139 21 -30 59 -89 86 -130 26 -41 51 -77 55 -80 6 -5 47 -65 312 -465 95 -144 174 -261 336 -498 29 -42 54 -77 56 -77 2 0 133 87 292 194 160 106 298 198 308 203 16 9 -17 58 -296 428 -173 229 -324 431 -336 448 -11 18 -35 48 -51 67 -28 33 -31 34 -48 19 -18 -16 -46 -33 -124 -75 -19 -11 -40 -24 -47 -30 -13 -13 -247 -161 -285 -181 -13 -7 -27 -18 -33 -25 -13 -18 -60 -17 -60 1 0 7 41 38 90 69 50 30 109 66 132 81 157 98 235 141 243 136 6 -4 9 -1 8 6 -2 7 14 22 34 33 21 12 38 28 38 36 0 8 -15 30 -34 50 -18 19 -86 105 -151 190 -64 85 -162 215 -218 288 -56 73 -122 161 -146 195 l-43 62 6 80 c3 44 6 104 6 133 0 39 4 52 15 52 26 0 16 29 -12 36 -28 7 -103 75 -103 93 0 11 -33 32 -47 30 -4 -1 -26 -5 -48 -10z m-255 -85 c0 -8 -5 -12 -10 -9 -6 4 -8 11 -5 16 9 14 15 11 15 -7z m-346 -333 c-1 -14 -2 -28 -4 -31 -3 -7 -18 41 -19 63 -1 14 2 15 12 6 7 -7 12 -24 11 -38z m769 -28 c-20 -7 -15 -23 5 -16 15 6 15 5 3 -10 -14 -18 -47 -24 -36 -7 3 6 2 10 -4 10 -5 0 -13 -4 -16 -10 -3 -5 -1 -10 5 -10 6 0 8 -4 5 -10 -9 -14 5 -12 35 5 27 16 54 20 31 6 -12 -8 -12 -12 -2 -25 7 -8 18 -14 24 -12 7 1 9 1 5 -1 -15 -9 -8 -22 9 -16 11 4 14 3 9 -5 -4 -8 0 -12 11 -13 10 0 13 -3 6 -6 -7 -2 -13 -9 -13 -14 0 -4 7 -5 17 -2 11 4 14 3 9 -5 -4 -7 -2 -12 4 -12 6 0 8 -4 5 -10 -3 -5 2 -10 12 -10 15 0 16 -2 3 -11 -12 -9 -11 -10 8 -6 12 3 22 1 22 -4 0 -5 -4 -9 -10 -9 -5 0 -10 -4 -10 -10 0 -5 7 -6 17 -3 12 5 14 3 8 -7 -6 -10 -4 -12 8 -7 10 3 17 2 17 -3 0 -6 -4 -10 -10 -10 -5 0 -10 -4 -10 -10 0 -5 7 -6 17 -3 11 4 14 3 9 -5 -4 -8 0 -12 11 -12 15 0 16 -2 3 -10 -12 -8 -10 -10 10 -10 20 0 22 -2 10 -10 -13 -8 -13 -10 2 -10 11 0 15 -5 12 -15 -4 -8 -12 -15 -19 -15 -8 0 -20 -7 -29 -15 -8 -9 -19 -16 -23 -17 -21 -2 -32 -11 -26 -21 4 -6 0 -8 -10 -4 -9 3 -22 1 -30 -6 -18 -16 -48 -35 -74 -47 -13 -5 -23 -14 -23 -20 0 -5 -6 -10 -14 -10 -8 0 -22 -7 -30 -16 -9 -8 -16 -12 -16 -9 0 7 -71 -34 -80 -46 -3 -3 -15 -9 -27 -13 -13 -4 -23 -12 -23 -17 0 -6 -4 -8 -8 -5 -5 3 -18 -2 -28 -12 -10 -9 -28 -18 -39 -19 -11 -1 -14 0 -7 3 21 10 13 22 -10 17 -17 -4 -13 2 15 21 46 33 49 45 3 17 -40 -25 -53 -27 -35 -5 12 15 11 16 -11 10 -24 -7 -24 -6 -6 8 23 19 36 20 36 5 0 -6 15 -1 34 10 40 25 53 27 35 5 -12 -15 -11 -16 11 -10 23 6 23 5 6 -6 -49 -34 -59 -48 -19 -26 24 13 43 26 43 29 0 3 -8 15 -18 27 -18 21 -18 21 -48 1 -36 -23 -51 -25 -33 -3 12 15 11 16 -11 10 -24 -7 -25 -7 -5 10 20 16 19 16 -5 9 -23 -7 -24 -7 -10 10 13 16 13 18 0 13 -15 -5 -17 -21 -6 -49 5 -11 1 -18 -14 -22 -17 -4 -19 -3 -9 9 17 20 -7 49 -27 33 -8 -6 -14 -9 -14 -6 0 3 -3 12 -6 21 -3 9 -1 16 6 16 6 0 8 -4 5 -10 -3 -5 -1 -10 4 -10 6 0 11 3 11 8 -1 17 -17 30 -34 29 -10 -1 -21 4 -23 11 -3 6 0 12 7 12 6 0 8 -4 5 -10 -3 -5 -1 -10 5 -10 7 0 9 8 5 20 -4 14 -2 20 9 20 19 0 28 14 20 34 -6 15 -10 14 -39 -4 -38 -23 -52 -26 -36 -6 10 12 8 14 -11 10 -20 -5 -21 -4 -6 6 14 9 15 14 6 24 -7 8 -20 11 -28 8 -13 -5 -13 -4 0 13 14 17 13 18 -5 11 -19 -7 -19 -6 -2 11 13 13 20 15 25 6 5 -8 13 -9 22 -3 12 8 11 10 -5 11 -11 0 -14 3 -7 6 6 2 12 9 12 13 0 5 -16 0 -35 -12 -20 -11 -38 -18 -40 -16 -3 3 11 13 30 24 19 10 35 23 35 27 0 5 6 4 14 -2 11 -10 20 -10 37 -1 15 9 24 9 28 1 4 -7 17 -3 36 9 36 24 52 26 35 5 -9 -11 -9 -15 -1 -15 7 0 9 -4 6 -10 -3 -5 -3 -10 1 -10 12 0 75 42 70 47 -3 3 -15 -2 -28 -11 -25 -18 -42 -21 -34 -7 4 5 3 16 0 24 -5 14 -10 13 -37 -4 -40 -24 -54 -24 -36 -2 10 12 3 11 -24 -6 -21 -13 -40 -21 -43 -18 -6 6 64 53 94 64 15 6 15 5 3 -10 -12 -15 -12 -17 3 -11 10 4 14 13 11 23 -4 13 5 21 32 31 21 8 43 17 48 19 6 2 4 -3 -4 -13 -12 -14 -12 -16 3 -10 10 4 15 13 11 22 -3 8 0 19 7 24 10 6 10 8 -2 8 -8 0 -35 -14 -60 -30 l-45 -30 -5 48 -5 47 88 17 c48 9 96 20 107 23 34 11 22 -13 -15 -31 -19 -9 -32 -20 -29 -25 5 -8 68 23 84 40 8 9 74 40 85 40 6 -1 4 -3 -2 -6z m-335 -108 c-3 -14 -2 -28 3 -31 5 -3 3 -13 -3 -24 -7 -10 -15 -17 -19 -15 -3 3 -19 -6 -35 -20 -47 -41 -53 -16 -7 32 6 7 21 28 33 48 26 41 34 44 28 10z m-18 -269 c0 -2 -16 -13 -35 -25 -41 -24 -48 -14 -7 11 26 17 42 22 42 14z m665 -16 c-3 -5 -11 -10 -16 -10 -6 0 -7 5 -4 10 3 6 11 10 16 10 6 0 7 -4 4 -10z m-640 -120 c-3 -5 -11 -10 -16 -10 -6 0 -7 5 -4 10 3 6 11 10 16 10 6 0 7 -4 4 -10z m954 -327 c-8 -10 -18 -21 -24 -25 -20 -15 11 -8 33 8 12 8 22 10 22 5 0 -6 -4 -11 -10 -11 -5 0 -10 -4 -10 -9 0 -5 10 -7 23 -3 20 5 21 4 7 -13 -14 -17 -13 -17 10 -10 23 7 24 7 10 -10 -14 -17 -13 -18 3 -12 29 11 19 -13 -13 -31 -16 -9 -30 -21 -30 -25 0 -5 16 1 36 13 33 21 64 20 34 -1 -11 -8 -10 -9 8 -4 13 4 22 2 22 -4 0 -6 -4 -11 -10 -11 -5 0 -10 -5 -10 -11 0 -6 9 -8 22 -3 21 6 22 5 8 -11 -14 -17 -13 -17 10 -10 25 8 25 7 6 -13 -10 -12 -27 -24 -37 -27 -11 -4 -19 -11 -19 -16 0 -6 15 -1 34 10 40 25 69 29 40 5 -19 -15 -18 -15 4 -11 12 3 22 1 22 -4 0 -5 -4 -9 -10 -9 -5 0 -10 -5 -10 -11 0 -6 9 -8 22 -3 21 6 22 5 8 -11 -14 -16 -13 -17 8 -11 13 5 22 3 22 -3 0 -6 -4 -11 -10 -11 -5 0 -10 -4 -10 -9 0 -5 10 -7 23 -5 12 2 16 2 10 -2 -22 -10 -14 -26 10 -19 18 6 20 5 10 -6 -18 -19 -16 -29 5 -22 15 6 16 5 2 -12 -14 -17 -13 -18 13 -11 25 6 27 5 15 -13 -7 -11 -22 -22 -35 -26 -13 -3 -23 -10 -23 -15 0 -6 -6 -10 -14 -10 -8 0 -21 -6 -28 -14 -8 -7 -24 -17 -36 -20 -12 -4 -22 -14 -22 -21 0 -8 -6 -12 -14 -9 -8 3 -20 -3 -27 -13 -8 -10 -21 -19 -29 -21 -8 -2 -20 -10 -27 -18 -6 -9 -14 -14 -17 -12 -3 2 -16 -6 -28 -17 -13 -10 -24 -18 -25 -17 -7 5 -32 -11 -28 -18 3 -4 -9 -10 -25 -14 -18 -3 -30 -12 -30 -21 0 -9 -4 -14 -9 -11 -14 9 -41 -4 -41 -20 0 -7 -6 -11 -14 -8 -8 3 -21 -5 -30 -18 -9 -12 -16 -19 -16 -14 0 5 -7 3 -15 -4 -9 -7 -19 -10 -23 -6 -4 4 2 15 13 23 19 15 19 15 -7 9 -17 -4 -28 -2 -28 4 0 5 5 10 10 10 6 0 10 5 10 10 0 7 -6 7 -20 0 -27 -14 -25 1 3 25 12 10 22 17 22 15 0 -2 9 1 20 7 11 6 17 14 13 18 -3 4 -24 -5 -47 -19 -49 -31 -60 -33 -35 -5 18 20 18 20 -11 14 -27 -6 -28 -5 -12 8 23 19 22 26 -5 21 -22 -5 -22 -4 -4 8 43 30 61 47 55 52 -3 3 -15 -3 -27 -14 -12 -12 -22 -17 -22 -13 0 4 -5 2 -12 -5 -7 -7 -16 -12 -22 -12 -5 0 0 9 12 20 12 11 23 20 26 20 5 0 76 46 85 56 2 2 -3 4 -12 4 -8 0 -22 -6 -29 -13 -17 -17 -83 -57 -94 -57 -4 0 -3 5 4 12 19 19 14 30 -8 18 -22 -12 -27 -1 -7 19 10 11 7 12 -13 6 -20 -6 -23 -5 -12 6 19 21 14 31 -10 18 l-23 -12 20 23 20 23 -22 -7 c-14 -5 -23 -3 -23 3 0 6 5 11 10 11 6 0 10 4 10 9 0 5 -10 7 -22 5 -22 -5 -22 -4 -4 8 56 39 61 45 47 61 -11 15 -17 14 -52 -9 -38 -24 -52 -21 -26 5 10 11 7 12 -13 7 -23 -6 -23 -6 -8 7 23 18 11 29 -16 15 -43 -23 4 20 52 48 26 15 49 30 52 34 3 4 15 10 28 14 12 4 22 11 22 16 0 4 11 11 25 14 14 4 25 11 25 16 0 6 4 10 9 10 8 0 97 54 126 77 6 4 28 17 50 28 21 11 50 31 63 44 19 19 45 32 81 40 2 1 -3 -7 -10 -16z m-704 -43 c-3 -5 -11 -10 -16 -10 -6 0 -7 5 -4 10 3 6 11 10 16 10 6 0 7 -4 4 -10z m279 -329 c-11 -10 -31 -22 -45 -26 -24 -7 -24 -7 -4 13 11 10 23 18 27 16 4 -3 9 0 13 6 3 5 11 10 17 10 7 0 3 -8 -8 -19z m760 -46 c-4 -9 0 -15 7 -15 16 -1 -41 -50 -57 -50 -6 0 -17 6 -23 14 -9 10 -3 19 26 39 44 30 55 33 47 12z m-74 -60 c10 -12 2 -21 -49 -52 -34 -21 -145 -93 -247 -160 -102 -68 -187 -123 -189 -123 -3 0 -2 7 1 15 4 8 1 15 -5 15 -21 0 -11 16 22 34 17 11 79 50 137 87 222 144 305 197 311 198 4 1 12 -6 19 -14z m107 -4 c-4 -15 -1 -18 12 -13 14 5 14 4 2 -11 -17 -22 -7 -34 14 -17 18 15 20 0 3 -19 -11 -11 -9 -12 10 -6 13 4 22 2 22 -4 0 -6 -4 -11 -10 -11 -5 0 -10 -5 -10 -11 0 -6 9 -8 23 -4 18 6 20 5 10 -6 -18 -19 -16 -34 2 -19 9 7 19 9 23 5 4 -4 1 -10 -5 -12 -22 -8 -14 -25 7 -18 11 4 20 2 20 -4 0 -6 -4 -11 -10 -11 -5 0 -10 -5 -10 -10 0 -7 6 -7 20 0 20 11 30 -3 10 -15 -5 -3 -10 -12 -9 -18 0 -9 2 -9 6 1 6 14 33 16 33 2 0 -5 -4 -10 -10 -10 -5 0 -10 -5 -10 -11 0 -6 9 -8 20 -4 21 7 29 -10 8 -18 -7 -2 -10 -8 -6 -12 4 -4 14 -2 23 5 12 10 15 10 15 -3 0 -8 -6 -18 -12 -21 -7 -3 -3 -3 10 0 12 3 22 1 22 -5 0 -6 -4 -11 -10 -11 -5 0 -10 -5 -10 -11 0 -6 9 -8 20 -4 11 4 20 2 20 -4 0 -6 -4 -11 -10 -11 -5 0 -10 -5 -10 -11 0 -6 9 -8 22 -3 20 6 21 5 9 -10 -12 -14 -11 -16 10 -16 18 0 20 -3 11 -12 -19 -19 -14 -30 8 -18 22 12 27 1 8 -19 -11 -11 -9 -12 10 -6 12 3 22 3 22 0 0 -11 -25 -32 -48 -39 -12 -4 -22 -12 -22 -17 0 -5 -5 -9 -11 -9 -11 0 -82 -50 -87 -62 -2 -5 -7 -8 -12 -8 -13 0 -90 -53 -90 -62 0 -4 -6 -8 -12 -8 -12 0 -238 -146 -248 -160 -3 -4 -16 -11 -30 -15 -20 -6 -23 -5 -12 6 19 20 14 31 -8 19 -20 -11 -30 3 -10 15 6 3 10 11 10 17 0 7 -4 7 -13 -1 -19 -15 -30 -1 -14 17 10 13 8 14 -11 8 -26 -9 -30 8 -6 22 11 6 13 12 6 16 -6 3 -13 2 -17 -4 -3 -5 -10 -10 -16 -10 -14 0 -11 27 4 34 6 3 1 3 -13 0 l-25 -7 20 23 20 23 -30 -7 c-24 -6 -28 -5 -17 5 18 19 15 28 -10 22 -22 -4 -23 -4 -4 11 20 16 16 20 -19 16 -19 -2 -19 -1 2 19 12 12 27 21 33 21 5 0 10 5 10 11 0 5 5 7 10 4 6 -3 10 -1 10 4 0 17 -12 13 -53 -14 -36 -25 -50 -22 -24 4 10 11 8 13 -10 8 -26 -6 -29 2 -10 22 10 10 6 11 -18 5 -30 -7 -30 -7 -12 14 18 20 18 20 -2 15 -12 -3 -21 -1 -21 6 0 6 5 11 10 11 6 0 10 5 10 11 0 8 -5 7 -15 -1 -9 -7 -19 -10 -23 -6 -4 4 2 15 13 23 19 15 19 15 -7 9 -17 -4 -28 -2 -28 4 0 5 6 10 13 10 7 0 19 9 27 19 7 11 17 18 21 15 4 -2 10 0 14 6 11 18 -21 11 -45 -10 -31 -27 -62 -28 -34 -1 11 10 30 22 42 25 12 4 22 12 22 17 0 14 -6 11 -50 -16 -49 -31 -56 -31 -33 -1 10 13 21 22 24 20 3 -2 16 6 27 17 12 10 25 19 29 19 5 0 16 7 26 15 9 8 21 15 27 15 5 0 16 10 25 23 8 12 19 21 23 19 4 -1 14 4 22 11 8 7 18 12 22 12 4 0 16 7 26 15 22 18 39 29 110 70 28 17 52 36 52 41 0 6 4 8 10 4 5 -3 18 3 29 14 11 11 22 17 24 14 3 -2 13 7 22 21 21 31 60 36 52 7z"/> <path d="M2303 2407 c-44 -30 -42 -41 2 -15 20 11 38 18 41 15 3 -3 -8 -13 -25 -22 -34 -17 -37 -23 -18 -49 8 -10 19 -15 29 -11 14 5 15 10 5 20 -6 7 -19 10 -27 8 -8 -3 -4 5 9 16 24 22 55 31 34 10 -9 -9 -8 -15 0 -24 17 -18 39 -7 32 16 -4 13 -1 19 9 19 8 0 18 5 22 12 5 8 2 9 -9 5 -10 -4 -23 -10 -31 -13 -9 -3 -17 3 -21 15 -8 25 -11 25 -52 -2z"/> <path d="M2410 2380 c-8 -5 -10 -10 -5 -10 6 0 17 5 25 10 8 5 11 10 5 10 -5 0 -17 -5 -25 -10z"/> <path d="M2230 2360 c-8 -5 -10 -10 -5 -10 6 0 17 5 25 10 8 5 11 10 5 10 -5 0 -17 -5 -25 -10z"/> <path d="M2403 2349 c-39 -25 -42 -33 -10 -24 13 3 5 -5 -18 -19 -40 -26 -42 -36 -3 -15 14 7 23 8 27 1 4 -7 21 -1 46 14 40 24 42 34 3 13 -16 -9 -23 -8 -29 2 -13 21 -11 29 7 29 8 0 12 -4 9 -10 -8 -13 5 -13 25 0 13 8 12 10 -3 10 -10 0 -15 5 -12 10 10 16 -7 11 -42 -11z"/> <path d="M2245 2340 c-8 -13 5 -13 25 0 13 8 13 10 -2 10 -9 0 -20 -4 -23 -10z"/> <path d="M2208 2319 c-14 -8 -15 -13 -6 -23 7 -8 20 -11 28 -8 13 5 13 4 0 -13 -14 -17 -14 -18 8 -6 18 9 20 14 10 25 -7 7 -20 11 -28 8 -13 -5 -13 -3 -1 11 15 19 13 21 -11 6z"/> <path d="M2260 2319 c-11 -8 -9 -9 10 -3 22 6 23 5 11 -10 -12 -14 -12 -16 3 -10 17 7 17 25 0 31 -5 1 -16 -2 -24 -8z"/> <path d="M2145 2310 c-3 -5 -2 -10 4 -10 5 0 13 5 16 10 3 6 2 10 -4 10 -5 0 -13 -4 -16 -10z"/> <path d="M2335 2310 c-3 -5 -2 -10 4 -10 5 0 13 5 16 10 3 6 2 10 -4 10 -5 0 -13 -4 -16 -10z"/> <path d="M2465 2300 c-3 -5 -2 -10 4 -10 5 0 13 5 16 10 3 6 2 10 -4 10 -5 0 -13 -4 -16 -10z"/> <path d="M2160 2290 c-9 -6 -10 -10 -3 -10 6 0 15 5 18 10 8 12 4 12 -15 0z"/> <path d="M2285 2279 c-5 -8 0 -9 16 -5 22 6 22 5 5 -6 -49 -34 -59 -48 -19 -26 24 13 41 28 40 33 -5 15 -34 18 -42 4z"/> <path d="M2431 2281 c-9 -6 -10 -14 -5 -24 8 -14 14 -12 49 9 42 25 38 33 -5 9 -33 -19 -46 -19 -30 0 14 17 11 19 -9 6z"/> <path d="M2170 2270 c-8 -5 -10 -10 -5 -10 6 0 17 5 25 10 8 5 11 10 5 10 -5 0 -17 -5 -25 -10z"/> <path d="M2365 2270 c-3 -6 1 -7 9 -4 18 7 21 14 7 14 -6 0 -13 -4 -16 -10z"/> <path d="M2250 2260 c-8 -5 -12 -12 -9 -15 4 -3 12 1 19 10 14 17 11 19 -10 5z"/> <path d="M2495 2260 c-3 -5 -1 -10 6 -10 10 0 10 -3 0 -12 -10 -10 -15 -10 -18 -1 -4 12 -33 7 -33 -7 0 -4 9 -17 20 -30 11 -13 20 -27 20 -31 0 -5 18 1 40 12 22 12 40 25 40 30 0 16 -31 22 -43 9 -10 -10 -7 -11 13 -6 24 7 24 6 6 -8 -23 -18 -36 -20 -36 -6 0 5 -8 6 -17 3 -16 -6 -16 -5 -5 10 8 9 22 19 33 22 10 4 19 10 19 15 0 5 -7 6 -17 3 -11 -4 -14 -3 -9 5 4 7 3 12 -3 12 -5 0 -13 -4 -16 -10z"/> <path d="M2380 2250 c-13 -8 -13 -10 2 -10 11 0 15 -5 12 -15 -8 -19 24 -32 39 -15 10 10 7 11 -13 5 -22 -7 -23 -6 -11 9 9 11 10 16 2 16 -7 0 -9 5 -6 10 8 13 -5 13 -25 0z"/> <path d="M2315 2240 c-8 -13 5 -13 25 0 13 8 13 10 -2 10 -9 0 -20 -4 -23 -10z"/> <path d="M2200 2230 c-8 -5 -12 -11 -10 -14 3 -2 14 2 24 10 22 15 10 19 -14 4z"/> <path d="M2084 2215 c-10 -8 -14 -15 -7 -15 6 0 15 -9 18 -20 5 -16 10 -18 26 -10 15 9 17 13 7 24 -7 7 -20 11 -28 8 -13 -5 -13 -3 -1 11 17 21 11 22 -15 2z"/> <path d="M2258 2206 c-21 -11 -38 -24 -38 -28 0 -4 15 1 33 12 39 24 54 26 36 3 -11 -13 -5 -12 22 5 43 26 57 28 38 6 -12 -15 -11 -16 9 -10 31 10 27 -1 -8 -19 -32 -16 -54 -20 -30 -5 8 5 11 12 7 16 -12 12 -28 -11 -21 -29 5 -15 9 -14 42 3 35 19 61 18 32 0 -13 -8 -13 -10 0 -10 12 0 12 -2 1 -12 -11 -11 -14 -10 -18 0 -4 9 -14 7 -39 -9 -34 -20 -64 -19 -34 2 11 8 9 9 -10 4 -24 -6 -24 -5 -6 9 21 17 11 22 -13 7 -11 -7 -7 -18 21 -54 l35 -46 29 20 c36 23 51 25 33 3 -12 -15 -11 -16 11 -10 24 7 24 6 6 -8 -11 -9 -16 -16 -10 -16 19 0 34 17 29 32 -4 10 1 17 14 21 12 3 21 10 21 16 0 18 -30 25 -43 11 -10 -10 -7 -11 13 -6 24 7 24 6 6 -8 -23 -19 -36 -20 -36 -5 0 6 -15 1 -34 -10 -40 -25 -53 -27 -35 -5 12 15 11 16 -11 10 l-25 -8 24 18 c17 12 26 14 29 6 2 -8 16 -5 43 11 21 12 39 24 39 27 0 3 -15 23 -33 44 -30 35 -35 38 -56 26 -15 -8 -26 -9 -30 -2 -4 6 -21 2 -43 -12z"/> <path d="M2020 2210 c-13 -8 -13 -10 2 -10 9 0 20 5 23 10 8 13 -5 13 -25 0z"/> <path d="M2215 2210 c-3 -5 -2 -10 4 -10 5 0 13 5 16 10 3 6 2 10 -4 10 -5 0 -13 -4 -16 -10z"/> <path d="M2155 2200 c-3 -6 1 -7 9 -4 18 7 21 14 7 14 -6 0 -13 -4 -16 -10z"/> <path d="M2040 2190 c-9 -6 -10 -10 -3 -10 6 0 15 5 18 10 8 12 4 12 -15 0z"/> <path d="M2428 2193 c-16 -4 -16 -6 -2 -29 17 -26 38 -31 50 -13 4 8 -1 9 -17 5 -24 -7 -24 -7 -4 10 20 16 19 16 -5 9 -22 -7 -23 -6 -11 9 7 9 12 15 10 15 -2 -1 -12 -3 -21 -6z"/> <path d="M2164 2179 c-4 -8 1 -9 17 -4 21 7 22 6 10 -9 -12 -15 -12 -16 5 -9 17 6 17 5 5 -10 -8 -10 -9 -17 -3 -17 18 0 24 18 12 40 -12 22 -35 26 -46 9z"/> <path d="M2560 2180 c-8 -5 -10 -10 -5 -10 6 0 17 5 25 10 8 5 11 10 5 10 -5 0 -17 -5 -25 -10z"/> <path d="M2050 2170 c-8 -5 -10 -10 -5 -10 6 0 17 5 25 10 8 5 11 10 5 10 -5 0 -17 -5 -25 -10z"/> <path d="M2245 2170 c-3 -5 -2 -10 4 -10 5 0 13 5 16 10 3 6 2 10 -4 10 -5 0 -13 -4 -16 -10z"/> <path d="M1984 2159 c-4 -8 1 -9 17 -4 20 7 22 6 12 -6 -16 -19 -2 -41 17 -29 12 8 11 10 -5 10 -15 0 -17 2 -6 9 16 10 6 31 -14 31 -8 0 -17 -5 -21 -11z"/> <path d="M2107 2148 c-21 -11 -36 -22 -33 -25 2 -3 15 1 27 8 16 8 24 9 27 1 2 -6 11 -8 20 -5 15 6 15 5 3 -10 -7 -9 -19 -17 -25 -17 -7 0 -28 -12 -47 -26 -29 -22 -30 -25 -9 -19 22 7 23 6 11 -9 -7 -9 -10 -16 -6 -16 12 0 77 42 72 46 -7 7 -37 -7 -37 -18 0 -5 -4 -6 -10 -3 -12 7 -14 26 -2 23 4 -1 18 4 31 11 16 9 26 10 30 2 4 -7 17 -3 36 9 37 24 52 26 34 4 -12 -15 -11 -16 11 -9 24 7 24 7 5 -9 -17 -13 -18 -15 -3 -16 26 0 31 18 11 43 -18 23 -18 23 -48 5 -36 -22 -52 -23 -35 -3 9 11 9 15 1 15 -7 0 -9 5 -5 11 4 8 -1 9 -17 4 -21 -7 -22 -6 -10 9 17 20 15 20 -32 -6z"/> <path d="M2523 2163 c-7 -3 -13 -9 -13 -14 0 -4 8 -5 18 -2 15 6 16 5 2 -12 -14 -17 -14 -18 9 -6 13 7 20 16 15 20 -5 3 -11 9 -14 12 -3 4 -11 4 -17 2z"/> <path d="M2575 2160 c-3 -6 1 -7 9 -4 18 7 21 14 7 14 -6 0 -13 -4 -16 -10z"/> <path d="M2060 2150 c-8 -5 -10 -10 -5 -10 6 0 17 5 25 10 8 5 11 10 5 10 -5 0 -17 -5 -25 -10z"/> <path d="M2594 2145 c-10 -8 -14 -14 -9 -15 15 0 40 18 34 24 -3 3 -14 -1 -25 -9z"/> <path d="M2470 2130 c-8 -5 -10 -10 -5 -10 6 0 17 5 25 10 8 5 11 10 5 10 -5 0 -17 -5 -25 -10z"/> <path d="M2535 2110 c-36 -24 -52 -26 -35 -5 8 9 9 15 2 15 -16 0 -23 -16 -16 -34 5 -13 11 -13 45 7 21 12 39 25 39 30 0 10 -1 9 -35 -13z"/> <path d="M2090 2110 c-8 -5 -10 -10 -5 -10 6 0 17 5 25 10 8 5 11 10 5 10 -5 0 -17 -5 -25 -10z"/> <path d="M2163 2067 c-34 -23 -44 -41 -16 -30 10 4 14 2 10 -5 -8 -11 12 -62 23 -62 4 0 13 7 20 15 7 8 18 15 26 15 18 0 27 17 17 35 -8 14 -11 13 -28 0 -19 -15 -19 -16 5 -10 24 6 24 5 6 -9 -23 -18 -36 -20 -36 -6 0 5 -8 6 -17 3 -16 -6 -16 -5 -4 10 11 14 11 17 0 17 -9 1 -8 5 5 15 26 20 42 19 26 0 -11 -13 -10 -14 4 -9 10 4 15 13 12 21 -3 8 -6 17 -6 19 0 8 -16 2 -47 -19z"/> <path d="M2440 2080 c-8 -5 -12 -11 -10 -14 3 -2 14 2 24 10 22 15 10 19 -14 4z"/> <path d="M2261 2061 c-16 -10 -6 -31 14 -31 8 0 17 5 21 11 4 8 -1 9 -17 5 -23 -7 -23 -7 -5 8 21 17 11 22 -13 7z"/> <path d="M2455 2059 c-11 -17 1 -21 15 -4 8 9 8 15 2 15 -6 0 -14 -5 -17 -11z"/> <path d="M2334 2044 c-18 -14 -18 -15 6 -8 22 6 23 5 11 -10 -12 -14 -12 -16 3 -10 18 7 19 13 8 31 -6 10 -12 10 -28 -3z"/> <path d="M2410 2030 c-8 -5 -10 -10 -5 -10 6 0 17 5 25 10 8 5 11 10 5 10 -5 0 -17 -5 -25 -10z"/> <path d="M2090 2020 c-8 -5 -12 -11 -10 -14 3 -2 14 2 24 10 22 15 10 19 -14 4z"/> <path d="M2293 2023 c-17 -6 -16 -16 5 -40 16 -19 42 -21 42 -2 0 4 -8 5 -17 2 -16 -6 -17 -5 -3 12 14 17 13 17 -10 10 -22 -7 -23 -6 -11 9 14 17 14 18 -6 9z"/> <path d="M2366 2004 c-11 -8 -16 -14 -10 -14 13 0 39 18 34 24 -3 2 -14 -2 -24 -10z"/> <path d="M2240 1990 c-8 -5 -10 -10 -5 -10 6 0 17 5 25 10 8 5 11 10 5 10 -5 0 -17 -5 -25 -10z"/> <path d="M2255 1970 c-3 -5 -2 -10 4 -10 5 0 13 5 16 10 3 6 2 10 -4 10 -5 0 -13 -4 -16 -10z"/> <path d="M2270 1950 c-8 -5 -12 -11 -9 -14 3 -3 14 1 25 9 21 16 8 20 -16 5z"/> <path d="M2949 1574 c-10 -12 -10 -15 2 -12 9 2 13 -4 11 -16 -3 -18 -2 -18 13 -6 11 9 13 16 6 18 -6 2 -9 8 -6 12 10 16 -13 20 -26 4z"/> <path d="M3010 1580 c-8 -5 -11 -12 -7 -16 4 -4 15 0 24 9 18 18 8 23 -17 7z"/> <path d="M3030 1555 c-14 -16 -10 -18 14 -9 9 3 16 10 16 15 0 14 -16 11 -30 -6z"/> <path d="M2904 1545 c-10 -8 -14 -14 -9 -15 15 0 40 18 34 24 -3 3 -14 -1 -25 -9z"/> <path d="M2968 1517 c-21 -12 -38 -26 -38 -30 0 -4 18 3 40 15 22 13 40 26 40 31 0 9 1 10 -42 -16z"/> <path d="M3050 1530 c-8 -5 -12 -11 -10 -14 3 -2 14 2 24 10 22 15 10 19 -14 4z"/> <path d="M2856 1514 c-11 -8 -16 -14 -10 -14 13 0 39 18 34 24 -3 2 -14 -2 -24 -10z"/> <path d="M2920 1520 c-8 -5 -12 -11 -10 -14 3 -2 14 2 24 10 22 15 10 19 -14 4z"/> <path d="M3000 1500 c-8 -5 -10 -10 -5 -10 6 0 17 5 25 10 8 5 11 10 5 10 -5 0 -17 -5 -25 -10z"/> <path d="M2766 1461 c-33 -20 -62 -43 -64 -50 -3 -10 0 -10 17 1 12 7 21 16 21 21 0 4 4 6 8 3 5 -3 18 3 28 12 10 10 27 21 37 25 9 3 17 11 17 17 0 13 5 15 -64 -29z"/> <path d="M2865 1489 c-12 -19 5 -23 22 -6 16 16 16 17 1 17 -9 0 -20 -5 -23 -11z"/> <path d="M3086 1484 c-17 -12 -17 -14 -4 -14 9 0 20 5 23 11 11 17 2 18 -19 3z"/> <path d="M2959 1476 c-14 -10 -15 -15 -4 -29 7 -10 19 -15 29 -11 25 10 19 26 -6 18 -20 -6 -21 -5 -9 10 17 21 11 28 -10 12z"/> <path d="M3023 1483 c-22 -8 -14 -25 10 -18 20 5 21 5 3 -7 -41 -29 -61 -47 -55 -52 3 -3 15 3 26 14 19 17 33 17 33 1 0 -4 -20 -17 -45 -31 -25 -14 -45 -28 -45 -33 0 -4 19 4 43 18 23 14 52 31 65 37 12 6 22 15 22 20 0 5 -10 7 -22 3 -21 -5 -21 -5 -7 7 14 11 15 17 4 31 -13 18 -13 18 -32 10z"/> <path d="M2867 1454 c-22 -14 -37 -27 -34 -30 7 -7 37 7 37 18 0 5 5 6 10 3 16 -10 12 -22 -10 -28 -11 -3 -20 -10 -20 -16 0 -10 47 13 60 30 3 3 12 9 20 13 8 3 2 4 -15 1 -27 -5 -28 -4 -12 8 18 15 23 27 10 26 -5 0 -25 -11 -46 -25z"/> <path d="M2816 1455 c-8 -8 -19 -15 -24 -15 -5 0 -15 -7 -22 -15 -7 -8 -10 -15 -6 -15 9 0 86 49 86 55 0 10 -19 4 -34 -10z"/> <path d="M3100 1460 c-8 -5 -11 -12 -7 -16 4 -4 15 0 24 9 18 18 8 23 -17 7z"/> <path d="M3120 1435 c-14 -16 -10 -18 14 -9 9 3 16 10 16 15 0 14 -16 11 -30 -6z"/> <path d="M2924 1415 c-10 -8 -14 -14 -9 -15 15 0 40 18 34 24 -3 3 -14 -1 -25 -9z"/> <path d="M2794 1405 c-10 -8 -14 -14 -9 -15 15 0 40 18 34 24 -3 3 -14 -1 -25 -9z"/> <path d="M3074 1405 c-10 -8 -14 -14 -9 -15 15 0 40 18 34 24 -3 3 -14 -1 -25 -9z"/> <path d="M2666 1394 c-11 -8 -16 -14 -10 -14 13 0 39 18 34 24 -3 2 -14 -2 -24 -10z"/> <path d="M2725 1399 c-11 -17 1 -21 15 -4 8 9 8 15 2 15 -6 0 -14 -5 -17 -11z"/> <path d="M2874 1385 c-10 -8 -14 -15 -8 -15 6 0 17 7 24 15 16 19 9 19 -16 0z"/> <path d="M2940 1390 c-8 -5 -12 -11 -10 -14 3 -2 14 2 24 10 22 15 10 19 -14 4z"/> <path d="M3160 1385 c-11 -13 -10 -14 4 -9 9 3 16 10 16 15 0 13 -6 11 -20 -6z"/> <path d="M2744 1375 c-10 -8 -14 -14 -9 -15 15 0 40 18 34 24 -3 3 -14 -1 -25 -9z"/> <path d="M2810 1380 c-8 -5 -12 -11 -10 -14 3 -2 14 2 24 10 22 15 10 19 -14 4z"/> <path d="M3026 1374 c-17 -12 -17 -14 -4 -14 9 0 20 5 23 11 11 17 2 18 -19 3z"/> <path d="M3090 1380 c-8 -5 -12 -11 -9 -14 3 -3 14 1 25 9 21 16 8 20 -16 5z"/> <path d="M2616 1364 c-11 -8 -16 -14 -10 -14 13 0 39 18 34 24 -3 2 -14 -2 -24 -10z"/> <path d="M2680 1370 c-8 -5 -12 -11 -10 -14 3 -2 14 2 24 10 22 15 10 19 -14 4z"/> <path d="M2896 1364 c-11 -7 -18 -16 -15 -18 2 -2 13 2 23 10 11 7 18 16 15 18 -2 2 -13 -2 -23 -10z"/> <path d="M2810 1348 c-45 -28 -44 -27 -37 -34 3 -3 20 5 39 18 18 12 35 24 37 25 2 2 2 5 0 7 -3 3 -20 -5 -39 -16z"/> <path d="M3110 1355 c-7 -8 -8 -15 -2 -15 5 0 15 7 22 15 7 8 8 15 2 15 -5 0 -15 -7 -22 -15z"/> <path d="M3172 1358 c-7 -7 -16 -13 -20 -14 -20 -2 -41 -17 -36 -25 6 -10 25 -1 64 30 14 12 20 21 15 21 -6 0 -17 -6 -23 -12z"/> <path d="M2694 1345 c-10 -8 -14 -14 -9 -15 15 0 40 18 34 24 -3 3 -14 -1 -25 -9z"/> <path d="M2760 1350 c-8 -5 -12 -11 -10 -14 3 -2 14 2 24 10 22 15 10 19 -14 4z"/> <path d="M2979 1346 c-14 -10 -15 -15 -4 -29 7 -10 19 -15 29 -11 25 10 19 26 -6 18 -20 -6 -21 -5 -9 10 17 21 11 28 -10 12z"/> <path d="M3040 1350 c-8 -5 -11 -12 -7 -16 4 -4 15 0 24 9 18 18 8 23 -17 7z"/> <path d="M2566 1334 c-17 -12 -17 -14 -4 -14 9 0 20 5 23 11 11 17 2 18 -19 3z"/> <path d="M2630 1340 c-8 -5 -12 -11 -9 -14 3 -3 14 1 25 9 21 16 8 20 -16 5z"/> <path d="M2910 1340 c-8 -5 -11 -12 -7 -16 4 -4 15 0 24 9 18 18 8 23 -17 7z"/> <path d="M3196 1334 c-11 -8 -16 -14 -10 -14 13 0 39 18 34 24 -3 2 -14 -2 -24 -10z"/> <path d="M2716 1324 c-11 -7 -16 -17 -13 -21 4 -4 15 1 24 10 22 21 14 30 -11 11z"/> <path d="M2838 1326 c-8 -7 -24 -17 -36 -20 -12 -4 -20 -12 -17 -17 5 -7 85 37 85 47 0 9 -20 3 -32 -10z"/> <path d="M3062 1328 c-19 -19 -14 -29 8 -16 20 13 27 28 12 28 -4 0 -13 -5 -20 -12z"/> <path d="M2646 1314 c-17 -12 -17 -14 -4 -14 9 0 20 5 23 11 11 17 2 18 -19 3z"/> <path d="M2576 1311 c-15 -6 -16 -10 -7 -15 8 -5 20 -2 29 8 17 17 9 19 -22 7z"/> <path d="M2860 1305 c-14 -16 -10 -18 14 -9 9 3 16 10 16 15 0 14 -16 11 -30 -6z"/> <path d="M2903 1300 c-18 -11 -33 -24 -33 -30 0 -6 8 -5 20 2 11 7 20 16 20 21 0 4 3 6 8 3 4 -2 16 2 27 10 30 22 -4 17 -42 -6z"/> <path d="M3144 1305 c-10 -8 -14 -14 -9 -15 15 0 40 18 34 24 -3 3 -14 -1 -25 -9z"/> <path d="M3210 1310 c-8 -5 -11 -12 -7 -16 4 -4 15 0 24 9 18 18 8 23 -17 7z"/> <path d="M2731 1296 c-10 -12 -8 -13 8 -9 12 3 21 9 21 14 0 14 -16 11 -29 -5z"/> <path d="M3014 1296 c-10 -8 -17 -17 -14 -19 3 -3 14 1 24 9 11 7 17 16 15 19 -3 3 -14 -2 -25 -9z"/> <path d="M3080 1300 c-8 -5 -12 -11 -9 -14 3 -3 14 1 25 9 21 16 8 20 -16 5z"/> <path d="M2660 1290 c-8 -5 -12 -11 -9 -14 3 -3 14 1 25 9 21 16 8 20 -16 5z"/> <path d="M2940 1285 c-14 -16 -10 -18 14 -9 9 3 16 10 16 15 0 14 -16 11 -30 -6z"/> <path d="M3167 1285 c-10 -7 -14 -16 -9 -19 5 -3 15 1 22 9 17 21 9 27 -13 10z"/> <path d="M3230 1285 c-14 -16 -10 -18 14 -9 9 3 16 10 16 15 0 14 -16 11 -30 -6z"/> <path d="M2814 1275 c-10 -8 -14 -14 -9 -15 15 0 40 18 34 24 -3 3 -14 -1 -25 -9z"/> <path d="M3071 1261 c-23 -16 -39 -31 -33 -35 5 -3 17 3 27 14 10 11 24 20 31 20 7 0 16 5 19 11 14 21 -2 18 -44 -10z"/> <path d="M2683 1273 c-23 -9 -14 -25 10 -18 20 6 21 5 5 -8 -22 -18 -12 -30 12 -15 14 9 16 15 7 30 -12 19 -14 20 -34 11z"/> <path d="M2741 1271 c-7 -5 -9 -11 -4 -14 4 -3 17 1 28 9 21 16 0 20 -24 5z"/> <path d="M2964 1265 c-10 -8 -14 -14 -9 -15 15 0 40 18 34 24 -3 3 -14 -1 -25 -9z"/> <path d="M3025 1269 c-11 -17 0 -20 21 -4 17 13 17 14 2 15 -9 0 -20 -5 -23 -11z"/> <path d="M2878 1247 c-21 -12 -38 -26 -38 -30 0 -4 18 3 40 15 22 13 40 26 40 31 0 9 1 10 -42 -16z"/> <path d="M3117 1255 c-10 -7 -14 -16 -9 -19 5 -3 15 1 22 9 17 21 9 27 -13 10z"/> <path d="M3180 1255 c-14 -16 -10 -18 14 -9 9 3 16 10 16 15 0 14 -16 11 -30 -6z"/> <path d="M3245 1259 c-11 -17 -2 -18 19 -3 17 12 17 14 4 14 -9 0 -20 -5 -23 -11z"/> <path d="M2760 1245 c-14 -16 -10 -18 14 -9 9 3 16 10 16 15 0 14 -16 11 -30 -6z"/> <path d="M2825 1250 c-8 -13 5 -13 25 0 13 8 13 10 -2 10 -9 0 -20 -4 -23 -10z"/> <path d="M2630 1235 c-14 -16 -10 -18 14 -9 9 3 16 10 16 15 0 14 -16 11 -30 -6z"/> <path d="M2913 1231 c-12 -11 -23 -18 -26 -15 -2 2 -10 -2 -17 -11 -7 -8 -9 -15 -5 -15 14 0 75 41 75 51 0 13 -4 12 -27 -10z"/> <path d="M2980 1240 c-8 -5 -11 -12 -7 -16 4 -4 15 0 24 9 18 18 8 23 -17 7z"/> <path d="M3270 1235 c-11 -13 -10 -14 4 -9 9 3 16 10 16 15 0 13 -6 11 -20 -6z"/> <path d="M2786 1224 c-11 -7 -18 -16 -15 -18 2 -2 13 2 23 10 11 7 18 16 15 18 -2 2 -13 -2 -23 -10z"/> <path d="M3134 1225 c-10 -8 -14 -14 -9 -15 15 0 40 18 34 24 -3 3 -14 -1 -25 -9z"/> <path d="M3200 1230 c-8 -5 -12 -11 -9 -14 3 -3 14 1 25 9 21 16 8 20 -16 5z"/> <path d="M2716 1214 c-11 -8 -16 -14 -10 -14 13 0 39 18 34 24 -3 2 -14 -2 -24 -10z"/> <path d="M3070 1220 c-8 -5 -12 -12 -9 -15 4 -3 12 1 19 10 14 17 11 19 -10 5z"/> <path d="M2650 1210 c-8 -5 -12 -11 -10 -14 3 -2 14 2 24 10 22 15 10 19 -14 4z"/> <path d="M2930 1205 c-7 -8 -8 -15 -2 -15 5 0 15 7 22 15 7 8 8 15 2 15 -5 0 -15 -7 -22 -15z"/> <path d="M2995 1209 c-11 -17 -2 -18 19 -3 17 12 17 14 4 14 -9 0 -20 -5 -23 -11z"/> <path d="M3220 1205 c-14 -16 -10 -18 14 -9 9 3 16 10 16 15 0 14 -16 11 -30 -6z"/> <path d="M2736 1194 c-11 -7 -17 -16 -15 -19 3 -3 14 2 25 9 10 8 17 17 14 19 -3 3 -14 -1 -24 -9z"/> <path d="M2800 1195 c-7 -8 -8 -15 -2 -15 5 0 15 7 22 15 7 8 8 15 2 15 -5 0 -15 -7 -22 -15z"/> <path d="M3089 1196 c-15 -10 -15 -14 -3 -30 13 -18 15 -18 54 8 22 14 40 28 40 31 0 6 -34 -7 -40 -15 -9 -13 -50 -22 -50 -12 0 6 6 12 13 15 6 2 10 7 7 10 -3 3 -12 0 -21 -7z"/> <path d="M2664 1185 c-10 -8 -14 -14 -9 -15 15 0 40 18 34 24 -3 3 -14 -1 -25 -9z"/> <path d="M2956 1184 c-11 -7 -18 -16 -15 -18 2 -2 13 2 23 10 11 7 18 16 15 18 -2 2 -13 -2 -23 -10z"/> <path d="M3020 1190 c-8 -5 -12 -11 -9 -14 3 -3 14 1 25 9 21 16 8 20 -16 5z"/> <path d="M2817 1175 c-10 -7 -15 -15 -10 -18 5 -3 16 1 26 8 10 7 15 15 10 18 -5 3 -16 -1 -26 -8z"/> <path d="M2884 1175 c-10 -8 -14 -14 -9 -15 15 0 40 18 34 24 -3 3 -14 -1 -25 -9z"/> <path d="M3176 1174 c-11 -8 -16 -14 -10 -14 13 0 39 18 34 24 -3 2 -14 -2 -24 -10z"/> <path d="M2727 1155 c-38 -26 -53 -55 -17 -33 11 7 20 16 20 19 0 4 11 10 25 13 14 4 25 11 25 16 0 16 -13 12 -53 -15z"/> <path d="M3031 1161 c-11 -11 -21 -17 -24 -15 -2 2 -10 -2 -17 -11 -21 -26 -7 -24 39 5 25 16 39 30 33 34 -6 4 -20 -2 -31 -13z"/> <path d="M2680 1160 c-8 -5 -11 -12 -7 -16 4 -4 15 0 24 9 18 18 8 23 -17 7z"/> <path d="M2904 1156 c-10 -8 -15 -18 -11 -22 4 -4 15 0 24 9 22 21 12 31 -13 13z"/> <path d="M2970 1160 c-8 -5 -11 -12 -7 -16 4 -4 15 0 24 9 18 18 8 23 -17 7z"/> <path d="M2834 1145 c-17 -13 -17 -14 -2 -15 9 0 20 5 23 11 11 17 0 20 -21 4z"/> <path d="M3126 1144 c-11 -7 -17 -16 -15 -19 3 -3 14 2 25 9 10 8 17 17 14 19 -3 3 -14 -1 -24 -9z"/> <path d="M3054 1135 c-10 -8 -14 -14 -9 -15 15 0 40 18 34 24 -3 3 -14 -1 -25 -9z"/> <path d="M2856 1125 c-22 -17 -17 -29 8 -19 9 3 16 12 16 20 0 17 0 17 -24 -1z"/> <path d="M2922 1128 c-19 -19 -14 -29 8 -16 20 13 27 28 12 28 -4 0 -13 -5 -20 -12z"/> <path d="M2787 1115 c-10 -7 -14 -16 -9 -19 5 -3 15 1 22 9 17 21 9 27 -13 10z"/> <path d="M3004 1105 c-20 -15 -11 -18 20 -6 11 4 15 10 9 14 -5 3 -19 0 -29 -8z"/> <path d="M3070 1110 c-8 -5 -12 -12 -9 -15 8 -8 39 5 39 16 0 11 -11 11 -30 -1z"/> <path d="M2872 1098 c-19 -19 -14 -29 8 -16 20 13 27 28 12 28 -4 0 -13 -5 -20 -12z"/> <path d="M2940 1100 c-8 -5 -12 -11 -9 -14 3 -3 14 1 25 9 21 16 8 20 -16 5z"/> <path d="M2799 1084 c-12 -15 -11 -16 11 -9 20 6 23 5 13 -6 -19 -20 -15 -31 6 -17 15 9 17 15 8 30 -14 22 -21 23 -38 2z"/> <path d="M2957 1075 c-10 -7 -14 -16 -9 -19 5 -3 15 1 22 9 17 21 9 27 -13 10z"/> <path d="M3020 1075 c-7 -8 -8 -15 -2 -15 5 0 15 7 22 15 7 8 8 15 2 15 -5 0 -15 -7 -22 -15z"/> <path d="M2870 1058 c-45 -28 -44 -27 -38 -33 5 -5 70 33 87 51 12 12 -18 1 -49 -18z"/> <path d="M2750 1055 c-7 -8 -8 -15 -2 -15 5 0 15 7 22 15 7 8 8 15 2 15 -5 0 -15 -7 -22 -15z"/> <path d="M2974 1045 c-10 -8 -14 -14 -9 -15 15 0 40 18 34 24 -3 3 -14 -1 -25 -9z"/> <path d="M2898 1037 c-7 -7 -24 -17 -37 -23 -14 -6 -21 -13 -15 -16 5 -3 29 7 54 23 25 16 38 29 28 29 -9 0 -23 -6 -30 -13z"/> <path d="M2770 1030 c-8 -5 -12 -11 -9 -14 3 -3 14 1 25 9 21 16 8 20 -16 5z"/> <path d="M2926 1014 c-11 -8 -16 -14 -10 -14 13 0 39 18 34 24 -3 2 -14 -2 -24 -10z"/> <path d="M2874 985 c-26 -19 -11 -31 16 -12 12 8 17 17 12 21 -5 3 -18 -1 -28 -9z"/> <path d="M2810 980 c-8 -5 -12 -11 -9 -14 2 -3 11 -1 19 4 8 5 12 11 9 14 -2 3 -11 1 -19 -4z"/> <path d="M2827 955 c-10 -7 -14 -16 -9 -19 5 -3 15 1 22 9 17 21 9 27 -13 10z"/> <path d="M3354 1115 c-17 -13 -17 -14 -2 -15 9 0 20 5 23 11 11 17 0 20 -21 4z"/> <path d="M3376 1095 c-22 -17 -17 -29 8 -19 9 3 16 12 16 20 0 17 0 17 -24 -1z"/> <path d="M3306 1084 c-11 -8 -16 -14 -10 -14 13 0 39 18 34 24 -3 2 -14 -2 -24 -10z"/> <path d="M3396 1064 c-11 -8 -16 -14 -10 -14 13 0 39 18 34 24 -3 2 -14 -2 -24 -10z"/> <path d="M3257 1055 c-10 -7 -14 -16 -9 -19 5 -3 15 1 22 9 17 21 9 27 -13 10z"/> <path d="M3320 1055 c-14 -16 -10 -18 14 -9 9 3 16 10 16 15 0 14 -16 11 -30 -6z"/> <path d="M3344 1031 c-11 -10 -30 -22 -42 -25 -12 -4 -22 -11 -22 -16 0 -4 -11 -11 -25 -14 -22 -6 -36 -26 -18 -26 13 0 133 82 133 91 0 13 -4 11 -26 -10z"/> <path d="M3418 1043 c-10 -2 -18 -9 -18 -14 0 -14 16 -11 30 6 7 8 11 14 9 14 -2 -1 -12 -3 -21 -6z"/> <path d="M3274 1025 c-10 -8 -14 -14 -9 -15 15 0 40 18 34 24 -3 3 -14 -1 -25 -9z"/> <path d="M3205 1019 c-11 -17 -2 -18 19 -3 17 12 17 14 4 14 -9 0 -20 -5 -23 -11z"/> <path d="M3364 1005 c-17 -13 -17 -14 -2 -15 9 0 20 5 23 11 11 17 0 20 -21 4z"/> <path d="M3430 1010 c-8 -5 -12 -11 -9 -14 3 -3 14 1 25 9 21 16 8 20 -16 5z"/> <path d="M3155 990 c-10 -11 -26 -22 -36 -25 -11 -4 -19 -11 -19 -16 0 -14 15 -11 38 9 11 9 28 22 38 28 11 6 14 13 7 17 -6 4 -18 -2 -28 -13z"/> <path d="M3226 994 c-17 -12 -17 -14 -4 -14 9 0 20 5 23 11 11 17 2 18 -19 3z"/> <path d="M3385 980 c-10 -11 -13 -20 -8 -20 13 0 38 29 31 35 -3 3 -13 -4 -23 -15z"/> <path d="M3454 985 c-10 -8 -14 -14 -9 -15 15 0 40 18 34 24 -3 3 -14 -1 -25 -9z"/> <path d="M3317 975 c-10 -7 -15 -15 -10 -18 5 -3 16 1 26 8 10 7 15 15 10 18 -5 3 -16 -1 -26 -8z"/> <path d="M3172 960 c-12 -11 -23 -20 -26 -20 -9 0 -101 -64 -104 -72 -2 -5 -8 -6 -12 -3 -5 3 -11 1 -15 -5 -9 -15 21 -12 37 3 7 7 38 28 68 46 30 19 57 37 60 41 3 4 12 9 20 12 9 3 10 7 4 11 -6 3 -20 -3 -32 -13z"/> <path d="M3402 958 c-19 -19 -14 -29 8 -16 20 13 27 28 12 28 -4 0 -13 -5 -20 -12z"/> <path d="M3465 959 c-12 -19 5 -23 22 -6 16 16 16 17 1 17 -9 0 -20 -5 -23 -11z"/> <path d="M3266 944 c-11 -7 -16 -17 -13 -21 4 -4 15 1 24 10 22 21 14 30 -11 11z"/> <path d="M3330 945 c-14 -16 -10 -18 14 -9 9 3 16 10 16 15 0 14 -16 11 -30 -6z"/> <path d="M3194 935 c-17 -13 -17 -14 -2 -15 9 0 20 5 23 11 11 17 0 20 -21 4z"/> <path d="M3494 936 c-10 -8 -16 -17 -13 -20 3 -3 14 1 25 8 10 8 16 17 13 20 -3 3 -14 -1 -25 -8z"/> <path d="M3058 926 c-10 -7 -15 -16 -12 -19 7 -7 44 14 44 25 0 12 -13 9 -32 -6z"/> <path d="M3356 924 c-11 -7 -16 -17 -13 -21 4 -4 15 1 24 10 22 21 14 30 -11 11z"/> <path d="M3420 925 c-14 -16 -10 -18 14 -9 9 3 16 10 16 15 0 14 -16 11 -30 -6z"/> <path d="M3284 915 c-10 -8 -14 -14 -9 -15 15 0 40 18 34 24 -3 3 -14 -1 -25 -9z"/> <path d="M3147 905 c-10 -7 -14 -16 -9 -19 5 -3 15 1 22 9 17 21 9 27 -13 10z"/> <path d="M3210 905 c-14 -16 -10 -18 14 -9 9 3 16 10 16 15 0 14 -16 11 -30 -6z"/> <path d="M3512 908 c-19 -19 -14 -29 8 -16 20 13 27 28 12 28 -4 0 -13 -5 -20 -12z"/> <path d="M3010 895 c-17 -21 -9 -27 13 -10 10 7 14 16 9 19 -5 3 -15 -1 -22 -9z"/> <path d="M3374 896 c-10 -8 -17 -17 -14 -19 3 -3 14 1 24 9 11 7 17 16 15 19 -3 3 -14 -2 -25 -9z"/> <path d="M3440 900 c-8 -5 -11 -12 -7 -16 4 -4 15 0 24 9 18 18 8 23 -17 7z"/> <path d="M3300 885 c-14 -16 -10 -18 14 -9 9 3 16 10 16 15 0 14 -16 11 -30 -6z"/> <path d="M3164 875 c-17 -13 -17 -14 -2 -15 9 0 20 5 23 11 11 17 0 20 -21 4z"/> <path d="M3226 875 c-8 -9 -17 -15 -18 -13 -7 5 -42 -21 -36 -28 4 -4 20 1 35 11 36 24 57 45 44 45 -5 0 -16 -7 -25 -15z"/> <path d="M3466 874 c-11 -7 -18 -16 -15 -18 2 -2 13 2 23 10 11 7 18 16 15 18 -2 2 -13 -2 -23 -10z"/> <path d="M3530 880 c-8 -5 -11 -12 -7 -16 4 -4 15 0 24 9 18 18 8 23 -17 7z"/> <path d="M3082 863 c-11 -10 -28 -23 -38 -29 -10 -6 -14 -13 -8 -16 5 -3 28 10 52 28 24 19 37 34 29 34 -8 0 -23 -8 -35 -17z"/> <path d="M3390 870 c-8 -5 -12 -12 -9 -15 8 -8 39 5 39 16 0 11 -11 11 -30 -1z"/> <path d="M2960 860 c-8 -5 -12 -11 -9 -14 3 -3 14 1 25 9 21 16 8 20 -16 5z"/> <path d="M3252 858 c-19 -19 -14 -29 8 -16 20 13 27 28 12 28 -4 0 -13 -5 -20 -12z"/> <path d="M3320 860 c-8 -5 -11 -12 -7 -16 4 -4 15 0 24 9 18 18 8 23 -17 7z"/> <path d="M3556 854 c-11 -7 -16 -17 -13 -21 4 -4 15 1 24 10 22 21 14 30 -11 11z"/> <path d="M3117 845 c-10 -7 -14 -16 -9 -19 5 -3 15 1 22 9 17 21 9 27 -13 10z"/> <path d="M3482 848 c-19 -19 -14 -29 8 -16 20 13 27 28 12 28 -4 0 -13 -5 -20 -12z"/> <path d="M2977 835 c-10 -7 -15 -15 -10 -18 5 -3 16 1 26 8 10 7 15 15 10 18 -5 3 -16 -1 -26 -8z"/> <path d="M3344 835 c-26 -18 -15 -26 15 -11 13 7 19 16 14 19 -6 4 -19 0 -29 -8z"/> <path d="M3409 833 c-13 -15 -12 -15 9 -4 23 12 28 21 13 21 -5 0 -15 -7 -22 -17z"/> <path d="M3220 830 c0 -5 -5 -9 -11 -7 -6 1 -14 -5 -16 -13 -4 -12 -3 -12 5 -2 5 8 13 13 18 12 5 -1 10 3 12 9 2 6 1 11 -2 11 -3 0 -6 -4 -6 -10z"/> <path d="M3270 830 c-8 -5 -12 -12 -9 -15 8 -8 39 5 39 16 0 11 -11 11 -30 -1z"/> <path d="M3570 825 c-17 -21 -5 -31 15 -12 8 9 15 18 15 21 0 11 -18 6 -30 -9z"/> <path d="M3066 814 c-11 -7 -16 -17 -13 -21 4 -4 15 1 24 10 22 21 14 30 -11 11z"/> <path d="M3130 815 c-14 -16 -10 -18 14 -9 9 3 16 10 16 15 0 14 -16 11 -30 -6z"/> <path d="M3434 816 c-10 -8 -15 -18 -11 -22 4 -4 15 0 24 9 22 21 12 31 -13 13z"/> <path d="M3500 820 c-8 -5 -12 -12 -9 -15 8 -8 39 5 39 16 0 11 -11 11 -30 -1z"/> <path d="M2994 804 c-18 -15 -17 -15 11 -9 l29 6 -19 -22 c-18 -21 -19 -22 -2 -16 10 4 21 7 23 7 10 0 3 28 -9 39 -10 8 -19 7 -33 -5z"/> <path d="M3296 804 c-11 -7 -16 -17 -13 -21 4 -4 15 1 24 10 22 21 14 30 -11 11z"/> <path d="M3360 805 c-14 -16 -10 -18 14 -9 9 3 16 10 16 15 0 14 -16 11 -30 -6z"/> <path d="M3224 796 c-10 -8 -17 -17 -14 -19 3 -3 14 1 24 9 11 7 17 16 15 19 -3 3 -14 -2 -25 -9z"/> <path d="M3526 794 c-11 -7 -16 -17 -13 -21 4 -4 15 1 24 10 22 21 14 30 -11 11z"/> <path d="M3590 795 c-14 -16 -10 -18 14 -9 9 3 16 10 16 15 0 14 -16 11 -30 -6z"/> <path d="M3088 786 c-10 -7 -15 -16 -12 -19 4 -3 13 1 21 9 20 19 13 26 -9 10z"/> <path d="M3386 784 c-11 -7 -16 -17 -13 -21 4 -4 15 1 24 10 22 21 14 30 -11 11z"/> <path d="M3454 785 c-10 -8 -14 -14 -9 -15 15 0 40 18 34 24 -3 3 -14 -1 -25 -9z"/> <path d="M2947 775 c-10 -7 -14 -16 -9 -19 5 -3 15 1 22 9 17 21 9 27 -13 10z"/> <path d="M3140 780 c0 -5 5 -10 10 -10 6 0 10 5 10 10 0 6 -4 10 -10 10 -5 0 -10 -4 -10 -10z"/> <path d="M3316 774 c-11 -7 -18 -16 -15 -18 2 -2 13 2 23 10 11 7 18 16 15 18 -2 2 -13 -2 -23 -10z"/> <path d="M3176 764 c-11 -7 -18 -16 -15 -18 2 -2 13 2 23 10 11 7 18 16 15 18 -2 2 -13 -2 -23 -10z"/> <path d="M3244 765 c-10 -8 -14 -14 -9 -15 15 0 40 18 34 24 -3 3 -14 -1 -25 -9z"/> <path d="M3547 765 c-10 -7 -14 -16 -9 -19 5 -3 15 1 22 9 17 21 9 27 -13 10z"/> <path d="M3610 770 c-8 -5 -12 -12 -9 -15 8 -8 39 5 39 16 0 11 -11 11 -30 -1z"/> <path d="M3036 754 c-11 -7 -16 -17 -13 -21 4 -4 15 1 24 10 22 21 14 30 -11 11z"/> <path d="M3100 755 c-14 -16 -10 -18 14 -9 9 3 16 10 16 15 0 14 -16 11 -30 -6z"/> <path d="M3470 760 c-8 -5 -12 -12 -9 -15 8 -8 39 5 39 16 0 11 -11 11 -30 -1z"/> <path d="M2964 745 c-10 -8 -14 -14 -9 -15 15 0 40 18 34 24 -3 3 -14 -1 -25 -9z"/> <path d="M3330 745 c-14 -16 -10 -18 14 -9 9 3 16 10 16 15 0 14 -16 11 -30 -6z"/> <path d="M3400 750 c-8 -5 -12 -11 -10 -14 3 -2 14 2 24 10 22 15 10 19 -14 4z"/> <path d="M3636 744 c-11 -7 -16 -17 -13 -21 4 -4 15 1 24 10 22 21 14 30 -11 11z"/> <path d="M3194 735 c-17 -13 -17 -14 -2 -15 9 0 20 5 23 11 11 17 0 20 -21 4z"/> <path d="M3260 740 c-8 -5 -12 -11 -9 -14 3 -3 14 1 25 9 21 16 8 20 -16 5z"/> <path d="M3496 734 c-11 -7 -16 -17 -13 -21 4 -4 15 1 24 10 22 21 14 30 -11 11z"/> <path d="M3564 735 c-10 -8 -14 -14 -9 -15 15 0 40 18 34 24 -3 3 -14 -1 -25 -9z"/> <path d="M3052 728 c-19 -19 -14 -29 8 -16 20 13 27 28 12 28 -4 0 -13 -5 -20 -12z"/> <path d="M3120 730 c-8 -5 -12 -11 -9 -14 3 -3 14 1 25 9 21 16 8 20 -16 5z"/> <path d="M3422 728 c-19 -19 -14 -29 8 -16 20 13 27 28 12 28 -4 0 -13 -5 -20 -12z"/> <path d="M2980 720 c-8 -5 -11 -12 -7 -16 4 -4 15 0 24 9 18 18 8 23 -17 7z"/> <path d="M3284 716 c-10 -8 -17 -17 -14 -19 3 -3 14 1 24 9 11 7 17 16 15 19 -3 3 -14 -2 -25 -9z"/> <path d="M3350 720 c-8 -5 -11 -12 -7 -16 4 -4 15 0 24 9 18 18 8 23 -17 7z"/> <path d="M3656 714 c-11 -7 -16 -17 -13 -21 4 -4 15 1 24 10 22 21 14 30 -11 11z"/> <path d="M3146 704 c-11 -7 -17 -16 -15 -19 3 -3 14 2 25 9 10 8 17 17 14 19 -3 3 -14 -1 -24 -9z"/> <path d="M3210 710 c-8 -5 -11 -12 -7 -16 4 -4 15 0 24 9 18 18 8 23 -17 7z"/> <path d="M3516 704 c-11 -7 -17 -16 -15 -19 3 -3 14 2 25 9 10 8 17 17 14 19 -3 3 -14 -1 -24 -9z"/> <path d="M3580 705 c-7 -8 -8 -15 -2 -15 5 0 15 7 22 15 7 8 8 15 2 15 -5 0 -15 -7 -22 -15z"/> <path d="M3004 696 c-10 -8 -16 -17 -13 -20 3 -3 14 1 25 8 10 8 16 17 13 20 -3 3 -14 -1 -25 -8z"/> <path d="M3078 702 c-10 -2 -18 -8 -18 -13 0 -11 11 -11 30 1 18 11 11 18 -12 12z"/> <path d="M3440 695 c-14 -16 -10 -18 14 -9 9 3 16 10 16 15 0 14 -16 11 -30 -6z"/> <path d="M3236 684 c-11 -7 -16 -17 -13 -21 4 -4 15 1 24 10 22 21 14 30 -11 11z"/> <path d="M3300 685 c-14 -16 -10 -18 14 -9 9 3 16 10 16 15 0 14 -16 11 -30 -6z"/> <path d="M3365 689 c-12 -19 5 -23 22 -6 16 16 16 17 1 17 -9 0 -20 -5 -23 -11z"/> <path d="M3600 678 c-14 -13 -26 -22 -27 -20 -2 1 -11 -2 -21 -7 -9 -5 -14 -13 -10 -17 9 -8 88 42 88 56 0 14 -3 13 -30 -12z"/> <path d="M3138 664 c-39 -25 -55 -55 -18 -32 11 7 20 16 20 19 0 4 11 10 25 13 14 4 25 11 25 16 0 15 -11 11 -52 -16z"/> <path d="M3530 671 c-7 -11 -16 -18 -19 -16 -9 5 -45 -24 -39 -31 8 -7 88 45 88 57 0 15 -15 10 -30 -10z"/> <path d="M3018 666 c-10 -7 -15 -16 -12 -19 9 -8 44 11 44 23 0 13 -12 12 -32 -4z"/> <path d="M3086 671 c-15 -6 -16 -10 -7 -15 8 -5 20 -2 29 8 17 17 9 19 -22 7z"/> <path d="M3392 668 c-19 -19 -14 -29 8 -16 20 13 27 28 12 28 -4 0 -13 -5 -20 -12z"/> <path d="M3468 673 c-10 -2 -18 -9 -18 -14 0 -14 16 -11 30 6 7 8 11 14 9 14 -2 -1 -12 -3 -21 -6z"/> <path d="M3252 658 c-19 -19 -14 -29 8 -16 20 13 27 28 12 28 -4 0 -13 -5 -20 -12z"/> <path d="M3297 645 c-38 -26 -53 -55 -17 -33 11 7 20 16 20 20 0 5 6 8 14 8 7 0 19 7 26 15 19 23 -1 18 -43 -10z"/> <path d="M3157 635 c-20 -14 -37 -31 -37 -37 0 -10 27 7 41 25 3 5 8 8 10 7 9 -3 39 13 39 21 0 15 -13 11 -53 -16z"/> <path d="M3400 633 c-36 -24 -53 -43 -47 -49 3 -3 14 3 25 14 11 11 29 23 41 27 12 3 21 11 21 16 0 13 -13 11 -40 -8z"/> <path d="M3340 630 c-8 -5 -12 -11 -10 -14 3 -2 14 2 24 10 22 15 10 19 -14 4z"/> <path d="M3200 620 c-8 -5 -11 -12 -7 -16 4 -4 15 0 24 9 18 18 8 23 -17 7z"/> <path d="M3504 616 c-10 -8 -17 -17 -14 -19 3 -3 14 1 24 9 11 7 17 16 15 19 -3 3 -14 -2 -25 -9z"/> <path d="M3059 603 c-13 -15 -12 -15 9 -4 23 12 28 21 13 21 -5 0 -15 -7 -22 -17z"/> <path d="M3430 605 c-14 -16 -10 -18 14 -9 9 3 16 10 16 15 0 14 -16 11 -30 -6z"/> <path d="M3226 594 c-11 -7 -18 -16 -15 -18 2 -2 13 2 23 10 11 7 18 16 15 18 -2 2 -13 -2 -23 -10z"/> <path d="M3290 595 c-7 -8 -8 -15 -2 -15 5 0 15 7 22 15 7 8 8 15 2 15 -5 0 -15 -7 -22 -15z"/> <path d="M3148 586 c-10 -7 -15 -16 -12 -19 7 -7 44 14 44 25 0 12 -13 9 -32 -6z"/> <path d="M3075 579 c-11 -17 -2 -18 19 -3 17 12 17 14 4 14 -9 0 -20 -5 -23 -11z"/> <path d="M3386 574 c-11 -7 -17 -16 -15 -19 3 -3 14 2 25 9 10 8 17 17 14 19 -3 3 -14 -1 -24 -9z"/> <path d="M3450 580 c-8 -5 -11 -12 -7 -16 4 -4 15 0 24 9 18 18 8 23 -17 7z"/> <path d="M3237 565 c-10 -7 -15 -15 -10 -18 5 -3 16 1 26 8 10 7 15 15 10 18 -5 3 -16 -1 -26 -8z"/> <path d="M3310 565 c-7 -8 -8 -15 -2 -15 5 0 15 7 22 15 7 8 8 15 2 15 -5 0 -15 -7 -22 -15z"/> <path d="M3100 555 c-7 -9 -11 -18 -8 -20 3 -3 11 1 18 10 7 9 11 18 8 20 -3 3 -11 -1 -18 -10z"/> <path d="M3167 558 c-14 -11 -14 -16 -2 -31 11 -15 17 -16 34 -7 29 15 26 22 -6 14 -28 -7 -28 -7 -9 15 21 23 10 29 -17 9z"/> <path d="M3402 548 c-19 -19 -14 -30 8 -18 11 6 20 15 20 20 0 14 -14 12 -28 -2z"/> <path d="M3270 540 c0 -5 -7 -10 -16 -10 -8 0 -12 -4 -9 -10 4 -6 13 -5 25 3 21 13 26 27 10 27 -5 0 -10 -4 -10 -10z"/> <path d="M3330 535 c-7 -8 -8 -15 -2 -15 5 0 15 7 22 15 7 8 8 15 2 15 -5 0 -15 -7 -22 -15z"/> <path d="M3117 525 c-10 -7 -15 -15 -10 -18 5 -3 16 1 26 8 10 7 15 15 10 18 -5 3 -16 -1 -26 -8z"/> <path d="M3354 516 c-10 -8 -15 -18 -11 -22 4 -4 15 0 24 9 22 21 12 31 -13 13z"/> <path d="M3207 505 c-13 -9 -15 -15 -7 -20 7 -4 19 -1 27 8 19 19 3 29 -20 12z"/> <path d="M3277 509 c-9 -6 -15 -14 -12 -19 6 -10 45 9 45 22 0 11 -11 10 -33 -3z"/> <path d="M3135 496 c-13 -9 -15 -15 -7 -20 7 -4 12 -3 12 3 0 5 8 11 18 13 11 2 13 6 6 10 -6 4 -19 1 -29 -6z"/> <path d="M3227 476 c-18 -14 -22 -26 -9 -26 15 0 45 27 36 33 -5 3 -17 0 -27 -7z"/> <path d="M3294 475 c-16 -12 -16 -14 -3 -15 9 0 22 7 29 15 16 19 0 19 -26 0z"/> <path d="M3154 465 c-10 -8 -14 -14 -9 -15 15 0 40 18 34 24 -3 3 -14 -1 -25 -9z"/> <path d="M3247 445 c-10 -7 -14 -16 -9 -19 5 -3 15 1 22 9 17 21 9 27 -13 10z"/> <path d="M3174 435 c-10 -8 -14 -14 -9 -15 15 0 40 18 34 24 -3 3 -14 -1 -25 -9z"/> <path d="M3190 405 c-14 -16 -10 -18 14 -9 9 3 16 10 16 15 0 14 -16 11 -30 -6z"/> <path d="M1727 2894 c-13 -13 -7 -24 14 -24 11 0 19 5 17 12 -5 14 -22 21 -31 12z"/> <path d="M2207 2874 c-4 -4 -7 -19 -6 -33 l0 -26 10 24 c10 26 8 47 -4 35z"/> <path d="M2235 2838 c2 -24 0 -50 -5 -58 -8 -13 -10 -12 -10 3 0 9 -4 17 -10 17 -12 0 -13 -11 0 -30 8 -12 13 -13 29 -3 10 6 28 9 40 6 11 -3 21 -1 21 5 0 15 -28 34 -40 27 -6 -4 -10 7 -10 29 0 19 -4 37 -9 41 -6 3 -8 -12 -6 -37z"/> <path d="M1765 2780 c-11 -5 -37 -9 -57 -9 -40 -1 -88 -19 -88 -33 0 -4 -7 -8 -16 -8 -14 0 -15 -10 -9 -70 5 -46 3 -70 -3 -70 -11 0 -24 32 -27 64 -2 27 -31 44 -47 28 -9 -9 -9 -12 3 -12 8 0 23 -22 34 -52 11 -29 21 -56 23 -59 6 -13 -30 -39 -54 -39 -13 0 -24 -4 -24 -10 0 -18 45 -10 71 13 34 31 49 77 43 135 -5 45 -4 48 32 70 22 14 46 21 58 18 11 -3 26 0 34 6 10 9 16 8 23 -3 8 -12 10 -12 20 1 7 10 12 11 15 4 4 -8 19 -7 55 3 51 15 51 15 82 -13 28 -25 29 -26 12 -4 -30 37 -36 40 -81 33 -26 -3 -44 -1 -48 6 -8 13 -23 13 -51 1z"/> <path d="M2116 2781 c-43 -9 -12 -30 37 -23 31 3 35 7 26 18 -12 15 -17 15 -63 5z"/> <path d="M2052 2757 c-7 -8 -7 -18 -2 -27 5 -8 7 -17 4 -21 -2 -4 5 -5 15 -2 14 4 21 -1 24 -19 4 -21 4 -21 6 4 1 29 -17 78 -29 78 -4 0 -12 -6 -18 -13z m28 -17 c0 -5 -4 -10 -10 -10 -5 0 -10 5 -10 10 0 6 5 10 10 10 6 0 10 -4 10 -10z"/> <path d="M1820 2736 c0 -2 16 -38 35 -80 19 -43 35 -79 35 -82 0 -3 -19 11 -42 30 -42 36 -58 44 -58 27 0 -5 10 -11 23 -15 18 -5 20 -8 7 -16 -12 -8 -9 -10 12 -10 23 0 53 -20 31 -20 -4 0 -18 -3 -30 -6 -20 -5 -26 3 -59 72 -40 87 -42 90 -49 82 -3 -3 10 -39 30 -80 39 -83 43 -104 17 -72 -13 15 -23 19 -37 13 -11 -4 -14 -8 -8 -8 8 -1 11 -11 7 -29 -5 -25 -3 -28 23 -29 15 0 20 1 11 4 -12 3 -18 14 -18 31 1 26 1 26 15 7 14 -17 19 -18 60 -7 25 7 54 12 65 12 11 0 20 4 20 10 0 17 -74 170 -82 170 -5 0 -8 -2 -8 -4z"/> <path d="M1660 2720 c0 -12 8 -12 35 0 18 8 17 9 -7 9 -16 1 -28 -3 -28 -9z"/> <path d="M1910 2721 c0 -5 7 -11 15 -15 8 -3 15 -1 15 3 0 5 -7 11 -15 15 -8 3 -15 1 -15 -3z"/> <path d="M1770 2705 c0 -8 2 -15 4 -15 2 0 6 7 10 15 3 8 1 15 -4 15 -6 0 -10 -7 -10 -15z"/> <path d="M1880 2700 c6 -11 12 -20 14 -20 2 0 2 9 -1 20 -3 11 -9 20 -15 20 -5 0 -4 -9 2 -20z"/> <path d="M1623 2693 c27 -47 67 -151 64 -164 -3 -12 1 -15 13 -12 17 4 17 7 -1 51 -29 76 -59 132 -70 132 -6 0 -8 -3 -6 -7z"/> <path d="M1360 2650 c0 -5 5 -10 10 -10 6 0 10 5 10 10 0 6 -4 10 -10 10 -5 0 -10 -4 -10 -10z"/> <path d="M1405 2650 c3 -5 10 -10 16 -10 5 0 9 5 9 10 0 6 -7 10 -16 10 -8 0 -12 -4 -9 -10z"/> <path d="M2043 2643 c11 -12 18 -11 43 2 l29 15 -43 -2 c-36 -1 -41 -3 -29 -15z"/> <path d="M1715 2630 c3 -5 -1 -10 -10 -10 -9 0 -13 -5 -10 -10 4 -6 16 -8 28 -4 31 9 34 14 17 24 -20 13 -33 12 -25 0z"/> <path d="M1940 2612 c0 -18 -4 -32 -8 -32 -5 0 -9 -7 -9 -15 0 -15 37 -12 67 7 12 8 11 8 -3 4 -14 -5 -17 -2 -13 12 4 12 -1 26 -14 37 -20 18 -20 18 -20 -13z m25 -12 c3 -5 1 -10 -4 -10 -6 0 -11 5 -11 10 0 6 2 10 4 10 3 0 8 -4 11 -10z"/> <path d="M1375 2620 c-3 -5 -1 -10 4 -10 6 0 11 5 11 10 0 6 -2 10 -4 10 -3 0 -8 -4 -11 -10z"/> <path d="M2097 2623 c-4 -3 -7 -11 -7 -17 0 -6 5 -5 12 2 6 6 9 14 7 17 -3 3 -9 2 -12 -2z"/> <path d="M1635 2600 c-3 -5 -1 -10 4 -10 6 0 11 5 11 10 0 6 -2 10 -4 10 -3 0 -8 -4 -11 -10z"/> <path d="M2155 2590 c-3 -5 -2 -10 4 -10 5 0 13 5 16 10 3 6 2 10 -4 10 -5 0 -13 -4 -16 -10z"/> <path d="M2079 2583 c-4 -26 5 -80 14 -91 8 -10 5 -12 -17 -8 -15 3 -24 1 -21 -5 4 -5 17 -9 31 -9 22 0 24 3 18 22 -4 12 -7 39 -7 60 0 21 -4 38 -8 38 -5 0 -9 -3 -10 -7z"/> <path d="M2120 2575 c0 -8 2 -15 4 -15 2 0 6 7 10 15 3 8 1 15 -4 15 -6 0 -10 -7 -10 -15z"/> <path d="M2310 2549 c0 -5 5 -7 10 -4 6 3 10 8 10 11 0 2 -4 4 -10 4 -5 0 -10 -5 -10 -11z"/> <path d="M1878 2543 c7 -3 16 -2 19 1 4 3 -2 6 -13 5 -11 0 -14 -3 -6 -6z"/> <path d="M1838 2533 c7 -3 16 -2 19 1 4 3 -2 6 -13 5 -11 0 -14 -3 -6 -6z"/> <path d="M1950 2532 c0 -7 -7 -12 -16 -12 -8 0 -12 -5 -8 -11 4 -7 11 -6 22 5 9 8 13 19 9 22 -4 4 -7 2 -7 -4z"/> <path d="M1987 2532 c-14 -6 -12 -10 15 -19 28 -10 30 -10 16 1 -10 7 -15 16 -11 19 8 8 4 8 -20 -1z"/> <path d="M2051 2524 c0 -11 3 -14 6 -6 3 7 2 16 -1 19 -3 4 -6 -2 -5 -13z"/> <path d="M1890 2500 c14 -10 27 -17 29 -14 6 5 -31 33 -44 33 -5 1 1 -8 15 -19z"/> <path d="M1450 2491 c0 -14 -9 -23 -25 -27 -51 -13 -16 -15 51 -3 79 14 105 28 45 23 -26 -1 -40 2 -38 9 1 6 -6 13 -15 15 -13 2 -18 -3 -18 -17z"/> <path d="M1380 2484 c0 -11 5 -14 16 -10 9 3 22 6 30 6 8 0 14 5 14 10 0 6 -13 10 -30 10 -21 0 -30 -5 -30 -16z"/> <path d="M1841 2491 c-8 -5 -9 -11 -3 -15 5 -3 12 1 16 9 6 17 6 18 -13 6z"/> <path d="M1729 2478 c0 -7 -2 -23 -3 -34 -2 -19 0 -20 15 -11 13 8 15 15 7 24 -7 9 -7 13 1 13 7 0 9 5 6 10 -9 14 -25 12 -26 -2z"/> <path d="M1963 2483 c-14 -3 -23 -12 -23 -23 0 -17 2 -17 30 -4 27 14 42 36 23 33 -5 -1 -18 -4 -30 -6z"/> <path d="M2027 2474 c-8 -14 8 -37 22 -33 8 3 8 10 -2 23 -8 11 -17 15 -20 10z"/> <path d="M1816 2458 c6 -10 51 -11 57 0 3 4 -10 7 -28 8 -19 0 -32 -3 -29 -8z"/> <path d="M2000 2450 c0 -5 5 -10 10 -10 6 0 10 5 10 10 0 6 -4 10 -10 10 -5 0 -10 -4 -10 -10z"/> <path d="M1659 2448 c-7 -28 -5 -38 7 -38 16 0 19 26 4 35 -5 3 -10 5 -11 3z"/> <path d="M1777 2429 c4 -13 8 -18 11 -10 2 7 -1 18 -6 23 -8 8 -9 4 -5 -13z"/> <path d="M1885 2440 c3 -5 8 -10 11 -10 2 0 4 5 4 10 0 6 -5 10 -11 10 -5 0 -7 -4 -4 -10z"/> <path d="M1917 2420 c8 -28 20 -34 19 -8 0 12 -6 23 -13 25 -7 3 -9 -3 -6 -17z"/> <path d="M1810 2419 c0 -5 5 -7 12 -3 8 5 9 2 5 -9 -3 -10 -2 -17 2 -17 16 0 20 28 5 34 -21 8 -24 8 -24 -5z"/> <path d="M1867 2415 c3 -8 9 -12 14 -9 12 7 11 11 -5 17 -10 4 -13 1 -9 -8z"/> <path d="M1973 2423 c-18 -7 -16 -23 2 -23 8 0 15 7 15 15 0 8 -1 15 -2 14 -2 0 -9 -3 -15 -6z"/> <path d="M1511 2404 c0 -11 3 -14 6 -6 3 7 2 16 -1 19 -3 4 -6 -2 -5 -13z"/> <path d="M1370 2386 c0 -2 7 -9 15 -16 13 -11 14 -10 9 4 -5 14 -24 23 -24 12z"/> <path d="M1710 2175 c-7 -9 -10 -18 -7 -21 10 -11 37 5 37 21 0 19 -14 19 -30 0z"/> <path d="M2636 2064 c-23 -22 -20 -24 14 -13 17 6 30 15 30 20 0 14 -27 10 -44 -7z"/> <path d="M2665 2040 c-3 -5 -2 -10 4 -10 5 0 13 5 16 10 3 6 2 10 -4 10 -5 0 -13 -4 -16 -10z"/> <path d="M2603 2005 c-23 -13 -40 -25 -37 -28 3 -3 22 4 42 16 45 25 46 26 41 31 -2 2 -23 -7 -46 -19z"/> <path d="M2680 2020 c-13 -8 -13 -10 2 -10 9 0 20 5 23 10 8 13 -5 13 -25 0z"/> <path d="M2700 2000 c-8 -5 -12 -11 -10 -14 3 -2 14 2 24 10 22 15 10 19 -14 4z"/> <path d="M2635 1990 c-3 -5 -2 -10 4 -10 5 0 13 5 16 10 3 6 2 10 -4 10 -5 0 -13 -4 -16 -10z"/> <path d="M2722 1982 c-6 -2 -12 -8 -12 -13 0 -4 8 -5 18 -2 15 6 15 5 3 -10 -7 -9 -9 -17 -3 -17 5 0 14 6 20 13 12 14 -6 36 -26 29z"/> <path d="M2590 1965 c-7 -8 -16 -15 -21 -15 -4 0 -25 -11 -45 -25 -50 -34 -32 -31 33 5 59 34 71 37 53 15 -11 -13 -10 -14 4 -9 18 7 18 7 10 28 -8 20 -18 20 -34 1z"/> <path d="M2650 1970 c-13 -8 -13 -10 2 -10 9 0 20 5 23 10 8 13 -5 13 -25 0z"/> <path d="M2530 1960 c-8 -5 -12 -11 -10 -14 3 -2 14 2 24 10 22 15 10 19 -14 4z"/> <path d="M2670 1950 c-8 -5 -12 -11 -9 -14 3 -3 14 1 25 9 21 16 8 20 -16 5z"/> <path d="M2480 1930 c-8 -5 -10 -10 -5 -10 6 0 17 5 25 10 8 5 11 10 5 10 -5 0 -17 -5 -25 -10z"/> <path d="M2693 1933 c-7 -3 -13 -9 -13 -14 0 -4 8 -5 18 -2 15 6 16 5 2 -12 -14 -17 -13 -17 10 -10 22 7 23 6 11 -9 -8 -9 -9 -16 -3 -16 6 0 14 5 17 11 4 5 18 15 32 20 14 5 23 12 20 15 -3 3 -15 0 -27 -6 -18 -9 -24 -8 -38 8 -9 10 -23 17 -29 15z"/> <path d="M2560 1915 c-7 -8 -8 -15 -2 -15 5 0 15 7 22 15 7 8 8 15 2 15 -5 0 -15 -7 -22 -15z"/> <path d="M2620 1920 c-8 -5 -10 -10 -5 -10 6 0 17 5 25 10 8 5 11 10 5 10 -5 0 -17 -5 -25 -10z"/> <path d="M2418 1897 c-40 -24 -51 -42 -18 -32 30 9 24 -2 -10 -20 -37 -19 -46 -19 -30 0 14 16 3 20 -19 6 -12 -8 -12 -11 0 -24 12 -13 18 -12 52 7 23 13 35 26 32 35 -6 16 11 31 35 31 11 -1 10 -4 -4 -15 -22 -16 -10 -20 14 -5 13 8 13 11 0 24 -13 13 -20 12 -52 -7z"/> <path d="M2580 1895 c-11 -13 -10 -14 4 -9 9 3 16 10 16 15 0 13 -6 11 -20 -6z"/> <path d="M2640 1900 c-8 -5 -12 -11 -10 -14 3 -2 14 2 24 10 22 15 10 19 -14 4z"/> <path d="M2515 1889 c-11 -17 1 -21 15 -4 8 9 8 15 2 15 -6 0 -14 -5 -17 -11z"/> <path d="M2596 1874 c-11 -8 -16 -14 -10 -14 13 0 39 18 34 24 -3 2 -14 -2 -24 -10z"/> <path d="M2663 1883 c-7 -3 -13 -9 -13 -14 0 -4 8 -5 18 -2 15 6 16 5 2 -12 -14 -17 -13 -17 10 -10 23 7 24 7 10 -10 -13 -15 -13 -18 -1 -14 8 3 16 10 18 15 5 15 -30 52 -44 47z"/> <path d="M2531 1866 c-10 -12 -8 -14 11 -9 17 4 13 -2 -15 -22 -21 -15 -36 -29 -34 -32 3 -3 20 6 39 19 18 12 34 23 36 24 6 2 -11 34 -18 34 -4 0 -13 -6 -19 -14z"/> <path d="M2800 1870 c-8 -5 -12 -11 -9 -14 2 -3 11 -1 19 4 8 5 12 11 9 14 -2 3 -11 1 -19 -4z"/> <path d="M2470 1860 c-13 -8 -13 -11 1 -25 14 -15 17 -15 30 1 13 15 12 16 -11 9 -22 -7 -23 -6 -11 9 15 18 13 20 -9 6z"/> <path d="M2730 1860 c-13 -8 -13 -10 2 -10 9 0 20 5 23 10 8 13 -5 13 -25 0z"/> <path d="M2610 1850 c-8 -5 -12 -11 -10 -14 3 -2 14 2 24 10 22 15 10 19 -14 4z"/> <path d="M2798 1837 c-21 -12 -38 -26 -38 -30 0 -4 18 3 40 15 22 13 40 26 40 31 0 9 1 10 -42 -16z"/> <path d="M2750 1840 c-8 -5 -12 -11 -9 -14 3 -3 14 1 25 9 21 16 8 20 -16 5z"/> <path d="M2415 1830 c-8 -13 5 -13 25 0 13 8 13 10 -2 10 -9 0 -20 -4 -23 -10z"/> <path d="M2625 1829 c-11 -17 1 -21 15 -4 8 9 8 15 2 15 -6 0 -14 -5 -17 -11z"/> <path d="M2560 1820 c-8 -5 -12 -11 -10 -14 3 -2 14 2 24 10 22 15 10 19 -14 4z"/> <path d="M2830 1820 c-8 -5 -10 -10 -5 -10 6 0 17 5 25 10 8 5 11 10 5 10 -5 0 -17 -5 -25 -10z"/> <path d="M2374 1805 c-10 -8 -14 -14 -9 -15 15 0 40 18 34 24 -3 3 -14 -1 -25 -9z"/> <path d="M2436 1811 c-4 -5 -3 -16 0 -25 3 -9 2 -16 -4 -16 -6 0 -19 -3 -29 -6 -16 -6 -16 -5 2 9 11 9 16 16 10 17 -20 0 -36 -17 -30 -32 4 -10 -1 -17 -16 -21 -13 -4 -20 -9 -17 -13 8 -7 103 43 121 64 10 13 8 14 -13 8 -24 -7 -24 -6 -6 8 17 14 17 16 4 16 -9 0 -19 -4 -22 -9z"/> <path d="M2640 1805 c-14 -16 -10 -18 14 -9 9 3 16 10 16 15 0 14 -16 11 -30 -6z"/> <path d="M2698 1806 c-8 -7 -23 -16 -33 -20 -27 -9 -73 -45 -58 -46 6 0 18 7 26 15 8 8 17 11 21 8 11 -11 6 -21 -14 -26 -11 -3 -20 -10 -20 -15 0 -6 18 -1 40 11 43 24 53 42 18 32 -21 -5 -22 -5 -4 7 40 28 60 47 49 48 -6 0 -18 -6 -25 -14z"/> <path d="M2250 1795 c-17 -21 -9 -27 13 -10 10 7 14 16 9 19 -5 3 -15 -1 -22 -9z"/> <path d="M2516 1794 c-17 -12 -17 -14 -4 -14 9 0 20 5 23 11 11 17 2 18 -19 3z"/> <path d="M2580 1800 c-8 -5 -12 -11 -10 -14 3 -2 14 2 24 10 22 15 10 19 -14 4z"/> <path d="M2786 1794 c-17 -12 -17 -14 -4 -14 9 0 20 5 23 11 11 17 2 18 -19 3z"/> <path d="M2720 1785 c-10 -12 -10 -15 1 -15 8 0 1 -11 -16 -25 -26 -21 -27 -23 -7 -18 32 8 27 -2 -14 -27 -19 -12 -33 -25 -30 -28 3 -3 14 2 23 10 10 8 26 18 36 21 13 5 16 13 12 26 -4 14 0 21 15 26 11 3 20 10 20 15 0 5 -8 6 -17 3 -16 -6 -16 -5 -4 10 7 9 9 17 3 17 -5 0 -15 -7 -22 -15z"/> <path d="M2588 1772 c-38 -23 -36 -35 2 -14 16 9 30 20 30 25 0 9 -1 9 -32 -11z"/> <path d="M2830 1755 c-30 -19 -59 -36 -65 -38 -5 -3 -8 -7 -5 -10 3 -3 30 10 60 28 30 19 60 36 65 38 6 3 8 7 5 10 -3 3 -30 -10 -60 -28z"/> <path d="M2469 1764 c-13 -15 -11 -16 11 -10 24 7 24 6 6 -8 -17 -14 -17 -16 -4 -16 24 0 33 20 16 36 -13 13 -16 13 -29 -2z"/> <path d="M2525 1769 c-11 -17 0 -20 21 -4 17 13 17 14 2 15 -9 0 -20 -5 -23 -11z"/> <path d="M2346 1754 c-11 -8 -16 -14 -10 -14 13 0 39 18 34 24 -3 2 -14 -2 -24 -10z"/> <path d="M2756 1744 c-17 -12 -17 -14 -4 -14 9 0 20 5 23 11 11 17 2 18 -19 3z"/> <path d="M2419 1734 c-12 -15 -11 -16 9 -10 32 11 27 1 -14 -24 -19 -12 -33 -25 -30 -28 3 -3 14 2 24 11 10 10 24 17 30 17 16 0 23 16 16 34 -8 20 -18 20 -35 0z"/> <path d="M2518 1732 c-38 -23 -36 -35 2 -14 16 9 30 20 30 25 0 9 1 9 -32 -11z"/> <path d="M2564 1725 c-10 -8 -14 -14 -9 -15 15 0 40 18 34 24 -3 3 -14 -1 -25 -9z"/> <path d="M2834 1725 c-10 -8 -14 -14 -9 -15 15 0 40 18 34 24 -3 3 -14 -1 -25 -9z"/> <path d="M2314 1705 c-10 -8 -14 -14 -9 -15 15 0 40 18 34 24 -3 3 -14 -1 -25 -9z"/> <path d="M2374 1705 c-10 -8 -14 -15 -8 -15 6 0 17 7 24 15 16 19 9 19 -16 0z"/> <path d="M2644 1705 c-10 -8 -14 -14 -9 -15 15 0 40 18 34 24 -3 3 -14 -1 -25 -9z"/> <path d="M2520 1700 c-8 -5 -12 -11 -9 -14 2 -3 11 -1 19 4 8 5 12 11 9 14 -2 3 -11 1 -19 -4z"/> <path d="M2575 1700 c-6 -10 24 -59 36 -60 4 0 13 7 20 16 12 15 11 16 -11 9 -22 -7 -23 -6 -12 8 11 13 10 15 -10 10 -22 -4 -22 -4 -4 11 17 14 17 16 4 16 -9 0 -20 -4 -23 -10z"/> <path d="M2790 1695 c-11 -13 -10 -14 4 -9 9 3 16 10 16 15 0 13 -6 11 -20 -6z"/> <path d="M2850 1700 c-8 -5 -10 -10 -5 -10 6 0 17 5 25 10 8 5 11 10 5 10 -5 0 -17 -5 -25 -10z"/> <path d="M2446 1685 c-8 -9 -18 -15 -21 -15 -10 1 -64 -30 -71 -41 -4 -8 1 -9 17 -5 22 6 23 6 7 -7 -24 -19 -23 -30 2 -17 14 8 19 17 15 29 -4 14 1 20 17 25 27 7 78 45 61 46 -6 0 -18 -7 -27 -15z"/> <path d="M2720 1690 c-8 -5 -12 -11 -9 -14 3 -3 14 1 25 9 21 16 8 20 -16 5z"/> <path d="M2325 1680 c-3 -5 -2 -10 4 -10 5 0 13 5 16 10 3 6 2 10 -4 10 -5 0 -13 -4 -16 -10z"/> <path d="M2534 1674 c-18 -14 -18 -15 4 -9 13 4 22 2 22 -4 0 -6 -7 -11 -16 -11 -8 0 -13 -4 -9 -10 3 -5 13 -6 22 -3 11 4 14 3 9 -6 -5 -7 -19 -16 -32 -21 -13 -5 -24 -14 -24 -19 0 -6 16 -1 35 10 38 23 53 39 35 39 -6 0 -9 3 -6 8 2 4 -1 15 -8 24 -12 16 -15 16 -32 2z"/> <path d="M2806 1674 c-11 -8 -16 -14 -10 -14 13 0 39 18 34 24 -3 2 -14 -2 -24 -10z"/> <path d="M2470 1670 c-8 -5 -12 -11 -9 -14 3 -3 14 1 25 9 21 16 8 20 -16 5z"/> <path d="M2676 1664 c-17 -12 -17 -14 -4 -14 9 0 20 5 23 11 11 17 2 18 -19 3z"/> <path d="M2739 1663 c-13 -15 -12 -15 9 -4 23 12 28 21 13 21 -5 0 -15 -7 -22 -17z"/> <path d="M2340 1660 c-8 -5 -11 -12 -7 -16 4 -4 15 0 24 9 18 18 8 23 -17 7z"/> <path d="M2450 1625 c-30 -19 -59 -36 -65 -38 -5 -3 -8 -7 -5 -10 3 -3 30 10 60 28 30 19 60 36 65 38 6 3 8 7 5 10 -3 3 -30 -10 -60 -28z"/> <path d="M2712 1619 c-65 -41 -78 -55 -40 -43 21 6 22 5 8 -11 -14 -17 -13 -18 3 -12 10 4 21 7 24 7 3 0 0 7 -7 15 -15 18 -13 20 20 29 23 7 24 6 7 -8 -10 -8 -14 -17 -9 -20 14 -9 33 19 26 38 -4 10 -1 16 9 16 15 0 33 18 25 25 -2 2 -31 -14 -66 -36z"/> <path d="M2820 1650 c-8 -5 -12 -11 -9 -14 3 -3 14 1 25 9 21 16 8 20 -16 5z"/> <path d="M2420 1640 c-8 -5 -12 -11 -9 -14 3 -3 14 1 25 9 21 16 8 20 -16 5z"/> <path d="M2630 1635 c-14 -16 -3 -20 19 -6 8 5 9 11 3 15 -5 3 -15 -1 -22 -9z"/> <path d="M2688 1636 c-8 -7 -24 -17 -36 -20 -12 -4 -20 -11 -17 -16 6 -9 70 24 81 41 8 14 -13 11 -28 -5z"/> <path d="M2495 1619 c-11 -17 -2 -18 19 -3 17 12 17 14 4 14 -9 0 -20 -5 -23 -11z"/> <path d="M2770 1620 c-8 -5 -12 -11 -9 -14 3 -3 14 1 25 9 21 16 8 20 -16 5z"/> <path d="M2584 1605 c-10 -8 -14 -14 -9 -15 15 0 40 18 34 24 -3 3 -14 -1 -25 -9z"/> <path d="M2454 1595 c-10 -8 -14 -14 -9 -15 15 0 40 18 34 24 -3 3 -14 -1 -25 -9z"/> <path d="M2534 1575 c-10 -8 -14 -14 -9 -15 15 0 40 18 34 24 -3 3 -14 -1 -25 -9z"/> <path d="M2595 1579 c-11 -17 1 -21 15 -4 8 9 8 15 2 15 -6 0 -14 -5 -17 -11z"/> <path d="M2470 1570 c-8 -5 -12 -11 -10 -14 3 -2 14 2 24 10 22 15 10 19 -14 4z"/> <path d="M2554 1556 c-10 -8 -17 -17 -14 -19 3 -3 14 1 24 9 11 7 17 16 15 19 -3 3 -14 -2 -25 -9z"/> <path d="M2614 1555 c-10 -8 -14 -15 -8 -15 6 0 17 7 24 15 16 19 9 19 -16 0z"/> <path d="M2426 1544 c-11 -8 -16 -14 -10 -14 13 0 39 18 34 24 -3 2 -14 -2 -24 -10z"/> <path d="M2468 1537 c-21 -12 -38 -26 -38 -30 0 -4 18 3 40 15 22 13 40 26 40 31 0 9 1 10 -42 -16z"/> <path d="M2634 1535 c-10 -8 -14 -14 -9 -15 15 0 40 18 34 24 -3 3 -14 -1 -25 -9z"/> <path d="M2506 1524 c-11 -8 -16 -14 -10 -14 13 0 39 18 34 24 -3 2 -14 -2 -24 -10z"/> <path d="M2548 1517 c-21 -12 -38 -26 -38 -30 0 -10 57 23 72 41 14 16 9 15 -34 -11z"/> <path d="M2584 1505 c-10 -8 -14 -14 -9 -15 15 0 40 18 34 24 -3 3 -14 -1 -25 -9z"/> <path d="M2534 1475 c-10 -8 -14 -14 -9 -15 15 0 40 18 34 24 -3 3 -14 -1 -25 -9z"/> <path d="M2470 1470 c-8 -5 -12 -11 -9 -14 3 -3 14 1 25 9 21 16 8 20 -16 5z"/> </g> </svg> 