<?xml version="1.0" standalone="no"?>
<!DOCTYPE svg PUBLIC "-//W3C//DTD SVG 20010904//EN"
 "http://www.w3.org/TR/2001/REC-SVG-20010904/DTD/svg10.dtd">
<svg version="1.0" xmlns="http://www.w3.org/2000/svg"
 width="478.000000pt" height="319.000000pt" viewBox="0 0 478.000000 319.000000"
 preserveAspectRatio="xMidYMid meet">
<metadata>
Created by potrace 1.10, written by Peter Selinger 2001-2011
</metadata>
<g transform="translate(0.000000,319.000000) scale(0.100000,-0.100000)"
fill="#00ffff" stroke="none">
<path d="M3520 3161 c-13 -8 -129 -31 -380 -77 -47 -8 -102 -20 -123 -26 -51
-16 -148 -121 -164 -180 -11 -39 -31 -214 -65 -562 l-12 -118 -50 6 c-28 3
-61 6 -73 6 -20 0 -20 3 -11 35 6 19 15 32 19 29 5 -3 6 2 3 11 -4 9 0 37 7
63 7 26 12 50 11 55 -1 4 2 7 7 7 6 0 9 8 9 18 -1 9 2 33 7 52 4 19 4 32 1 29
-9 -9 -67 -220 -80 -291 -4 -24 -1 -28 20 -28 15 0 24 -6 24 -15 0 -13 -4 -14
-20 -5 -17 9 -21 8 -26 -7 -20 -63 -21 -64 -70 -58 -26 3 -51 8 -57 12 -6 3
-7 1 -3 -5 4 -7 1 -12 -8 -12 -8 0 -22 -3 -32 -7 -13 -5 -16 -3 -12 8 5 12 -1
14 -23 11 -23 -3 -29 -9 -29 -28 0 -21 -4 -23 -29 -18 -25 5 -29 4 -25 -12 3
-11 -4 -29 -15 -41 -25 -27 -30 -63 -6 -43 16 13 21 1 6 -15 -5 -6 -20 -31
-35 -57 -19 -36 -22 -48 -11 -48 7 0 17 10 21 23 3 12 15 34 25 49 11 14 19
43 19 65 0 63 10 69 69 39 31 -16 51 -33 52 -44 1 -34 17 -118 33 -176 9 -32
14 -61 12 -63 -2 -3 2 -24 10 -46 8 -23 16 -75 17 -115 1 -42 6 -71 12 -70 6
2 9 10 7 18 -1 8 -4 43 -7 77 -2 34 -11 78 -19 97 -8 19 -12 37 -9 40 3 3 -4
47 -15 98 -30 134 -30 143 -17 200 l11 52 63 -1 c71 -2 91 -12 65 -34 -16 -12
-17 -12 -11 4 4 9 2 17 -4 17 -7 0 -9 -9 -5 -22 3 -13 6 -27 6 -31 0 -5 5 -5
11 -1 6 3 22 1 35 -6 17 -10 27 -10 37 -2 10 9 16 9 25 0 6 -6 15 -8 19 -3 5
4 3 10 -4 12 -8 3 -8 11 3 31 14 28 5 50 -16 37 -8 -5 -8 -10 0 -20 8 -10 8
-15 0 -20 -15 -9 -20 -4 -22 28 -1 14 -6 23 -10 21 -5 -3 -11 2 -14 10 -3 9
-10 16 -15 16 -4 0 -6 -6 -3 -13 3 -8 -4 -13 -17 -14 -21 -2 -21 -1 -3 20 10
12 20 24 21 26 1 2 9 -2 17 -8 8 -7 17 -8 20 -3 3 5 18 7 32 4 19 -3 31 1 42
14 14 18 14 18 8 -1 -7 -26 -9 -38 -56 -456 -44 -390 -44 -431 5 -495 14 -18
25 -37 25 -42 0 -19 37 -40 80 -45 25 -3 115 -13 200 -22 85 -10 163 -21 172
-26 24 -13 26 -12 21 14 -2 12 0 47 4 77 l8 55 50 -3 c28 -2 54 -8 60 -13 17
-16 35 -9 35 14 0 18 -2 19 -11 7 -8 -11 -9 -8 -5 15 3 17 10 89 16 160 9 117
34 394 60 690 5 61 12 142 15 180 3 39 12 138 20 220 8 83 23 254 35 380 25
278 28 298 42 289 7 -4 8 -3 4 4 -8 14 -16 14 -36 3z m-15 -41 c-11 -5 -29
-12 -40 -16 -17 -7 -15 -9 13 -12 17 -2 32 -7 32 -12 0 -11 -30 -21 -41 -14
-5 3 -9 0 -9 -6 0 -6 -10 -8 -25 -4 -17 4 -25 2 -25 -7 0 -9 -3 -10 -8 -3 -8
13 -132 -12 -132 -27 0 -5 7 -9 15 -9 8 0 15 6 15 13 0 8 4 7 10 -3 5 -8 10
-10 10 -3 0 6 9 9 22 5 12 -3 19 -1 15 4 -3 6 10 10 31 10 20 -1 56 3 80 8 27
5 42 4 42 -2 0 -6 -31 -16 -70 -23 -38 -7 -70 -16 -70 -21 0 -5 12 -6 28 -2
15 3 36 6 47 5 11 0 23 5 27 12 5 9 12 8 24 -5 15 -15 12 -17 -40 -28 -69 -14
-74 -25 -6 -16 28 4 50 4 50 1 0 -15 -26 -32 -42 -27 -12 3 -18 -1 -18 -13 0
-13 3 -15 13 -7 6 5 21 6 32 2 19 -7 19 -7 -1 -18 -12 -6 -23 -10 -25 -8 -2 2
-10 -3 -18 -11 -12 -13 -10 -14 18 -8 20 4 31 3 31 -4 0 -6 -6 -11 -13 -11 -8
0 -14 -7 -14 -15 0 -8 7 -15 14 -15 8 0 11 -4 8 -10 -3 -5 -17 -10 -30 -10
-13 0 -27 -5 -31 -11 -5 -8 1 -10 19 -5 15 3 29 1 33 -5 8 -13 -16 -31 -33
-24 -7 2 -15 0 -18 -5 -4 -6 8 -10 26 -10 26 0 29 -3 20 -14 -7 -8 -21 -12
-31 -9 -14 4 -20 0 -20 -12 0 -13 3 -15 13 -6 10 8 18 7 32 -3 18 -13 17 -14
-11 -19 -16 -4 -47 -9 -69 -12 -23 -3 -52 -8 -65 -11 -14 -3 -40 -5 -57 -5
-18 -1 -33 -5 -33 -10 0 -9 79 -2 172 16 21 4 45 4 54 1 15 -6 15 -8 -2 -21
-18 -13 -18 -14 -2 -20 21 -8 14 -23 -16 -35 -21 -9 -21 -9 2 -9 15 -1 22 -6
19 -13 -2 -7 -11 -12 -18 -10 -8 1 -5 -5 6 -14 12 -10 16 -18 9 -21 -7 -2 -10
-13 -7 -24 3 -10 0 -26 -7 -34 -10 -12 -10 -15 0 -15 8 0 9 -6 5 -17 -4 -10
-8 -34 -9 -53 -1 -19 -5 -40 -9 -47 -4 -6 -1 -14 5 -17 10 -5 10 -7 1 -12 -16
-7 -17 -34 -2 -34 6 0 3 -8 -7 -17 -11 -11 -13 -18 -5 -21 6 -2 8 -9 4 -15 -4
-7 -8 -34 -9 -62 -3 -76 -8 -115 -15 -115 -3 0 -4 -29 -2 -65 3 -39 1 -65 -5
-65 -11 0 -11 -18 0 -35 4 -6 3 -17 -1 -24 -5 -7 -6 -29 -4 -48 4 -25 2 -33
-7 -28 -14 9 -10 -27 5 -37 6 -5 5 -8 -2 -8 -9 0 -11 -15 -7 -51 4 -35 2 -49
-5 -45 -7 5 -9 -7 -5 -38 5 -31 3 -46 -4 -46 -8 0 -9 -8 -2 -25 6 -15 6 -27 0
-30 -5 -3 -6 -13 -3 -21 3 -9 0 -20 -8 -25 -10 -6 -10 -9 -2 -9 8 0 12 -13 11
-35 -1 -19 -5 -35 -10 -35 -4 0 -6 -16 -4 -35 3 -23 0 -35 -7 -35 -7 0 -6 -4
3 -10 13 -9 13 -12 -3 -24 -18 -14 -18 -15 0 -25 14 -9 6 -11 -40 -7 -48 5
-61 2 -77 -14 -11 -11 -20 -26 -20 -34 0 -9 -9 -12 -27 -10 -22 3 -20 1 7 -7
19 -7 29 -14 23 -16 -7 -3 -13 -11 -13 -18 0 -7 6 -16 13 -19 14 -7 -123 1
-168 10 -16 3 -50 7 -75 9 -25 2 -44 8 -43 14 2 5 5 34 8 63 3 29 7 71 10 93
3 22 7 76 10 120 5 81 12 143 21 203 3 17 1 32 -4 32 -5 0 -19 -105 -31 -232
-13 -128 -25 -248 -27 -267 -5 -37 -14 -55 -14 -28 0 20 -16 23 -23 5 -4 -10
-8 -9 -17 2 -9 12 -13 12 -17 2 -4 -10 -8 -9 -19 5 -8 11 -13 13 -14 5 0 -16
-34 15 -42 38 -3 8 1 60 7 115 7 58 9 104 4 109 -5 6 -9 -6 -10 -30 0 -21 -7
-70 -14 -109 l-14 -70 5 110 c3 61 8 118 10 128 3 9 1 17 -5 17 -6 0 -12 -19
-13 -42 -1 -24 -2 -50 -4 -58 -1 -8 -2 -27 -3 -42 -1 -16 -5 -28 -10 -28 -5 0
-8 8 -6 18 2 9 6 55 9 102 3 47 10 114 15 150 5 36 13 103 16 150 4 47 8 87
10 90 2 3 6 39 10 80 3 41 8 89 10 105 3 17 7 62 10 100 3 39 8 84 10 100 4
31 12 101 21 195 2 30 11 109 19 175 8 66 19 167 26 225 7 58 14 99 16 93 6
-18 23 -16 23 2 0 8 -6 15 -12 15 -7 0 -5 5 5 11 9 5 17 19 17 29 0 13 7 20
20 20 14 0 20 6 18 17 -2 12 7 20 30 26 34 11 43 27 15 28 -36 1 22 17 157 43
288 55 336 64 355 64 20 1 20 1 0 -8z m-745 -951 c0 -5 -7 -9 -15 -9 -15 0
-20 12 -9 23 8 8 24 -1 24 -14z m-75 -106 c-1 -19 -7 -28 -18 -28 -9 0 -17 3
-17 8 0 4 0 16 0 27 0 13 7 20 18 20 14 0 19 -7 17 -27z m-250 0 c11 25 25 21
25 -8 0 -23 -3 -25 -27 -19 -35 9 -35 8 -26 29 6 18 7 18 14 -1 6 -18 7 -18
14 -1z"/>
<path d="M3368 3092 c-16 -2 -28 -6 -28 -10 0 -4 -24 -8 -52 -9 -29 -1 -54 -6
-56 -11 -1 -5 -16 -8 -32 -6 -16 2 -32 -1 -36 -7 -14 -23 -15 -24 219 22 86
17 76 31 -15 21z"/>
<path d="M3130 3034 c0 -8 5 -12 10 -9 6 3 10 10 10 16 0 5 -4 9 -10 9 -5 0
-10 -7 -10 -16z"/>
<path d="M3090 3024 c0 -14 3 -14 15 -4 8 7 15 14 15 16 0 2 -7 4 -15 4 -8 0
-15 -7 -15 -16z"/>
<path d="M3025 3021 c-3 -5 -1 -12 4 -15 5 -4 12 -2 16 3 3 6 12 8 20 4 8 -3
15 0 15 6 0 13 -46 15 -55 2z"/>
<path d="M3225 3023 c-52 -10 -65 -14 -65 -23 0 -11 28 -9 48 3 6 5 16 6 20 3
4 -2 14 -1 21 3 17 11 2 19 -24 14z"/>
<path d="M3126 3001 c-4 -7 -5 -15 -2 -18 9 -9 19 4 14 18 -4 11 -6 11 -12 0z"/>
<path d="M3090 2984 c0 -8 5 -12 10 -9 6 3 10 10 10 16 0 5 -4 9 -10 9 -5 0
-10 -7 -10 -16z"/>
<path d="M3299 2996 c-2 -2 -17 -6 -34 -9 -16 -3 -49 -8 -72 -12 -24 -4 -43
-11 -43 -16 0 -12 -5 -13 128 16 12 3 34 7 48 10 38 6 42 15 7 15 -16 0 -32
-2 -34 -4z"/>
<path d="M3027 2983 c-14 -13 -7 -25 8 -13 8 6 19 9 24 6 5 -4 12 -2 16 4 7
11 -37 14 -48 3z"/>
<path d="M2990 2970 c0 -5 5 -10 10 -10 6 0 10 5 10 10 0 6 -4 10 -10 10 -5 0
-10 -4 -10 -10z"/>
<path d="M2960 2959 c0 -5 5 -7 10 -4 6 3 10 8 10 11 0 2 -4 4 -10 4 -5 0 -10
-5 -10 -11z"/>
<path d="M3375 2960 c-3 -5 -1 -10 4 -10 6 0 11 5 11 10 0 6 -2 10 -4 10 -3 0
-8 -4 -11 -10z"/>
<path d="M3085 2950 c-3 -5 -1 -10 4 -10 6 0 11 5 11 10 0 6 -2 10 -4 10 -3 0
-8 -4 -11 -10z"/>
<path d="M3120 2949 c0 -5 5 -7 10 -4 6 3 10 8 10 11 0 2 -4 4 -10 4 -5 0 -10
-5 -10 -11z"/>
<path d="M3335 2950 c4 -6 11 -8 16 -5 14 9 11 15 -7 15 -8 0 -12 -5 -9 -10z"/>
<path d="M3021 2941 c-8 -6 -9 -11 -3 -15 6 -3 14 -1 17 5 9 14 2 20 -14 10z"/>
<path d="M3050 2940 c0 -5 5 -10 10 -10 6 0 10 5 10 10 0 6 -4 10 -10 10 -5 0
-10 -4 -10 -10z"/>
<path d="M3220 2935 c-32 -9 -38 -13 -20 -14 14 0 45 6 70 13 58 19 13 19 -50
1z"/>
<path d="M2985 2930 c-3 -5 -1 -10 4 -10 6 0 11 5 11 10 0 6 -2 10 -4 10 -3 0
-8 -4 -11 -10z"/>
<path d="M2920 2920 c0 -5 5 -10 11 -10 5 0 7 5 4 10 -3 6 -8 10 -11 10 -2 0
-4 -4 -4 -10z"/>
<path d="M2950 2919 c0 -5 5 -7 10 -4 6 3 10 8 10 11 0 2 -4 4 -10 4 -5 0 -10
-5 -10 -11z"/>
<path d="M3120 2913 c0 -6 9 -9 20 -6 30 8 33 21 5 19 -14 0 -25 -6 -25 -13z"/>
<path d="M3370 2922 c0 -4 -12 -7 -27 -6 -16 1 -34 -3 -40 -8 -7 -6 -19 -8
-28 -5 -8 4 -17 2 -20 -3 -3 -5 -12 -7 -20 -3 -8 3 -15 0 -15 -7 0 -8 12 -10
43 -5 23 4 43 10 45 14 1 4 18 5 37 3 27 -3 35 -1 35 12 0 9 -2 16 -5 16 -3 0
-5 -4 -5 -8z"/>
<path d="M3400 2920 c0 -5 7 -10 16 -10 8 0 12 5 9 10 -3 6 -10 10 -16 10 -5
0 -9 -4 -9 -10z"/>
<path d="M3050 2905 c-8 -9 -8 -15 -2 -15 12 0 26 19 19 26 -2 2 -10 -2 -17
-11z"/>
<path d="M3080 2910 c0 -5 5 -10 10 -10 6 0 10 5 10 10 0 6 -4 10 -10 10 -5 0
-10 -4 -10 -10z"/>
<path d="M3017 2903 c-4 -3 -7 -11 -7 -17 0 -6 5 -5 12 2 6 6 9 14 7 17 -3 3
-9 2 -12 -2z"/>
<path d="M2921 2884 c0 -11 3 -14 6 -6 3 7 2 16 -1 19 -3 4 -6 -2 -5 -13z"/>
<path d="M2951 2884 c0 -11 3 -14 6 -6 3 7 2 16 -1 19 -3 4 -6 -2 -5 -13z"/>
<path d="M2980 2890 c0 -5 5 -10 11 -10 5 0 7 5 4 10 -3 6 -8 10 -11 10 -2 0
-4 -4 -4 -10z"/>
<path d="M3143 2893 c-20 -3 -33 -10 -33 -19 0 -8 5 -14 10 -14 6 0 10 3 10 8
0 4 14 7 32 7 17 0 32 6 34 13 1 7 0 8 -3 2 -2 -5 -9 -10 -14 -10 -6 0 -7 5
-4 10 3 6 5 9 3 8 -2 0 -18 -3 -35 -5z"/>
<path d="M3350 2881 c-24 -6 -40 -31 -20 -31 6 0 10 5 10 11 0 6 9 8 20 4 12
-4 20 -2 20 5 0 7 8 9 20 5 11 -4 20 -2 20 4 0 12 -29 13 -70 2z"/>
<path d="M3040 2865 c0 -8 5 -15 10 -15 6 0 10 7 10 15 0 8 -4 15 -10 15 -5 0
-10 -7 -10 -15z"/>
<path d="M3080 2870 c0 -5 5 -10 11 -10 5 0 7 5 4 10 -3 6 -8 10 -11 10 -2 0
-4 -4 -4 -10z"/>
<path d="M2976 2855 c-3 -8 -1 -15 4 -15 6 0 10 7 10 15 0 8 -2 15 -4 15 -2 0
-6 -7 -10 -15z"/>
<path d="M3010 2854 c0 -8 5 -12 10 -9 6 3 10 10 10 16 0 5 -4 9 -10 9 -5 0
-10 -7 -10 -16z"/>
<path d="M3245 2861 c-3 -5 -1 -12 5 -16 5 -3 10 -1 10 5 0 7 8 9 19 5 11 -3
22 -1 26 5 4 6 -6 10 -24 10 -16 0 -32 -4 -36 -9z"/>
<path d="M2910 2846 c0 -9 5 -16 10 -16 6 0 10 4 10 9 0 6 -4 13 -10 16 -5 3
-10 -1 -10 -9z"/>
<path d="M2940 2850 c0 -5 5 -10 10 -10 6 0 10 5 10 10 0 6 -4 10 -10 10 -5 0
-10 -4 -10 -10z"/>
<path d="M3170 2851 c0 -6 5 -13 10 -16 6 -3 10 -1 10 6 0 6 8 9 20 6 11 -3
20 -1 20 4 0 5 -13 9 -30 9 -16 0 -30 -4 -30 -9z"/>
<path d="M2880 2834 c0 -8 5 -12 10 -9 6 3 10 10 10 16 0 5 -4 9 -10 9 -5 0
-10 -7 -10 -16z"/>
<path d="M3111 2834 c0 -11 3 -14 6 -6 3 7 2 16 -1 19 -3 4 -6 -2 -5 -13z"/>
<path d="M3135 2840 c3 -5 10 -10 16 -10 5 0 9 5 9 10 0 6 -7 10 -16 10 -8 0
-12 -4 -9 -10z"/>
<path d="M3395 2841 c-3 -5 6 -8 20 -7 35 4 44 16 12 16 -14 0 -28 -4 -32 -9z"/>
<path d="M3070 2824 c0 -8 5 -12 10 -9 6 3 10 10 10 16 0 5 -4 9 -10 9 -5 0
-10 -7 -10 -16z"/>
<path d="M3358 2833 c7 -3 16 -2 19 1 4 3 -2 6 -13 5 -11 0 -14 -3 -6 -6z"/>
<path d="M3005 2820 c-3 -5 -1 -10 4 -10 6 0 11 5 11 10 0 6 -2 10 -4 10 -3 0
-8 -4 -11 -10z"/>
<path d="M3040 2819 c0 -5 5 -7 10 -4 6 3 10 8 10 11 0 2 -4 4 -10 4 -5 0 -10
-5 -10 -11z"/>
<path d="M2940 2809 c0 -5 5 -7 10 -4 6 3 10 8 10 11 0 2 -4 4 -10 4 -5 0 -10
-5 -10 -11z"/>
<path d="M2970 2809 c0 -5 5 -7 10 -4 6 3 10 8 10 11 0 2 -4 4 -10 4 -5 0 -10
-5 -10 -11z"/>
<path d="M3215 2810 c-3 -6 1 -7 9 -4 18 7 21 14 7 14 -6 0 -13 -4 -16 -10z"/>
<path d="M2875 2800 c-3 -5 -1 -10 4 -10 6 0 11 5 11 10 0 6 -2 10 -4 10 -3 0
-8 -4 -11 -10z"/>
<path d="M2910 2799 c0 -5 5 -7 10 -4 6 3 10 8 10 11 0 2 -4 4 -10 4 -5 0 -10
-5 -10 -11z"/>
<path d="M3145 2800 c-7 -12 2 -12 30 0 19 8 19 9 -2 9 -12 1 -25 -3 -28 -9z"/>
<path d="M3070 2790 c0 -5 5 -10 11 -10 5 0 7 5 4 10 -3 6 -8 10 -11 10 -2 0
-4 -4 -4 -10z"/>
<path d="M3100 2790 c0 -5 5 -10 10 -10 6 0 10 5 10 10 0 6 -4 10 -10 10 -5 0
-10 -4 -10 -10z"/>
<path d="M3385 2790 c4 -6 11 -8 16 -5 14 9 11 15 -7 15 -8 0 -12 -5 -9 -10z"/>
<path d="M3000 2780 c0 -5 5 -10 10 -10 6 0 10 5 10 10 0 6 -4 10 -10 10 -5 0
-10 -4 -10 -10z"/>
<path d="M3030 2780 c0 -5 5 -10 10 -10 6 0 10 5 10 10 0 6 -4 10 -10 10 -5 0
-10 -4 -10 -10z"/>
<path d="M2935 2770 c-3 -5 -1 -10 4 -10 6 0 11 5 11 10 0 6 -2 10 -4 10 -3 0
-8 -4 -11 -10z"/>
<path d="M3201 2769 c-30 -5 -57 -12 -60 -15 -8 -8 112 8 129 17 19 11 7 10
-69 -2z"/>
<path d="M2875 2760 c-3 -5 -1 -10 4 -10 6 0 11 5 11 10 0 6 -2 10 -4 10 -3 0
-8 -4 -11 -10z"/>
<path d="M2900 2760 c0 -5 5 -10 10 -10 6 0 10 5 10 10 0 6 -4 10 -10 10 -5 0
-10 -4 -10 -10z"/>
<path d="M3035 2751 c-3 -5 -1 -12 5 -16 5 -3 10 1 10 9 0 18 -6 21 -15 7z"/>
<path d="M3065 2750 c-3 -5 -1 -10 4 -10 6 0 11 5 11 10 0 6 -2 10 -4 10 -3 0
-8 -4 -11 -10z"/>
<path d="M3100 2749 c0 -5 5 -7 10 -4 6 3 10 8 10 11 0 2 -4 4 -10 4 -5 0 -10
-5 -10 -11z"/>
<path d="M3380 2750 c0 -5 7 -10 15 -10 8 0 15 5 15 10 0 6 -7 10 -15 10 -8 0
-15 -4 -15 -10z"/>
<path d="M2966 2741 c-4 -7 -5 -15 -2 -18 9 -9 19 4 14 18 -4 11 -6 11 -12 0z"/>
<path d="M2995 2740 c-3 -5 -1 -10 4 -10 6 0 11 5 11 10 0 6 -2 10 -4 10 -3 0
-8 -4 -11 -10z"/>
<path d="M3304 2738 c-6 -10 24 -9 51 2 16 6 14 8 -13 7 -18 0 -35 -4 -38 -9z"/>
<path d="M2900 2724 c0 -8 5 -12 10 -9 6 4 8 11 5 16 -9 14 -15 11 -15 -7z"/>
<path d="M2930 2730 c0 -5 5 -10 10 -10 6 0 10 5 10 10 0 6 -4 10 -10 10 -5 0
-10 -4 -10 -10z"/>
<path d="M3200 2723 l-45 -13 60 6 c33 3 64 9 69 14 11 11 -30 8 -84 -7z"/>
<path d="M3096 2715 c-3 -9 0 -15 9 -15 16 0 20 16 6 24 -5 3 -11 -1 -15 -9z"/>
<path d="M3030 2705 c0 -8 2 -15 4 -15 2 0 6 7 10 15 3 8 1 15 -4 15 -6 0 -10
-7 -10 -15z"/>
<path d="M3060 2710 c0 -5 5 -10 10 -10 6 0 10 5 10 10 0 6 -4 10 -10 10 -5 0
-10 -4 -10 -10z"/>
<path d="M3305 2711 c-27 -6 -48 -31 -25 -31 6 0 10 4 10 8 0 5 19 7 43 5 25
-2 49 2 60 9 16 12 14 13 -20 14 -21 0 -51 -2 -68 -5z"/>
<path d="M2931 2694 c0 -11 3 -14 6 -6 3 7 2 16 -1 19 -3 4 -6 -2 -5 -13z"/>
<path d="M2961 2694 c0 -11 3 -14 6 -6 3 7 2 16 -1 19 -3 4 -6 -2 -5 -13z"/>
<path d="M2990 2700 c0 -5 5 -10 10 -10 6 0 10 5 10 10 0 6 -4 10 -10 10 -5 0
-10 -4 -10 -10z"/>
<path d="M2866 2691 c-4 -7 -5 -15 -2 -18 9 -9 19 4 14 18 -4 11 -6 11 -12 0z"/>
<path d="M2895 2690 c-3 -5 -1 -10 4 -10 6 0 11 5 11 10 0 6 -2 10 -4 10 -3 0
-8 -4 -11 -10z"/>
<path d="M3170 2693 c-52 -6 -61 -23 -10 -18 24 2 48 9 53 14 6 6 7 10 2 9 -6
0 -26 -3 -45 -5z"/>
<path d="M3230 2696 c0 -2 7 -6 15 -10 8 -3 15 -1 15 4 0 6 -7 10 -15 10 -8 0
-15 -2 -15 -4z"/>
<path d="M3096 2681 c-4 -7 -5 -15 -2 -18 9 -9 19 4 14 18 -4 11 -6 11 -12 0z"/>
<path d="M3026 2671 c-4 -7 -5 -15 -2 -18 9 -9 19 4 14 18 -4 11 -6 11 -12 0z"/>
<path d="M3060 2670 c0 -5 5 -10 10 -10 6 0 10 5 10 10 0 6 -4 10 -10 10 -5 0
-10 -4 -10 -10z"/>
<path d="M2955 2660 c-3 -5 -1 -10 4 -10 6 0 11 5 11 10 0 6 -2 10 -4 10 -3 0
-8 -4 -11 -10z"/>
<path d="M2985 2660 c-3 -5 -2 -10 4 -10 5 0 13 5 16 10 3 6 2 10 -4 10 -5 0
-13 -4 -16 -10z"/>
<path d="M2860 2644 c0 -8 5 -12 10 -9 6 3 10 10 10 16 0 5 -4 9 -10 9 -5 0
-10 -7 -10 -16z"/>
<path d="M2890 2644 c0 -8 5 -12 10 -9 6 3 10 10 10 16 0 5 -4 9 -10 9 -5 0
-10 -7 -10 -16z"/>
<path d="M2920 2650 c0 -5 5 -10 10 -10 6 0 10 5 10 10 0 6 -4 10 -10 10 -5 0
-10 -4 -10 -10z"/>
<path d="M3125 2640 c-8 -12 42 -12 70 0 16 7 11 9 -22 9 -23 1 -45 -3 -48 -9z"/>
<path d="M3055 2630 c-3 -5 -1 -10 4 -10 6 0 11 5 11 10 0 6 -2 10 -4 10 -3 0
-8 -4 -11 -10z"/>
<path d="M3085 2630 c-3 -5 1 -10 9 -10 9 0 16 5 16 10 0 6 -4 10 -9 10 -6 0
-13 -4 -16 -10z"/>
<path d="M3410 2630 c0 -5 5 -10 10 -10 6 0 10 5 10 10 0 6 -4 10 -10 10 -5 0
-10 -4 -10 -10z"/>
<path d="M2950 2620 c0 -5 5 -10 11 -10 5 0 7 5 4 10 -3 6 -8 10 -11 10 -2 0
-4 -4 -4 -10z"/>
<path d="M2985 2620 c-3 -5 -1 -10 4 -10 6 0 11 5 11 10 0 6 -2 10 -4 10 -3 0
-8 -4 -11 -10z"/>
<path d="M3020 2619 c0 -5 5 -7 10 -4 6 3 10 8 10 11 0 2 -4 4 -10 4 -5 0 -10
-5 -10 -11z"/>
<path d="M3330 2620 c0 -13 11 -13 30 0 12 8 11 10 -7 10 -13 0 -23 -4 -23
-10z"/>
<path d="M2855 2611 c-3 -5 -1 -12 5 -16 5 -3 10 1 10 9 0 18 -6 21 -15 7z"/>
<path d="M2885 2610 c-3 -5 -2 -10 4 -10 5 0 13 5 16 10 3 6 2 10 -4 10 -5 0
-13 -4 -16 -10z"/>
<path d="M2920 2610 c0 -5 5 -10 10 -10 6 0 10 5 10 10 0 6 -4 10 -10 10 -5 0
-10 -4 -10 -10z"/>
<path d="M3230 2610 c-13 -8 -12 -10 3 -10 9 0 17 5 17 10 0 12 -1 12 -20 0z"/>
<path d="M3120 2594 c0 -8 5 -12 10 -9 6 3 10 10 10 16 0 5 -4 9 -10 9 -5 0
-10 -7 -10 -16z"/>
<path d="M3150 2600 c0 -5 5 -10 10 -10 6 0 10 5 10 10 0 6 -4 10 -10 10 -5 0
-10 -4 -10 -10z"/>
<path d="M3185 2600 c-3 -5 -1 -10 4 -10 6 0 11 5 11 10 0 6 -2 10 -4 10 -3 0
-8 -4 -11 -10z"/>
<path d="M3016 2585 c-3 -8 -1 -15 4 -15 6 0 10 7 10 15 0 8 -2 15 -4 15 -2 0
-6 -7 -10 -15z"/>
<path d="M3045 2591 c-6 -11 9 -23 19 -14 9 9 7 23 -3 23 -6 0 -12 -4 -16 -9z"/>
<path d="M3080 2590 c0 -5 5 -10 10 -10 6 0 10 5 10 10 0 6 -4 10 -10 10 -5 0
-10 -4 -10 -10z"/>
<path d="M2885 2578 c-8 -27 -21 -178 -14 -178 3 0 9 26 13 58 4 31 9 74 11
95 5 35 -1 51 -10 25z"/>
<path d="M2916 2581 c-4 -7 -5 -15 -2 -18 9 -9 19 4 14 18 -4 11 -6 11 -12 0z"/>
<path d="M2951 2574 c0 -11 3 -14 6 -6 3 7 2 16 -1 19 -3 4 -6 -2 -5 -13z"/>
<path d="M2980 2580 c0 -5 5 -10 10 -10 6 0 10 5 10 10 0 6 -4 10 -10 10 -5 0
-10 -4 -10 -10z"/>
<path d="M3296 2575 c-3 -8 -1 -15 4 -15 6 0 10 7 10 15 0 8 -2 15 -4 15 -2 0
-6 -7 -10 -15z"/>
<path d="M2850 2565 c0 -8 5 -15 10 -15 6 0 10 7 10 15 0 8 -4 15 -10 15 -5 0
-10 -7 -10 -15z"/>
<path d="M3220 2571 c0 -6 5 -13 10 -16 6 -3 10 1 10 9 0 9 -4 16 -10 16 -5 0
-10 -4 -10 -9z"/>
<path d="M3255 2570 c-3 -5 1 -10 10 -10 9 0 13 5 10 10 -3 6 -8 10 -10 10 -2
0 -7 -4 -10 -10z"/>
<path d="M3117 2563 c-10 -9 -9 -23 1 -23 5 0 9 7 9 15 0 17 -1 18 -10 8z"/>
<path d="M3150 2559 c0 -5 5 -7 10 -4 6 3 10 8 10 11 0 2 -4 4 -10 4 -5 0 -10
-5 -10 -11z"/>
<path d="M3185 2560 c-3 -5 -2 -10 4 -10 5 0 13 5 16 10 3 6 2 10 -4 10 -5 0
-13 -4 -16 -10z"/>
<path d="M3010 2544 c0 -8 5 -12 10 -9 6 4 8 11 5 16 -9 14 -15 11 -15 -7z"/>
<path d="M3040 2544 c0 -8 5 -12 10 -9 6 3 10 10 10 16 0 5 -4 9 -10 9 -5 0
-10 -7 -10 -16z"/>
<path d="M3080 2549 c0 -5 5 -7 10 -4 6 3 10 8 10 11 0 2 -4 4 -10 4 -5 0 -10
-5 -10 -11z"/>
<path d="M3411 2544 c0 -11 3 -14 6 -6 3 7 2 16 -1 19 -3 4 -6 -2 -5 -13z"/>
<path d="M2910 2534 c0 -8 5 -12 10 -9 6 3 10 10 10 16 0 5 -4 9 -10 9 -5 0
-10 -7 -10 -16z"/>
<path d="M2940 2535 c0 -8 2 -15 4 -15 2 0 6 7 10 15 3 8 1 15 -4 15 -6 0 -10
-7 -10 -15z"/>
<path d="M2975 2540 c3 -5 8 -10 11 -10 2 0 4 5 4 10 0 6 -5 10 -11 10 -5 0
-7 -4 -4 -10z"/>
<path d="M3320 2546 c0 -2 16 -6 35 -8 19 -2 35 0 35 4 0 4 -16 8 -35 8 -19 0
-35 -2 -35 -4z"/>
<path d="M2842 2473 c-5 -37 -6 -72 -2 -76 4 -5 10 24 14 63 9 93 1 101 -12
13z"/>
<path d="M3220 2529 c0 -5 5 -7 10 -4 6 3 10 8 10 11 0 2 -4 4 -10 4 -5 0 -10
-5 -10 -11z"/>
<path d="M3250 2529 c0 -5 5 -7 10 -4 6 3 10 8 10 11 0 2 -4 4 -10 4 -5 0 -10
-5 -10 -11z"/>
<path d="M3151 2514 c0 -11 3 -14 6 -6 3 7 2 16 -1 19 -3 4 -6 -2 -5 -13z"/>
<path d="M3040 2504 c0 -8 5 -12 10 -9 6 3 10 10 10 16 0 5 -4 9 -10 9 -5 0
-10 -7 -10 -16z"/>
<path d="M3075 2510 c-3 -5 -1 -10 4 -10 6 0 11 5 11 10 0 6 -2 10 -4 10 -3 0
-8 -4 -11 -10z"/>
<path d="M3110 2509 c0 -5 5 -7 10 -4 6 3 10 8 10 11 0 2 -4 4 -10 4 -5 0 -10
-5 -10 -11z"/>
<path d="M2906 2495 c-3 -8 -1 -15 4 -15 6 0 10 7 10 15 0 8 -2 15 -4 15 -2 0
-6 -7 -10 -15z"/>
<path d="M2941 2494 c0 -11 3 -14 6 -6 3 7 2 16 -1 19 -3 4 -6 -2 -5 -13z"/>
<path d="M2970 2500 c0 -5 5 -10 10 -10 6 0 10 5 10 10 0 6 -4 10 -10 10 -5 0
-10 -4 -10 -10z"/>
<path d="M3000 2500 c0 -5 5 -10 10 -10 6 0 10 5 10 10 0 6 -4 10 -10 10 -5 0
-10 -4 -10 -10z"/>
<path d="M3360 2500 c0 -5 7 -7 15 -4 8 4 15 8 15 10 0 2 -7 4 -15 4 -8 0 -15
-4 -15 -10z"/>
<path d="M3320 2490 c0 -5 5 -10 10 -10 6 0 10 5 10 10 0 6 -4 10 -10 10 -5 0
-10 -4 -10 -10z"/>
<path d="M3210 2480 c0 -5 5 -10 10 -10 6 0 10 5 10 10 0 6 -4 10 -10 10 -5 0
-10 -4 -10 -10z"/>
<path d="M3070 2469 c0 -5 5 -7 10 -4 6 3 10 8 10 11 0 2 -4 4 -10 4 -5 0 -10
-5 -10 -11z"/>
<path d="M3100 2470 c0 -5 5 -10 10 -10 6 0 10 5 10 10 0 6 -4 10 -10 10 -5 0
-10 -4 -10 -10z"/>
<path d="M2900 2456 c0 -9 5 -16 10 -16 6 0 10 4 10 9 0 6 -4 13 -10 16 -5 3
-10 -1 -10 -9z"/>
<path d="M2965 2460 c-3 -5 -1 -10 4 -10 6 0 11 5 11 10 0 6 -2 10 -4 10 -3 0
-8 -4 -11 -10z"/>
<path d="M3000 2460 c0 -5 5 -10 10 -10 6 0 10 5 10 10 0 6 -4 10 -10 10 -5 0
-10 -4 -10 -10z"/>
<path d="M3030 2460 c0 -5 5 -10 10 -10 6 0 10 5 10 10 0 6 -4 10 -10 10 -5 0
-10 -4 -10 -10z"/>
<path d="M2930 2450 c0 -5 5 -10 10 -10 6 0 10 5 10 10 0 6 -4 10 -10 10 -5 0
-10 -4 -10 -10z"/>
<path d="M3315 2450 c3 -5 11 -10 16 -10 6 0 7 5 4 10 -3 6 -11 10 -16 10 -6
0 -7 -4 -4 -10z"/>
<path d="M3360 2450 c-13 -8 -12 -10 3 -10 9 0 17 5 17 10 0 12 -1 12 -20 0z"/>
<path d="M3205 2440 c-3 -5 1 -10 10 -10 9 0 13 5 10 10 -3 6 -8 10 -10 10 -2
0 -7 -4 -10 -10z"/>
<path d="M3245 2440 c-3 -5 -1 -10 4 -10 6 0 11 5 11 10 0 6 -2 10 -4 10 -3 0
-8 -4 -11 -10z"/>
<path d="M3036 2431 c-4 -7 -5 -15 -2 -18 9 -9 19 4 14 18 -4 11 -6 11 -12 0z"/>
<path d="M3065 2429 c-10 -15 3 -25 16 -12 7 7 7 13 1 17 -6 3 -14 1 -17 -5z"/>
<path d="M3100 2430 c0 -5 5 -10 10 -10 6 0 10 5 10 10 0 6 -4 10 -10 10 -5 0
-10 -4 -10 -10z"/>
<path d="M3135 2430 c-4 -6 3 -10 14 -10 25 0 27 6 6 13 -8 4 -17 2 -20 -3z"/>
<path d="M2931 2414 c0 -11 3 -14 6 -6 3 7 2 16 -1 19 -3 4 -6 -2 -5 -13z"/>
<path d="M2960 2419 c0 -5 11 -9 25 -9 33 0 33 15 0 16 -14 1 -25 -2 -25 -7z"/>
<path d="M3350 2409 c0 -5 5 -7 10 -4 6 3 10 8 10 11 0 2 -4 4 -10 4 -5 0 -10
-5 -10 -11z"/>
<path d="M3140 2393 c0 -16 2 -16 11 -3 8 11 12 12 16 3 7 -18 20 -16 20 2 0
9 -10 15 -24 15 -15 0 -23 -6 -23 -17z"/>
<path d="M3205 2400 c4 -6 11 -8 16 -5 14 9 11 15 -7 15 -8 0 -12 -5 -9 -10z"/>
<path d="M3240 2400 c0 -5 5 -10 11 -10 5 0 7 5 4 10 -3 6 -8 10 -11 10 -2 0
-4 -4 -4 -10z"/>
<path d="M3041 2384 c0 -11 3 -14 6 -6 3 7 2 16 -1 19 -3 4 -6 -2 -5 -13z"/>
<path d="M3063 2385 c0 -8 4 -15 9 -15 4 0 8 5 8 11 0 6 9 8 20 4 11 -4 20 -2
20 4 0 6 -13 11 -28 11 -19 0 -29 -5 -29 -15z"/>
<path d="M3278 2393 c7 -3 16 -2 19 1 4 3 -2 6 -13 5 -11 0 -14 -3 -6 -6z"/>
<path d="M2866 2381 c-4 -7 -5 -15 -2 -18 9 -9 19 4 14 18 -4 11 -6 11 -12 0z"/>
<path d="M2896 2381 c-4 -7 -5 -15 -2 -18 9 -9 19 4 14 18 -4 11 -6 11 -12 0z"/>
<path d="M2930 2379 c0 -5 5 -7 10 -4 6 3 10 8 10 11 0 2 -4 4 -10 4 -5 0 -10
-5 -10 -11z"/>
<path d="M2995 2380 c-3 -5 -1 -10 4 -10 6 0 11 5 11 10 0 6 -2 10 -4 10 -3 0
-8 -4 -11 -10z"/>
<path d="M2830 2348 c0 -18 -3 -44 -6 -58 -5 -17 -3 -22 4 -15 12 12 21 105
10 105 -5 0 -8 -15 -8 -32z"/>
<path d="M3310 2369 c0 -5 5 -7 10 -4 6 3 10 8 10 11 0 2 -4 4 -10 4 -5 0 -10
-5 -10 -11z"/>
<path d="M3205 2360 c-3 -5 -1 -10 4 -10 6 0 11 5 11 10 0 6 -2 10 -4 10 -3 0
-8 -4 -11 -10z"/>
<path d="M3230 2360 c0 -5 5 -10 10 -10 6 0 10 5 10 10 0 6 -4 10 -10 10 -5 0
-10 -4 -10 -10z"/>
<path d="M3090 2350 c0 -5 5 -10 10 -10 6 0 10 5 10 10 0 6 -4 10 -10 10 -5 0
-10 -4 -10 -10z"/>
<path d="M3130 2351 c0 -5 9 -7 20 -4 11 3 20 7 20 9 0 2 -9 4 -20 4 -11 0
-20 -4 -20 -9z"/>
<path d="M2890 2334 c0 -8 5 -12 10 -9 6 4 8 11 5 16 -9 14 -15 11 -15 -7z"/>
<path d="M2925 2340 c-3 -5 -1 -10 4 -10 6 0 11 5 11 10 0 6 -2 10 -4 10 -3 0
-8 -4 -11 -10z"/>
<path d="M2950 2340 c0 -5 5 -10 10 -10 6 0 10 5 10 10 0 6 -4 10 -10 10 -5 0
-10 -4 -10 -10z"/>
<path d="M3025 2340 c3 -5 8 -10 11 -10 2 0 4 5 4 10 0 6 -5 10 -11 10 -5 0
-7 -4 -4 -10z"/>
<path d="M2860 2329 c0 -5 5 -7 10 -4 6 3 10 8 10 11 0 2 -4 4 -10 4 -5 0 -10
-5 -10 -11z"/>
<path d="M3385 2330 c-3 -5 -1 -10 4 -10 6 0 11 5 11 10 0 6 -2 10 -4 10 -3 0
-8 -4 -11 -10z"/>
<path d="M3090 2301 c0 -11 -3 -26 -6 -35 -3 -9 -2 -16 4 -16 5 0 12 16 14 35
2 19 0 35 -4 35 -4 0 -8 -9 -8 -19z"/>
<path d="M2856 2301 c-4 -7 -5 -15 -2 -18 9 -9 19 4 14 18 -4 11 -6 11 -12 0z"/>
<path d="M2890 2300 c-8 -5 -11 -12 -7 -16 4 -4 13 -2 19 4 15 15 7 24 -12 12z"/>
<path d="M2921 2294 c0 -11 3 -14 6 -6 3 7 2 16 -1 19 -3 4 -6 -2 -5 -13z"/>
<path d="M2950 2273 c0 -43 5 -41 13 5 4 18 2 32 -3 32 -6 0 -10 -16 -10 -37z"/>
<path d="M2980 2300 c0 -5 5 -10 10 -10 6 0 10 5 10 10 0 6 -4 10 -10 10 -5 0
-10 -4 -10 -10z"/>
<path d="M3020 2300 c0 -5 5 -10 10 -10 6 0 10 5 10 10 0 6 -4 10 -10 10 -5 0
-10 -4 -10 -10z"/>
<path d="M3050 2300 c0 -5 5 -10 10 -10 6 0 10 5 10 10 0 6 -4 10 -10 10 -5 0
-10 -4 -10 -10z"/>
<path d="M3270 2280 c0 -5 5 -10 11 -10 5 0 7 5 4 10 -3 6 -8 10 -11 10 -2 0
-4 -4 -4 -10z"/>
<path d="M3380 2280 c0 -5 5 -10 11 -10 5 0 7 5 4 10 -3 6 -8 10 -11 10 -2 0
-4 -4 -4 -10z"/>
<path d="M3053 2265 c0 -8 4 -15 9 -15 4 0 8 7 8 15 0 8 -4 15 -8 15 -5 0 -9
-7 -9 -15z"/>
<path d="M3190 2270 c-13 -8 -12 -10 3 -10 9 0 17 5 17 10 0 12 -1 12 -20 0z"/>
<path d="M2880 2255 c0 -8 5 -15 10 -15 6 0 10 7 10 15 0 8 -4 15 -10 15 -5 0
-10 -7 -10 -15z"/>
<path d="M2910 2255 c0 -8 5 -15 10 -15 6 0 10 7 10 15 0 8 -4 15 -10 15 -5 0
-10 -7 -10 -15z"/>
<path d="M2980 2260 c0 -5 5 -10 10 -10 6 0 10 5 10 10 0 6 -4 10 -10 10 -5 0
-10 -4 -10 -10z"/>
<path d="M3015 2260 c-3 -5 1 -10 10 -10 9 0 13 5 10 10 -3 6 -8 10 -10 10 -2
0 -7 -4 -10 -10z"/>
<path d="M2818 2230 c-3 -16 -1 -30 4 -30 4 0 8 14 8 30 0 17 -2 30 -4 30 -2
0 -6 -13 -8 -30z"/>
<path d="M2850 2250 c0 -5 5 -10 10 -10 6 0 10 5 10 10 0 6 -4 10 -10 10 -5 0
-10 -4 -10 -10z"/>
<path d="M3377 2253 c-10 -9 -9 -23 1 -23 5 0 9 7 9 15 0 17 -1 18 -10 8z"/>
<path d="M3186 2234 c-7 -17 10 -19 17 -1 4 9 8 9 15 -2 10 -13 32 -8 32 8 0
14 -58 10 -64 -5z"/>
<path d="M3337 2239 c7 -7 15 -10 18 -7 3 3 -2 9 -12 12 -14 6 -15 5 -6 -5z"/>
<path d="M3016 2231 c-4 -7 -5 -15 -2 -18 9 -9 19 4 14 18 -4 11 -6 11 -12 0z"/>
<path d="M3047 2233 c-10 -9 -9 -23 2 -23 5 0 11 7 15 15 5 15 -5 20 -17 8z"/>
<path d="M3080 2225 c0 -8 5 -15 10 -15 6 0 10 7 10 15 0 8 -4 15 -10 15 -5 0
-10 -7 -10 -15z"/>
<path d="M3115 2230 c4 -6 11 -8 16 -5 14 9 11 15 -7 15 -8 0 -12 -5 -9 -10z"/>
<path d="M2846 2215 c-3 -8 -1 -15 4 -15 6 0 10 7 10 15 0 8 -2 15 -4 15 -2 0
-6 -7 -10 -15z"/>
<path d="M2877 2223 c-10 -9 -9 -23 2 -23 5 0 11 7 15 15 5 15 -5 20 -17 8z"/>
<path d="M2906 2188 c-12 -95 -12 -108 -5 -108 4 0 10 21 14 48 3 26 8 59 10
75 3 15 0 27 -5 27 -5 0 -11 -19 -14 -42z"/>
<path d="M2940 2201 c0 -15 -3 -50 -6 -77 -5 -33 -3 -46 4 -39 12 12 21 145
10 145 -4 0 -8 -13 -8 -29z"/>
<path d="M2970 2220 c0 -5 5 -10 10 -10 6 0 10 5 10 10 0 6 -4 10 -10 10 -5 0
-10 -4 -10 -10z"/>
<path d="M3300 2199 c0 -5 5 -7 10 -4 6 3 10 8 10 11 0 2 -4 4 -10 4 -5 0 -10
-5 -10 -11z"/>
<path d="M3383 2175 c0 -22 2 -30 4 -17 2 12 2 30 0 40 -3 9 -5 -1 -4 -23z"/>
<path d="M3077 2193 c-4 -3 -7 -20 -6 -37 l1 -31 8 35 c9 36 8 45 -3 33z"/>
<path d="M3110 2165 c0 -19 2 -35 4 -35 2 0 6 16 8 35 2 19 0 35 -4 35 -4 0
-8 -16 -8 -35z"/>
<path d="M3148 2193 c7 -3 16 -2 19 1 4 3 -2 6 -13 5 -11 0 -14 -3 -6 -6z"/>
<path d="M3185 2190 c3 -5 8 -10 11 -10 2 0 4 5 4 10 0 6 -5 10 -11 10 -5 0
-7 -4 -4 -10z"/>
<path d="M2817 2183 c-4 -3 -7 -20 -6 -37 l1 -31 8 35 c9 36 8 45 -3 33z"/>
<path d="M2840 2180 c0 -5 5 -10 10 -10 6 0 10 5 10 10 0 6 -4 10 -10 10 -5 0
-10 -4 -10 -10z"/>
<path d="M2867 2138 c-5 -50 -2 -67 7 -57 9 9 16 109 8 109 -5 0 -12 -24 -15
-52z"/>
<path d="M2970 2158 c0 -18 -3 -43 -6 -55 -4 -13 -2 -23 4 -23 6 0 12 25 14
55 1 30 0 55 -4 55 -5 0 -8 -15 -8 -32z"/>
<path d="M3005 2180 c3 -5 8 -10 11 -10 2 0 4 5 4 10 0 6 -5 10 -11 10 -5 0
-7 -4 -4 -10z"/>
<path d="M3040 2179 c0 -5 5 -7 10 -4 6 3 10 8 10 11 0 2 -4 4 -10 4 -5 0 -10
-5 -10 -11z"/>
<path d="M2839 2153 c0 -5 -2 -23 -5 -40 -2 -18 1 -33 6 -33 6 0 10 18 10 40
0 22 -2 40 -5 40 -3 0 -5 -3 -6 -7z"/>
<path d="M3000 2140 c0 -5 5 -10 10 -10 6 0 10 5 10 10 0 6 -4 10 -10 10 -5 0
-10 -4 -10 -10z"/>
<path d="M3210 2109 c0 -5 5 -7 10 -4 6 3 10 8 10 11 0 2 -4 4 -10 4 -5 0 -10
-5 -10 -11z"/>
<path d="M2800 2095 c0 -8 5 -15 10 -15 6 0 10 7 10 15 0 8 -4 15 -10 15 -5 0
-10 -7 -10 -15z"/>
<path d="M3000 2099 c0 -5 5 -7 10 -4 6 3 10 8 10 11 0 2 -4 4 -10 4 -5 0 -10
-5 -10 -11z"/>
<path d="M3030 2100 c0 -5 5 -10 10 -10 6 0 10 5 10 10 0 6 -4 10 -10 10 -5 0
-10 -4 -10 -10z"/>
<path d="M3066 2071 c-4 -7 -5 -15 -2 -18 9 -9 19 4 14 18 -4 11 -6 11 -12 0z"/>
<path d="M3371 2064 c0 -11 3 -14 6 -6 3 7 2 16 -1 19 -3 4 -6 -2 -5 -13z"/>
<path d="M2801 2060 c-1 -8 -4 -44 -6 -80 l-4 -65 10 55 c5 30 8 66 6 80 -2
14 -5 18 -6 10z"/>
<path d="M2826 2002 c-4 -41 -5 -76 -3 -79 7 -6 20 122 15 139 -3 7 -8 -20
-12 -60z"/>
<path d="M2857 2018 c-4 -49 -2 -68 7 -57 8 9 14 109 7 109 -5 0 -11 -24 -14
-52z"/>
<path d="M2889 2028 c-1 -24 -3 -52 -4 -63 -4 -29 -14 -132 -20 -195 -6 -71
-33 -332 -50 -480 -12 -106 -12 -130 -1 -119 2 2 11 76 20 164 9 88 23 216 31
285 26 219 45 404 45 428 0 41 -20 22 -21 -20z"/>
<path d="M2926 2033 c-11 -75 -55 -502 -61 -593 -5 -73 -23 -245 -28 -258 -1
-4 3 -8 8 -9 6 -1 11 10 12 25 2 25 20 206 28 282 9 82 16 154 30 305 8 88 18
188 21 223 7 67 -1 86 -10 25z"/>
<path d="M2959 2048 c-2 -37 -8 -92 -13 -110 -2 -10 0 -18 4 -18 5 0 11 21 15
48 3 26 8 59 10 75 3 15 0 27 -5 27 -6 0 -11 -10 -11 -22z"/>
<path d="M3001 2054 c0 -11 3 -14 6 -6 3 7 2 16 -1 19 -3 4 -6 -2 -5 -13z"/>
<path d="M3026 2055 c4 -8 7 -15 9 -15 2 0 5 7 9 15 3 9 0 15 -9 15 -9 0 -12
-6 -9 -15z"/>
<path d="M3326 2031 c-4 -7 -5 -15 -2 -18 9 -9 19 4 14 18 -4 11 -6 11 -12 0z"/>
<path d="M3372 2020 c0 -14 2 -19 5 -12 2 6 2 18 0 25 -3 6 -5 1 -5 -13z"/>
<path d="M2995 2020 c-3 -5 -1 -10 4 -10 6 0 11 5 11 10 0 6 -2 10 -4 10 -3 0
-8 -4 -11 -10z"/>
<path d="M3020 2020 c0 -5 5 -10 10 -10 6 0 10 5 10 10 0 6 -4 10 -10 10 -5 0
-10 -4 -10 -10z"/>
<path d="M3060 2020 c0 -5 5 -10 10 -10 6 0 10 5 10 10 0 6 -4 10 -10 10 -5 0
-10 -4 -10 -10z"/>
<path d="M3090 2020 c0 -5 5 -10 10 -10 6 0 10 5 10 10 0 6 -4 10 -10 10 -5 0
-10 -4 -10 -10z"/>
<path d="M2991 1974 c0 -11 3 -14 6 -6 3 7 2 16 -1 19 -3 4 -6 -2 -5 -13z"/>
<path d="M3020 1980 c0 -5 5 -10 10 -10 6 0 10 5 10 10 0 6 -4 10 -10 10 -5 0
-10 -4 -10 -10z"/>
<path d="M3050 1981 c0 -6 5 -13 10 -16 6 -3 10 1 10 9 0 9 -4 16 -10 16 -5 0
-10 -4 -10 -9z"/>
<path d="M3090 1980 c0 -5 5 -10 11 -10 5 0 7 5 4 10 -3 6 -8 10 -11 10 -2 0
-4 -4 -4 -10z"/>
<path d="M2845 1914 c-3 -20 -4 -39 -1 -42 9 -8 13 0 19 41 7 48 -9 49 -18 1z"/>
<path d="M2986 1941 c-4 -7 -5 -15 -2 -18 9 -9 19 4 14 18 -4 11 -6 11 -12 0z"/>
<path d="M3016 1941 c-4 -7 -5 -15 -2 -18 9 -9 19 4 14 18 -4 11 -6 11 -12 0z"/>
<path d="M3050 1936 c0 -9 5 -16 10 -16 6 0 10 4 10 9 0 6 -4 13 -10 16 -5 3
-10 -1 -10 -9z"/>
<path d="M3086 1935 c-3 -8 -1 -15 4 -15 6 0 10 7 10 15 0 8 -2 15 -4 15 -2 0
-6 -7 -10 -15z"/>
<path d="M3316 1933 c-6 -14 -5 -15 5 -6 7 7 10 15 7 18 -3 3 -9 -2 -12 -12z"/>
<path d="M2808 1858 c-4 -50 -2 -66 6 -57 8 10 14 109 6 109 -4 0 -10 -24 -12
-52z"/>
<path d="M2910 1573 c-18 -186 -35 -355 -37 -375 -1 -21 2 -38 7 -38 6 0 10 1
10 3 0 11 31 360 35 392 6 51 14 133 20 210 3 33 8 79 11 103 3 23 2 42 -3 42
-5 0 -24 -152 -43 -337z"/>
<path d="M2982 1890 c0 -14 2 -19 5 -12 2 6 2 18 0 25 -3 6 -5 1 -5 -13z"/>
<path d="M3012 1890 c0 -14 2 -19 5 -12 2 6 2 18 0 25 -3 6 -5 1 -5 -13z"/>
<path d="M3046 1901 c-4 -7 -5 -15 -2 -18 9 -9 19 4 14 18 -4 11 -6 11 -12 0z"/>
<path d="M3082 1890 c0 -14 2 -19 5 -12 2 6 2 18 0 25 -3 6 -5 1 -5 -13z"/>
<path d="M3120 1895 c0 -8 2 -15 4 -15 2 0 6 7 10 15 3 8 1 15 -4 15 -6 0 -10
-7 -10 -15z"/>
<path d="M3201 1894 c0 -11 3 -14 6 -6 3 7 2 16 -1 19 -3 4 -6 -2 -5 -13z"/>
<path d="M2778 1853 c-4 -46 -2 -61 6 -52 8 9 13 99 6 99 -4 0 -10 -21 -12
-47z"/>
<path d="M2840 1846 c0 -8 -3 -21 -6 -30 -3 -9 -2 -16 4 -16 5 0 12 14 14 30
3 17 1 30 -4 30 -4 0 -8 -6 -8 -14z"/>
<path d="M2971 1803 c1 -65 5 -61 12 10 2 26 1 47 -4 47 -5 0 -9 -26 -8 -57z"/>
<path d="M3005 1850 c-3 -5 -1 -10 4 -10 6 0 11 5 11 10 0 6 -2 10 -4 10 -3 0
-8 -4 -11 -10z"/>
<path d="M3040 1849 c0 -5 5 -7 10 -4 6 3 10 8 10 11 0 2 -4 4 -10 4 -5 0 -10
-5 -10 -11z"/>
<path d="M3075 1850 c-3 -5 -1 -10 4 -10 6 0 11 5 11 10 0 6 -2 10 -4 10 -3 0
-8 -4 -11 -10z"/>
<path d="M3000 1810 c0 -5 5 -10 11 -10 5 0 7 5 4 10 -3 6 -8 10 -11 10 -2 0
-4 -4 -4 -10z"/>
<path d="M3030 1804 c0 -8 5 -12 10 -9 6 3 10 10 10 16 0 5 -4 9 -10 9 -5 0
-10 -7 -10 -16z"/>
<path d="M3070 1804 c0 -8 5 -12 10 -9 6 4 8 11 5 16 -9 14 -15 11 -15 -7z"/>
<path d="M2772 1770 c0 -14 2 -19 5 -12 2 6 2 18 0 25 -3 6 -5 1 -5 -13z"/>
<path d="M2802 1770 c0 -14 2 -19 5 -12 2 6 2 18 0 25 -3 6 -5 1 -5 -13z"/>
<path d="M2837 1784 c-4 -4 -7 -14 -7 -23 0 -11 3 -12 11 -4 6 6 10 16 7 23
-2 6 -7 8 -11 4z"/>
<path d="M3001 1764 c0 -11 3 -14 6 -6 3 7 2 16 -1 19 -3 4 -6 -2 -5 -13z"/>
<path d="M3033 1765 c0 -8 4 -15 9 -15 4 0 8 7 8 15 0 8 -4 15 -8 15 -5 0 -9
-7 -9 -15z"/>
<path d="M2760 1703 c-1 -21 -3 -56 -6 -78 -4 -27 -3 -37 4 -30 13 13 22 145
11 145 -5 0 -9 -17 -9 -37z"/>
<path d="M2793 1710 c-1 -18 2 -28 7 -25 12 7 14 55 3 55 -5 0 -9 -14 -10 -30z"/>
<path d="M2828 1710 c-3 -16 -1 -30 4 -30 4 0 8 14 8 30 0 17 -2 30 -4 30 -2
0 -6 -13 -8 -30z"/>
<path d="M2963 1705 c0 -22 2 -30 4 -17 2 12 2 30 0 40 -3 9 -5 -1 -4 -23z"/>
<path d="M2991 1684 c0 -11 3 -14 6 -6 3 7 2 16 -1 19 -3 4 -6 -2 -5 -13z"/>
<path d="M3025 1680 c-3 -5 -1 -10 4 -10 6 0 11 5 11 10 0 6 -2 10 -4 10 -3 0
-8 -4 -11 -10z"/>
<path d="M3060 1680 c0 -5 5 -10 11 -10 5 0 7 5 4 10 -3 6 -8 10 -11 10 -2 0
-4 -4 -4 -10z"/>
<path d="M2791 1655 c0 -11 -4 -31 -7 -45 -5 -19 -4 -22 5 -14 7 6 11 26 8 45
-2 19 -5 25 -6 14z"/>
<path d="M2818 1630 c-2 -22 0 -40 4 -40 5 0 8 18 8 40 0 22 -2 40 -4 40 -2 0
-6 -18 -8 -40z"/>
<path d="M2986 1651 c-4 -7 -5 -15 -2 -18 9 -9 19 4 14 18 -4 11 -6 11 -12 0z"/>
<path d="M3026 1651 c-4 -7 -5 -15 -2 -18 9 -9 19 4 14 18 -4 11 -6 11 -12 0z"/>
<path d="M3050 1640 c0 -5 4 -10 9 -10 6 0 13 5 16 10 3 6 -1 10 -9 10 -9 0
-16 -4 -16 -10z"/>
<path d="M3090 1640 c0 -5 5 -10 11 -10 5 0 7 5 4 10 -3 6 -8 10 -11 10 -2 0
-4 -4 -4 -10z"/>
<path d="M3241 1634 c0 -11 3 -14 6 -6 3 7 2 16 -1 19 -3 4 -6 -2 -5 -13z"/>
<path d="M2980 1601 c0 -25 6 -27 13 -6 4 8 2 17 -3 20 -6 4 -10 -3 -10 -14z"/>
<path d="M3016 1601 c-4 -7 -5 -15 -2 -18 9 -9 19 4 14 18 -4 11 -6 11 -12 0z"/>
<path d="M3050 1595 c0 -8 4 -15 8 -15 5 0 9 7 9 15 0 8 -4 15 -9 15 -4 0 -8
-7 -8 -15z"/>
<path d="M3090 1595 c0 -8 4 -15 10 -15 5 0 7 7 4 15 -4 8 -8 15 -10 15 -2 0
-4 -7 -4 -15z"/>
<path d="M3126 1595 c4 -8 8 -15 10 -15 2 0 4 7 4 15 0 8 -4 15 -10 15 -5 0
-7 -7 -4 -15z"/>
<path d="M3351 1574 c0 -11 3 -14 6 -6 3 7 2 16 -1 19 -3 4 -6 -2 -5 -13z"/>
<path d="M2746 1571 c-4 -7 -5 -15 -2 -18 9 -9 19 4 14 18 -4 11 -6 11 -12 0z"/>
<path d="M2781 1564 c0 -11 3 -14 6 -6 3 7 2 16 -1 19 -3 4 -6 -2 -5 -13z"/>
<path d="M2813 1545 c0 -22 2 -30 4 -17 2 12 2 30 0 40 -3 9 -5 -1 -4 -23z"/>
<path d="M2976 1561 c-4 -7 -5 -15 -2 -18 9 -9 19 4 14 18 -4 11 -6 11 -12 0z"/>
<path d="M3010 1554 c0 -8 5 -12 10 -9 6 3 10 10 10 16 0 5 -4 9 -10 9 -5 0
-10 -7 -10 -16z"/>
<path d="M3040 1550 c0 -5 4 -10 9 -10 6 0 13 5 16 10 3 6 -1 10 -9 10 -9 0
-16 -4 -16 -10z"/>
<path d="M3080 1550 c0 -5 5 -10 10 -10 6 0 10 5 10 10 0 6 -4 10 -10 10 -5 0
-10 -4 -10 -10z"/>
<path d="M2737 1508 c-4 -31 -2 -47 7 -37 8 10 15 69 7 69 -5 0 -11 -15 -14
-32z"/>
<path d="M2770 1526 c0 -9 5 -16 10 -16 6 0 10 4 10 9 0 6 -4 13 -10 16 -5 3
-10 -1 -10 -9z"/>
<path d="M2970 1510 c0 -5 5 -10 10 -10 6 0 10 5 10 10 0 6 -4 10 -10 10 -5 0
-10 -4 -10 -10z"/>
<path d="M3000 1510 c0 -5 5 -10 10 -10 6 0 10 5 10 10 0 6 -4 10 -10 10 -5 0
-10 -4 -10 -10z"/>
<path d="M3040 1505 c0 -8 5 -15 10 -15 6 0 10 7 10 15 0 8 -4 15 -10 15 -5 0
-10 -7 -10 -15z"/>
<path d="M3081 1504 c0 -11 3 -14 6 -6 3 7 2 16 -1 19 -3 4 -6 -2 -5 -13z"/>
<path d="M2771 1484 c0 -11 3 -14 6 -6 3 7 2 16 -1 19 -3 4 -6 -2 -5 -13z"/>
<path d="M2800 1466 c0 -20 2 -36 4 -36 8 0 12 61 4 66 -4 3 -8 -11 -8 -30z"/>
<path d="M2969 1460 c-7 -35 -4 -48 7 -38 3 4 4 21 2 40 l-3 33 -6 -35z"/>
<path d="M3035 1471 c-6 -11 9 -23 19 -14 9 9 7 23 -3 23 -6 0 -12 -4 -16 -9z"/>
<path d="M3070 1465 c0 -8 4 -15 10 -15 5 0 7 7 4 15 -4 8 -8 15 -10 15 -2 0
-4 -7 -4 -15z"/>
<path d="M2766 1451 c-4 -7 -5 -15 -2 -18 9 -9 19 4 14 18 -4 11 -6 11 -12 0z"/>
<path d="M3000 1429 c0 -5 5 -7 10 -4 6 3 10 8 10 11 0 2 -4 4 -10 4 -5 0 -10
-5 -10 -11z"/>
<path d="M3035 1431 c-3 -5 -1 -12 5 -16 5 -3 10 1 10 9 0 18 -6 21 -15 7z"/>
<path d="M3070 1425 c0 -8 4 -15 10 -15 5 0 7 7 4 15 -4 8 -8 15 -10 15 -2 0
-4 -7 -4 -15z"/>
<path d="M3110 1419 c0 -5 5 -7 10 -4 6 3 10 8 10 11 0 2 -4 4 -10 4 -5 0 -10
-5 -10 -11z"/>
<path d="M2797 1414 c-4 -4 -7 -23 -6 -43 l1 -36 9 33 c11 36 9 58 -4 46z"/>
<path d="M2960 1360 c0 -22 2 -40 4 -40 2 0 6 18 8 40 2 22 0 40 -4 40 -5 0
-8 -18 -8 -40z"/>
<path d="M3001 1384 c0 -11 3 -14 6 -6 3 7 2 16 -1 19 -3 4 -6 -2 -5 -13z"/>
<path d="M3034 1389 c-3 -6 -1 -16 5 -22 8 -8 11 -5 11 11 0 24 -5 28 -16 11z"/>
<path d="M2990 1335 c0 -8 2 -15 4 -15 2 0 6 7 10 15 3 8 1 15 -4 15 -6 0 -10
-7 -10 -15z"/>
<path d="M3060 1324 c0 -8 5 -12 10 -9 6 4 8 11 5 16 -9 14 -15 11 -15 -7z"/>
<path d="M2787 1323 c-12 -20 -18 -153 -8 -153 6 0 10 10 10 23 -1 12 2 48 5
80 7 52 4 69 -7 50z"/>
<path d="M3027 1306 c-4 -15 -6 -31 -2 -34 10 -10 16 6 13 35 l-3 28 -8 -29z"/>
<path d="M2950 1295 c0 -8 4 -15 8 -15 5 0 9 7 9 15 0 8 -4 15 -9 15 -4 0 -8
-7 -8 -15z"/>
<path d="M2986 1295 c-3 -8 -1 -15 4 -15 6 0 10 7 10 15 0 8 -2 15 -4 15 -2 0
-6 -7 -10 -15z"/>
<path d="M3056 1285 c-3 -9 0 -15 9 -15 9 0 12 6 9 15 -4 8 -7 15 -9 15 -2 0
-5 -7 -9 -15z"/>
<path d="M2947 1255 c-4 -8 -2 -17 3 -20 6 -4 10 3 10 14 0 25 -6 27 -13 6z"/>
<path d="M3250 1260 c0 -5 5 -10 11 -10 5 0 7 5 4 10 -3 6 -8 10 -11 10 -2 0
-4 -4 -4 -10z"/>
<path d="M3285 1260 c-3 -5 1 -10 10 -10 9 0 13 5 10 10 -3 6 -8 10 -10 10 -2
0 -7 -4 -10 -10z"/>
<path d="M2980 1244 c0 -8 5 -12 10 -9 6 3 10 10 10 16 0 5 -4 9 -10 9 -5 0
-10 -7 -10 -16z"/>
<path d="M3015 1249 c-4 -6 -5 -13 -2 -16 7 -7 27 6 27 18 0 12 -17 12 -25 -2z"/>
<path d="M3050 1234 c0 -14 3 -14 15 -4 8 7 15 14 15 16 0 2 -7 4 -15 4 -8 0
-15 -7 -15 -16z"/>
<path d="M3175 1229 c-3 -4 2 -6 10 -5 21 3 28 13 10 13 -9 0 -18 -4 -20 -8z"/>
<path d="M2940 1205 c0 -8 5 -15 10 -15 6 0 10 7 10 15 0 8 -4 15 -10 15 -5 0
-10 -7 -10 -15z"/>
<path d="M2981 1204 c0 -11 3 -14 6 -6 3 7 2 16 -1 19 -3 4 -6 -2 -5 -13z"/>
<path d="M3010 1200 c0 -5 5 -10 10 -10 6 0 10 5 10 10 0 6 -4 10 -10 10 -5 0
-10 -4 -10 -10z"/>
<path d="M3046 1195 c-3 -9 0 -15 9 -15 9 0 12 6 9 15 -4 8 -7 15 -9 15 -2 0
-5 -7 -9 -15z"/>
<path d="M3085 1190 c-3 -5 1 -10 10 -10 9 0 13 5 10 10 -3 6 -8 10 -10 10 -2
0 -7 -4 -10 -10z"/>
<path d="M3131 1184 c0 -11 3 -14 6 -6 3 7 2 16 -1 19 -3 4 -6 -2 -5 -13z"/>
<path d="M2941 1164 c0 -11 3 -14 6 -6 3 7 2 16 -1 19 -3 4 -6 -2 -5 -13z"/>
<path d="M2970 1165 c0 -8 5 -15 10 -15 6 0 10 7 10 15 0 8 -4 15 -10 15 -5 0
-10 -7 -10 -15z"/>
<path d="M3007 1164 c-8 -8 1 -24 14 -24 5 0 9 7 9 15 0 15 -12 20 -23 9z"/>
<path d="M3040 1155 c0 -8 7 -15 15 -15 8 0 15 4 15 9 0 5 -7 11 -15 15 -9 3
-15 0 -15 -9z"/>
<path d="M3080 1145 c0 -8 6 -15 13 -15 8 0 14 7 14 15 0 8 -6 15 -14 15 -7 0
-13 -7 -13 -15z"/>
<path d="M3120 1140 c0 -5 5 -10 10 -10 6 0 10 5 10 10 0 6 -4 10 -10 10 -5 0
-10 -4 -10 -10z"/>
<path d="M3156 1141 c-3 -5 1 -11 9 -15 9 -3 15 0 15 9 0 16 -16 20 -24 6z"/>
<path d="M1635 3043 c-82 -18 -255 -63 -277 -72 -16 -6 -28 -15 -28 -21 0 -6
-13 -100 -29 -208 -25 -164 -88 -627 -106 -777 -8 -65 -53 -359 -79 -509 0 -4
12 -16 29 -25 27 -16 29 -21 26 -68 l-2 -51 73 -11 c40 -7 91 -14 113 -18 22
-3 45 -9 51 -14 14 -11 59 24 105 82 34 44 25 -6 94 516 31 239 32 251 34 281
1 14 5 20 12 17 6 -4 8 -13 5 -21 -3 -7 -1 -16 4 -19 6 -4 10 -1 10 6 0 12 29
38 43 39 5 0 5 -4 2 -10 -3 -6 5 -10 19 -10 18 0 24 4 20 15 -4 8 -1 15 5 15
6 0 11 -7 11 -15 0 -8 4 -15 9 -15 12 0 4 -35 -41 -195 -22 -77 -45 -143 -52
-147 -8 -6 -8 -8 1 -8 9 0 8 -11 -3 -42 -9 -24 -17 -52 -20 -64 -8 -42 -35
-108 -47 -116 -9 -6 -9 -8 1 -8 6 0 12 -5 12 -11 0 -5 -4 -7 -10 -4 -5 3 -7 0
-4 -8 3 -8 -2 -31 -10 -51 -8 -20 -15 -39 -15 -43 1 -3 -5 -10 -13 -15 -10 -7
-8 -8 6 -6 21 3 32 35 117 343 28 99 57 203 65 230 8 28 17 66 20 85 4 19 16
43 28 52 l21 18 -25 1 c-17 1 -20 3 -7 6 36 10 15 22 -33 19 -28 -2 -53 0 -56
5 -3 5 15 9 40 9 37 0 46 4 51 21 7 22 -1 446 -11 602 -10 143 -20 98 -12 -55
4 -79 8 -223 10 -322 l3 -178 -60 6 c-41 4 -55 3 -45 -4 8 -5 34 -10 58 -10
33 0 42 -4 42 -17 0 -13 -3 -14 -12 -5 -9 9 -15 9 -27 -2 -9 -8 -34 -16 -56
-18 l-40 -3 3 40 c6 76 83 679 88 687 9 14 -69 110 -85 107 -3 -1 -15 -3 -26
-6z m-5 -86 c-7 -37 -10 -72 -8 -79 3 -7 10 22 17 65 7 42 14 77 15 77 2 0 14
-9 27 -21 19 -17 21 -22 9 -29 -12 -8 -10 -10 8 -10 18 0 22 -6 22 -30 0 -17
-5 -30 -12 -31 -7 0 -8 -2 -3 -5 17 -7 -4 -164 -21 -164 -8 0 -14 -4 -14 -10
0 -5 6 -9 13 -7 16 3 10 -45 -9 -59 -16 -13 -19 -29 -4 -19 6 3 10 -1 10 -10
0 -9 -4 -14 -9 -11 -5 3 -12 -1 -15 -10 -5 -12 -2 -15 10 -10 10 4 14 2 11 -6
-2 -7 -10 -12 -16 -10 -6 1 -11 -5 -11 -13 0 -8 6 -12 13 -9 10 4 12 -3 9 -26
-3 -19 -10 -30 -21 -31 -14 -1 -14 -2 1 -6 10 -2 15 -10 11 -19 -3 -7 -9 -11
-14 -8 -5 3 -9 0 -9 -5 0 -6 5 -11 10 -11 6 0 10 -4 10 -10 0 -5 -7 -10 -15
-10 -18 0 -20 -17 -2 -22 8 -2 10 -13 6 -33 l-7 -30 -2 30 -2 30 -8 -30 c-4
-16 -8 -41 -8 -55 l0 -25 8 25 c7 20 8 16 9 -22 1 -36 -3 -48 -14 -48 -8 0
-15 -8 -15 -17 0 -15 2 -16 10 -3 5 8 10 11 11 5 0 -5 2 -21 3 -34 2 -16 -3
-25 -16 -29 -20 -5 -25 -23 -5 -19 6 1 11 -5 9 -12 -2 -8 -5 -29 -6 -45 -8
-76 -19 -127 -26 -116 -5 8 -9 7 -13 -4 -4 -10 -1 -16 7 -16 10 0 12 -10 6
-42 -5 -24 -9 -44 -9 -45 -1 -2 -1 -15 -1 -29 0 -14 -4 -23 -9 -19 -5 3 -12 1
-16 -5 -3 -5 1 -10 10 -10 11 0 15 -6 11 -17 -2 -10 -8 -48 -12 -85 -4 -48
-10 -68 -20 -68 -8 0 -14 -4 -14 -10 0 -5 5 -10 10 -10 6 0 10 -16 10 -35 0
-31 -3 -34 -22 -31 -13 3 -33 5 -45 5 -16 1 -23 7 -23 21 0 11 5 20 11 20 5 0
7 -4 4 -10 -3 -5 -1 -10 4 -10 6 0 11 7 11 15 0 8 -9 15 -19 15 -15 0 -20 -10
-26 -51 -4 -27 -4 -53 -1 -56 3 -4 6 3 6 15 0 11 5 24 11 28 9 5 10 -1 5 -20
-4 -15 -2 -26 4 -26 5 0 10 11 10 25 0 21 3 23 23 16 12 -5 25 -9 30 -10 10
-2 9 -16 -2 -16 -5 0 -13 -3 -17 -7 -4 -5 0 -8 9 -8 10 0 17 -4 17 -10 0 -5
-7 -10 -15 -10 -8 0 -15 -4 -15 -10 0 -5 5 -10 10 -10 6 0 10 -8 10 -17 0 -15
-2 -16 -10 -3 -8 13 -10 12 -10 -2 0 -10 5 -18 10 -18 6 0 10 -5 10 -11 0 -6
-7 -8 -16 -5 -11 4 -14 0 -12 -17 2 -16 -2 -22 -14 -21 -10 1 -18 -2 -18 -7 0
-5 6 -9 13 -9 8 0 7 -4 -3 -10 -8 -5 -27 -7 -42 -5 -16 3 -28 2 -28 -3 0 -4
12 -13 28 -20 l27 -12 -27 4 c-16 2 -28 -2 -28 -8 0 -7 -3 -6 -8 2 -5 7 -37
13 -85 15 -42 1 -77 5 -77 10 0 4 -9 7 -20 7 -11 0 -20 5 -20 11 0 6 9 8 20 4
11 -4 20 -2 20 4 0 6 -3 10 -7 10 -25 -4 -34 3 -28 21 4 12 2 20 -5 20 -6 0
-4 8 6 17 16 17 15 18 -26 25 -44 8 -66 18 -37 18 13 0 17 8 16 33 l-1 32 -8
-30 c-10 -38 -12 -12 -3 40 5 32 8 36 15 20 6 -15 7 -12 5 12 -2 18 1 34 7 36
7 2 6 9 -3 20 -12 15 -10 17 18 17 17 0 31 4 31 9 0 5 -9 7 -19 4 -17 -4 -19
0 -16 44 2 37 7 49 21 52 15 3 14 5 -7 17 l-24 13 28 1 c17 0 26 4 22 10 -4 6
-10 8 -15 5 -4 -3 -10 2 -14 10 -4 11 2 15 21 15 14 0 23 3 19 8 -4 4 -13 7
-19 7 -11 0 -12 17 -3 70 2 11 9 19 15 18 6 -2 11 2 11 7 0 6 -4 10 -10 10 -5
0 -10 5 -10 10 0 6 7 10 15 10 11 0 15 10 14 33 -2 30 -2 30 -6 4 -2 -15 -8
-25 -12 -23 -4 3 5 94 21 203 15 109 26 203 24 210 -3 7 -1 15 3 18 7 4 20 80
26 160 3 36 17 109 22 117 2 5 9 6 14 3 5 -4 9 -1 9 4 0 6 -6 11 -14 11 -9 0
-12 8 -8 25 3 16 11 25 24 25 10 0 17 4 13 10 -3 5 -12 7 -21 3 -12 -4 -14 0
-10 18 3 13 8 45 10 71 5 56 11 68 34 69 10 1 7 4 -8 9 l-25 7 28 8 c15 4 27
11 27 15 0 5 8 7 18 6 9 -2 21 2 25 8 5 6 7 -8 5 -31 -2 -23 0 -39 4 -37 5 3
8 12 8 20 0 8 6 14 13 14 8 0 7 3 -3 10 -13 8 -12 11 4 23 11 8 32 13 48 12
15 -1 28 2 28 7 0 6 7 8 15 4 8 -3 15 -1 15 4 0 5 7 7 15 4 20 -8 19 -21 -2
-27 -14 -4 -12 -5 5 -6 17 -1 22 4 22 22 0 23 9 41 17 33 2 -2 -1 -33 -7 -69z
m43 -761 c21 -16 22 -26 1 -26 -8 0 -12 5 -9 10 3 6 -1 10 -9 10 -9 0 -16 5
-16 10 0 13 11 12 33 -4z"/>
<path d="M1492 2935 c0 -16 2 -22 5 -12 2 9 2 23 0 30 -3 6 -5 -1 -5 -18z"/>
<path d="M1602 2930 c0 -19 2 -27 5 -17 2 9 2 25 0 35 -3 9 -5 1 -5 -18z"/>
<path d="M1515 2930 c-3 -5 1 -10 10 -10 9 0 13 5 10 10 -3 6 -8 10 -10 10 -2
0 -7 -4 -10 -10z"/>
<path d="M1650 2920 c0 -5 7 -7 15 -4 8 4 15 8 15 10 0 2 -7 4 -15 4 -8 0 -15
-4 -15 -10z"/>
<path d="M1422 2890 c0 -19 2 -27 5 -17 2 9 2 25 0 35 -3 9 -5 1 -5 -18z"/>
<path d="M1575 2910 c-3 -5 -1 -10 4 -10 6 0 11 5 11 10 0 6 -2 10 -4 10 -3 0
-8 -4 -11 -10z"/>
<path d="M1370 2900 c-13 -8 -12 -10 3 -10 9 0 17 5 17 10 0 12 -1 12 -20 0z"/>
<path d="M1530 2899 c0 -5 -4 -7 -10 -4 -5 3 -10 1 -10 -4 0 -6 7 -11 15 -11
8 0 15 7 15 15 0 8 -2 15 -5 15 -3 0 -5 -5 -5 -11z"/>
<path d="M1647 2893 c-4 -3 -7 -11 -7 -17 0 -6 5 -5 12 2 6 6 9 14 7 17 -3 3
-9 2 -12 -2z"/>
<path d="M1439 2862 c-3 -20 -2 -29 4 -23 5 5 7 19 5 32 -3 20 -5 19 -9 -9z"/>
<path d="M1551 2864 c0 -11 3 -14 6 -6 3 7 2 16 -1 19 -3 4 -6 -2 -5 -13z"/>
<path d="M1360 2860 c0 -5 5 -10 10 -10 6 0 10 5 10 10 0 6 -4 10 -10 10 -5 0
-10 -4 -10 -10z"/>
<path d="M1481 2854 c0 -11 3 -14 6 -6 3 7 2 16 -1 19 -3 4 -6 -2 -5 -13z"/>
<path d="M1520 2859 c0 -5 5 -7 10 -4 6 3 10 8 10 11 0 2 -4 4 -10 4 -5 0 -10
-5 -10 -11z"/>
<path d="M1617 2853 c-4 -3 -7 -11 -7 -17 0 -6 5 -5 12 2 6 6 9 14 7 17 -3 3
-9 2 -12 -2z"/>
<path d="M1412 2825 c0 -16 2 -22 5 -12 2 9 2 23 0 30 -3 6 -5 -1 -5 -18z"/>
<path d="M1563 2843 c-13 -2 -23 -8 -23 -13 0 -6 10 -6 24 0 13 5 27 6 30 3 3
-4 6 -1 6 5 0 7 -3 11 -7 11 -5 -1 -18 -4 -30 -6z"/>
<path d="M1355 2830 c-3 -5 1 -10 9 -10 9 0 16 5 16 10 0 6 -4 10 -9 10 -6 0
-13 -4 -16 -10z"/>
<path d="M1508 2823 c7 -3 16 -2 19 1 4 3 -2 6 -13 5 -11 0 -14 -3 -6 -6z"/>
<path d="M1660 2821 c0 -10 26 -9 36 2 4 4 -2 7 -14 7 -12 0 -22 -4 -22 -9z"/>
<path d="M1441 2723 c-7 -54 -15 -106 -18 -117 -3 -10 -1 -16 4 -13 11 7 39
215 30 223 -2 3 -10 -39 -16 -93z"/>
<path d="M1574 2805 c-18 -14 -18 -14 4 -8 12 3 22 9 22 14 0 12 -3 11 -26 -6z"/>
<path d="M1612 2795 c0 -16 2 -22 5 -12 2 9 2 23 0 30 -3 6 -5 -1 -5 -18z"/>
<path d="M1350 2789 c0 -5 5 -7 10 -4 6 3 10 8 10 11 0 2 -4 4 -10 4 -5 0 -10
-5 -10 -11z"/>
<path d="M1500 2790 c0 -5 7 -10 15 -10 8 0 15 5 15 10 0 6 -7 10 -15 10 -8 0
-15 -4 -15 -10z"/>
<path d="M1472 2765 c0 -16 2 -22 5 -12 2 9 2 23 0 30 -3 6 -5 -1 -5 -18z"/>
<path d="M1572 2775 c-11 -12 -10 -15 3 -15 8 0 15 7 15 15 0 18 -2 18 -18 0z"/>
<path d="M1387 2773 c-4 -3 -7 -14 -7 -24 0 -10 -9 -19 -22 -22 -20 -4 -19 -4
5 -6 21 -1 27 4 27 19 0 11 5 20 10 20 6 0 10 5 10 10 0 11 -13 13 -23 3z"/>
<path d="M1500 2760 c-13 -8 -12 -10 3 -10 9 0 17 5 17 10 0 12 -1 12 -20 0z"/>
<path d="M1625 2750 c-3 -5 -1 -10 4 -10 6 0 11 5 11 10 0 6 -2 10 -4 10 -3 0
-8 -4 -11 -10z"/>
<path d="M1650 2750 c0 -5 6 -10 14 -10 8 0 18 5 21 10 3 6 -3 10 -14 10 -12
0 -21 -4 -21 -10z"/>
<path d="M1555 2735 l-30 -13 27 -1 c15 -1 30 4 33 10 11 17 2 18 -30 4z"/>
<path d="M1485 2720 c-3 -5 3 -10 14 -10 12 0 21 5 21 10 0 6 -6 10 -14 10 -8
0 -18 -4 -21 -10z"/>
<path d="M1650 2720 c0 -5 -7 -7 -15 -4 -8 4 -15 2 -15 -3 0 -5 9 -9 20 -10
11 -1 20 4 20 13 0 8 -2 14 -5 14 -3 0 -5 -4 -5 -10z"/>
<path d="M1417 2713 c-4 -3 -7 -11 -7 -17 0 -6 5 -5 12 2 6 6 9 14 7 17 -3 3
-9 2 -12 -2z"/>
<path d="M1595 2710 c-3 -5 -1 -10 4 -10 6 0 11 5 11 10 0 6 -2 10 -4 10 -3 0
-8 -4 -11 -10z"/>
<path d="M1365 2700 c-3 -5 1 -10 9 -10 8 0 18 5 21 10 3 6 -1 10 -9 10 -8 0
-18 -4 -21 -10z"/>
<path d="M1543 2703 c-23 -8 -13 -20 12 -15 14 2 25 8 25 11 0 8 -18 10 -37 4z"/>
<path d="M1608 2683 c-10 -2 -18 -12 -18 -21 0 -14 2 -14 9 -3 5 7 14 10 20 7
6 -4 11 0 11 8 0 9 -1 15 -2 15 -2 -1 -11 -3 -20 -6z"/>
<path d="M1640 2673 c0 -11 3 -14 8 -7 4 6 14 14 22 17 10 4 8 6 -7 6 -16 1
-23 -5 -23 -16z"/>
<path d="M1410 2661 c0 -11 -6 -22 -12 -24 -8 -3 -6 -6 5 -6 12 -1 17 7 17 24
0 14 -2 25 -5 25 -3 0 -5 -9 -5 -19z"/>
<path d="M1565 2670 c-3 -5 -1 -10 4 -10 6 0 11 5 11 10 0 6 -2 10 -4 10 -3 0
-8 -4 -11 -10z"/>
<path d="M1335 2660 c-8 -13 15 -13 35 0 12 8 11 10 -7 10 -12 0 -25 -4 -28
-10z"/>
<path d="M1535 2660 c-3 -5 -1 -10 4 -10 6 0 11 5 11 10 0 6 -2 10 -4 10 -3 0
-8 -4 -11 -10z"/>
<path d="M1452 2630 c0 -19 2 -27 5 -17 2 9 2 25 0 35 -3 9 -5 1 -5 -18z"/>
<path d="M1610 2634 c0 -7 8 -10 20 -7 11 3 20 8 20 12 0 4 -9 7 -20 7 -11 0
-20 -6 -20 -12z"/>
<path d="M1350 2630 c-23 -7 -23 -8 -3 -9 12 -1 25 4 28 9 3 6 5 10 3 9 -2 -1
-14 -5 -28 -9z"/>
<path d="M1585 2630 c-3 -5 -1 -10 4 -10 6 0 11 5 11 10 0 6 -2 10 -4 10 -3 0
-8 -4 -11 -10z"/>
<path d="M1579 2580 c-7 -35 -4 -48 7 -38 3 4 4 21 2 40 l-3 33 -6 -35z"/>
<path d="M1607 2603 c-4 -3 -7 -11 -7 -17 0 -6 5 -5 12 2 6 6 9 14 7 17 -3 3
-9 2 -12 -2z"/>
<path d="M1631 2594 c0 -11 3 -14 6 -6 3 7 2 16 -1 19 -3 4 -6 -2 -5 -13z"/>
<path d="M1320 2590 c0 -5 7 -10 16 -10 8 0 12 5 9 10 -3 6 -10 10 -16 10 -5
0 -9 -4 -9 -10z"/>
<path d="M1550 2590 c0 -5 5 -10 10 -10 6 0 10 5 10 10 0 6 -4 10 -10 10 -5 0
-10 -4 -10 -10z"/>
<path d="M1510 2579 c0 -5 5 -7 10 -4 6 3 10 8 10 11 0 2 -4 4 -10 4 -5 0 -10
-5 -10 -11z"/>
<path d="M1418 2555 c-6 -30 -3 -43 8 -33 3 4 4 19 2 35 l-3 28 -7 -30z"/>
<path d="M1321 2554 c0 -11 3 -14 6 -6 3 7 2 16 -1 19 -3 4 -6 -2 -5 -13z"/>
<path d="M1354 2558 c-3 -4 2 -8 10 -8 8 0 17 4 20 8 3 5 -2 9 -10 9 -8 0 -17
-4 -20 -9z"/>
<path d="M1620 2560 c0 -5 5 -10 10 -10 6 0 10 5 10 10 0 6 -4 10 -10 10 -5 0
-10 -4 -10 -10z"/>
<path d="M1540 2550 c0 -5 5 -10 10 -10 6 0 10 5 10 10 0 6 -4 10 -10 10 -5 0
-10 -4 -10 -10z"/>
<path d="M1480 2539 c0 -5 5 -7 10 -4 6 3 10 8 10 11 0 2 -4 4 -10 4 -5 0 -10
-5 -10 -11z"/>
<path d="M1360 2530 c-8 -5 -12 -11 -9 -14 2 -3 11 -1 19 4 8 5 12 11 9 14 -2
3 -11 1 -19 -4z"/>
<path d="M1621 2524 c0 -11 3 -14 6 -6 3 7 2 16 -1 19 -3 4 -6 -2 -5 -13z"/>
<path d="M1310 2520 c0 -5 4 -10 9 -10 6 0 13 5 16 10 3 6 -1 10 -9 10 -9 0
-16 -4 -16 -10z"/>
<path d="M1541 2521 c-8 -6 -9 -11 -3 -15 6 -3 14 -1 17 5 9 14 2 20 -14 10z"/>
<path d="M1568 2505 c-3 -14 -1 -25 3 -25 5 0 9 11 9 25 0 14 -2 25 -4 25 -2
0 -6 -11 -8 -25z"/>
<path d="M1457 2513 c-4 -3 -7 -18 -6 -32 1 -26 1 -25 10 3 9 31 7 41 -4 29z"/>
<path d="M1481 2504 c0 -11 3 -14 6 -6 3 7 2 16 -1 19 -3 4 -6 -2 -5 -13z"/>
<path d="M1500 2509 c0 -5 5 -7 10 -4 6 3 10 8 10 11 0 2 -4 4 -10 4 -5 0 -10
-5 -10 -11z"/>
<path d="M1411 2488 c-1 -19 4 -28 14 -28 8 0 15 5 15 11 0 5 -4 8 -9 4 -5 -3
-12 5 -14 17 -4 20 -4 19 -6 -4z"/>
<path d="M1345 2490 c-3 -5 -2 -10 4 -10 5 0 13 5 16 10 3 6 2 10 -4 10 -5 0
-13 -4 -16 -10z"/>
<path d="M1592 2470 c0 -19 2 -27 5 -17 2 9 2 25 0 35 -3 9 -5 1 -5 -18z"/>
<path d="M1615 2490 c-3 -5 -1 -10 4 -10 6 0 11 5 11 10 0 6 -2 10 -4 10 -3 0
-8 -4 -11 -10z"/>
<path d="M1530 2480 c0 -5 5 -10 10 -10 6 0 10 5 10 10 0 6 -4 10 -10 10 -5 0
-10 -4 -10 -10z"/>
<path d="M1335 2460 c-19 -8 -19 -9 3 -9 12 -1 22 4 22 9 0 6 -1 10 -2 9 -2 0
-12 -4 -23 -9z"/>
<path d="M1380 2459 c0 -5 5 -7 10 -4 6 3 10 8 10 11 0 2 -4 4 -10 4 -5 0 -10
-5 -10 -11z"/>
<path d="M1617 2463 c-4 -3 -7 -11 -7 -17 0 -6 5 -5 12 2 6 6 9 14 7 17 -3 3
-9 2 -12 -2z"/>
<path d="M1445 2440 c-3 -5 -1 -10 4 -10 6 0 11 5 11 10 0 6 -2 10 -4 10 -3 0
-8 -4 -11 -10z"/>
<path d="M1470 2439 c0 -11 27 -12 34 -1 2 4 -4 9 -15 9 -10 1 -19 -2 -19 -8z"/>
<path d="M1528 2443 c7 -3 16 -2 19 1 4 3 -2 6 -13 5 -11 0 -14 -3 -6 -6z"/>
<path d="M1381 2424 c0 -11 3 -14 6 -6 3 7 2 16 -1 19 -3 4 -6 -2 -5 -13z"/>
<path d="M1320 2418 c0 -4 7 -8 15 -8 8 0 15 4 15 8 0 5 -7 9 -15 9 -8 0 -15
-4 -15 -9z"/>
<path d="M1556 2415 c-3 -8 -1 -15 4 -15 6 0 10 7 10 15 0 8 -2 15 -4 15 -2 0
-6 -7 -10 -15z"/>
<path d="M1581 2414 c0 -11 3 -14 6 -6 3 7 2 16 -1 19 -3 4 -6 -2 -5 -13z"/>
<path d="M1471 2404 c0 -11 3 -14 6 -6 3 7 2 16 -1 19 -3 4 -6 -2 -5 -13z"/>
<path d="M1491 2404 c0 -11 3 -14 6 -6 3 7 2 16 -1 19 -3 4 -6 -2 -5 -13z"/>
<path d="M1510 2410 c0 -5 7 -10 15 -10 8 0 15 5 15 10 0 6 -7 10 -15 10 -8 0
-15 -4 -15 -10z"/>
<path d="M1313 2393 c-31 -6 -29 -18 2 -18 14 0 27 6 30 13 2 6 1 11 -3 11 -4
-1 -17 -4 -29 -6z"/>
<path d="M1365 2390 c-3 -5 -2 -10 4 -10 5 0 13 5 16 10 3 6 2 10 -4 10 -5 0
-13 -4 -16 -10z"/>
<path d="M1498 2382 c-26 -2 -38 -8 -38 -18 0 -8 4 -13 8 -10 5 3 21 7 36 10
55 10 50 23 -6 18z"/>
<path d="M1550 2374 c0 -8 5 -12 10 -9 6 3 10 10 10 16 0 5 -4 9 -10 9 -5 0
-10 -7 -10 -16z"/>
<path d="M1600 2379 c0 -5 5 -7 10 -4 6 3 10 8 10 11 0 2 -4 4 -10 4 -5 0 -10
-5 -10 -11z"/>
<path d="M1418 2373 c-16 -2 -28 -9 -28 -14 0 -6 4 -8 9 -4 5 3 12 -5 14 -17
l4 -23 2 24 c1 16 5 21 16 17 9 -3 15 0 15 9 0 8 -1 14 -2 14 -2 -1 -15 -4
-30 -6z"/>
<path d="M1360 2360 c-13 -8 -12 -10 3 -10 9 0 17 5 17 10 0 12 -1 12 -20 0z"/>
<path d="M1595 2316 c-4 -25 -11 -44 -15 -41 -5 3 -11 1 -15 -5 -3 -5 2 -10
13 -10 15 0 21 10 26 47 3 25 4 48 2 51 -3 2 -8 -17 -11 -42z"/>
<path d="M1551 2338 c0 -9 -4 -25 -7 -35 -5 -14 -4 -15 5 -7 7 7 11 22 8 35
-2 13 -5 16 -6 7z"/>
<path d="M1570 2320 c0 -16 2 -30 4 -30 2 0 6 14 8 30 3 17 1 30 -4 30 -4 0
-8 -13 -8 -30z"/>
<path d="M1428 2310 c-3 -16 -1 -30 4 -30 4 0 8 14 8 30 0 17 -2 30 -4 30 -2
0 -6 -13 -8 -30z"/>
<path d="M1460 2329 c0 -5 5 -7 12 -3 8 5 9 0 6 -14 -4 -12 -2 -22 3 -22 5 0
9 11 9 25 0 16 -6 25 -15 25 -8 0 -15 -5 -15 -11z"/>
<path d="M1508 2333 c7 -3 16 -2 19 1 4 3 -2 6 -13 5 -11 0 -14 -3 -6 -6z"/>
<path d="M1280 2295 c0 -14 2 -25 4 -25 2 0 6 11 8 25 3 14 1 25 -3 25 -5 0
-9 -11 -9 -25z"/>
<path d="M1318 2295 c2 -14 6 -25 8 -25 2 0 4 11 4 25 0 14 -4 25 -9 25 -4 0
-6 -11 -3 -25z"/>
<path d="M1521 2304 c0 -11 3 -14 6 -6 3 7 2 16 -1 19 -3 4 -6 -2 -5 -13z"/>
<path d="M1451 2294 c0 -11 3 -14 6 -6 3 7 2 16 -1 19 -3 4 -6 -2 -5 -13z"/>
<path d="M1365 2290 c-3 -5 1 -10 9 -10 9 0 16 5 16 10 0 6 -4 10 -9 10 -6 0
-13 -4 -16 -10z"/>
<path d="M1616 2281 c-4 -7 -5 -15 -2 -18 9 -9 19 4 14 18 -4 11 -6 11 -12 0z"/>
<path d="M1541 2264 c0 -11 3 -14 6 -6 3 7 2 16 -1 19 -3 4 -6 -2 -5 -13z"/>
<path d="M1421 2254 c0 -11 3 -14 6 -6 3 7 2 16 -1 19 -3 4 -6 -2 -5 -13z"/>
<path d="M1445 2260 c-3 -5 3 -10 14 -10 12 0 21 5 21 10 0 6 -6 10 -14 10 -8
0 -18 -4 -21 -10z"/>
<path d="M1495 2260 c-3 -5 1 -10 9 -10 9 0 16 5 16 10 0 6 -4 10 -9 10 -6 0
-13 -4 -16 -10z"/>
<path d="M1360 2250 c0 -5 7 -10 15 -10 8 0 15 5 15 10 0 6 -7 10 -15 10 -8 0
-15 -4 -15 -10z"/>
<path d="M1270 2225 c0 -14 2 -25 4 -25 2 0 6 11 8 25 3 14 1 25 -3 25 -5 0
-9 -11 -9 -25z"/>
<path d="M1310 2214 c0 -21 -4 -33 -10 -29 -5 3 -10 1 -10 -4 0 -6 6 -11 14
-11 9 0 15 14 18 40 2 22 0 40 -4 40 -5 0 -8 -16 -8 -36z"/>
<path d="M1458 2233 c-10 -2 -18 -8 -18 -13 0 -12 33 -5 38 8 2 7 2 11 0 11
-1 -1 -11 -3 -20 -6z"/>
<path d="M1491 2224 c0 -11 3 -14 6 -6 3 7 2 16 -1 19 -3 4 -6 -2 -5 -13z"/>
<path d="M1530 2229 c0 -5 5 -7 10 -4 6 3 10 8 10 11 0 2 -4 4 -10 4 -5 0 -10
-5 -10 -11z"/>
<path d="M1580 2229 c0 -5 5 -7 10 -4 6 3 10 8 10 11 0 2 -4 4 -10 4 -5 0 -10
-5 -10 -11z"/>
<path d="M1355 2220 c-3 -5 1 -10 9 -10 9 0 16 5 16 10 0 6 -4 10 -9 10 -6 0
-13 -4 -16 -10z"/>
<path d="M1410 2220 c0 -5 5 -10 10 -10 6 0 10 5 10 10 0 6 -4 10 -10 10 -5 0
-10 -4 -10 -10z"/>
<path d="M1531 2194 c0 -11 3 -14 6 -6 3 7 2 16 -1 19 -3 4 -6 -2 -5 -13z"/>
<path d="M1554 2198 c-3 -4 4 -8 15 -8 12 0 21 4 21 8 0 5 -7 9 -15 9 -9 0
-18 -4 -21 -9z"/>
<path d="M1600 2200 c0 -5 5 -10 10 -10 6 0 10 5 10 10 0 6 -4 10 -10 10 -5 0
-10 -4 -10 -10z"/>
<path d="M1410 2184 c0 -7 8 -10 20 -7 11 3 20 8 20 12 0 4 -9 7 -20 7 -11 0
-20 -6 -20 -12z"/>
<path d="M1480 2191 c0 -10 26 -9 36 2 4 4 -2 7 -14 7 -12 0 -22 -4 -22 -9z"/>
<path d="M1265 2180 c-3 -5 -1 -10 4 -10 6 0 11 5 11 10 0 6 -2 10 -4 10 -3 0
-8 -4 -11 -10z"/>
<path d="M1350 2180 c0 -5 7 -7 15 -4 8 4 15 8 15 10 0 2 -7 4 -15 4 -8 0 -15
-4 -15 -10z"/>
<path d="M1520 2160 c0 -5 5 -10 10 -10 6 0 10 5 10 10 0 6 -4 10 -10 10 -5 0
-10 -4 -10 -10z"/>
<path d="M1550 2162 c0 -4 9 -8 20 -9 11 -1 20 2 20 8 0 5 -9 9 -20 9 -11 0
-20 -4 -20 -8z"/>
<path d="M1298 2135 c-6 -30 -3 -43 8 -33 3 4 4 19 2 35 l-3 28 -7 -30z"/>
<path d="M1345 2150 c-3 -5 1 -10 10 -10 9 0 13 5 10 10 -3 6 -8 10 -10 10 -2
0 -7 -4 -10 -10z"/>
<path d="M1395 2150 c-19 -8 -19 -9 3 -9 12 -1 22 4 22 9 0 6 -1 10 -2 9 -2 0
-12 -4 -23 -9z"/>
<path d="M1430 2151 c0 -5 9 -7 20 -4 11 3 20 7 20 9 0 2 -9 4 -20 4 -11 0
-20 -4 -20 -9z"/>
<path d="M1521 2124 c0 -11 3 -14 6 -6 3 7 2 16 -1 19 -3 4 -6 -2 -5 -13z"/>
<path d="M1571 2124 c0 -11 3 -14 6 -6 3 7 2 16 -1 19 -3 4 -6 -2 -5 -13z"/>
<path d="M1596 2131 c-4 -7 -5 -15 -2 -18 9 -9 19 4 14 18 -4 11 -6 11 -12 0z"/>
<path d="M1400 2114 c0 -9 -8 -23 -17 -30 -17 -12 -16 -13 5 -11 17 1 22 7 22
29 0 15 -2 28 -5 28 -3 0 -5 -7 -5 -16z"/>
<path d="M1431 2114 c0 -11 3 -14 6 -6 3 7 2 16 -1 19 -3 4 -6 -2 -5 -13z"/>
<path d="M1452 2100 c0 -19 2 -27 5 -17 2 9 2 25 0 35 -3 9 -5 1 -5 -18z"/>
<path d="M1540 2120 c0 -5 5 -10 10 -10 6 0 10 5 10 10 0 6 -4 10 -10 10 -5 0
-10 -4 -10 -10z"/>
<path d="M1255 2110 c-3 -5 1 -10 10 -10 9 0 13 5 10 10 -3 6 -8 10 -10 10 -2
0 -7 -4 -10 -10z"/>
<path d="M1478 2113 c7 -3 16 -2 19 1 4 3 -2 6 -13 5 -11 0 -14 -3 -6 -6z"/>
<path d="M1516 2091 c-4 -7 -5 -15 -2 -18 9 -9 19 4 14 18 -4 11 -6 11 -12 0z"/>
<path d="M1541 2084 c0 -11 3 -14 6 -6 3 7 2 16 -1 19 -3 4 -6 -2 -5 -13z"/>
<path d="M1565 2089 c-4 -6 -5 -12 -2 -15 2 -3 7 2 10 11 7 17 1 20 -8 4z"/>
<path d="M1591 2084 c0 -11 3 -14 6 -6 3 7 2 16 -1 19 -3 4 -6 -2 -5 -13z"/>
<path d="M1251 2074 c0 -11 3 -14 6 -6 3 7 2 16 -1 19 -3 4 -6 -2 -5 -13z"/>
<path d="M1285 2043 c-4 -26 -9 -56 -12 -65 -2 -10 0 -18 5 -18 10 0 27 118
18 127 -2 3 -7 -17 -11 -44z"/>
<path d="M1316 2075 c-4 -12 -2 -13 13 -6 10 6 22 7 26 3 5 -4 5 -1 1 6 -10
17 -33 15 -40 -3z"/>
<path d="M1425 2080 c-3 -5 -1 -10 4 -10 6 0 11 5 11 10 0 6 -2 10 -4 10 -3 0
-8 -4 -11 -10z"/>
<path d="M1442 2030 c0 -19 2 -27 5 -17 2 9 2 25 0 35 -3 9 -5 1 -5 -18z"/>
<path d="M1478 2053 c-12 -3 -18 -14 -17 -31 1 -26 1 -26 7 -4 4 13 11 23 17
22 5 -1 11 3 13 9 2 6 2 10 0 10 -1 -1 -11 -3 -20 -6z"/>
<path d="M1511 2044 c0 -11 3 -14 6 -6 3 7 2 16 -1 19 -3 4 -6 -2 -5 -13z"/>
<path d="M1580 2051 c0 -6 5 -13 10 -16 6 -3 10 1 10 9 0 9 -4 16 -10 16 -5 0
-10 -4 -10 -9z"/>
<path d="M1240 2040 c0 -5 5 -10 10 -10 6 0 10 5 10 10 0 6 -4 10 -10 10 -5 0
-10 -4 -10 -10z"/>
<path d="M1330 2042 c0 -5 7 -9 15 -9 8 0 15 4 15 9 0 4 -7 8 -15 8 -8 0 -15
-4 -15 -8z"/>
<path d="M1390 2042 c0 -4 9 -8 20 -8 11 0 20 4 20 8 0 4 -9 8 -20 8 -11 0
-20 -4 -20 -8z"/>
<path d="M1410 2010 c0 -5 5 -10 10 -10 6 0 10 5 10 10 0 6 -4 10 -10 10 -5 0
-10 -4 -10 -10z"/>
<path d="M1550 2009 c0 -5 5 -7 10 -4 6 3 10 8 10 11 0 2 -4 4 -10 4 -5 0 -10
-5 -10 -11z"/>
<path d="M1313 2003 c9 -2 25 -2 35 0 9 3 1 5 -18 5 -19 0 -27 -2 -17 -5z"/>
<path d="M1301 1974 c0 -11 3 -14 6 -6 3 7 2 16 -1 19 -3 4 -6 -2 -5 -13z"/>
<path d="M1410 1980 c0 -5 -7 -7 -15 -4 -8 4 -15 2 -15 -3 0 -5 9 -9 20 -10
11 -1 20 4 20 13 0 8 -2 14 -5 14 -3 0 -5 -4 -5 -10z"/>
<path d="M1501 1974 c0 -11 3 -14 6 -6 3 7 2 16 -1 19 -3 4 -6 -2 -5 -13z"/>
<path d="M1320 1968 c0 -4 7 -8 15 -8 8 0 15 4 15 8 0 5 -7 9 -15 9 -8 0 -15
-4 -15 -9z"/>
<path d="M1450 1971 c0 -10 26 -9 36 2 4 4 -2 7 -14 7 -12 0 -22 -4 -22 -9z"/>
<path d="M1262 1941 c-11 -7 -11 -9 2 -14 10 -4 16 -1 16 8 0 17 -1 17 -18 6z"/>
<path d="M1297 1935 c-4 -10 0 -12 15 -10 32 7 41 20 14 23 -13 1 -26 -5 -29
-13z"/>
<path d="M1361 1934 c0 -11 3 -14 6 -6 3 7 2 16 -1 19 -3 4 -6 -2 -5 -13z"/>
<path d="M1381 1934 c0 -11 3 -14 6 -6 3 7 2 16 -1 19 -3 4 -6 -2 -5 -13z"/>
<path d="M1400 1934 c0 -8 5 -12 10 -9 6 3 10 10 10 16 0 5 -4 9 -10 9 -5 0
-10 -7 -10 -16z"/>
<path d="M1431 1934 c0 -11 3 -14 6 -6 3 7 2 16 -1 19 -3 4 -6 -2 -5 -13z"/>
<path d="M1451 1934 c0 -11 3 -14 6 -6 3 7 2 16 -1 19 -3 4 -6 -2 -5 -13z"/>
<path d="M1471 1934 c0 -11 3 -14 6 -6 3 7 2 16 -1 19 -3 4 -6 -2 -5 -13z"/>
<path d="M1496 1935 c-3 -8 -1 -15 4 -15 6 0 10 7 10 15 0 8 -2 15 -4 15 -2 0
-6 -7 -10 -15z"/>
<path d="M1521 1934 c0 -11 3 -14 6 -6 3 7 2 16 -1 19 -3 4 -6 -2 -5 -13z"/>
<path d="M1571 1934 c0 -11 3 -14 6 -6 3 7 2 16 -1 19 -3 4 -6 -2 -5 -13z"/>
<path d="M1540 1929 c0 -5 5 -7 10 -4 6 3 10 8 10 11 0 2 -4 4 -10 4 -5 0 -10
-5 -10 -11z"/>
<path d="M1250 1906 c0 -2 7 -9 15 -16 12 -10 15 -10 15 4 0 9 -7 16 -15 16
-8 0 -15 -2 -15 -4z"/>
<path d="M1331 1894 c0 -11 3 -14 6 -6 3 7 2 16 -1 19 -3 4 -6 -2 -5 -13z"/>
<path d="M1360 1900 c0 -5 4 -10 9 -10 6 0 13 5 16 10 3 6 -1 10 -9 10 -9 0
-16 -4 -16 -10z"/>
<path d="M1401 1894 c0 -11 3 -14 6 -6 3 7 2 16 -1 19 -3 4 -6 -2 -5 -13z"/>
<path d="M1421 1894 c0 -11 3 -14 6 -6 3 7 2 16 -1 19 -3 4 -6 -2 -5 -13z"/>
<path d="M1452 1896 c13 -14 28 -12 28 5 0 5 -9 9 -20 9 -17 0 -19 -2 -8 -14z"/>
<path d="M1491 1894 c0 -11 3 -14 6 -6 3 7 2 16 -1 19 -3 4 -6 -2 -5 -13z"/>
<path d="M1541 1894 c0 -11 3 -14 6 -6 3 7 2 16 -1 19 -3 4 -6 -2 -5 -13z"/>
<path d="M1567 1903 c-4 -3 -7 -11 -7 -17 0 -6 5 -5 12 2 6 6 9 14 7 17 -3 3
-9 2 -12 -2z"/>
<path d="M1300 1859 c0 -5 5 -7 10 -4 6 3 10 8 10 11 0 2 -4 4 -10 4 -5 0 -10
-5 -10 -11z"/>
<path d="M1415 1860 c-3 -5 -1 -10 4 -10 6 0 11 5 11 10 0 6 -2 10 -4 10 -3 0
-8 -4 -11 -10z"/>
<path d="M1461 1854 c0 -11 3 -14 6 -6 3 7 2 16 -1 19 -3 4 -6 -2 -5 -13z"/>
<path d="M1480 1854 c0 -8 5 -12 10 -9 6 3 10 10 10 16 0 5 -4 9 -10 9 -5 0
-10 -7 -10 -16z"/>
<path d="M1561 1854 c0 -11 3 -14 6 -6 3 7 2 16 -1 19 -3 4 -6 -2 -5 -13z"/>
<path d="M1255 1830 c-3 -5 -1 -10 4 -10 6 0 11 5 11 10 0 6 -2 10 -4 10 -3 0
-8 -4 -11 -10z"/>
<path d="M1281 1824 c0 -11 3 -14 6 -6 3 7 2 16 -1 19 -3 4 -6 -2 -5 -13z"/>
<path d="M1301 1824 c0 -11 3 -14 6 -6 3 7 2 16 -1 19 -3 4 -6 -2 -5 -13z"/>
<path d="M1340 1819 c0 -5 5 -7 10 -4 6 3 10 8 10 11 0 2 -4 4 -10 4 -5 0 -10
-5 -10 -11z"/>
<path d="M1412 1800 c0 -19 2 -27 5 -17 2 9 2 25 0 35 -3 9 -5 1 -5 -18z"/>
<path d="M1450 1820 c0 -5 5 -10 10 -10 6 0 10 5 10 10 0 6 -4 10 -10 10 -5 0
-10 -4 -10 -10z"/>
<path d="M1505 1820 c-3 -5 -1 -10 4 -10 6 0 11 5 11 10 0 6 -2 10 -4 10 -3 0
-8 -4 -11 -10z"/>
<path d="M1245 1790 c-3 -5 -1 -10 4 -10 6 0 11 5 11 10 0 6 -2 10 -4 10 -3 0
-8 -4 -11 -10z"/>
<path d="M1271 1784 c0 -11 3 -14 6 -6 3 7 2 16 -1 19 -3 4 -6 -2 -5 -13z"/>
<path d="M1292 1770 c0 -19 2 -27 5 -17 2 9 2 25 0 35 -3 9 -5 1 -5 -18z"/>
<path d="M1341 1784 c0 -11 3 -14 6 -6 3 7 2 16 -1 19 -3 4 -6 -2 -5 -13z"/>
<path d="M1451 1784 c0 -11 3 -14 6 -6 3 7 2 16 -1 19 -3 4 -6 -2 -5 -13z"/>
<path d="M1476 1791 c-4 -7 -5 -15 -2 -18 9 -9 19 4 14 18 -4 11 -6 11 -12 0z"/>
<path d="M1240 1725 c0 -21 -5 -35 -12 -35 -9 0 -9 -3 0 -12 6 -6 13 -10 15
-7 9 10 14 89 6 89 -5 0 -9 -16 -9 -35z"/>
<path d="M1312 1730 c0 -19 2 -27 5 -17 2 9 2 25 0 35 -3 9 -5 1 -5 -18z"/>
<path d="M1381 1744 c0 -11 3 -14 6 -6 3 7 2 16 -1 19 -3 4 -6 -2 -5 -13z"/>
<path d="M1401 1744 c0 -11 3 -14 6 -6 3 7 2 16 -1 19 -3 4 -6 -2 -5 -13z"/>
<path d="M1446 1748 c-10 -31 -14 -90 -7 -82 9 10 22 94 15 94 -3 0 -6 -6 -8
-12z"/>
<path d="M1465 1715 c-3 -26 -4 -49 -2 -52 3 -3 9 16 12 42 4 25 5 48 2 51 -2
3 -8 -16 -12 -41z"/>
<path d="M1546 1743 c-6 -14 -5 -15 5 -6 7 7 10 15 7 18 -3 3 -9 -2 -12 -12z"/>
<path d="M1282 1700 c0 -19 2 -27 5 -17 2 9 2 25 0 35 -3 9 -5 1 -5 -18z"/>
<path d="M1302 1660 c0 -19 2 -27 5 -17 2 9 2 25 0 35 -3 9 -5 1 -5 -18z"/>
<path d="M1535 1671 c-3 -5 -1 -12 5 -16 5 -3 10 1 10 9 0 18 -6 21 -15 7z"/>
<path d="M1271 1644 c0 -11 3 -14 6 -6 3 7 2 16 -1 19 -3 4 -6 -2 -5 -13z"/>
<path d="M1431 1634 c0 -11 3 -14 6 -6 3 7 2 16 -1 19 -3 4 -6 -2 -5 -13z"/>
<path d="M1456 1641 c-4 -7 -5 -15 -2 -18 9 -9 19 4 14 18 -4 11 -6 11 -12 0z"/>
<path d="M1348 1633 c7 -3 16 -2 19 1 4 3 -2 6 -13 5 -11 0 -14 -3 -6 -6z"/>
<path d="M1190 1611 c0 -5 11 -8 25 -8 14 0 25 3 25 8 0 5 -11 9 -25 9 -14 0
-25 -4 -25 -9z"/>
<path d="M1271 1604 c0 -11 3 -14 6 -6 3 7 2 16 -1 19 -3 4 -6 -2 -5 -13z"/>
<path d="M1291 1604 c0 -11 3 -14 6 -6 3 7 2 16 -1 19 -3 4 -6 -2 -5 -13z"/>
<path d="M1381 1594 c0 -11 3 -14 6 -6 3 7 2 16 -1 19 -3 4 -6 -2 -5 -13z"/>
<path d="M1401 1594 c0 -11 3 -14 6 -6 3 7 2 16 -1 19 -3 4 -6 -2 -5 -13z"/>
<path d="M1420 1595 c0 -8 2 -15 4 -15 2 0 6 7 10 15 3 8 1 15 -4 15 -6 0 -10
-7 -10 -15z"/>
<path d="M1500 1595 c0 -8 2 -15 4 -15 2 0 6 7 10 15 3 8 1 15 -4 15 -6 0 -10
-7 -10 -15z"/>
<path d="M1532 1590 c0 -14 2 -19 5 -12 2 6 2 18 0 25 -3 6 -5 1 -5 -13z"/>
<path d="M1180 1555 c0 -14 2 -25 4 -25 2 0 6 11 8 25 3 14 1 25 -3 25 -5 0
-9 -11 -9 -25z"/>
<path d="M1215 1570 c3 -5 8 -10 11 -10 2 0 4 5 4 10 0 6 -5 10 -11 10 -5 0
-7 -4 -4 -10z"/>
<path d="M1285 1571 c-3 -5 -1 -12 5 -16 5 -3 10 1 10 9 0 18 -6 21 -15 7z"/>
<path d="M1311 1564 c0 -11 3 -14 6 -6 3 7 2 16 -1 19 -3 4 -6 -2 -5 -13z"/>
<path d="M1360 1560 c18 -12 30 -13 30 -2 0 4 -10 9 -22 9 -18 2 -20 0 -8 -7z"/>
<path d="M1421 1554 c0 -11 3 -14 6 -6 3 7 2 16 -1 19 -3 4 -6 -2 -5 -13z"/>
<path d="M1217 1543 c-4 -3 -7 -11 -7 -17 0 -6 5 -5 12 2 6 6 9 14 7 17 -3 3
-9 2 -12 -2z"/>
<path d="M1282 1510 c0 -19 2 -27 5 -17 2 9 2 25 0 35 -3 9 -5 1 -5 -18z"/>
<path d="M1410 1504 c0 -14 -4 -23 -10 -19 -5 3 -10 1 -10 -4 0 -6 7 -11 15
-11 8 0 15 6 15 14 0 8 3 21 6 30 3 9 1 16 -5 16 -6 0 -11 -12 -11 -26z"/>
<path d="M1205 1500 c-3 -5 -1 -10 4 -10 6 0 11 5 11 10 0 6 -2 10 -4 10 -3 0
-8 -4 -11 -10z"/>
<path d="M1248 1480 c-3 -17 -1 -30 3 -30 10 0 18 50 9 55 -4 3 -10 -9 -12
-25z"/>
<path d="M1301 1494 c0 -11 3 -14 6 -6 3 7 2 16 -1 19 -3 4 -6 -2 -5 -13z"/>
<path d="M1345 1490 c-3 -5 -1 -10 4 -10 6 0 11 5 11 10 0 6 -2 10 -4 10 -3 0
-8 -4 -11 -10z"/>
<path d="M1430 1480 c0 -5 5 -10 10 -10 6 0 10 5 10 10 0 6 -4 10 -10 10 -5 0
-10 -4 -10 -10z"/>
<path d="M1461 1474 c0 -11 3 -14 6 -6 3 7 2 16 -1 19 -3 4 -6 -2 -5 -13z"/>
<path d="M1190 1470 c0 -5 7 -10 15 -10 8 0 15 5 15 10 0 6 -7 10 -15 10 -8 0
-15 -4 -15 -10z"/>
<path d="M1271 1445 c-1 -23 -3 -27 -11 -15 -9 13 -11 13 -20 0 -7 -11 -5 -16
11 -18 27 -5 31 1 26 35 l-4 28 -2 -30z"/>
<path d="M1295 1460 c-3 -5 -1 -10 4 -10 6 0 11 5 11 10 0 6 -2 10 -4 10 -3 0
-8 -4 -11 -10z"/>
<path d="M1321 1454 c0 -11 3 -14 6 -6 3 7 2 16 -1 19 -3 4 -6 -2 -5 -13z"/>
<path d="M1401 1444 c0 -11 3 -14 6 -6 3 7 2 16 -1 19 -3 4 -6 -2 -5 -13z"/>
<path d="M1450 1439 c0 -5 5 -7 10 -4 6 3 10 8 10 11 0 2 -4 4 -10 4 -5 0 -10
-5 -10 -11z"/>
<path d="M1481 1434 c0 -11 3 -14 6 -6 3 7 2 16 -1 19 -3 4 -6 -2 -5 -13z"/>
<path d="M1291 1414 c0 -11 3 -14 6 -6 3 7 2 16 -1 19 -3 4 -6 -2 -5 -13z"/>
<path d="M1311 1414 c0 -11 3 -14 6 -6 3 7 2 16 -1 19 -3 4 -6 -2 -5 -13z"/>
<path d="M1330 1409 c0 -5 5 -7 10 -4 6 3 10 8 10 11 0 2 -4 4 -10 4 -5 0 -10
-5 -10 -11z"/>
<path d="M1380 1411 c0 -5 7 -11 15 -15 9 -3 15 0 15 9 0 8 -7 15 -15 15 -8 0
-15 -4 -15 -9z"/>
<path d="M1420 1400 c0 -5 5 -10 10 -10 6 0 10 5 10 10 0 6 -4 10 -10 10 -5 0
-10 -4 -10 -10z"/>
<path d="M1451 1394 c0 -11 3 -14 6 -6 3 7 2 16 -1 19 -3 4 -6 -2 -5 -13z"/>
<path d="M1475 1400 c-3 -5 -1 -10 4 -10 6 0 11 5 11 10 0 6 -2 10 -4 10 -3 0
-8 -4 -11 -10z"/>
<path d="M1220 1386 c0 -2 7 -6 15 -10 8 -3 15 -1 15 4 0 6 -7 10 -15 10 -8 0
-15 -2 -15 -4z"/>
<path d="M1258 1365 c-3 -14 -1 -25 3 -25 5 0 9 11 9 25 0 14 -2 25 -4 25 -2
0 -6 -11 -8 -25z"/>
<path d="M1280 1361 c0 -17 2 -31 4 -31 8 0 13 51 5 56 -5 3 -9 -9 -9 -25z"/>
<path d="M1330 1372 c0 -4 17 -8 38 -9 32 -1 34 0 12 7 -34 11 -50 12 -50 2z"/>
<path d="M1415 1360 c3 -5 8 -10 11 -10 2 0 4 5 4 10 0 6 -5 10 -11 10 -5 0
-7 -4 -4 -10z"/>
<path d="M1445 1360 c3 -5 8 -10 11 -10 2 0 4 5 4 10 0 6 -5 10 -11 10 -5 0
-7 -4 -4 -10z"/>
<path d="M1300 1339 c0 -5 9 -9 20 -9 11 0 20 4 20 8 0 4 -9 8 -20 9 -11 1
-20 -2 -20 -8z"/>
<path d="M1351 1334 c0 -11 3 -14 6 -6 3 7 2 16 -1 19 -3 4 -6 -2 -5 -13z"/>
<path d="M1375 1330 c3 -5 10 -10 16 -10 5 0 9 5 9 10 0 6 -7 10 -16 10 -8 0
-12 -4 -9 -10z"/>
<path d="M2284 2987 c-3 -10 -4 -28 0 -41 3 -12 2 -26 -2 -30 -4 -4 -7 -11 -8
-14 -12 -137 -46 -283 -62 -268 -2 3 -28 -14 -56 -38 -28 -24 -56 -41 -63 -39
-7 3 -14 -10 -18 -34 -3 -21 -8 -48 -10 -59 -3 -12 1 -27 8 -33 8 -6 12 -23 9
-41 -2 -17 -7 -28 -11 -25 -6 7 -8 13 -10 48 -1 20 -3 20 -12 5 -5 -10 -15
-18 -21 -18 -6 0 -5 7 3 18 13 15 12 16 -3 4 -10 -8 -17 -17 -16 -20 2 -19 -3
-32 -13 -32 -5 0 -7 4 -4 10 3 6 -1 7 -10 3 -12 -4 -13 -8 -5 -13 9 -6 9 -9 0
-15 -6 -4 -14 -5 -16 -2 -3 3 -21 -12 -40 -33 -23 -26 -34 -47 -34 -69 0 -28
-3 -31 -30 -31 -23 0 -30 -4 -30 -20 0 -12 7 -20 18 -20 30 0 41 14 52 66 10
46 15 53 54 73 35 17 54 20 94 15 l49 -6 7 88 c12 149 21 168 69 143 22 -12
22 -12 3 10 -19 21 -19 21 0 22 10 1 24 1 29 0 9 -1 17 13 40 74 5 11 7 24 6
28 -1 5 3 6 9 2 6 -3 8 -11 4 -16 -3 -5 0 -17 7 -25 10 -12 9 -13 -5 -8 -9 3
-16 2 -16 -4 0 -5 7 -12 15 -16 8 -3 15 0 15 7 0 7 9 -1 20 -18 11 -16 20 -34
20 -40 -1 -5 -8 3 -16 18 -19 36 -29 29 -13 -7 7 -15 18 -25 25 -22 6 2 17 -1
23 -7 19 -19 12 -27 -15 -17 -14 6 -27 10 -28 10 -2 0 -6 -37 -10 -82 -4 -46
-9 -98 -13 -115 -7 -44 6 -41 40 7 29 41 28 53 -1 23 -23 -23 -25 -5 -9 72 10
50 16 61 35 63 20 3 22 0 22 -48 0 -49 34 -139 48 -126 3 4 0 12 -6 18 -16 16
-15 31 1 22 9 -6 9 -4 -1 8 -9 11 -11 29 -6 53 6 33 1 44 -55 126 l-62 91 2
76 c1 43 8 115 16 161 10 58 11 87 4 94 -7 7 -12 5 -17 -6z m-230 -612 c-4 -8
-14 -15 -23 -15 -14 1 -13 3 3 15 25 19 27 19 20 0z"/>
<path d="M2786 2848 c-3 -13 -6 -34 -6 -48 0 -15 -4 -30 -9 -35 -5 -6 -12 -28
-15 -50 -6 -35 -5 -37 5 -15 5 14 17 50 25 80 8 30 17 62 20 72 3 10 1 18 -4
18 -5 0 -12 -10 -16 -22z"/>
<path d="M2735 2628 c-19 -51 -24 -102 -10 -106 6 -1 10 21 11 50 0 30 5 53
12 56 7 2 10 8 6 13 -3 5 0 9 5 9 6 0 11 5 11 10 0 25 -20 6 -35 -32z"/>
<path d="M2225 2590 c-4 -12 -5 -24 -2 -27 3 -2 8 5 12 17 4 12 5 24 2 27 -3
2 -8 -5 -12 -17z"/>
<path d="M2260 2583 c0 -21 3 -24 9 -14 5 8 7 20 4 28 -8 21 -13 15 -13 -14z"/>
<path d="M2350 2361 c0 -30 -4 -40 -17 -43 -13 -3 -5 -10 25 -25 31 -16 42
-18 42 -8 0 16 18 30 27 21 3 -3 1 -12 -6 -19 -6 -8 -14 -42 -17 -76 l-7 -61
52 0 c28 0 51 -3 51 -7 0 -5 19 -7 43 -7 70 3 75 7 17 13 -54 6 -55 7 -60 41
-4 20 -21 57 -39 83 -17 26 -30 51 -26 56 3 5 1 12 -4 15 -5 4 -12 2 -16 -4
-11 -18 -22 -11 -39 25 -9 19 -19 35 -21 35 -3 0 -5 -18 -5 -39z m42 -46 c0
-5 -5 -11 -11 -13 -6 -2 -11 4 -11 13 0 9 5 15 11 13 6 -2 11 -8 11 -13z m52
-68 c-3 -8 2 -20 11 -27 17 -14 21 -50 5 -50 -5 0 -10 8 -11 18 0 10 -3 12 -6
5 -9 -24 -20 -13 -16 15 6 36 11 52 17 52 3 0 3 -6 0 -13z"/>
<path d="M3481 2374 c0 -11 3 -14 6 -6 3 7 2 16 -1 19 -3 4 -6 -2 -5 -13z"/>
<path d="M2046 2190 c-4 -51 -5 -95 -2 -97 3 -3 43 -7 90 -8 97 -4 89 -13 102
118 l6 67 -28 0 c-16 0 -59 3 -95 6 l-66 7 -7 -93z m89 60 c25 -11 -1 -11 -35
0 -20 6 -21 8 -5 8 11 0 29 -3 40 -8z m80 -72 c-4 -40 -9 -75 -11 -77 -1 -2
-14 9 -27 25 -18 21 -33 28 -61 28 -35 0 -36 1 -36 38 l0 38 48 0 c26 0 54 5
62 10 29 18 32 10 25 -62z m-98 -47 c12 3 43 -12 43 -21 0 -9 -87 -7 -96 3 -4
3 -4 13 0 22 4 12 10 14 25 5 11 -6 24 -9 28 -9z"/>
<path d="M2167 2213 c-11 -10 -8 -53 3 -53 6 0 10 14 10 30 0 31 -2 35 -13 23z"/>
<path d="M1675 2240 c4 -6 11 -8 16 -5 14 9 11 15 -7 15 -8 0 -12 -5 -9 -10z"/>
<path d="M1879 2150 c-7 -39 4 -60 32 -60 23 0 25 -18 4 -26 -8 -4 -15 -13
-15 -21 0 -8 -11 -38 -24 -66 -99 -219 -125 -288 -115 -312 6 -17 8 -16 9 10
1 17 6 39 11 50 7 15 8 9 5 -23 -3 -27 0 -40 6 -36 6 4 8 26 5 50 -2 24 -1 41
4 38 5 -3 6 1 3 9 -3 8 2 17 10 20 19 7 19 6 6 -28 -7 -17 -7 -24 0 -20 13 8
13 -1 -1 -28 -10 -21 -9 -21 10 2 l21 23 0 -28 c0 -53 11 -15 14 47 2 59 2 61
-7 27 -6 -21 -15 -38 -19 -38 -5 0 -6 10 -2 23 16 53 16 53 6 39 -16 -23 -20
19 -5 53 9 18 12 22 10 9 -3 -12 -1 -28 4 -35 6 -10 9 -11 9 -1 0 22 2 27 12
40 8 9 6 12 -6 12 -19 0 -19 2 -4 34 9 20 14 23 25 15 9 -9 13 -8 13 0 0 18
-4 26 -12 24 -11 -4 -11 -1 17 61 18 40 30 56 44 56 27 0 51 10 51 22 0 6 -7
7 -16 4 -9 -3 -33 -2 -54 4 -35 10 -39 14 -42 48 l-3 37 -6 -35z"/>
<path d="M2721 2120 c-9 -5 -4 -7 13 -7 29 0 32 2 13 10 -8 3 -20 2 -26 -3z"/>
<path d="M1665 2110 c-18 -7 -17 -9 10 -20 16 -6 40 -9 52 -7 12 2 24 -1 26
-7 3 -6 4 1 3 16 -1 28 -26 40 -26 13 0 -19 -9 -19 -29 -1 -10 9 -23 11 -36 6z"/>
<path d="M2240 2064 c0 -8 5 -12 10 -9 6 3 10 10 10 16 0 5 -4 9 -10 9 -5 0
-10 -7 -10 -16z"/>
<path d="M3452 2040 c0 -19 2 -27 5 -17 2 9 2 25 0 35 -3 9 -5 1 -5 -18z"/>
<path d="M1970 2050 c0 -5 5 -10 10 -10 6 0 10 5 10 10 0 6 -4 10 -10 10 -5 0
-10 -4 -10 -10z"/>
<path d="M2131 2048 c0 -9 -7 -23 -14 -30 -14 -14 -30 -151 -17 -143 4 2 10
32 14 67 3 34 11 65 17 69 6 3 9 17 6 30 -2 13 -5 16 -6 7z"/>
<path d="M1929 2043 c0 -5 -2 -18 -5 -30 -5 -29 12 -39 25 -14 16 30 12 40 -4
11 -17 -29 -19 -22 -5 14 6 17 6 26 0 26 -6 0 -10 -3 -11 -7z"/>
<path d="M2237 2020 c-3 -11 -1 -23 4 -26 5 -3 9 6 9 20 0 31 -6 34 -13 6z"/>
<path d="M1992 1987 c-17 -47 -14 -59 4 -18 21 49 28 32 12 -33 -13 -60 -28
-74 -29 -28 0 27 0 27 -10 4 -12 -30 -4 -42 26 -42 18 0 23 4 19 15 -4 8 1 27
11 41 9 14 15 35 12 45 -3 10 -1 22 4 25 17 10 9 24 -14 24 -17 0 -26 -9 -35
-33z"/>
<path d="M2187 2004 c-4 -4 -7 -36 -7 -71 0 -43 -4 -63 -12 -64 -15 -2 39 -16
65 -18 10 0 15 4 12 9 -3 6 -16 10 -29 10 -21 0 -22 3 -18 59 5 63 1 87 -11
75z"/>
<path d="M2367 2003 c-11 -11 -8 -173 3 -173 6 0 10 5 10 11 0 5 5 7 10 4 6
-4 8 -11 5 -16 -4 -5 1 -9 10 -9 14 0 14 3 1 28 -11 22 -36 117 -36 138 0 3 5
2 10 -1 6 -3 10 -21 11 -38 0 -18 5 -41 10 -52 6 -13 6 -3 2 30 -4 28 -6 58
-5 68 1 17 -18 23 -31 10z"/>
<path d="M2615 1715 c8 -352 12 -389 40 -392 13 -1 14 0 4 3 -14 4 -17 33 -23
212 -10 311 -17 466 -23 472 -3 3 -2 -130 2 -295z"/>
<path d="M2412 1980 c0 -14 2 -19 5 -12 2 6 2 18 0 25 -3 6 -5 1 -5 -13z"/>
<path d="M2436 1960 c3 -25 12 -72 19 -105 l14 -60 -6 65 c-3 35 -11 82 -19
105 l-13 40 5 -45z"/>
<path d="M1942 1947 c-7 -18 -12 -41 -12 -51 0 -13 -5 -16 -20 -11 -12 4 -20
2 -20 -5 0 -6 12 -10 28 -8 15 2 26 6 25 10 -1 4 4 23 12 42 17 40 19 56 7 56
-4 0 -13 -15 -20 -33z"/>
<path d="M3441 1954 c0 -11 3 -14 6 -6 3 7 2 16 -1 19 -3 4 -6 -2 -5 -13z"/>
<path d="M2426 1885 c3 -33 9 -64 13 -68 5 -5 4 18 -1 50 -12 80 -19 91 -12
18z"/>
<path d="M1906 1915 c-3 -8 -1 -15 4 -15 6 0 10 7 10 15 0 8 -2 15 -4 15 -2 0
-6 -7 -10 -15z"/>
<path d="M2040 1900 c0 -21 5 -30 16 -30 11 0 14 5 10 16 -3 9 -6 22 -6 30 0
8 -4 14 -10 14 -5 0 -10 -13 -10 -30z"/>
<path d="M1880 1850 c0 -5 7 -7 15 -4 8 4 15 8 15 10 0 2 -7 4 -15 4 -8 0 -15
-4 -15 -10z"/>
<path d="M1909 1819 c-9 -33 -13 -39 -18 -26 -4 10 -7 -12 -9 -48 -1 -42 2
-64 8 -60 6 4 9 16 8 28 -1 12 6 48 16 80 10 32 15 61 13 64 -3 3 -11 -15 -18
-38z"/>
<path d="M1948 1838 c0 -13 0 -30 1 -38 2 -20 -20 -122 -30 -135 -5 -7 2 -10
19 -9 l27 1 2 101 c2 63 -1 102 -7 102 -6 0 -11 -10 -12 -22z"/>
<path d="M1997 1839 c-3 -10 -1 -19 4 -19 5 0 9 8 10 18 0 15 1 14 8 -2 4 -11
2 -31 -5 -45 -6 -14 -14 -53 -17 -86 l-6 -60 18 73 c20 81 25 88 61 95 20 3
19 5 -8 6 -22 1 -32 5 -30 14 6 16 58 22 58 6 0 -8 5 -7 17 2 14 12 15 12 10
-1 -4 -8 -10 -22 -13 -31 -3 -9 -16 -15 -32 -14 -20 2 -21 1 -4 -2 12 -2 22
-6 22 -8 0 -1 -19 -30 -41 -64 -23 -34 -39 -64 -37 -67 3 -2 17 14 32 36 14
22 33 40 42 40 11 0 13 6 9 19 -3 11 -1 22 5 26 6 4 10 -5 11 -22 l1 -28 7 30
c4 17 4 32 -1 35 -4 3 -3 12 2 20 24 38 13 48 -54 48 -55 0 -65 -3 -69 -19z"/>
<path d="M2315 1848 c21 -12 23 -12 28 -1 1 3 -9 8 -23 9 -23 4 -24 3 -5 -8z"/>
<path d="M2146 1834 c-11 -28 -7 -42 13 -49 12 -3 22 -17 24 -33 4 -25 4 -24
6 6 0 20 -4 32 -11 32 -9 0 -8 4 2 11 12 8 10 9 -7 4 -18 -5 -20 -2 -16 15 6
22 29 27 36 8 2 -7 8 -9 13 -5 10 10 -14 27 -37 27 -9 0 -20 -7 -23 -16z"/>
<path d="M2236 1825 c9 -22 -5 -38 -22 -24 -11 9 -14 6 -14 -17 0 -22 3 -25
10 -14 5 8 12 12 15 8 4 -4 -40 -103 -61 -136 -7 -11 -46 13 -53 31 -7 20 -8
20 -13 -6 -3 -14 -2 -26 1 -25 3 0 13 0 21 -1 13 -1 13 -2 0 -11 -11 -7 -5 -8
20 -4 44 8 48 12 65 60 10 27 14 32 15 17 0 -12 -4 -33 -10 -47 -6 -16 -6 -28
0 -31 11 -7 15 9 29 118 13 95 13 97 1 97 -5 0 -7 -7 -4 -15z"/>
<path d="M2272 1805 c-15 -33 -15 -35 4 -35 13 0 15 -6 9 -27 -4 -16 -9 -52
-10 -80 -2 -44 0 -53 14 -53 14 0 16 13 16 85 0 61 -3 85 -12 85 -15 0 -17 16
-4 24 5 4 12 0 15 -6 3 -7 5 -4 3 6 -3 29 -22 30 -35 1z"/>
<path d="M2325 1711 c0 -60 4 -104 8 -98 4 7 6 42 5 79 -1 37 0 69 3 73 8 7
-1 55 -10 55 -4 0 -6 -49 -6 -109z"/>
<path d="M1986 1784 c-4 -14 -5 -28 -3 -31 3 -2 8 8 11 23 4 14 5 28 3 31 -3
2 -8 -8 -11 -23z"/>
<path d="M2412 1763 c5 -21 13 -60 18 -88 8 -46 9 -44 5 22 -5 75 -12 103 -25
103 -4 0 -4 -17 2 -37z"/>
<path d="M2440 1785 c0 -8 9 -15 20 -15 11 0 20 2 20 5 0 2 -9 9 -20 15 -16 9
-20 8 -20 -5z"/>
<path d="M2373 1773 c-18 -7 -16 -63 2 -106 17 -42 20 -71 5 -47 -8 13 -10 13
-10 -2 0 -9 -7 -21 -16 -26 -9 -5 -15 -12 -15 -15 1 -4 -1 -7 -4 -7 -3 0 -15
0 -27 1 -22 1 -22 1 2 9 14 4 21 9 15 10 -18 3 -40 8 -67 15 -18 5 -28 3 -28
-4 0 -6 6 -8 14 -5 8 3 17 1 21 -5 3 -7 -3 -11 -15 -11 -14 0 -24 -8 -27 -21
-4 -16 -8 -17 -14 -7 -11 17 -10 -27 1 -62 l8 -25 1 27 c2 41 19 78 37 78 12
0 15 -9 13 -47 -4 -62 17 -70 26 -9 8 51 36 66 34 19 l-1 -28 -8 25 c-7 21 -8
19 -7 -14 1 -26 -4 -42 -17 -51 -16 -13 -16 -14 11 -13 28 1 30 4 32 47 2 52
17 77 36 61 6 -5 15 -6 20 -2 4 4 4 -4 0 -18 -4 -14 -12 -26 -16 -28 -5 -2 -9
-15 -9 -28 0 -13 -6 -24 -12 -24 -9 0 -8 -3 2 -10 17 -11 38 20 41 60 1 17 4
13 9 -15 l7 -40 3 48 c2 26 3 52 4 59 1 6 -7 12 -16 14 -10 1 -18 -3 -18 -9 0
-7 -4 -6 -9 3 -14 21 -3 31 27 24 22 -4 24 -3 10 5 -15 10 -35 97 -29 129 1 6
-3 12 -9 12 -8 0 -8 6 0 20 6 11 9 20 8 19 -2 0 -9 -3 -15 -6z m-86 -245 c-3
-7 -5 -2 -5 12 0 14 2 19 5 13 2 -7 2 -19 0 -25z"/>
<path d="M1916 1744 c-4 -14 -5 -28 -3 -31 3 -2 8 8 11 23 4 14 5 28 3 31 -3
2 -8 -8 -11 -23z"/>
<path d="M2126 1722 c-4 -29 -6 -56 -3 -59 8 -8 19 60 15 88 -3 15 -7 5 -12
-29z"/>
<path d="M2256 1745 c-3 -9 -6 -22 -5 -28 0 -7 5 -1 10 12 5 13 8 26 5 28 -2
2 -6 -3 -10 -12z"/>
<path d="M2477 1753 c-2 -5 0 -21 4 -38 7 -29 7 -29 8 8 1 35 -3 46 -12 30z"/>
<path d="M2450 1730 c0 -14 9 -45 20 -69 11 -24 20 -52 20 -62 0 -10 5 -19 11
-19 7 0 9 9 5 23 -3 12 -6 36 -7 52 0 24 -2 26 -8 11 -7 -18 -8 -18 -14 -2 -4
10 -7 27 -7 39 0 12 -5 29 -10 37 -8 12 -10 10 -10 -10z"/>
<path d="M2057 1691 c-21 -36 -21 -41 0 -41 9 0 13 3 10 7 -4 3 -3 11 2 17 13
17 21 46 13 46 -4 0 -15 -13 -25 -29z"/>
<path d="M2242 1670 c0 -19 2 -27 5 -17 2 9 2 25 0 35 -3 9 -5 1 -5 -18z"/>
<path d="M1821 1664 c0 -11 3 -14 6 -6 3 7 2 16 -1 19 -3 4 -6 -2 -5 -13z"/>
<path d="M2350 1668 c0 -9 5 -20 10 -23 13 -8 13 5 0 25 -8 13 -10 13 -10 -2z"/>
<path d="M2452 1623 c1 -28 7 -43 15 -43 16 0 15 5 -2 50 l-14 35 1 -42z"/>
<path d="M1858 1643 c-12 -3 -18 -15 -19 -36 -1 -34 -5 -73 -12 -125 -3 -17
-2 -34 2 -36 4 -3 13 32 20 77 7 45 17 85 23 88 6 4 5 9 -3 12 -10 4 -9 6 4 6
9 1 17 6 17 11 0 10 -3 11 -32 3z"/>
<path d="M1736 1628 c3 -5 11 -6 17 -2 7 3 4 -1 -5 -8 -10 -9 -20 -40 -26 -84
-11 -76 -9 -86 14 -77 11 4 12 9 3 19 -7 9 -8 28 -3 56 7 39 8 40 15 18 6 -23
7 -22 8 10 1 19 4 45 7 57 5 18 2 22 -14 20 -11 0 -18 -5 -16 -9z"/>
<path d="M1782 1603 l1 -38 4 33 c4 28 8 33 24 29 10 -3 19 -1 19 4 0 5 -11 9
-25 9 -23 0 -25 -4 -23 -37z"/>
<path d="M1918 1534 c-2 -58 0 -108 5 -111 4 -2 7 24 8 59 1 35 2 70 3 78 2 8
3 28 4 44 2 20 6 27 17 22 8 -3 15 -1 15 4 0 6 -11 10 -24 10 -24 0 -25 -1
-28 -106z"/>
<path d="M1986 1625 c-3 -8 -1 -15 4 -15 6 0 10 7 10 15 0 8 -2 15 -4 15 -2 0
-6 -7 -10 -15z"/>
<path d="M2001 1604 c-12 -20 -21 -51 -20 -72 1 -20 3 -28 6 -17 18 84 53 103
53 29 0 -38 3 -45 16 -40 10 4 14 1 11 -6 -2 -7 -17 -13 -33 -12 -16 0 -21 -1
-11 -3 12 -3 16 -10 12 -24 -4 -11 -2 -19 4 -19 6 0 11 5 11 12 0 6 7 19 15
28 10 11 13 27 8 55 l-7 40 -8 -30 c-4 -19 -5 -7 -3 33 4 55 2 62 -14 62 -11
0 -28 -15 -40 -36z m41 4 c-7 -7 -12 -8 -12 -2 0 6 3 14 7 17 3 4 9 5 12 2 2
-3 -1 -11 -7 -17z"/>
<path d="M2079 1621 c11 -7 11 -9 0 -14 -10 -4 -9 -6 4 -6 9 -1 17 6 17 14 0
8 -8 15 -17 15 -14 0 -15 -2 -4 -9z"/>
<path d="M2150 1609 c0 -6 -9 -9 -20 -6 -11 3 -20 1 -20 -3 0 -5 -3 -17 -6
-27 -6 -16 -5 -15 9 2 25 32 30 11 8 -32 l-20 -38 -7 43 c-3 23 -10 42 -14 42
-3 0 -2 -22 4 -49 7 -37 6 -60 -3 -89 -21 -64 -25 -67 -54 -38 -28 28 -60 26
-50 -2 9 -23 25 -33 46 -26 11 3 17 0 17 -10 0 -9 -4 -16 -10 -16 -5 0 -7 -6
-5 -12 3 -8 -12 -20 -36 -30 l-41 -17 5 44 c3 25 8 49 12 54 3 5 1 20 -4 33
-4 13 -5 53 0 93 5 39 5 73 0 78 -5 5 -12 -54 -15 -140 -8 -185 -16 -286 -23
-293 -3 -3 -3 50 -2 118 2 67 1 122 -3 122 -5 0 -8 -26 -8 -57 0 -67 -6 -80
-39 -84 -14 -2 -26 -11 -29 -19 -4 -12 -2 -13 9 -2 31 29 59 8 59 -45 0 -19
-4 -24 -16 -19 -9 3 -30 6 -47 6 l-32 0 38 26 c21 14 36 28 33 31 -3 3 -23 -9
-44 -26 -22 -17 -43 -31 -47 -31 -12 0 -75 -52 -75 -63 0 -6 7 -2 15 9 13 16
16 17 24 4 8 -11 6 -17 -7 -22 -14 -5 -13 -7 6 -7 17 -1 24 6 29 29 7 40 15
43 72 35 47 -6 49 -8 53 -41 4 -37 -4 -60 -19 -51 -5 3 -40 8 -79 12 -149 12
-336 45 -256 45 11 0 22 4 24 9 2 6 22 6 50 1 54 -11 79 -5 71 15 -4 11 -9 12
-23 2 -15 -9 -23 -8 -38 6 -21 19 -48 22 -57 7 -3 -5 -17 -10 -31 -10 -14 0
-34 -5 -45 -11 -16 -8 -18 -13 -8 -25 6 -8 18 -14 26 -14 7 0 25 -7 38 -16 17
-11 36 -14 55 -10 17 3 69 -1 116 -9 90 -16 103 -18 255 -36 244 -29 338 -36
349 -25 7 7 10 4 10 -8 0 -9 5 -14 10 -11 6 4 35 3 65 0 42 -6 55 -11 55 -24
0 -9 4 -21 8 -27 13 -13 -1 -147 -16 -152 -7 -2 -12 -13 -12 -25 0 -20 6 -22
53 -24 28 0 60 -4 70 -8 10 -4 28 -3 40 2 18 8 21 17 19 54 -4 76 14 199 33
219 17 19 13 40 -8 40 -17 0 -45 56 -56 110 -5 25 -20 89 -35 144 -14 54 -26
112 -26 129 0 41 -9 30 -11 -13 -1 -19 15 -97 35 -172 20 -76 36 -143 36 -150
0 -14 -14 -1 -16 15 0 7 -2 21 -3 32 -1 17 -3 18 -12 5 -8 -12 -9 -11 -5 5 9
34 -38 199 -60 210 -11 6 -18 18 -16 28 5 23 -4 22 -10 -1 -7 -26 11 -70 21
-53 6 10 12 3 21 -23 6 -19 9 -40 5 -46 -3 -5 1 -22 8 -37 8 -15 17 -39 21
-53 5 -19 2 -16 -13 10 -29 50 -26 29 4 -30 14 -27 25 -61 25 -76 0 -23 -3
-25 -22 -20 -13 4 -44 9 -70 13 -40 5 -50 11 -62 34 l-14 29 48 0 c27 0 51 3
54 8 2 4 1 27 -4 52 -5 29 -5 47 2 51 7 4 6 9 -2 14 -12 7 -51 90 -48 103 1 4
-1 14 -5 22 -3 8 -10 29 -16 45 -9 26 -10 20 -7 -38 2 -37 8 -73 14 -80 5 -6
17 -39 26 -72 10 -33 20 -68 23 -78 4 -17 -1 -19 -56 -15 -34 1 -61 1 -61 -1
0 -8 86 -110 93 -111 5 0 5 5 1 11 -6 11 50 6 99 -7 11 -4 17 0 17 10 0 26 22
30 41 8 9 -12 22 -22 29 -22 6 0 8 -5 4 -11 -8 -13 -250 -6 -408 12 -49 5 -97
7 -107 4 -10 -3 -26 -2 -37 4 -10 5 -55 11 -100 12 -45 2 -82 6 -82 9 0 3 5
11 12 18 9 9 8 12 -5 12 -19 0 -22 11 -8 26 5 5 11 25 13 44 2 19 8 34 13 33
14 -3 19 -43 6 -43 -14 0 -14 -37 0 -45 6 -4 8 -12 6 -19 -3 -8 20 -11 78 -10
64 0 82 -3 78 -13 -3 -7 2 -13 10 -13 10 0 18 13 23 35 3 19 10 35 14 35 5 0
11 18 15 40 4 26 12 40 22 40 9 0 13 -8 11 -22 -2 -11 3 -23 10 -25 7 -3 12 4
12 16 0 14 6 21 20 21 11 0 20 -4 20 -10 0 -5 5 -10 10 -10 6 0 10 7 10 15 0
13 7 15 35 9 23 -4 35 -2 35 5 0 14 -256 16 -265 2 -3 -5 2 -17 11 -25 10 -10
13 -23 9 -34 -7 -16 -8 -16 -14 1 -4 10 -10 18 -14 18 -19 -2 -21 0 -7 9 8 5
10 10 3 10 -7 0 -4 21 10 65 20 63 21 65 2 85 -13 14 -15 24 -9 28 6 4 16 23
23 43 9 29 16 36 31 32 13 -3 20 -14 20 -28 0 -19 -4 -21 -26 -17 -19 3 -25 1
-20 -7 9 -15 39 -14 55 2 11 10 13 9 8 -5 -3 -9 -2 -18 4 -20 6 -2 6 -15 0
-36 -9 -30 -7 -34 14 -42 12 -5 26 -14 30 -19 3 -6 16 -16 28 -22 15 -8 11 1
-15 27 -39 42 -41 47 -39 112 1 39 3 42 29 42 19 0 23 -3 13 -9 -7 -5 -9 -11
-5 -14 5 -3 15 1 22 9 14 16 13 17 -40 28 -23 5 -28 3 -28 -14 0 -11 -5 -20
-11 -20 -7 0 -8 7 -4 18 4 9 9 28 11 42 4 25 4 25 -6 -1 -8 -20 -16 -26 -30
-22 -24 6 -25 22 -5 49 8 10 15 27 15 37 0 10 10 22 23 27 12 5 16 9 10 9 -7
1 -13 6 -13 12 0 6 7 9 15 5 8 -3 15 -1 15 3 0 5 -7 11 -15 15 -16 6 -38 -36
-105 -194 -40 -95 -112 -241 -117 -237 -5 6 68 175 158 364 32 68 33 73 19 73
-5 0 -10 -5 -10 -11z m-50 -292 c0 -33 -11 -67 -20 -62 -4 2 -8 -16 -8 -40 -1
-24 2 -47 8 -50 5 -3 10 -18 10 -32 0 -19 -4 -24 -16 -19 -9 3 -27 8 -40 11
-13 3 -36 7 -50 10 l-26 6 27 25 c31 29 42 26 25 -8 l-11 -23 20 23 c10 12 25
22 33 23 7 0 1 5 -13 10 l-26 10 35 74 c35 72 52 86 52 42z m-102 -46 c-18
-41 -23 -47 -35 -36 -21 22 -15 49 15 67 41 24 42 22 20 -31z m174 -69 c-6 -2
-12 -13 -12 -25 0 -33 -11 -67 -21 -67 -7 0 -6 85 1 107 0 0 10 -1 22 -5 12
-3 17 -7 10 -10z m-392 -48 c0 -8 -5 -12 -10 -9 -6 4 -8 11 -5 16 9 14 15 11
15 -7z m839 -150 c5 -4 -15 -224 -21 -228 -1 -2 -25 -6 -51 -9 l-49 -5 6 42
c3 22 8 78 12 123 l6 82 -33 4 c-19 2 2 2 46 -1 44 -2 82 -6 84 -8z"/>
<path d="M1807 1583 c-2 -4 -8 -24 -13 -43 l-8 -35 -7 30 c-7 28 -8 27 -7 -10
2 -53 -11 -95 -28 -95 -9 0 -14 -11 -14 -29 0 -16 -3 -37 -7 -47 -4 -12 -3
-15 5 -10 7 4 12 22 12 41 0 23 5 35 18 39 11 4 25 32 40 82 13 42 21 78 19
81 -3 2 -7 1 -10 -4z"/>
<path d="M1890 1570 c-1 -23 -2 -24 -11 -5 -8 17 -9 17 -4 -5 2 -14 5 -36 6
-50 1 -15 5 -7 10 20 5 25 7 50 5 55 -3 6 -5 -1 -6 -15z"/>
<path d="M2450 1560 c-13 -8 -13 -10 1 -10 18 0 29 -20 29 -48 0 -15 -2 -15
-10 -2 -12 19 -13 5 -1 -18 5 -9 13 -26 17 -37 6 -14 10 -1 14 45 4 36 5 67 3
69 -2 2 -3 -1 -3 -8 0 -7 -5 -9 -10 -6 -6 4 -8 11 -5 16 8 12 -16 11 -35 -1z"/>
<path d="M2437 1533 c-4 -3 -7 -18 -6 -32 1 -26 1 -25 10 3 9 31 7 41 -4 29z"/>
<path d="M1865 1478 c2 -40 -4 -57 -31 -99 -19 -28 -28 -49 -21 -47 6 3 18 17
25 32 8 15 16 25 19 22 3 -3 -4 -20 -15 -38 -21 -35 -36 -118 -21 -118 5 0 9
12 9 28 0 15 16 58 35 96 38 74 40 80 25 71 -15 -9 -12 7 5 29 8 11 15 25 15
30 0 6 -5 3 -11 -6 -15 -27 -27 -22 -32 15 -2 17 -3 11 -2 -15z"/>
<path d="M2165 1490 c3 -5 8 -10 11 -10 2 0 4 5 4 10 0 6 -5 10 -11 10 -5 0
-7 -4 -4 -10z"/>
<path d="M2515 1452 c-4 -29 -5 -56 -2 -59 7 -7 20 82 15 99 -3 7 -8 -11 -13
-40z"/>
<path d="M1974 1466 c0 -13 4 -22 9 -19 10 6 9 43 -2 43 -5 0 -8 -11 -7 -24z"/>
<path d="M1787 1438 c-20 -56 -25 -100 -10 -105 11 -4 40 133 30 143 -2 2 -11
-15 -20 -38z"/>
<path d="M2450 1450 c0 -5 5 -10 11 -10 5 0 7 5 4 10 -3 6 -8 10 -11 10 -2 0
-4 -4 -4 -10z"/>
<path d="M2395 1397 c-4 -31 -5 -62 -3 -69 3 -7 8 15 13 50 4 35 5 66 2 68 -3
3 -8 -19 -12 -49z"/>
<path d="M2297 1381 c-8 -40 -8 -41 1 -41 11 0 23 53 13 63 -4 4 -11 -6 -14
-22z"/>
<path d="M1666 1341 c-3 -5 -9 -40 -12 -79 l-7 -70 57 -3 c31 -2 56 -1 56 4 0
4 -12 7 -27 7 -16 0 -39 3 -51 7 -21 5 -23 10 -18 42 14 79 18 90 34 94 12 3
11 5 -5 6 -12 0 -24 -3 -27 -8z"/>
<path d="M2148 1313 c7 -3 16 -2 19 1 4 3 -2 6 -13 5 -11 0 -14 -3 -6 -6z"/>
<path d="M2516 1297 c3 -10 9 -15 12 -12 3 3 0 11 -7 18 -10 9 -11 8 -5 -6z"/>
<path d="M3381 1274 c0 -11 3 -14 6 -6 3 7 2 16 -1 19 -3 4 -6 -2 -5 -13z"/>
<path d="M2190 1175 c0 -15 18 -40 24 -34 3 3 -1 14 -9 25 -8 10 -14 15 -15 9z"/>
<path d="M2240 1160 c-11 -7 1 -10 42 -10 51 0 59 -3 84 -32 l27 -33 -41 -3
c-23 -2 -42 -7 -42 -13 0 -5 3 -9 8 -10 32 -2 102 -3 102 -1 0 5 -44 66 -64
90 -21 24 -87 31 -116 12z"/>
<path d="M1603 1133 c9 -2 23 -2 30 0 6 3 -1 5 -18 5 -16 0 -22 -2 -12 -5z"/>
<path d="M2285 1130 c17 -4 24 -8 18 -9 -7 0 -13 -6 -13 -12 0 -5 4 -8 9 -4 5
3 12 1 16 -5 3 -5 11 -10 16 -10 5 0 2 11 -7 25 -11 17 -25 25 -43 24 -26 -1
-25 -2 4 -9z"/>
<path d="M1507 1093 c-3 -5 -8 -29 -12 -55 -7 -43 -5 -48 12 -48 12 0 19 8 20
20 2 25 -14 27 -20 3 -4 -14 -5 -12 -6 5 -1 13 5 22 13 22 14 0 26 21 26 46 0
15 -25 20 -33 7z m23 -18 c0 -8 -4 -15 -10 -15 -5 0 -7 7 -4 15 4 8 8 15 10
15 2 0 4 -7 4 -15z"/>
<path d="M1640 1080 c0 -5 -8 -7 -17 -3 -14 5 -16 3 -6 -7 6 -7 19 -10 27 -7
18 7 22 27 6 27 -5 0 -10 -4 -10 -10z"/>
<path d="M1581 1070 c-1 -8 -4 -25 -7 -36 -5 -19 -2 -21 20 -17 22 5 25 3 19
-13 -3 -11 -11 -22 -17 -26 -7 -5 -4 -8 7 -8 9 0 17 3 17 8 0 4 3 17 6 30 5
17 2 22 -14 22 -15 0 -22 8 -25 28 -2 15 -5 20 -6 12z"/>
<path d="M1680 1063 c-1 -10 -6 -64 -13 -120 l-13 -102 43 -13 c56 -16 31 -32
-29 -18 -67 15 -68 15 -68 -39 0 -77 -12 -171 -22 -171 -11 0 -1 181 12 215 8
22 5 25 -43 41 -29 9 -58 21 -64 27 -9 7 -13 5 -13 -6 0 -9 10 -19 23 -22 51
-15 77 -31 77 -47 0 -9 -4 -20 -10 -23 -6 -3 -10 -50 -10 -106 l0 -99 26 0
c19 0 25 -4 20 -15 -4 -11 1 -15 19 -15 16 0 25 -6 25 -15 0 -11 -12 -15 -49
-15 -64 0 -80 7 -74 30 4 16 9 18 24 9 26 -13 24 -1 -3 22 -20 18 -21 22 -11
127 6 59 9 109 7 111 -10 10 -14 -11 -20 -104 -3 -55 -10 -120 -14 -145 -5
-26 -5 -49 0 -54 5 -5 42 -10 82 -10 l73 -1 0 -30 c0 -20 6 -31 18 -33 16 -3
23 16 18 55 -1 6 3 14 9 18 5 3 10 11 10 18 0 21 -22 -10 -31 -45 -9 -34 -7
-8 6 105 5 41 0 44 -33 21 -27 -18 -28 -31 -4 -37 10 -3 6 -5 -11 -6 -22 -1
-27 3 -23 17 2 9 7 32 11 49 6 32 22 38 52 20 15 -9 53 69 53 111 0 18 3 32 6
32 13 0 110 -45 116 -54 4 -6 1 -17 -5 -25 -9 -11 -9 -15 1 -18 6 -3 12 -10
12 -18 0 -9 -12 -11 -46 -7 -41 4 -46 3 -42 -14 2 -13 13 -20 37 -22 20 -2 31
0 27 7 -4 6 6 6 30 -1 20 -5 52 -7 70 -4 20 4 35 2 40 -5 5 -9 2 -10 -9 -6 -9
3 -19 2 -22 -2 -3 -5 13 -11 35 -13 30 -3 39 0 36 9 -3 7 1 13 9 13 7 0 16 -8
18 -17 4 -14 5 -12 6 5 1 17 7 22 26 22 16 0 25 -6 25 -15 0 -10 10 -15 29
-15 16 0 31 -6 34 -14 6 -14 87 -28 87 -15 0 4 -26 16 -57 26 -45 15 -59 25
-61 42 -3 16 3 24 19 28 21 6 21 7 4 20 -16 11 -16 13 -3 13 8 0 30 3 47 6 27
6 31 4 31 -15 0 -18 -4 -21 -19 -16 -18 5 -18 3 -8 -19 7 -14 22 -28 35 -31
19 -5 22 -12 22 -61 0 -30 -4 -53 -9 -50 -11 7 -21 -17 -21 -51 0 -20 -4 -24
-17 -18 -10 4 -44 9 -75 12 -32 3 -55 9 -53 14 3 4 1 10 -5 14 -5 3 -10 1 -10
-4 0 -6 -7 -11 -15 -11 -10 0 -15 10 -15 28 -1 23 -2 24 -11 9 -6 -11 -18 -15
-32 -13 -12 3 -41 7 -64 10 -41 6 -43 5 -52 -26 -9 -31 -9 -31 -10 -7 -1 36
-17 46 -79 55 -30 4 -59 13 -67 20 -17 18 -25 18 -25 0 0 -15 14 -22 60 -30
105 -18 102 -17 98 -47 -3 -16 -1 -29 4 -29 4 0 8 -9 8 -21 0 -11 -5 -17 -10
-14 -6 4 -7 11 -4 17 4 6 -3 4 -17 -5 -13 -9 -32 -17 -42 -17 -10 0 -15 -5
-12 -10 4 -7 24 -8 50 -4 30 4 53 1 74 -9 17 -9 33 -12 36 -8 6 12 -5 21 -26
21 -10 0 -21 5 -24 10 -4 6 -3 10 2 9 26 -5 63 3 63 12 0 8 -14 10 -40 6 -39
-5 -40 -4 -34 21 4 15 10 31 14 36 13 13 128 -4 134 -20 3 -8 19 -14 39 -14
19 0 58 -4 87 -10 28 -5 63 -7 77 -4 21 6 24 11 19 35 -4 22 -2 29 9 29 17 0
20 -41 6 -68 -4 -9 -11 -36 -15 -58 -6 -39 -4 -42 22 -47 15 -3 28 -1 30 3 4
11 32 1 32 -11 0 -15 -75 -10 -106 6 -21 11 -24 15 -11 15 10 0 16 4 13 9 -9
13 -46 1 -46 -15 0 -7 18 -18 40 -24 29 -8 40 -16 40 -30 0 -14 -7 -20 -21
-20 -12 0 -19 -5 -17 -12 5 -14 71 -23 97 -13 14 6 14 7 -2 17 -10 5 -25 7
-33 4 -10 -4 -14 2 -14 19 0 22 5 25 34 25 70 0 87 21 33 41 -33 12 -33 12
-33 75 1 41 5 64 12 64 7 0 15 17 18 38 4 20 11 60 17 89 l10 51 52 12 c29 7
60 17 70 22 13 7 17 5 17 -10 0 -23 -18 -222 -26 -279 l-5 -43 -52 39 c-54 40
-124 79 -82 46 11 -9 45 -34 75 -56 53 -39 55 -39 70 -21 9 10 25 24 36 30 18
9 22 25 29 99 5 48 9 114 11 145 1 31 5 61 8 67 5 8 -16 9 -70 4 -57 -5 -75
-3 -70 5 4 7 2 12 -3 12 -6 0 -11 -4 -11 -10 0 -5 -20 -10 -45 -10 -25 0 -45
5 -45 10 0 6 -25 10 -55 10 -42 0 -55 3 -55 15 0 11 -11 15 -41 15 l-42 0 7
126 c8 144 -8 166 -18 27 -4 -49 -10 -103 -13 -121 -5 -31 -8 -33 -37 -28 -17
3 -60 8 -96 12 -36 3 -66 7 -67 8 -1 1 4 51 12 112 17 131 18 144 6 125 -7
-11 -9 -11 -13 0 -3 8 -9 -22 -13 -66 -12 -129 -20 -170 -33 -168 -6 2 -26 5
-44 7 -127 16 -129 17 -124 45 3 14 8 58 11 96 4 39 9 82 11 98 5 24 3 27 -20
27 -18 0 -26 -5 -26 -17z m-12 -277 c3 -3 0 -11 -5 -18 -6 -7 -7 -22 -3 -33 6
-17 9 -14 15 18 10 49 34 50 30 1 -4 -41 -19 -63 -43 -62 -9 0 -26 -3 -37 -7
-16 -5 -17 -5 -5 4 12 8 12 13 2 23 -6 6 -12 29 -12 50 0 36 2 38 26 34 15 -3
29 -7 32 -10z m332 -5 c36 -5 94 -10 129 -10 35 0 69 -5 74 -10 8 -8 4 -11
-11 -11 -12 0 -36 -6 -54 -14 -18 -8 -44 -17 -58 -20 -18 -4 -25 -12 -26 -31
-1 -15 -4 -29 -7 -31 -7 -8 -117 7 -117 15 0 3 4 12 9 20 7 11 13 12 23 4 7
-6 28 -13 46 -15 25 -4 32 -1 32 13 0 12 -6 16 -21 12 -20 -6 -21 -5 -5 25
l16 30 -78 7 c-42 4 -86 14 -97 22 -18 12 -15 13 30 9 28 -3 79 -9 115 -15z
m-37 -38 c30 -4 36 -8 27 -18 -6 -7 -19 -11 -29 -8 -9 2 -23 -3 -30 -11 -8 -9
-21 -16 -30 -16 -13 0 -13 -2 -2 -9 10 -6 10 -10 1 -16 -14 -9 -17 -5 -20 20
-7 66 -3 69 83 58z m369 -29 c24 -5 26 -8 18 -30 -5 -13 -12 -36 -14 -50 -3
-14 -15 -33 -28 -44 l-23 -18 -3 39 c-2 26 -10 44 -23 52 -22 14 -26 32 -4 23
10 -3 15 1 15 13 0 19 17 23 62 15z m-212 -23 c0 -18 -18 -21 -30 -6 -10 13
-9 15 9 15 11 0 21 -4 21 -9z m210 -130 c0 -20 -17 -37 -27 -28 -7 8 7 47 18
47 5 0 9 -9 9 -19z m204 -93 c-8 -28 -12 -33 -20 -25 -9 8 6 47 17 47 6 0 7
-10 3 -22z"/>
<path d="M2045 750 c-4 -6 9 -10 36 -10 47 0 47 9 1 16 -17 3 -33 0 -37 -6z"/>
<path d="M1555 1050 c-3 -5 -1 -10 4 -10 6 0 11 5 11 10 0 6 -2 10 -4 10 -3 0
-8 -4 -11 -10z"/>
<path d="M1652 1020 c0 -19 2 -27 5 -17 2 9 2 25 0 35 -3 9 -5 1 -5 -18z"/>
<path d="M1551 1014 c0 -11 -4 -24 -8 -28 -5 -4 -8 -11 -9 -14 -2 -29 -17 -72
-25 -72 -13 0 -7 63 6 72 6 4 -1 8 -14 8 -22 0 -23 -2 -16 -47 8 -56 4 -50 34
-55 15 -2 26 3 28 12 4 13 3 13 -7 0 -10 -12 -10 -10 -5 10 21 81 25 105 22
119 -3 11 -5 9 -6 -5z"/>
<path d="M1756 1009 c-9 -44 -12 -99 -5 -99 4 0 9 26 11 58 4 62 2 78 -6 41z"/>
<path d="M1793 975 c0 -22 2 -30 4 -17 2 12 2 30 0 40 -3 9 -5 -1 -4 -23z"/>
<path d="M2238 993 c7 -3 16 -2 19 1 4 3 -2 6 -13 5 -11 0 -14 -3 -6 -6z"/>
<path d="M2393 983 c9 -2 25 -2 35 0 9 3 1 5 -18 5 -19 0 -27 -2 -17 -5z"/>
<path d="M1634 963 c-4 -10 -6 -24 -5 -30 1 -7 -6 -13 -16 -14 -11 0 -13 -3
-5 -6 6 -2 12 -20 12 -39 0 -46 15 -43 16 4 1 20 4 52 8 70 7 35 3 42 -10 15z"/>
<path d="M2235 970 c-19 -8 -19 -9 3 -9 12 -1 22 4 22 9 0 6 -1 10 -2 9 -2 0
-12 -4 -23 -9z"/>
<path d="M2270 969 c0 -5 14 -9 32 -9 36 0 32 10 -6 14 -14 2 -26 -1 -26 -5z"/>
<path d="M2400 958 c0 -4 11 -8 24 -8 21 0 23 -4 19 -40 -2 -22 0 -40 5 -40 4
0 9 20 11 44 2 42 0 44 -29 48 -16 3 -30 1 -30 -4z"/>
<path d="M1577 949 c7 -7 15 -10 18 -7 3 3 -2 9 -12 12 -14 6 -15 5 -6 -5z"/>
<path d="M2270 946 c0 -2 14 -6 30 -8 17 -3 30 -1 30 4 0 4 -13 8 -30 8 -16 0
-30 -2 -30 -4z"/>
<path d="M2374 920 c0 -11 4 -20 8 -20 4 0 8 9 8 20 0 11 -4 20 -8 20 -4 0 -8
-9 -8 -20z"/>
<path d="M2403 905 c0 -22 2 -30 4 -17 2 12 2 30 0 40 -3 9 -5 -1 -4 -23z"/>
<path d="M2471 924 c0 -11 3 -14 6 -6 3 7 2 16 -1 19 -3 4 -6 -2 -5 -13z"/>
<path d="M1582 910 c0 -14 2 -19 5 -12 2 6 2 18 0 25 -3 6 -5 1 -5 -13z"/>
<path d="M1783 885 c0 -27 2 -38 4 -22 2 15 2 37 0 50 -2 12 -4 0 -4 -28z"/>
<path d="M2278 913 c7 -3 16 -2 19 1 4 3 -2 6 -13 5 -11 0 -14 -3 -6 -6z"/>
<path d="M1998 887 c-3 -19 -2 -25 4 -19 6 6 8 18 6 28 -3 14 -5 12 -10 -9z"/>
<path d="M1821 884 c0 -11 3 -14 6 -6 3 7 2 16 -1 19 -3 4 -6 -2 -5 -13z"/>
<path d="M2260 890 c0 -5 5 -10 10 -10 6 0 10 5 10 10 0 6 -4 10 -10 10 -5 0
-10 -4 -10 -10z"/>
<path d="M2290 889 c0 -5 9 -9 20 -9 11 0 20 2 20 4 0 2 -9 6 -20 9 -11 3 -20
1 -20 -4z"/>
<path d="M1560 876 c0 -7 7 -13 15 -13 8 0 15 4 15 8 0 4 -7 9 -15 13 -9 3
-15 0 -15 -8z"/>
<path d="M1742 870 c0 -14 2 -19 5 -12 2 6 2 18 0 25 -3 6 -5 1 -5 -13z"/>
<path d="M2265 860 c3 -5 12 -7 20 -3 21 7 19 13 -6 13 -11 0 -18 -4 -14 -10z"/>
<path d="M2310 859 c0 -5 5 -7 10 -4 6 3 10 8 10 11 0 2 -4 4 -10 4 -5 0 -10
-5 -10 -11z"/>
<path d="M2398 853 c6 -2 18 -2 25 0 6 3 1 5 -13 5 -14 0 -19 -2 -12 -5z"/>
<path d="M2438 825 c-2 -19 0 -35 4 -35 4 0 8 16 8 35 0 19 -2 35 -4 35 -2 0
-6 -16 -8 -35z"/>
<path d="M2030 840 c0 -5 5 -10 11 -10 5 0 7 5 4 10 -3 6 -8 10 -11 10 -2 0
-4 -4 -4 -10z"/>
<path d="M2462 830 c0 -14 2 -19 5 -12 2 6 2 18 0 25 -3 6 -5 1 -5 -13z"/>
<path d="M2200 830 c-9 -6 -10 -10 -3 -10 6 0 15 5 18 10 8 12 4 12 -15 0z"/>
<path d="M2273 833 c9 -2 25 -2 35 0 9 3 1 5 -18 5 -19 0 -27 -2 -17 -5z"/>
<path d="M2360 830 c0 -5 5 -10 10 -10 6 0 10 5 10 10 0 6 -4 10 -10 10 -5 0
-10 -4 -10 -10z"/>
<path d="M2390 829 c0 -5 9 -9 20 -9 11 0 20 2 20 4 0 2 -9 6 -20 9 -11 3 -20
1 -20 -4z"/>
<path d="M2160 810 c0 -5 5 -10 10 -10 6 0 10 5 10 10 0 6 -4 10 -10 10 -5 0
-10 -4 -10 -10z"/>
<path d="M2235 810 c-3 -5 -1 -10 4 -10 6 0 11 5 11 10 0 6 -2 10 -4 10 -3 0
-8 -4 -11 -10z"/>
<path d="M2260 808 c0 -4 14 -8 30 -8 17 0 30 2 30 4 0 2 -13 6 -30 8 -16 3
-30 1 -30 -4z"/>
<path d="M2360 800 c0 -5 5 -10 10 -10 6 0 10 5 10 10 0 6 -4 10 -10 10 -5 0
-10 -4 -10 -10z"/>
<path d="M2230 780 c0 -5 5 -10 11 -10 5 0 7 5 4 10 -3 6 -8 10 -11 10 -2 0
-4 -4 -4 -10z"/>
<path d="M2261 774 c0 -11 3 -14 6 -6 3 7 2 16 -1 19 -3 4 -6 -2 -5 -13z"/>
<path d="M2288 773 c6 -2 18 -2 25 0 6 3 1 5 -13 5 -14 0 -19 -2 -12 -5z"/>
<path d="M2347 773 c-14 -13 -7 -25 8 -13 8 7 22 10 30 6 8 -3 15 -1 15 4 0
11 -43 14 -53 3z"/>
<path d="M2430 769 c0 -5 5 -7 10 -4 6 3 10 8 10 11 0 2 -4 4 -10 4 -5 0 -10
-5 -10 -11z"/>
<path d="M1782 740 c9 -13 14 -16 20 -7 4 6 2 15 -5 19 -21 14 -28 9 -15 -12z"/>
<path d="M1790 700 c8 -5 20 -10 25 -10 6 0 3 5 -5 10 -8 5 -19 10 -25 10 -5
0 -3 -5 5 -10z"/>
<path d="M2168 653 c7 -3 16 -2 19 1 4 3 -2 6 -13 5 -11 0 -14 -3 -6 -6z"/>
<path d="M1900 605 c0 -8 5 -15 10 -15 6 0 10 7 10 15 0 8 -4 15 -10 15 -5 0
-10 -7 -10 -15z"/>
<path d="M1897 561 c-4 -17 -3 -21 5 -13 5 5 8 16 6 23 -3 8 -7 3 -11 -10z"/>
<path d="M1792 458 c3 -7 13 -15 22 -16 12 -3 17 1 14 10 -3 7 -13 15 -22 16
-12 3 -17 -1 -14 -10z"/>
</g>
</svg>
