<?xml version="1.0" standalone="no"?>
<!DOCTYPE svg PUBLIC "-//W3C//DTD SVG 20010904//EN"
 "http://www.w3.org/TR/2001/REC-SVG-20010904/DTD/svg10.dtd">
<svg version="1.0" xmlns="http://www.w3.org/2000/svg"
 width="478.000000pt" height="319.000000pt" viewBox="0 0 478.000000 319.000000"
 preserveAspectRatio="xMidYMid meet">
<metadata>
Created by potrace 1.10, written by Peter Selinger 2001-2011
</metadata>
<g transform="translate(0.000000,319.000000) scale(0.100000,-0.100000)"
fill="#00ffff" stroke="none">
<path d="M1533 3138 c2 -7 10 -40 17 -73 27 -138 33 -154 122 -342 23 -51 27
-67 18 -84 -12 -21 26 -97 209 -424 31 -55 59 -108 63 -117 9 -21 24 -23 34
-5 4 6 4 9 -1 5 -10 -9 -25 16 -115 182 -37 69 -93 172 -125 229 -41 76 -55
110 -51 127 7 26 21 31 29 12 3 -7 44 -65 90 -128 47 -63 104 -140 126 -170
22 -30 131 -176 242 -324 110 -148 203 -275 206 -282 10 -27 -8 -34 -40 -17
-65 33 -88 56 -82 80 3 13 1 23 -5 23 -5 0 -10 7 -10 15 0 8 -4 15 -9 15 -5 0
-23 19 -40 42 -17 23 -31 37 -31 31 0 -6 18 -34 40 -61 40 -52 50 -91 34 -141
-5 -17 -4 -22 4 -17 7 4 12 16 12 27 0 20 15 26 25 9 4 -6 25 -22 47 -36 l41
-26 24 28 c13 15 22 33 20 38 -2 6 -26 76 -52 156 -33 98 -60 161 -85 195 -19
28 -43 61 -52 75 -10 14 -31 45 -48 68 -17 24 -79 114 -139 200 -59 87 -161
234 -226 327 -65 94 -135 193 -154 222 -20 29 -44 54 -53 56 -10 3 -30 26 -45
51 -26 41 -52 64 -40 34z m111 -172 c-1 -19 2 -23 11 -16 8 7 17 4 29 -9 12
-13 14 -21 6 -26 -8 -5 -8 -11 -1 -19 6 -7 8 -16 4 -19 -3 -4 -1 -7 5 -7 7 0
12 6 12 13 1 6 8 -1 16 -16 9 -16 13 -31 10 -34 -3 -3 1 -12 9 -20 10 -10 13
-28 10 -56 l-5 -42 11 35 c5 19 10 41 11 49 2 19 28 -18 27 -38 0 -12 -3 -11
-10 4 -9 20 -9 20 -6 0 2 -13 9 -19 20 -17 9 2 17 -2 17 -8 0 -5 9 -19 20 -30
14 -14 20 -31 18 -55 -1 -19 1 -37 5 -41 4 -4 7 0 7 9 0 9 7 17 16 17 10 0 13
-6 9 -19 -3 -12 0 -21 10 -25 9 -3 15 -14 13 -23 -2 -10 5 -26 15 -36 10 -10
15 -22 12 -27 -4 -6 -1 -10 5 -10 12 0 3 47 -14 70 -10 13 -9 13 7 1 9 -7 17
-18 17 -23 0 -5 9 -22 21 -36 11 -15 40 -57 64 -94 23 -37 46 -64 50 -60 5 4
5 -1 2 -10 -4 -10 -2 -18 3 -18 5 0 12 -10 16 -22 4 -13 24 -43 45 -67 21 -24
36 -47 33 -52 -3 -5 2 -16 10 -25 10 -10 15 -27 12 -48 -2 -17 2 -40 10 -51 8
-10 14 -16 14 -13 0 4 3 14 6 22 5 12 2 15 -9 10 -14 -5 -14 -2 -4 19 10 23
20 29 18 13 0 -3 10 -17 23 -31 13 -14 31 -46 39 -71 14 -44 14 -44 -4 -28
-22 20 -26 2 -4 -20 8 -8 15 -19 15 -25 0 -6 4 -11 8 -11 5 0 14 -11 20 -24 8
-19 8 -26 -1 -30 -9 -5 -9 -7 1 -12 13 -6 17 -24 4 -24 -10 0 -98 133 -94 143
1 5 -2 6 -7 3 -13 -8 -32 19 -25 37 3 8 0 18 -7 23 -9 5 -10 2 -6 -9 3 -10 3
-17 -1 -17 -8 0 -18 16 -41 66 -7 16 -18 37 -23 48 -5 10 -11 32 -13 47 -2 16
-9 37 -14 47 -8 13 -9 8 -6 -20 5 -42 -4 -49 -23 -17 -8 12 -9 18 -3 14 6 -3
11 -1 11 4 0 6 -4 11 -10 11 -5 0 -7 7 -4 15 4 11 2 13 -9 9 -22 -8 -54 12
-63 38 -4 13 -18 33 -31 46 -16 15 -23 29 -18 40 3 9 3 13 -1 9 -12 -12 -44
24 -44 49 0 13 -5 26 -12 30 -7 5 -8 3 -3 -7 8 -12 6 -12 -8 0 -9 7 -17 19
-17 25 0 15 -26 50 -67 89 -35 32 -45 58 -15 37 9 -7 2 1 -15 17 -19 17 -33
39 -33 52 0 12 -4 20 -9 16 -16 -9 -25 16 -10 27 11 8 11 9 -2 5 -18 -6 -43
28 -33 45 4 7 3 8 -4 4 -17 -10 -15 19 1 33 8 6 17 7 22 3 4 -4 6 2 4 12 -2
11 -10 21 -17 24 -7 2 -10 -2 -6 -11 3 -8 -2 -17 -11 -21 -22 -8 -33 24 -13
38 14 10 13 14 -7 34 l-24 23 9 -30 c5 -17 5 -31 0 -31 -8 0 -33 55 -34 77 -1
6 -5 15 -9 19 -4 4 -7 25 -7 47 0 39 0 39 23 24 14 -9 22 -24 21 -41z"/>
<path d="M1720 2751 c0 -6 4 -13 10 -16 6 -3 7 1 4 9 -7 18 -14 21 -14 7z"/>
<path d="M1765 2710 c-10 -16 23 -68 55 -84 36 -18 29 -1 -26 59 -12 13 -19
26 -16 29 3 3 3 6 -1 6 -3 0 -9 -4 -12 -10z m36 -42 c11 -21 11 -22 -4 -9 -10
7 -17 17 -17 22 0 15 9 10 21 -13z"/>
<path d="M1858 2574 c12 -9 22 -25 22 -35 0 -19 17 -35 27 -25 4 4 1 12 -5 18
-7 7 -12 23 -13 38 0 14 -3 19 -6 13 -3 -10 -10 -10 -26 -3 -21 10 -21 10 1
-6z"/>
<path d="M1920 2501 c0 -6 4 -13 10 -16 6 -3 7 1 4 9 -7 18 -14 21 -14 7z"/>
<path d="M1940 2467 c0 -14 45 -87 53 -87 5 0 3 7 -4 16 -7 9 -14 22 -15 30
-2 13 -34 51 -34 41z"/>
<path d="M1990 2361 c0 -5 7 -11 15 -15 8 -3 15 -13 15 -22 0 -22 24 -12 27
12 3 18 2 18 -6 -1 -5 -11 -10 -14 -10 -7 -2 23 -41 55 -41 33z"/>
<path d="M2045 2270 c3 -5 11 -10 16 -10 6 0 7 5 4 10 -3 6 -11 10 -16 10 -6
0 -7 -4 -4 -10z"/>
<path d="M2140 2227 c0 -8 7 -17 15 -21 8 -3 15 -3 15 0 0 3 -7 12 -15 20 -13
13 -15 13 -15 1z"/>
<path d="M2186 2091 c-3 -4 1 -17 9 -27 8 -10 15 -14 15 -7 0 6 -5 15 -10 18
-6 4 -8 11 -5 16 4 5 4 9 1 9 -3 0 -7 -4 -10 -9z"/>
<path d="M2257 2075 c-4 -8 -3 -16 1 -19 4 -3 9 4 9 15 2 23 -3 25 -10 4z"/>
<path d="M2286 1947 c3 -10 9 -15 12 -12 3 3 0 11 -7 18 -10 9 -11 8 -5 -6z"/>
<path d="M1886 2355 c-3 -9 -6 -22 -5 -28 0 -7 5 -1 10 12 5 13 8 26 5 28 -2
2 -6 -3 -10 -12z"/>
<path d="M1440 2193 c41 -43 78 -82 82 -87 5 -6 8 -6 8 1 0 15 -139 163 -153
163 -6 0 23 -35 63 -77z"/>
<path d="M2025 2110 c-18 -8 -17 -9 8 -9 16 -1 26 3 22 9 -3 6 -7 10 -8 9 -1
0 -11 -4 -22 -9z"/>
<path d="M2070 2078 c-14 -39 -14 -44 2 -60 15 -15 16 -14 16 15 0 18 3 44 7
60 12 43 -9 31 -25 -15z"/>
<path d="M1553 2083 c-9 -3 -13 -30 -13 -83 0 -44 -5 -89 -11 -102 -7 -17 -6
-32 5 -59 15 -35 16 -36 82 -42 59 -4 71 -2 112 22 50 29 50 29 91 121 l28 65
-22 35 -22 35 -94 1 c-52 0 -105 3 -119 6 -14 3 -31 4 -37 1z m61 -54 c-10
-16 -24 -9 -24 12 0 18 2 19 15 9 8 -7 12 -16 9 -21z m164 22 c11 -7 11 -9 -2
-14 -9 -4 -16 -2 -16 4 0 6 -4 8 -9 4 -5 -3 -12 -1 -16 5 -7 12 25 13 43 1z
m-73 -18 c6 -6 19 -13 29 -15 21 -3 44 -33 34 -44 -4 -3 -28 8 -55 26 -41 28
-50 31 -68 20 -20 -13 -20 -13 -1 9 20 22 44 24 61 4z m97 -15 c-6 -6 -15 -8
-19 -4 -4 4 -1 11 7 16 19 12 27 3 12 -12z m-222 -12 c0 -8 -4 -18 -10 -21 -5
-3 -10 3 -10 14 0 12 5 21 10 21 6 0 10 -6 10 -14z m148 -35 c23 -8 42 -17 42
-20 0 -4 -14 -23 -31 -44 -41 -50 -27 -63 16 -14 17 20 35 37 39 37 15 0 -34
-77 -55 -86 -21 -10 -27 -5 -62 50 -22 34 -48 71 -60 84 -11 12 -16 22 -10 22
6 0 13 -6 16 -12 3 -10 10 -8 23 5 15 14 21 15 29 4 5 -7 29 -19 53 -26z m81
-12 c-20 -12 -21 -5 -7 27 13 28 13 28 16 5 2 -13 -2 -27 -9 -32z m-223 -16
c-8 -15 -15 -22 -16 -15 0 14 22 53 28 47 2 -2 -3 -16 -12 -32z m63 -33 c34
-55 28 -69 -24 -56 -30 8 -33 26 -6 26 22 0 36 16 22 24 -5 4 -12 0 -14 -6 -3
-8 -6 -6 -6 5 -1 22 -21 23 -21 0 0 -9 -3 -13 -6 -10 -6 6 14 67 21 67 2 0 17
-23 34 -50z m-75 -23 c7 -48 57 -82 82 -57 12 12 47 2 38 -11 -7 -12 -81 -12
-89 1 -3 5 -12 7 -20 4 -18 -7 -36 35 -28 65 6 23 13 22 17 -2z"/>
<path d="M1698 1943 c6 -2 18 -2 25 0 6 3 1 5 -13 5 -14 0 -19 -2 -12 -5z"/>
<path d="M1997 2069 c-17 -10 -16 -12 3 -39 11 -15 20 -30 20 -33 0 -3 -19 -8
-42 -12 -24 -4 -50 -11 -59 -16 -12 -6 -21 -2 -32 14 l-16 22 0 -28 c-1 -16 3
-26 8 -22 5 3 22 -9 37 -27 21 -27 23 -28 10 -6 -23 39 -20 45 9 18 38 -36 39
-54 6 -125 -17 -36 -31 -70 -31 -75 0 -20 -16 -9 -50 35 -33 42 -50 55 -50 38
0 -5 18 -28 40 -53 l40 -44 -28 -23 c-35 -29 -39 -29 -47 8 -4 17 -9 28 -12
25 -3 -3 4 -37 16 -75 18 -58 25 -71 42 -71 15 0 19 -5 15 -16 -3 -9 -6 -18
-6 -20 0 -10 -40 -3 -47 9 -4 6 -19 46 -33 87 -22 64 -29 75 -50 78 l-25 3 24
-21 c13 -11 21 -23 18 -27 -3 -3 1 -19 9 -35 9 -17 16 -49 17 -72 l2 -41 42
-2 c88 -3 154 -38 244 -129 46 -46 77 -84 69 -84 -8 1 -46 7 -83 14 -64 12
-69 12 -78 -6 -8 -15 -3 -25 25 -56 20 -20 36 -40 36 -44 0 -5 6 -8 13 -8 11
0 62 -56 82 -90 8 -13 7 -13 -11 -1 -10 8 -31 26 -46 40 -33 30 -36 21 -6 -19
11 -16 33 -32 47 -36 14 -3 41 -24 60 -45 l33 -39 -33 5 c-27 4 -30 3 -14 -4
11 -5 29 -10 41 -10 11 -1 29 -10 40 -22 19 -21 19 -21 -11 -45 -38 -30 -25
-32 15 -2 23 17 33 19 42 10 9 -9 5 -19 -18 -44 -24 -27 -25 -29 -4 -13 14 11
28 24 32 30 4 6 21 -3 40 -20 35 -32 78 -59 83 -53 2 2 -24 26 -58 53 -33 28
-85 72 -115 100 -65 59 -235 282 -223 290 5 3 22 -15 38 -40 15 -24 34 -44 41
-45 9 0 7 8 -7 26 -11 15 -19 30 -16 34 3 4 -2 10 -10 14 -8 3 -15 11 -15 17
0 8 4 8 15 -1 8 -6 20 -8 26 -4 8 5 9 3 4 -5 -6 -10 -3 -11 16 -1 21 12 26 10
49 -19 24 -28 30 -31 54 -21 24 9 30 6 51 -18 14 -15 27 -35 30 -45 4 -9 10
-15 15 -12 5 3 11 1 15 -5 3 -5 2 -10 -3 -10 -5 0 -7 -11 -5 -24 6 -30 29 -24
28 7 0 14 -29 55 -75 106 -81 89 -106 128 -44 69 32 -30 41 -34 51 -23 9 10
10 21 2 44 -16 46 -5 61 17 25 11 -17 25 -29 33 -26 10 3 11 0 4 -13 -14 -24
4 -92 34 -133 14 -18 27 -32 28 -30 2 2 -10 32 -26 66 -17 34 -29 67 -27 73 2
5 19 -7 38 -27 31 -32 32 -36 13 -31 -13 3 -23 4 -23 2 0 -1 20 -19 45 -39
l44 -37 7 28 c4 15 17 37 30 48 13 11 39 51 57 88 l34 68 18 -28 c32 -50 118
-153 124 -148 2 3 -1 11 -7 17 -15 15 -16 31 -1 22 17 -10 -6 30 -27 47 -16
13 -16 12 0 -13 33 -50 8 -29 -40 35 -27 34 -51 64 -55 67 -4 3 -5 46 -1 95
l7 90 25 -40 c23 -38 113 -159 133 -180 18 -18 -45 89 -76 130 -54 71 -50 71
17 0 38 -40 68 -83 72 -100 7 -33 37 -81 65 -105 18 -16 35 -135 18 -124 -5 3
-9 0 -9 -5 0 -6 5 -11 10 -11 6 0 10 -7 10 -16 0 -14 -3 -14 -15 -4 -11 9 -15
9 -15 1 0 -6 7 -14 15 -17 8 -4 12 -10 9 -15 -3 -5 -16 4 -30 20 -26 32 -29
41 -13 41 5 0 7 -4 4 -10 -3 -5 -1 -10 4 -10 16 0 13 16 -6 36 -17 17 -17 17
7 11 l25 -6 -25 19 c-17 14 -20 20 -9 20 8 0 19 -3 25 -7 5 -5 1 0 -9 9 -10
10 -16 22 -13 27 8 12 -3 41 -15 41 -5 0 -9 -27 -9 -61 0 -129 -123 -311 -269
-398 -78 -46 -83 -47 -101 -26 -14 17 -63 19 -125 5 -40 -9 -40 -9 15 -8 87 1
90 0 83 -19 -6 -16 -5 -16 10 -4 15 12 17 11 17 -3 0 -9 -8 -16 -17 -16 -13 0
-9 -8 17 -30 42 -36 20 -40 -26 -5 -18 14 -39 22 -48 19 -22 -8 -9 -26 13 -19
10 3 23 -1 30 -9 19 -23 -14 -28 -43 -5 -14 11 -26 15 -28 9 -5 -17 -88 -1
-88 17 0 9 7 13 18 10 62 -17 70 -17 75 4 5 18 2 20 -16 15 -14 -3 -29 2 -43
15 -12 11 -38 22 -58 26 l-37 6 32 -51 c17 -28 43 -55 57 -60 33 -13 136 -26
177 -23 39 3 153 40 161 52 5 8 -22 35 -75 76 -14 11 -14 12 1 13 9 0 35 -19
57 -42 l40 -43 23 21 c13 12 29 19 37 16 16 -5 -17 46 -44 68 -23 19 -18 0 7
-27 36 -38 15 -35 -27 5 l-39 37 27 3 c15 2 25 8 21 13 -3 5 12 27 32 49 l38
40 30 -37 c17 -21 29 -44 27 -53 -5 -24 33 15 52 53 42 86 57 127 67 188 12
79 0 158 -30 196 -13 16 -18 34 -15 47 4 14 3 17 -2 8 -7 -9 -14 -2 -26 23
-21 43 -22 60 -2 25 16 -28 21 -19 5 10 -6 11 -17 17 -24 14 -9 -3 -13 1 -13
11 1 10 -6 22 -16 29 -10 6 -47 39 -83 74 -73 70 -96 82 -169 87 -27 1 -63 6
-79 10 -20 6 -27 5 -22 -3 3 -6 32 -16 64 -23 31 -7 60 -17 63 -22 4 -5 15 -5
27 2 25 14 36 0 26 -32 -4 -12 -6 -52 -6 -89 1 -37 -2 -70 -8 -73 -5 -3 -10
-15 -10 -25 0 -11 -13 -35 -30 -53 -16 -19 -30 -40 -30 -46 0 -6 -5 -11 -12
-11 -6 0 -8 -3 -5 -7 8 -7 -11 -33 -25 -33 -5 0 -53 43 -105 95 -53 52 -98 93
-100 91 -3 -2 0 -20 5 -40 7 -25 7 -36 0 -36 -6 0 -5 -6 2 -15 7 -9 10 -18 6
-22 -11 -11 -16 3 -27 68 -5 35 -17 71 -26 79 -14 14 -15 12 -9 -13 6 -26 5
-27 -14 -17 -12 6 -19 18 -16 25 3 9 0 12 -10 8 -20 -7 -19 -10 21 -44 40 -35
47 -64 14 -54 -15 5 -22 2 -26 -14 -3 -12 -6 -21 -8 -21 -1 0 -41 39 -88 88
l-87 87 0 69 c0 59 7 89 46 193 36 95 53 128 75 144 16 11 29 24 29 29 0 4
-26 11 -57 15 -73 9 -77 11 -58 38 8 12 15 26 15 32 0 5 -4 3 -10 -5 -7 -11
-11 -8 -20 15 -15 39 -15 39 12 47 20 5 20 6 3 7 -11 0 -28 -4 -38 -10z m3
-109 c0 -6 -11 -8 -27 -4 -40 10 -41 14 -5 14 18 0 32 -5 32 -10z m30 -36 c0
-16 26 -19 35 -4 9 15 47 12 43 -2 -3 -7 -28 -17 -57 -22 -45 -8 -53 -7 -66
10 -12 17 -11 20 8 31 25 13 37 9 37 -13z m29 -85 c-11 -23 -31 -73 -43 -111
-13 -38 -26 -69 -30 -69 -4 0 -23 14 -42 31 -28 24 -33 34 -25 44 6 7 22 40
35 72 23 57 25 59 68 65 23 3 46 7 51 7 4 1 -2 -17 -14 -39z m-118 -170 c38
-30 39 -32 39 -98 l0 -68 -49 15 c-49 15 -63 43 -17 35 18 -4 25 1 29 18 4 16
3 19 -6 10 -17 -17 -42 -13 -64 12 -35 39 -37 58 -6 83 15 13 30 23 32 24 2 0
21 -14 42 -31z m269 -379 c0 -11 6 -20 13 -20 6 0 4 -5 -6 -11 -14 -8 -21 -7
-32 7 -7 10 -11 24 -8 31 8 21 33 15 33 -7z m240 -65 c11 -13 10 -14 -4 -9 -9
3 -16 10 -16 15 0 13 6 11 20 -6z m403 -144 c11 -19 14 -31 7 -31 -7 0 -9 -8
-5 -20 10 -32 -8 -23 -39 21 -32 45 -28 67 5 25 12 -15 24 -25 26 -22 3 3 -4
17 -16 32 -23 30 -29 53 -8 36 6 -6 20 -24 30 -41z m-13 -92 c-1 -19 -60 47
-60 67 0 9 11 2 30 -19 17 -19 30 -41 30 -48z m-10 -36 c0 -7 -3 -13 -7 -13
-11 1 -63 76 -63 91 0 16 69 -62 70 -78z m-30 -35 c0 -25 -12 -22 -43 10 -26
27 -34 52 -20 65 9 10 62 -54 63 -75z m-171 -112 c21 -22 29 -36 21 -41 -14
-9 -42 14 -33 28 3 5 1 7 -4 4 -6 -4 -16 0 -23 8 -7 8 -9 15 -4 16 5 0 0 4
-11 9 -20 9 -20 9 1 9 11 1 35 -14 53 -33z m-71 -37 c19 -17 31 -33 28 -36 -5
-5 -86 54 -86 63 0 13 29 -1 58 -27z m-313 10 c11 -17 -1 -21 -15 -4 -8 9 -8
15 -2 15 6 0 14 -5 17 -11z m279 -23 c16 -13 25 -29 22 -35 -10 -16 -17 -14
-60 24 -37 33 -38 35 -15 35 13 -1 37 -11 53 -24z m-48 -18 c33 -32 30 -43 -6
-18 -16 12 -30 26 -30 31 0 15 10 11 36 -13z"/>
<path d="M1980 1769 c0 -5 5 -7 10 -4 6 3 10 8 10 11 0 2 -4 4 -10 4 -5 0 -10
-5 -10 -11z"/>
<path d="M1882 1615 c3 -21 38 -34 38 -14 0 7 -3 9 -7 6 -3 -4 -12 1 -20 11
-13 16 -14 16 -11 -3z"/>
<path d="M1903 2042 c-43 -17 -62 -39 -21 -26 38 12 88 34 88 39 0 8 -22 4
-67 -13z"/>
<path d="M2070 1980 c0 -13 38 -32 53 -27 6 2 -3 11 -21 19 -18 9 -32 12 -32
8z"/>
<path d="M1833 1917 c-7 -11 -2 -14 27 -19 17 -2 26 2 28 13 2 13 -4 17 -23
15 -15 0 -29 -5 -32 -9z"/>
<path d="M2160 1856 c-13 -35 -13 -63 1 -71 13 -9 18 -4 28 32 6 20 4 35 -5
48 -13 17 -14 16 -24 -9z"/>
<path d="M1843 1836 c5 -16 24 -18 30 -4 3 9 -3 14 -14 14 -11 0 -18 -5 -16
-10z"/>
<path d="M1785 1830 c-3 -5 -1 -10 4 -10 6 0 11 5 11 10 0 6 -2 10 -4 10 -3 0
-8 -4 -11 -10z"/>
<path d="M1883 1823 c-3 -10 -8 -22 -10 -28 -3 -5 3 -1 11 9 16 20 21 36 11
36 -3 0 -8 -8 -12 -17z"/>
<path d="M1751 1813 c-1 -17 16 -25 25 -12 4 7 3 9 -4 5 -5 -3 -13 0 -15 6 -4
9 -6 10 -6 1z"/>
<path d="M2121 1794 c0 -11 3 -14 6 -6 3 7 2 16 -1 19 -3 4 -6 -2 -5 -13z"/>
<path d="M1769 1778 c-8 -7 -12 -12 -10 -11 2 2 11 -3 19 -10 13 -10 15 -9 9
5 -3 9 -1 19 6 22 7 2 7 5 1 5 -5 1 -17 -5 -25 -11z"/>
<path d="M1587 1766 c7 -13 26 -18 81 -20 88 -4 96 10 10 16 -35 3 -72 9 -82
13 -16 7 -17 5 -9 -9z"/>
<path d="M2100 1738 c-11 -18 -20 -47 -20 -65 0 -17 -4 -35 -10 -38 -5 -3 -10
-11 -10 -17 0 -7 6 -6 15 2 12 10 15 10 15 -4 0 -9 5 -16 11 -16 6 0 8 -8 4
-19 -3 -11 -1 -22 5 -26 6 -3 10 3 10 14 0 12 5 21 10 21 6 0 10 7 10 16 0 8
14 20 30 26 32 11 47 44 35 75 -6 17 -8 17 -21 -2 -8 -11 -13 -30 -11 -41 3
-17 0 -20 -15 -16 -27 7 -25 58 3 65 20 5 20 7 5 22 -9 9 -16 21 -16 26 0 21
-32 7 -50 -23z m20 -9 c-7 -11 -9 -27 -6 -34 3 -8 0 -15 -6 -17 -8 -3 -6 -15
5 -37 10 -20 12 -31 5 -29 -23 8 -31 70 -14 105 9 18 18 33 21 33 3 0 1 -9 -5
-21z"/>
<path d="M1599 1713 c-5 -13 -9 -38 -9 -54 0 -42 -17 -69 -42 -69 -16 0 -19
-3 -11 -11 6 -6 21 -9 34 -7 21 3 25 10 33 63 12 88 14 92 32 74 11 -12 12
-22 6 -40 -5 -13 -13 -48 -17 -77 l-7 -53 64 -64 c43 -43 62 -69 56 -77 -13
-21 -9 -31 11 -25 11 3 26 -4 37 -17 l18 -21 7 30 c9 33 -4 55 -31 55 -13 0
-17 6 -13 19 6 22 -25 74 -39 65 -5 -3 -4 -12 3 -20 7 -9 8 -14 1 -14 -6 0
-17 8 -24 19 -7 10 -22 20 -32 22 -11 2 -21 9 -23 16 -6 18 32 25 73 14 l36
-10 -7 52 c-7 55 -27 94 -51 104 -8 3 -14 10 -14 17 0 7 -18 17 -41 23 -38 10
-41 9 -50 -14z m101 -48 c0 -7 6 -18 14 -24 8 -7 13 -25 12 -41 -1 -16 3 -32
8 -34 6 -2 -8 -3 -32 -1 -53 3 -57 7 -44 42 l10 28 2 -25 c2 -18 4 -14 10 15
5 22 4 44 -1 50 -15 15 -10 28 6 15 8 -7 15 -18 15 -25z"/>
<path d="M1820 1731 c0 -5 5 -13 10 -16 6 -3 10 -2 10 4 0 5 -4 13 -10 16 -5
3 -10 2 -10 -4z"/>
<path d="M2295 1698 c7 -23 7 -23 -9 -3 -8 11 -16 15 -16 9 0 -22 37 -57 64
-60 l27 -3 -25 20 c-14 11 -26 29 -26 40 0 10 -5 19 -11 19 -6 0 -8 -9 -4 -22z"/>
<path d="M2236 1663 c-13 -27 -14 -39 -5 -47 8 -8 10 -7 7 4 -3 8 3 27 14 42
10 15 15 29 10 32 -5 3 -16 -11 -26 -31z"/>
<path d="M2261 1640 c-10 -6 -8 -11 10 -20 13 -7 27 -17 30 -22 4 -6 13 -8 21
-6 9 2 4 11 -17 30 -20 17 -36 24 -44 18z"/>
<path d="M2340 1610 c32 -25 43 -25 30 0 -6 11 -21 20 -33 20 -22 0 -22 -1 3
-20z"/>
<path d="M2380 1624 c0 -17 15 -31 48 -48 17 -9 32 -21 32 -27 0 -6 4 -7 10
-4 6 3 0 16 -13 28 -12 12 -18 19 -13 15 6 -5 26 -8 46 -7 l35 1 -40 10 c-22
6 -47 10 -55 10 -8 1 -23 8 -32 16 -10 8 -18 11 -18 6z"/>
<path d="M2187 1606 c-8 -19 15 -67 29 -62 6 2 16 -16 22 -42 9 -41 9 -45 -4
-28 -8 11 -14 25 -14 32 0 13 -25 26 -34 17 -3 -4 -6 -11 -6 -17 0 -6 5 -4 10
4 8 12 10 10 10 -10 0 -17 8 -29 27 -37 15 -7 28 -11 30 -9 11 10 -21 103 -40
119 -20 16 -20 17 -2 11 11 -4 28 -16 39 -26 10 -11 21 -16 24 -13 4 4 -1 12
-11 19 -9 7 -17 18 -17 25 0 6 -9 11 -20 11 -11 0 -20 5 -20 10 0 15 -17 12
-23 -4z"/>
<path d="M1190 1580 c0 -6 6 -10 13 -9 19 2 57 -12 57 -22 0 -5 3 -8 8 -7 16
6 162 -66 162 -80 0 -10 7 -12 26 -8 15 4 23 3 20 -3 -3 -5 3 -7 13 -4 16 4
19 1 14 -16 -3 -12 -9 -24 -14 -26 -4 -3 -5 -13 -2 -22 5 -13 9 -8 18 18 10
27 17 34 38 34 31 -1 26 10 -9 19 -14 4 -89 36 -167 71 -139 64 -177 75 -177
55z"/>
<path d="M2365 1570 c6 -10 -2 -12 -33 -8 -36 5 -41 3 -46 -17 -3 -13 -9 -31
-13 -42 -4 -12 2 -9 18 9 18 21 34 28 67 30 23 1 47 -3 54 -10 7 -7 16 -12 21
-12 11 0 -11 21 -47 44 -16 10 -25 12 -21 6z"/>
<path d="M1068 1548 l-58 -20 0 -46 c0 -26 -3 -153 -6 -282 l-6 -235 96 -45
96 -44 0 -53 0 -54 75 -34 c41 -19 77 -35 79 -35 2 0 120 -54 262 -121 143
-66 338 -155 434 -196 96 -41 203 -89 238 -108 l62 -33 0 25 c0 13 -7 52 -14
86 -27 116 -69 312 -69 325 0 8 -17 25 -38 38 -44 28 -65 32 -32 6 15 -11 20
-21 14 -31 -7 -11 -12 -10 -27 5 -16 16 -25 17 -51 9 -41 -12 -42 -30 -2 -51
17 -8 28 -11 25 -5 -4 6 -3 11 3 11 5 0 13 -5 16 -10 3 -6 11 -10 17 -10 7 0
6 6 -2 15 -7 8 -18 15 -26 15 -14 0 -29 18 -21 26 6 7 57 -18 57 -28 0 -4 5
-8 11 -8 5 0 7 5 4 10 -3 6 2 10 12 10 15 0 16 2 3 11 -13 9 -13 10 0 6 8 -2
16 -16 18 -30 3 -22 -1 -27 -17 -27 -12 0 -21 -4 -21 -9 0 -5 -11 -12 -25 -15
-14 -4 -25 -11 -25 -17 0 -6 -7 -6 -20 1 -13 7 -20 7 -20 1 0 -9 31 -31 44
-31 3 0 5 6 3 13 -1 7 9 12 25 12 14 -1 24 3 22 7 -3 4 4 8 16 8 11 0 22 -6
24 -13 2 -6 8 -27 14 -44 11 -34 5 -42 -16 -21 -6 6 -15 9 -18 5 -4 -3 5 -12
20 -18 14 -7 26 -19 27 -28 0 -9 2 -24 4 -34 2 -9 -2 -17 -8 -17 -8 0 -9 -3
-1 -8 6 -4 17 -28 26 -55 15 -47 15 -47 -6 -41 -20 6 -20 5 2 -11 50 -36 17
-30 -75 15 -54 26 -109 50 -123 53 -39 9 -171 73 -165 78 3 3 -1 6 -7 7 -18 1
-95 31 -83 32 6 0 -10 12 -34 25 -31 18 -46 22 -51 14 -6 -8 -13 -8 -29 0 -24
13 -29 26 -6 17 8 -3 15 0 15 5 0 7 -9 9 -21 6 -25 -7 -81 12 -73 24 3 5 -2 6
-10 3 -9 -3 -16 -1 -16 5 0 6 -9 11 -20 11 -11 0 -20 4 -20 10 0 5 -12 12 -27
16 -16 3 -56 19 -90 35 -34 16 -73 33 -87 39 -19 7 -26 17 -26 36 0 19 4 25
15 20 31 -11 14 3 -27 24 -69 34 -123 76 -120 91 2 8 0 11 -3 7 -4 -4 -17 -1
-29 7 -11 8 -28 15 -38 15 -14 0 -18 8 -18 36 0 32 2 35 23 30 l22 -6 -22 11
c-22 12 -23 17 -23 151 0 76 3 138 6 138 3 0 23 -13 43 -29 20 -16 57 -39 84
-51 26 -12 47 -29 47 -37 0 -8 5 -11 10 -8 13 8 166 -80 181 -103 9 -16 7 64
-7 181 -4 35 -3 37 17 27 11 -7 29 -20 40 -31 10 -10 25 -19 32 -18 10 0 10 2
0 6 -7 2 -13 11 -13 18 0 12 4 12 27 0 14 -7 29 -17 32 -22 3 -4 25 -21 49
-36 24 -16 41 -34 39 -40 -2 -7 2 -20 11 -30 23 -26 10 -29 -26 -4 -36 25 -42
42 -12 32 33 -10 23 0 -35 39 -30 20 -55 32 -55 27 0 -5 8 -12 19 -16 22 -7
59 -45 43 -45 -6 0 -14 5 -17 10 -4 6 -25 20 -48 31 -23 12 -52 31 -64 42 -13
11 -23 16 -23 10 0 -17 78 -75 90 -68 12 7 71 -55 64 -67 -3 -4 1 -6 8 -3 7 3
36 -11 63 -30 28 -20 62 -43 78 -53 15 -9 30 -25 33 -34 3 -10 15 -26 28 -35
12 -10 21 -23 19 -29 -2 -7 4 -14 13 -18 12 -5 15 -2 10 10 -4 10 -2 14 6 11
7 -2 12 -9 11 -15 -2 -6 6 -14 17 -17 11 -4 20 -11 20 -16 0 -13 -14 -11 -28
3 -6 6 -14 9 -17 6 -9 -9 85 -69 96 -62 11 6 39 -13 39 -28 0 -5 -10 -3 -22 3
-20 10 -19 8 5 -19 21 -21 25 -31 15 -35 -10 -4 -10 -8 2 -16 20 -14 33 -14
24 1 -5 8 0 9 14 6 12 -4 22 -2 22 4 0 6 7 8 15 4 8 -3 15 -1 15 5 0 6 6 7 13
3 6 -4 3 2 -7 14 -23 27 -27 27 -19 5 5 -15 3 -16 -8 -5 -19 17 -34 15 -19 -3
10 -12 10 -15 -3 -15 -9 0 -21 9 -27 20 -8 16 -8 20 4 20 8 0 18 5 22 12 5 7
0 9 -14 6 -17 -5 -21 -1 -24 25 -2 17 -10 33 -18 35 -13 5 -13 3 -1 -11 12
-15 11 -17 -3 -17 -9 0 -16 3 -16 8 0 4 -14 15 -32 25 -23 13 -28 21 -19 26 9
6 10 10 2 15 -6 4 -8 12 -5 18 5 7 2 8 -5 3 -17 -10 -58 13 -64 35 -3 10 -30
30 -60 44 -30 15 -58 33 -61 42 -5 12 -2 13 17 3 20 -11 21 -11 8 5 -13 15
-13 19 0 27 23 15 29 10 23 -18 -4 -22 0 -31 18 -42 21 -13 22 -13 9 2 -9 12
-10 17 -2 17 7 0 10 4 7 9 -4 5 5 4 19 -2 13 -7 24 -18 22 -26 -1 -8 9 -15 22
-18 14 -2 31 -8 38 -15 7 -6 16 -8 19 -6 8 9 -52 48 -61 40 -5 -4 -5 -1 -1 6
4 6 4 12 -1 12 -4 0 -35 20 -68 45 -33 25 -63 45 -67 45 -4 0 -3 -11 2 -25 5
-13 6 -27 1 -29 -15 -10 -51 35 -51 63 0 29 -15 42 -245 201 -51 36 -110 78
-131 95 -80 64 -190 135 -209 134 -11 0 -46 -10 -77 -21z m95 -66 c14 -13 33
-22 44 -20 15 3 12 8 -17 28 -33 24 -50 50 -31 50 16 0 81 -66 74 -75 -5 -4 5
-5 21 -1 23 6 27 4 23 -8 -4 -9 -2 -16 4 -16 6 0 7 -5 4 -11 -5 -7 -14 -4 -28
8 -20 17 -20 17 -14 0 4 -10 7 -21 7 -23 0 -2 7 -4 15 -4 8 0 19 -9 25 -19 12
-24 13 -34 1 -27 -4 3 -6 -6 -3 -19 2 -14 9 -28 14 -31 6 -4 7 2 3 17 -7 21
-6 22 9 10 9 -7 16 -20 16 -27 0 -8 6 -14 14 -14 8 0 18 -5 22 -12 5 -8 2 -9
-9 -5 -18 7 -24 -8 -7 -18 16 -10 12 -29 -10 -53 -23 -25 -26 -36 -6 -29 8 3
28 -6 46 -21 18 -15 37 -27 44 -28 30 -3 55 -18 59 -35 3 -10 3 -19 1 -19 -11
0 -170 97 -181 110 -10 12 -8 19 10 35 18 16 21 24 14 40 -9 19 -61 61 -108
90 -10 6 -36 21 -58 34 l-41 25 1 65 c0 45 3 60 9 46 4 -11 19 -31 33 -43z
m-53 -3 c0 -54 0 -54 -51 -16 -31 22 -28 54 5 60 45 9 46 8 46 -44z m-32 -47
c18 -14 32 -32 31 -41 -2 -28 1 -41 10 -41 4 0 6 12 3 26 -4 25 -4 26 19 14
41 -22 137 -89 145 -101 4 -8 3 -9 -4 -5 -7 4 -12 3 -12 -3 0 -5 6 -11 13 -14
6 -2 9 -8 4 -12 -4 -5 -21 2 -38 14 -17 13 -33 20 -36 17 -4 -3 0 -6 8 -6 12
0 11 -2 -1 -11 -13 -9 -12 -10 2 -5 11 3 22 -2 29 -15 6 -12 17 -18 25 -15 16
6 17 4 8 -18 -5 -13 -12 -12 -47 8 -92 51 -116 71 -111 88 4 12 -3 22 -20 30
-14 6 -26 16 -26 21 0 6 -3 7 -7 3 -4 -4 3 -16 17 -26 41 -31 15 -34 -29 -3
-44 30 -51 43 -24 43 13 0 14 3 5 12 -17 17 -15 31 3 24 22 -8 18 7 -5 22 -11
7 -20 17 -20 23 0 12 11 6 58 -29z m258 -17 c14 -14 27 -24 29 -22 3 1 21 -10
39 -25 19 -16 39 -28 45 -28 5 0 11 -3 13 -7 2 -5 20 -21 41 -37 21 -15 36
-30 33 -33 -3 -3 -12 0 -20 6 -22 18 -56 5 -51 -19 2 -12 -2 -20 -9 -20 -16 0
-38 24 -30 33 3 3 -4 3 -16 0 -19 -5 -18 -7 15 -28 21 -12 35 -24 33 -27 -1
-3 4 -13 12 -23 13 -16 13 -18 0 -12 -8 4 -23 10 -32 13 -10 4 -18 10 -18 15
0 5 8 6 18 3 16 -5 16 -5 -1 6 -9 6 -20 9 -25 7 -4 -3 -15 6 -25 19 -11 14
-13 24 -6 24 6 0 8 7 5 16 -6 15 -4 15 11 3 16 -13 17 -12 4 4 -7 9 -20 17
-27 17 -7 0 -21 12 -31 28 -10 15 -22 31 -28 35 -6 5 -3 7 8 3 11 -3 17 0 17
9 0 7 -8 16 -18 20 -13 4 -19 15 -19 38 -1 17 1 26 4 19 3 -7 16 -24 29 -37z
m-266 -97 c39 -23 40 -24 40 -80 0 -39 -4 -58 -12 -59 -10 0 -10 -2 0 -6 8 -3
12 -37 12 -118 l0 -113 -30 11 c-16 6 -30 15 -30 20 0 4 -4 6 -8 3 -5 -3 -9 1
-9 9 0 11 5 12 21 4 20 -10 20 -9 -1 9 -29 25 -21 66 11 58 20 -5 21 -5 2 9
-11 8 -23 15 -28 15 -4 0 -8 7 -8 16 0 8 5 12 10 9 11 -7 14 8 3 19 -4 4 -8
22 -8 40 -2 33 -1 34 24 25 l26 -9 -27 23 c-32 26 -39 60 -10 50 13 -5 12 -1
-5 19 -28 30 -29 42 -4 28 35 -18 47 -10 14 10 -30 18 -41 30 -27 30 3 0 23
-10 44 -22z m237 -70 c-3 -8 -6 -5 -6 6 -1 11 2 17 5 13 3 -3 4 -12 1 -19z
m107 -62 c25 -19 51 -36 58 -39 7 -2 10 -8 5 -12 -4 -5 -21 1 -37 13 -16 12
-32 22 -36 22 -11 0 -44 32 -44 42 0 13 8 10 54 -26z m471 -227 c11 -17 0 -20
-21 -4 -17 13 -17 14 -2 15 9 0 20 -5 23 -11z m111 -114 c10 -8 14 -15 8 -15
-5 0 -19 7 -30 15 -10 8 -14 15 -8 15 5 0 19 -7 30 -15z m-730 -21 c24 -14 42
-30 38 -35 -3 -5 1 -6 8 -4 9 4 14 -3 16 -20 1 -14 0 -25 -2 -25 -2 0 -30 12
-62 26 -48 21 -55 28 -40 33 17 7 18 8 3 14 -15 6 -25 37 -11 37 3 0 25 -12
50 -26z m865 -151 c13 -15 12 -15 -8 -4 -24 12 -29 21 -14 21 5 0 15 -7 22
-17z"/>
<path d="M1140 1477 c0 -4 7 -19 16 -33 16 -23 16 -24 -2 -18 -11 4 -16 3 -11
-1 6 -7 24 -11 64 -14 6 -1 19 -8 27 -17 9 -8 16 -11 16 -5 0 6 -12 18 -27 28
-16 9 -40 28 -55 42 -16 13 -28 21 -28 18z"/>
<path d="M1210 1384 c0 -9 43 -43 55 -44 5 0 -2 11 -17 25 -27 25 -38 30 -38
19z"/>
<path d="M1066 1485 c4 -8 11 -15 16 -15 6 0 5 6 -2 15 -7 8 -14 15 -16 15 -2
0 -1 -7 2 -15z"/>
<path d="M1395 1335 c19 -16 24 -25 15 -25 -13 0 -13 -2 0 -9 8 -6 18 -7 22
-5 4 3 8 1 8 -3 0 -5 9 -9 20 -9 11 0 20 4 20 8 0 4 -6 8 -13 8 -7 0 -28 13
-47 30 -19 16 -39 29 -45 29 -5 0 4 -11 20 -24z"/>
<path d="M1360 1330 c0 -5 5 -10 11 -10 5 0 7 5 4 10 -3 6 -8 10 -11 10 -2 0
-4 -4 -4 -10z"/>
<path d="M1066 1021 c10 -10 21 -17 23 -15 6 6 -20 34 -32 34 -6 0 -2 -8 9
-19z"/>
<path d="M2052 1535 c-12 -26 -16 -55 -8 -55 2 0 11 -3 19 -6 17 -6 31 37 22
67 -9 26 -20 24 -33 -6z"/>
<path d="M2156 1543 c-6 -14 -5 -15 5 -6 7 7 10 15 7 18 -3 3 -9 -2 -12 -12z"/>
<path d="M1770 1507 c7 -10 15 -30 16 -44 2 -14 9 -30 16 -34 17 -12 41 -11
34 0 -3 5 1 12 10 15 14 5 16 1 11 -23 -5 -24 -3 -29 8 -24 8 3 15 0 15 -6 0
-6 -6 -11 -14 -11 -12 0 -17 -10 -26 -47 -1 -4 4 -9 11 -12 8 -2 10 2 5 14 -5
14 -2 16 16 10 59 -18 65 -17 71 6 7 27 1 39 -19 39 -27 0 -51 22 -47 44 3 13
-4 29 -17 41 -12 11 -21 15 -20 10 8 -36 -3 -36 -42 0 -23 22 -36 32 -28 22z"/>
<path d="M2555 1491 c-3 -5 -1 -12 5 -16 5 -3 10 1 10 9 0 18 -6 21 -15 7z"/>
<path d="M1900 1441 c0 -24 4 -31 19 -31 11 0 21 9 24 23 6 21 6 21 -8 3 -15
-19 -15 -19 -15 1 0 12 -4 25 -10 28 -6 4 -10 -7 -10 -24z"/>
<path d="M2296 1453 c-6 -14 -5 -15 5 -6 7 7 10 15 7 18 -3 3 -9 -2 -12 -12z"/>
<path d="M1566 1415 c-20 -15 -20 -15 0 -30 21 -16 36 -15 42 3 2 7 -2 10 -11
6 -12 -4 -14 0 -10 15 6 25 4 25 -21 6z"/>
<path d="M2300 1423 c0 -11 48 -59 52 -52 2 2 9 15 17 29 l14 25 -22 -19 c-21
-19 -21 -19 -41 4 -11 13 -20 19 -20 13z"/>
<path d="M1620 1381 c0 -35 24 -66 84 -109 42 -30 46 -31 46 -13 0 11 -9 26
-20 34 -11 8 -17 16 -14 19 3 3 -1 6 -8 5 -41 -1 -49 3 -38 22 7 13 16 17 31
14 34 -9 14 14 -31 37 -50 25 -50 25 -50 -9z m30 -12 c0 -5 5 -7 10 -4 12 8
13 -5 1 -24 -9 -13 -13 -10 -24 22 -4 9 -2 17 3 17 6 0 10 -5 10 -11z"/>
<path d="M2380 1380 c-8 -16 -7 -25 4 -41 14 -21 15 -19 13 20 -1 22 -3 41 -4
41 -1 0 -7 -9 -13 -20z"/>
<path d="M1728 1325 c4 -5 7 -13 7 -17 0 -17 15 -19 15 -2 0 14 2 16 9 5 6
-10 10 -10 16 -1 9 15 0 23 -29 25 -15 0 -22 -4 -18 -10z"/>
<path d="M1866 1299 c3 -5 11 -9 19 -9 7 0 20 -7 29 -15 8 -8 17 -11 20 -7 3
5 -7 15 -22 22 -35 17 -54 21 -46 9z"/>
<path d="M1762 1247 c-26 -61 -28 -74 -6 -56 17 14 54 82 54 99 0 28 -28 4
-48 -43z"/>
<path d="M1816 1235 c-5 -38 -3 -42 37 -78 50 -44 71 -44 75 1 3 26 -4 43 -31
75 -46 56 -73 57 -81 2z m67 -15 c5 0 7 -7 4 -14 -4 -10 -1 -13 8 -10 15 6 30
-30 20 -46 -5 -8 -16 -5 -33 6 -47 31 -54 41 -42 64 6 11 8 20 5 20 -4 0 -3 5
1 12 5 8 11 5 17 -10 6 -12 14 -22 20 -22z"/>
<path d="M2136 1266 c3 -8 13 -17 22 -21 13 -5 13 -2 -3 15 -21 24 -26 25 -19
6z"/>
<path d="M2287 1273 c-2 -5 8 -19 21 -33 19 -19 24 -21 19 -7 -4 10 -7 25 -7
33 0 14 -26 20 -33 7z"/>
<path d="M1951 1259 c2 -7 -1 -28 -5 -46 -7 -29 0 -41 84 -150 51 -65 99 -122
107 -126 12 -7 12 -4 -2 16 -9 14 -18 39 -20 56 -4 30 -42 91 -57 91 -4 0 -4
-8 -1 -17 6 -16 5 -16 -11 -4 -30 25 -75 97 -81 131 -4 20 -2 29 5 25 16 -10
12 11 -6 26 -13 11 -15 11 -13 -2z"/>
<path d="M2551 1233 c7 -12 15 -20 18 -17 3 2 -3 12 -13 22 -17 16 -18 16 -5
-5z"/>
<path d="M2225 1226 c-18 -13 -18 -14 7 -9 21 4 27 0 36 -24 6 -15 11 -23 11
-16 1 18 -18 63 -27 63 -4 0 -17 -6 -27 -14z"/>
<path d="M2757 1234 c-10 -11 -8 -54 2 -54 14 0 25 40 14 51 -5 5 -12 6 -16 3z"/>
<path d="M2170 1223 c0 -6 4 -13 8 -15 16 -6 103 -128 98 -136 -3 -5 1 -9 9
-9 20 0 20 1 -24 60 -61 81 -90 113 -91 100z"/>
<path d="M1980 1216 c0 -2 11 -24 25 -49 23 -40 51 -65 62 -54 8 8 -60 107
-73 107 -8 0 -14 -2 -14 -4z"/>
<path d="M1766 1184 c-9 -24 -8 -26 14 -14 11 6 18 15 15 21 -9 14 -22 11 -29
-7z"/>
<path d="M2551 1180 l-24 -20 24 -44 c42 -81 43 -81 79 -56 17 12 30 25 28 29
-20 42 -65 111 -73 111 -5 -1 -21 -10 -34 -20z m59 -66 c0 -8 5 -14 11 -14 8
0 7 -5 -2 -16 -12 -14 -14 -14 -26 2 -7 10 -13 26 -13 37 0 10 -4 16 -9 13 -8
-5 -8 3 -1 34 2 10 40 -43 40 -56z"/>
<path d="M2267 1143 c15 -24 34 -43 41 -43 18 0 15 20 -5 27 -10 3 -28 18 -41
32 -18 20 -17 16 5 -16z"/>
<path d="M1505 1160 c3 -5 26 -21 49 -35 24 -14 46 -34 49 -44 2 -11 15 -25
28 -31 l24 -13 -20 23 c-23 27 -8 19 52 -26 24 -18 52 -35 63 -39 11 -4 18
-11 14 -16 -3 -6 -12 -8 -20 -5 -7 3 -16 1 -19 -4 -3 -5 -13 -6 -23 -3 -14 6
-15 4 -5 -9 7 -8 11 -17 8 -20 -3 -2 6 -11 20 -18 14 -7 25 -18 25 -23 0 -20
41 -65 65 -69 29 -6 34 8 6 17 -11 3 -25 13 -33 22 -12 15 -11 15 9 5 38 -21
35 -13 -18 39 -37 36 -45 49 -29 44 17 -5 20 -4 15 5 -5 8 -3 11 6 8 8 -3 13
-12 11 -21 -2 -10 6 -19 22 -23 13 -3 26 -14 29 -25 3 -10 13 -22 24 -26 10
-4 39 -22 66 -41 26 -19 47 -30 47 -25 0 5 -11 15 -24 22 -13 7 -43 36 -67 63
-97 110 -199 202 -199 178 0 -16 -13 -11 -45 16 -21 19 -24 24 -10 20 17 -6
17 -4 -4 18 -29 30 -53 36 -26 6 26 -29 11 -25 -37 10 -41 30 -65 39 -53 20z
m215 -120 c14 -11 21 -20 15 -20 -5 0 -21 9 -35 20 -14 11 -20 20 -15 20 6 0
21 -9 35 -20z"/>
<path d="M1145 1144 c36 -28 61 -36 30 -10 -16 14 -34 25 -40 25 -5 0 -1 -7
10 -15z"/>
<path d="M2366 1138 c3 -10 10 -18 14 -18 5 0 23 -47 41 -105 20 -65 37 -104
44 -101 6 2 42 7 78 11 l67 7 -19 32 c-11 17 -36 58 -55 92 -48 82 -59 91 -89
67 -13 -10 -22 -24 -19 -32 2 -7 -12 4 -32 25 -20 22 -33 31 -30 22z m170
-132 c25 -27 43 -50 41 -52 -1 -2 -21 -4 -42 -5 -22 -1 -45 -6 -52 -11 -7 -6
-14 -4 -19 3 -4 8 4 21 22 36 16 12 23 23 16 23 -7 0 -10 4 -7 10 4 6 -3 6
-21 0 -15 -6 -27 -9 -28 -8 -20 34 -24 59 -13 82 l12 27 24 -28 c13 -16 43
-50 67 -77z m-59 -23 c-9 -9 -20 -13 -24 -9 -4 4 -1 11 7 16 25 16 35 11 17
-7z"/>
<path d="M2406 1142 c-2 -4 4 -8 14 -8 10 0 16 4 14 8 -3 4 -9 8 -14 8 -5 0
-11 -4 -14 -8z"/>
<path d="M1300 1121 c5 -11 10 -40 10 -65 0 -25 3 -46 8 -46 4 0 5 21 3 46
l-3 47 30 -22 c17 -11 36 -21 43 -21 7 0 -8 13 -34 30 -26 16 -47 34 -47 40 0
5 -5 10 -10 10 -7 0 -7 -6 0 -19z"/>
<path d="M1330 1136 c0 -3 9 -10 20 -16 11 -6 20 -8 20 -6 0 3 -9 10 -20 16
-11 6 -20 8 -20 6z"/>
<path d="M1524 1105 c9 -36 24 -55 42 -55 22 0 16 18 -17 53 l-32 32 7 -30z"/>
<path d="M1250 1116 c0 -3 9 -10 20 -16 11 -6 20 -8 20 -6 0 3 -9 10 -20 16
-11 6 -20 8 -20 6z"/>
<path d="M1231 1092 c24 -18 59 -35 59 -28 0 5 -69 46 -77 46 -3 0 5 -8 18
-18z"/>
<path d="M2331 1091 c-15 -11 -20 -21 -13 -25 6 -3 15 1 20 10 7 12 11 13 17
4 14 -23 -10 -35 -83 -39 -13 0 -20 -5 -17 -11 6 -10 52 -9 95 2 8 1 14 -3 12
-10 -1 -7 6 -25 17 -38 11 -14 25 -42 32 -62 6 -20 18 -46 27 -57 14 -20 14
-20 9 0 -13 48 -82 244 -87 244 -3 0 -16 -8 -29 -18z"/>
<path d="M2090 1086 c0 -2 8 -10 18 -17 15 -13 16 -12 3 4 -13 16 -21 21 -21
13z"/>
<path d="M1159 1063 c-13 -16 -12 -17 4 -4 9 7 17 15 17 17 0 8 -8 3 -21 -13z"/>
<path d="M2700 1055 c13 -14 26 -25 28 -25 3 0 -5 11 -18 25 -13 14 -26 25
-28 25 -3 0 5 -11 18 -25z"/>
<path d="M1510 1052 c0 -4 19 -20 42 -35 23 -15 35 -27 28 -27 -10 -1 -5 -9
12 -24 15 -13 24 -27 21 -30 -3 -3 2 -9 11 -12 10 -4 22 -16 26 -28 7 -17 9
-18 9 -3 1 9 7 17 14 17 6 1 2 6 -10 13 -23 13 -69 67 -57 67 8 0 -27 27 -68
53 -16 10 -28 14 -28 9z"/>
<path d="M1237 1039 c7 -7 15 -10 18 -7 3 3 -2 9 -12 12 -14 6 -15 5 -6 -5z"/>
<path d="M1334 1041 c7 -10 86 -53 86 -46 0 6 -73 55 -83 55 -4 0 -6 -4 -3 -9z"/>
<path d="M1591 1041 c-9 -6 2 -17 33 -35 25 -15 46 -31 46 -37 0 -5 -12 -2
-27 8 l-28 18 25 -28 c14 -14 30 -27 36 -27 12 0 12 29 0 48 -10 17 4 15 26
-5 10 -9 18 -11 18 -5 0 16 -58 54 -62 41 -2 -6 -14 -2 -29 10 -15 11 -30 16
-38 12z"/>
<path d="M1930 1046 c0 -2 8 -10 18 -17 15 -13 16 -12 3 4 -13 16 -21 21 -21
13z"/>
<path d="M2120 1030 c0 -5 5 -10 11 -10 5 0 7 5 4 10 -3 6 -8 10 -11 10 -2 0
-4 -4 -4 -10z"/>
<path d="M1136 1020 c6 -6 49 -30 95 -54 76 -38 85 -46 90 -77 6 -33 6 -33 8
10 0 24 -2 42 -5 39 -5 -6 -121 49 -147 70 -7 5 -21 12 -32 16 -15 5 -17 4 -9
-4z"/>
<path d="M1491 1014 c0 -11 3 -14 6 -6 3 7 2 16 -1 19 -3 4 -6 -2 -5 -13z"/>
<path d="M1340 1005 c0 -2 18 -14 40 -25 22 -11 40 -18 40 -15 0 2 -18 14 -40
25 -22 11 -40 18 -40 15z"/>
<path d="M1311 995 c1 -19 18 -51 18 -35 0 8 -4 22 -9 30 -5 8 -9 11 -9 5z"/>
<path d="M2861 969 c-14 -40 -14 -39 4 -39 8 0 19 10 26 21 9 17 8 24 -4 36
-13 13 -16 11 -26 -18z"/>
<path d="M1430 986 c0 -5 155 -98 230 -138 129 -69 169 -98 164 -116 -4 -12
-3 -14 3 -4 8 10 12 10 23 -3 10 -12 10 -15 -1 -15 -8 -1 -3 -7 11 -15 34 -19
48 -19 24 1 -16 13 -16 15 -2 10 25 -7 20 42 -5 56 -16 8 -17 7 -7 -11 7 -13
7 -21 1 -21 -6 0 -15 8 -20 19 -6 10 -25 26 -43 35 l-33 17 30 -5 30 -6 -30
16 c-16 10 -39 18 -50 19 -11 1 -23 3 -28 4 -4 0 -6 14 -5 29 2 35 -8 53 -27
46 -8 -4 -13 -10 -10 -14 3 -4 -2 -13 -10 -20 -12 -10 -27 -4 -80 29 -35 23
-69 41 -74 41 -5 0 -11 3 -13 8 -3 7 -78 44 -78 38z m285 -106 c3 -5 1 -10 -4
-10 -6 0 -11 5 -11 10 0 6 2 10 4 10 3 0 8 -4 11 -10z m-5 -30 c0 -5 -2 -10
-4 -10 -3 0 -8 5 -11 10 -3 6 -1 10 4 10 6 0 11 -4 11 -10z"/>
<path d="M1910 976 c0 -2 8 -10 18 -17 15 -13 16 -12 3 4 -13 16 -21 21 -21
13z"/>
<path d="M1948 968 c5 -5 17 -11 26 -12 10 -1 21 -7 24 -12 4 -5 14 -13 23
-19 59 -36 129 -98 123 -108 -4 -7 -4 -9 1 -5 4 4 14 0 21 -10 16 -21 18 -36
3 -26 -7 4 -10 1 -7 -6 2 -8 9 -15 15 -17 19 -7 7 45 -20 86 -33 50 -152 135
-190 137 -18 1 -25 -2 -19 -8z"/>
<path d="M1345 960 c3 -5 8 -10 11 -10 2 0 4 5 4 10 0 6 -5 10 -11 10 -5 0 -7
-4 -4 -10z"/>
<path d="M2340 955 c0 -2 9 -9 20 -15 16 -9 18 -8 14 5 -5 13 -34 22 -34 10z"/>
<path d="M1145 940 c3 -5 11 -10 16 -10 6 0 7 5 4 10 -3 6 -11 10 -16 10 -6 0
-7 -4 -4 -10z"/>
<path d="M1370 946 c0 -2 7 -7 16 -10 8 -3 12 -2 9 4 -6 10 -25 14 -25 6z"/>
<path d="M1341 917 c2 -1 13 -9 24 -17 19 -14 19 -14 6 3 -7 9 -18 17 -24 17
-6 0 -8 -1 -6 -3z"/>
<path d="M2166 911 c-4 -5 3 -7 14 -4 23 6 26 13 6 13 -8 0 -17 -4 -20 -9z"/>
<path d="M2687 898 c-18 -19 -18 -20 4 -39 23 -20 41 -17 21 3 -7 7 -12 19
-12 27 0 11 5 10 22 -5 l21 -19 -18 28 c-9 15 -18 27 -19 26 0 0 -9 -10 -19
-21z"/>
<path d="M2527 889 c-30 -16 -42 -18 -53 -8 -19 15 -18 4 2 -26 18 -27 37 -34
28 -11 -4 10 8 22 35 36 38 19 51 31 34 30 -5 -1 -25 -10 -46 -21z"/>
<path d="M2140 886 c0 -3 11 -17 24 -31 17 -18 26 -22 32 -14 4 7 -2 20 -16
31 -21 17 -40 23 -40 14z"/>
<path d="M2057 869 c6 -8 26 -23 45 -33 21 -13 29 -14 21 -5 -6 8 -26 23 -45
33 -21 13 -29 14 -21 5z"/>
<path d="M2796 858 c-22 -32 -20 -45 12 -63 l27 -16 -27 4 c-26 4 -35 -2 -22
-16 6 -6 63 11 77 22 4 4 4 22 1 39 -4 18 -9 30 -12 27 -3 -3 -13 2 -23 11
-16 14 -18 13 -33 -8z m27 -28 c6 -24 -5 -26 -23 -5 -9 11 -9 15 -1 15 7 0 9
5 5 12 -4 6 -3 8 3 5 6 -4 13 -16 16 -27z"/>
<path d="M1475 840 c16 -11 33 -27 37 -37 6 -15 7 -15 7 4 1 15 -9 28 -29 38
-41 21 -51 19 -15 -5z"/>
<path d="M2731 834 l-23 -24 26 -27 c30 -29 33 -55 10 -74 -14 -12 -16 -11
-12 6 2 13 -5 24 -21 33 -31 16 -44 4 -28 -28 14 -27 36 -35 73 -26 20 5 24
13 24 41 0 24 -6 37 -20 45 -18 10 -19 13 -5 26 23 23 18 26 -12 7 l-28 -17
24 27 c31 34 24 44 -8 11z"/>
<path d="M1850 840 c0 -6 8 -13 18 -16 9 -3 28 -10 42 -16 23 -9 23 -11 8 -22
-16 -12 -16 -15 9 -37 26 -24 27 -23 7 26 -12 30 18 16 51 -24 18 -21 18 -24
3 -18 -32 12 -19 -9 17 -26 28 -14 33 -14 28 -2 -3 8 -9 15 -14 15 -5 0 -9 7
-9 16 0 10 6 14 15 10 8 -3 15 -2 15 3 0 5 -21 18 -47 30 -27 12 -67 32 -91
46 -48 28 -52 29 -52 15z"/>
<path d="M1320 830 c0 -5 5 -10 11 -10 5 0 7 5 4 10 -3 6 -8 10 -11 10 -2 0
-4 -4 -4 -10z"/>
<path d="M2300 830 c-9 -6 -10 -10 -3 -10 6 0 15 5 18 10 8 12 4 12 -15 0z"/>
<path d="M1530 816 c0 -7 173 -97 177 -92 2 2 -13 13 -34 24 -21 10 -60 31
-87 46 -50 27 -56 29 -56 22z"/>
<path d="M1862 794 c10 -10 20 -15 24 -12 3 4 -5 12 -18 18 -22 12 -22 12 -6
-6z"/>
<path d="M2111 807 c2 -1 13 -9 24 -17 19 -14 19 -14 6 3 -7 9 -18 17 -24 17
-6 0 -8 -1 -6 -3z"/>
<path d="M1510 770 c0 -5 5 -10 11 -10 5 0 7 5 4 10 -3 6 -8 10 -11 10 -2 0
-4 -4 -4 -10z"/>
<path d="M1720 772 c0 -5 12 -14 27 -21 28 -13 28 -13 9 8 -20 22 -36 27 -36
13z"/>
<path d="M1730 716 c0 -14 4 -27 9 -31 6 -3 8 4 6 15 -4 23 5 26 24 8 11 -10
12 -10 7 -1 -4 7 -16 18 -27 23 -16 9 -19 7 -19 -14z"/>
<path d="M1907 725 c3 -9 19 -23 35 -31 24 -13 27 -18 17 -30 -10 -12 -9 -18
4 -30 10 -7 13 -9 7 -2 -19 23 -10 28 20 13 16 -8 33 -16 37 -16 26 0 53 -13
53 -24 0 -8 5 -17 12 -21 8 -5 9 2 5 25 -6 29 -5 31 13 21 11 -6 20 -7 20 -2
0 5 -11 14 -25 20 -32 15 -38 15 -30 2 8 -13 -18 -13 -31 0 -6 6 -24 12 -41
13 -17 1 -29 5 -27 8 3 5 -63 69 -72 69 -2 0 -1 -7 3 -15z"/>
<path d="M1515 710 c-3 -5 -1 -10 4 -10 6 0 11 5 11 10 0 6 -2 10 -4 10 -3 0
-8 -4 -11 -10z"/>
<path d="M1545 690 c3 -5 11 -10 16 -10 6 0 7 5 4 10 -3 6 -11 10 -16 10 -6 0
-7 -4 -4 -10z"/>
<path d="M1701 684 c0 -11 3 -14 6 -6 3 7 2 16 -1 19 -3 4 -6 -2 -5 -13z"/>
<path d="M1783 674 c0 -7 4 -11 8 -8 5 3 22 -2 38 -11 38 -19 51 -19 25 0 -10
8 -14 14 -9 15 16 0 40 -18 40 -31 0 -7 7 -14 15 -16 13 -4 13 -3 0 6 -13 10
-13 11 0 11 8 0 -3 11 -24 25 -42 25 -93 30 -93 9z m54 0 c-3 -3 -12 -4 -19
-1 -8 3 -5 6 6 6 11 1 17 -2 13 -5z"/>
<path d="M1995 680 c3 -5 8 -10 11 -10 2 0 4 5 4 10 0 6 -5 10 -11 10 -5 0 -7
-4 -4 -10z"/>
<path d="M1580 675 c0 -5 135 -75 144 -75 3 0 3 7 0 15 -4 8 -10 12 -15 9 -5
-3 -21 2 -36 10 -52 28 -93 47 -93 41z"/>
<path d="M1747 652 c-6 -8 66 -54 116 -74 39 -16 3 13 -46 39 -29 14 -55 30
-58 35 -4 7 -9 7 -12 0z"/>
<path d="M1844 626 c11 -9 24 -16 30 -16 12 0 7 5 -24 19 -24 11 -24 11 -6 -3z"/>
<path d="M1920 633 c0 -17 17 -31 68 -57 32 -16 50 -31 46 -38 -4 -7 -3 -8 5
-4 18 11 51 -4 60 -27 5 -12 10 -16 14 -10 4 6 0 18 -8 27 -9 9 -11 17 -5 21
13 8 13 25 -1 25 -5 0 -8 -4 -4 -9 23 -38 -81 2 -144 54 -17 15 -31 23 -31 18z"/>
<path d="M1746 596 c5 -12 54 -29 62 -21 3 3 -56 35 -64 35 -2 0 -1 -6 2 -14z"/>
<path d="M2031 594 c6 -8 18 -14 26 -14 20 0 8 16 -17 23 -17 4 -19 3 -9 -9z"/>
<path d="M1905 560 c3 -5 11 -10 16 -10 6 0 7 5 4 10 -3 6 -11 10 -16 10 -6 0
-7 -4 -4 -10z"/>
<path d="M2170 566 c0 -3 9 -10 20 -16 11 -6 20 -8 20 -6 0 3 -9 10 -20 16
-11 6 -20 8 -20 6z"/>
<path d="M1940 549 c0 -11 121 -71 129 -64 6 7 3 9 -66 43 -35 17 -63 27 -63
21z"/>
<path d="M1840 546 c0 -5 87 -46 96 -46 2 0 1 7 -2 15 -4 8 -10 13 -14 10 -4
-3 -24 2 -44 10 -20 8 -36 13 -36 11z"/>
<path d="M1950 495 c0 -9 5 -15 11 -13 6 2 11 8 11 13 0 5 -5 11 -11 13 -6 2
-11 -4 -11 -13z"/>
<path d="M2176 475 c10 -8 23 -15 28 -15 6 0 1 7 -10 15 -10 8 -23 15 -28 15
-6 0 -1 -7 10 -15z"/>
<path d="M2005 460 c9 -14 65 -42 65 -32 0 5 -16 16 -36 25 -19 10 -33 13 -29
7z"/>
<path d="M2220 456 c0 -2 7 -7 16 -10 8 -3 12 -2 9 4 -6 10 -25 14 -25 6z"/>
<path d="M2160 390 c0 -5 5 -10 11 -10 5 0 7 5 4 10 -3 6 -8 10 -11 10 -2 0
-4 -4 -4 -10z"/>
</g>
</svg>
