 <svg  version="1.0" xmlns="http://www.w3.org/2000/svg"  width="1434.000000pt" height="957.000000pt" viewBox="0 0 1434.000000 957.000000"  preserveAspectRatio="xMidYMid meet">  <g transform="translate(0.000000,957.000000) scale(0.100000,-0.100000)" fill="#00ffff" stroke="none"> <path d="M6769 8881 c-22 -5 -59 -26 -91 -54 -50 -43 -57 -54 -81 -129 -64 -205 -85 -358 -56 -421 9 -19 7 -31 -5 -55 -23 -44 -20 -64 13 -98 15 -16 31 -39 35 -52 6 -16 14 -22 29 -20 18 2 22 9 20 38 -4 79 -3 242 3 251 3 5 18 9 34 9 34 0 60 9 60 21 0 12 -49 35 -91 43 -44 8 -66 28 -47 43 27 22 59 25 78 8 11 -10 25 -15 33 -12 14 5 37 70 37 104 0 18 35 99 80 183 21 39 71 70 112 70 37 0 35 10 -5 37 -61 42 -88 47 -158 34z"/> <path d="M6976 8802 c-5 -9 114 -174 134 -187 5 -3 10 -16 10 -28 0 -12 16 -46 35 -76 20 -29 42 -76 51 -105 9 -28 29 -84 45 -123 16 -40 29 -79 29 -87 0 -7 6 -19 14 -25 8 -7 16 -31 19 -54 3 -23 13 -71 21 -107 50 -202 57 -281 57 -580 1 -134 -9 -187 -47 -275 -7 -16 -16 -42 -19 -57 -5 -25 -10 -28 -48 -28 -48 0 -89 22 -154 83 -24 23 -53 46 -63 51 -11 5 -22 17 -25 27 -5 16 -25 28 -25 16 0 -17 40 -77 76 -114 71 -73 52 -93 -36 -38 -49 31 -104 96 -164 195 -60 99 -83 144 -91 183 -4 22 -11 27 -36 27 -31 0 -31 -1 -24 -37 4 -20 20 -61 36 -90 16 -28 29 -57 29 -63 0 -6 23 -44 51 -85 54 -78 125 -149 159 -160 14 -5 19 -12 15 -24 -5 -15 -1 -17 21 -13 22 4 26 2 21 -11 -6 -16 24 -36 79 -51 39 -12 115 31 185 105 100 104 103 119 102 459 0 176 -5 293 -13 325 -6 28 -15 70 -20 95 -4 25 -17 70 -29 100 -11 30 -25 73 -30 95 -21 86 -39 142 -63 195 -14 30 -33 75 -42 100 -10 25 -22 52 -27 60 -5 8 -12 22 -16 30 -3 8 -18 31 -33 50 -15 19 -30 44 -34 55 -26 71 -134 192 -150 167z m194 -1772 c8 -5 12 -12 8 -15 -9 -9 -48 4 -48 16 0 12 21 11 40 -1z"/> <path d="M6511 8733 c-1 -6 -7 -18 -14 -25 -7 -7 -24 -35 -37 -63 -13 -27 -30 -56 -37 -63 -7 -7 -13 -25 -13 -40 0 -28 -22 -99 -42 -135 -22 -42 -41 -225 -39 -377 2 -149 6 -188 24 -207 9 -11 17 -25 17 -31 0 -7 9 -29 20 -49 11 -21 20 -47 20 -59 0 -12 7 -28 16 -35 9 -8 25 -32 36 -54 11 -22 30 -60 43 -85 13 -25 27 -62 30 -83 8 -42 32 -61 70 -51 28 7 56 -8 105 -56 17 -17 35 -30 40 -30 22 0 7 36 -49 118 -33 48 -67 105 -77 127 -10 22 -30 58 -45 80 -14 22 -34 61 -43 86 -10 26 -36 67 -57 90 -22 24 -45 62 -50 84 -6 22 -15 51 -20 65 -29 81 -38 348 -14 415 8 22 15 51 15 65 0 13 6 42 14 65 8 22 17 57 21 77 3 21 17 51 30 67 14 16 25 37 25 48 0 10 5 24 11 30 6 6 9 17 6 25 -3 8 -6 9 -6 1z"/> <path d="M6775 8330 c5 -21 2 -39 -9 -55 -9 -13 -16 -44 -16 -67 1 -53 30 -140 49 -146 12 -4 13 10 8 80 -6 74 -5 87 11 100 33 29 51 28 103 -3 56 -35 111 -43 117 -18 2 10 -15 24 -52 42 -30 15 -61 27 -68 27 -8 0 -40 16 -72 35 -32 19 -63 35 -68 35 -5 0 -7 -13 -3 -30z"/> <path d="M7095 8200 c-9 -15 4 -50 20 -50 17 0 26 35 12 49 -14 14 -24 14 -32 1z"/> <path d="M7160 8133 c1 -5 7 -19 15 -33 8 -14 14 -39 15 -56 0 -16 6 -39 14 -50 14 -18 15 -18 22 -1 10 27 -4 108 -23 129 -16 18 -43 25 -43 11z"/> <path d="M7070 8094 c0 -9 5 -14 12 -12 18 6 21 28 4 28 -9 0 -16 -7 -16 -16z"/> <path d="M6543 8033 c9 -47 28 -116 34 -126 8 -14 32 33 33 65 0 15 -8 33 -18 40 -10 7 -21 21 -25 31 -11 28 -30 20 -24 -10z"/> <path d="M7058 8012 c-37 -22 -38 -64 -2 -89 14 -10 38 -29 55 -41 16 -13 41 -27 56 -31 36 -9 42 -48 14 -80 -11 -13 -23 -40 -27 -60 -3 -20 -10 -49 -16 -64 -6 -15 -8 -30 -5 -33 9 -9 27 6 27 22 0 8 9 23 20 34 11 11 20 29 20 40 0 29 39 122 61 146 10 11 19 28 19 37 0 25 -38 21 -60 -5 l-19 -23 -11 32 c-7 18 -19 35 -29 38 -9 2 -25 24 -36 47 -23 49 -30 52 -67 30z"/> <path d="M6180 8010 c0 -13 11 -13 30 0 12 8 11 10 -7 10 -13 0 -23 -4 -23 -10z"/> <path d="M5989 7976 c-25 -6 -66 -26 -93 -44 -26 -18 -54 -32 -64 -32 -15 0 -15 -1 0 -16 13 -13 14 -22 6 -45 -12 -36 -28 -28 -28 12 0 51 -25 28 -28 -26 -5 -68 5 -88 25 -51 14 27 17 28 28 13 15 -21 54 -22 61 -2 9 22 8 56 0 87 -7 22 -4 29 10 34 38 12 99 36 114 45 8 5 25 13 38 19 51 22 6 26 -69 6z"/> <path d="M6817 7963 c-4 -3 -7 -21 -7 -38 0 -32 -1 -33 -52 -39 -29 -4 -66 -8 -83 -10 -16 -1 -38 -3 -49 -4 -16 -2 -18 -8 -12 -44 9 -56 70 -184 92 -192 48 -19 69 24 36 72 -30 43 -52 93 -52 118 0 22 3 23 50 17 34 -4 55 -2 66 8 9 7 25 18 37 24 29 15 41 38 33 68 -5 20 -13 27 -30 27 -12 0 -26 -3 -29 -7z"/> <path d="M6078 7766 c-13 -29 -5 -56 17 -56 11 0 15 11 15 40 0 45 -15 52 -32 16z"/> <path d="M7004 7754 c-21 -15 -46 -36 -54 -48 -7 -11 -33 -39 -56 -61 -58 -56 -100 -123 -86 -137 8 -8 17 -7 34 4 33 22 173 191 212 256 12 20 -8 14 -50 -14z"/> <path d="M5836 7719 c-33 -26 -33 -46 -1 -61 34 -15 85 6 85 36 0 47 -41 59 -84 25z"/> <path d="M6266 7709 c-7 -26 -42 -49 -71 -49 -8 0 -15 -6 -15 -13 0 -22 -57 -64 -96 -70 -34 -6 -53 -20 -54 -39 0 -14 57 -8 70 7 8 10 30 15 61 15 26 0 51 5 54 10 3 6 14 10 24 10 41 0 51 21 43 90 -7 53 -10 60 -16 39z"/> <path d="M5850 7614 c-65 -28 -69 -64 -7 -64 52 0 89 23 85 53 -4 28 -32 31 -78 11z"/> <path d="M7092 7560 c-13 -16 -25 -44 -29 -62 -3 -18 -12 -45 -19 -60 -17 -33 -18 -72 -3 -100 18 -34 71 -88 86 -88 17 0 17 1 -6 52 -56 124 -54 110 -21 173 28 54 40 115 22 115 -5 0 -18 -13 -30 -30z"/> <path d="M5886 7520 c-15 -5 -37 -17 -47 -26 -17 -15 -18 -19 -4 -34 18 -20 10 -30 -22 -30 -18 0 -27 8 -35 32 -11 30 -12 31 -20 9 -5 -16 -2 -34 13 -63 l20 -40 52 7 c29 4 83 7 120 7 77 0 77 -6 5 67 -14 15 -28 38 -30 51 -4 28 -13 31 -52 20z"/> <path d="M6279 7471 c-54 -15 -89 -35 -89 -51 0 -4 12 -12 26 -19 19 -8 30 -9 40 -1 8 8 32 9 67 5 79 -10 117 0 117 31 0 19 -8 29 -35 40 -41 17 -53 16 -126 -5z"/> <path d="M6093 7407 c-40 -21 -42 -23 -23 -35 13 -8 20 -23 20 -42 0 -36 2 -36 40 -8 29 21 30 21 50 3 11 -10 20 -26 20 -36 0 -10 5 -21 10 -24 25 -15 43 -86 50 -195 10 -150 28 -335 46 -485 8 -66 14 -129 14 -140 0 -11 6 -35 12 -54 6 -19 11 -62 12 -95 l1 -61 60 0 c33 0 65 -3 72 -8 14 -9 27 8 18 23 -11 18 -35 222 -35 302 0 90 -6 114 -25 98 -11 -9 -11 -18 1 -47 19 -44 7 -62 -29 -46 -21 10 -25 21 -30 70 -4 32 -8 69 -9 83 -3 21 2 26 25 28 27 3 27 4 27 73 0 39 -5 79 -10 90 -17 31 -41 343 -31 389 9 39 8 40 -23 49 -41 11 -48 6 -41 -32 3 -18 1 -54 -3 -82 l-8 -50 -8 42 c-10 57 -42 139 -52 135 -41 -14 -56 -13 -70 4 -8 11 -13 29 -11 41 2 13 -2 24 -10 27 -18 7 -10 9 -60 -17z m347 -921 c0 -8 -4 -17 -8 -20 -13 -8 -35 11 -28 23 10 16 36 14 36 -3z m-27 -142 c-16 -33 -18 -34 -25 -13 -9 24 5 49 28 49 11 0 10 -7 -3 -36z"/> <path d="M6452 7368 c-18 -18 -15 -38 6 -38 26 0 56 25 48 38 -9 15 -39 15 -54 0z"/> <path d="M7160 7215 c0 -8 7 -15 16 -15 14 0 14 3 4 15 -7 8 -14 15 -16 15 -2 0 -4 -7 -4 -15z"/> <path d="M6363 6174 c-26 -29 -28 -41 -11 -81 6 -15 12 -57 13 -93 1 -36 7 -85 14 -110 6 -25 15 -108 21 -186 5 -77 13 -152 19 -165 5 -13 12 -77 16 -142 l7 -118 44 -36 c45 -36 54 -56 31 -70 -20 -12 -57 -90 -57 -121 0 -15 6 -36 13 -47 10 -14 14 -63 15 -168 2 -114 5 -154 17 -170 11 -16 15 -50 15 -133 0 -74 5 -121 14 -140 7 -16 17 -73 20 -126 4 -54 11 -110 17 -125 6 -16 9 -64 8 -108 -2 -44 0 -86 5 -93 11 -18 61 -14 79 6 16 17 16 27 2 118 -8 54 -32 266 -54 469 -22 204 -46 407 -52 452 -6 45 -12 115 -14 155 -1 40 -8 100 -14 133 -6 33 -15 105 -20 160 -43 430 -61 589 -71 625 -12 42 2 62 36 54 22 -6 24 -3 24 31 0 35 -2 37 -25 31 -15 -4 -37 0 -55 9 -36 19 -31 20 -57 -11z"/> <path d="M6510 5945 c0 -19 4 -35 8 -35 4 0 6 16 4 35 -2 19 -6 35 -8 35 -2 0 -4 -16 -4 -35z"/> <path d="M6530 5758 c0 -46 5 -110 10 -143 6 -33 15 -103 20 -155 7 -59 16 -100 25 -109 13 -14 15 -10 15 29 -1 129 -46 460 -62 460 -4 0 -8 -37 -8 -82z"/> <path d="M6080 5581 c-13 -26 -13 -136 1 -186 14 -50 141 -175 178 -175 7 0 29 -18 49 -40 35 -40 90 -80 109 -80 5 0 17 17 26 38 l17 37 -27 23 c-16 13 -45 38 -65 55 -41 34 -47 47 -23 47 8 0 15 5 15 10 0 6 -9 10 -20 10 -11 0 -20 -4 -20 -10 0 -5 -7 -10 -15 -10 -18 0 -127 59 -137 74 -12 17 -9 76 3 76 17 0 1 111 -18 133 -21 23 -60 22 -73 -2z"/> <path d="M6200 5409 c0 -19 25 -43 38 -37 5 1 -2 14 -14 28 -18 19 -24 21 -24 9z"/> <path d="M6596 5308 c-9 -36 -7 -116 4 -123 6 -4 10 22 10 69 0 79 -3 92 -14 54z"/> <path d="M6633 4970 c0 -25 2 -35 4 -22 2 12 2 32 0 45 -2 12 -4 2 -4 -23z"/> <path d="M6634 4854 c4 -16 11 -77 16 -136 5 -59 12 -113 15 -119 4 -5 12 -63 18 -126 7 -68 17 -118 23 -120 15 -5 23 27 13 52 -4 11 -8 63 -8 115 -1 55 -7 112 -16 135 -8 22 -14 60 -15 85 0 25 -7 58 -15 74 -8 15 -15 34 -15 42 0 7 -5 16 -11 20 -9 5 -10 -1 -5 -22z"/> <path d="M7206 4561 c-14 -15 -17 -31 -13 -68 3 -26 10 -100 16 -163 7 -63 18 -137 26 -164 9 -33 11 -55 4 -67 -12 -24 -12 -26 7 -33 36 -14 43 10 37 127 -3 62 -12 137 -19 167 -18 69 -19 160 -1 161 53 5 82 -16 42 -31 -25 -10 -27 -14 -21 -48 3 -20 6 -45 6 -54 0 -10 5 -18 10 -18 6 0 10 10 10 23 0 15 9 29 25 37 22 12 28 11 48 -7 12 -11 63 -35 114 -52 56 -19 105 -43 125 -61 18 -17 39 -30 46 -30 15 0 52 -15 152 -61 36 -17 79 -36 95 -44 92 -40 206 -99 212 -108 4 -6 12 -72 19 -147 15 -168 32 -300 49 -365 26 -101 35 -185 40 -400 6 -220 21 -346 59 -475 9 -30 16 -71 16 -91 0 -19 5 -40 12 -47 7 -7 12 -82 14 -234 2 -123 10 -281 18 -353 19 -161 17 -169 -37 -161 -22 4 -61 13 -86 20 -84 25 -141 36 -181 36 -46 0 -111 30 -157 73 -21 20 -51 33 -95 43 -80 17 -76 17 -83 -5 -8 -25 -31 -34 -55 -21 -21 11 -35 55 -45 143 -4 32 -15 77 -26 100 -10 23 -19 61 -19 85 0 23 -4 42 -10 42 -12 0 -4 -175 10 -235 5 -22 10 -58 10 -80 1 -48 24 -80 65 -89 208 -46 285 -68 285 -82 0 -7 -5 -14 -12 -16 -20 -7 29 -48 57 -48 13 0 39 -6 57 -14 45 -20 222 -49 248 -41 27 9 16 25 -18 25 -29 0 -60 15 -51 25 3 3 40 2 82 -3 85 -9 120 2 133 40 7 22 8 22 20 -7 15 -35 18 -79 5 -71 -11 7 -61 -10 -61 -21 0 -5 30 -28 66 -53 37 -25 74 -54 83 -65 23 -29 62 -55 84 -55 10 0 30 -13 45 -28 15 -16 44 -41 65 -57 l38 -28 53 16 c29 10 56 17 59 17 4 0 7 -16 7 -35 0 -19 -1 -35 -3 -35 -1 0 -16 4 -34 9 -30 9 -31 8 -24 -12 4 -12 29 -36 56 -54 26 -17 62 -45 79 -60 17 -16 45 -38 61 -48 17 -10 41 -29 55 -41 14 -13 41 -36 62 -51 109 -84 157 -127 162 -148 4 -14 18 -27 36 -33 16 -6 30 -16 30 -21 0 -6 7 -11 16 -11 13 0 15 14 11 103 -11 233 -60 633 -93 752 -14 52 -29 158 -44 305 -11 102 -35 235 -49 273 -6 16 -11 44 -11 62 0 19 -4 44 -10 57 -11 25 -50 326 -50 384 0 19 -6 56 -14 82 -8 26 -22 97 -31 157 -10 61 -21 132 -26 160 -5 31 -5 62 2 85 23 77 -6 109 -69 76 -29 -15 -29 -15 -83 38 -30 29 -70 70 -90 92 -55 59 -124 124 -132 124 -4 0 -83 76 -175 168 -92 92 -185 181 -206 197 -22 17 -58 49 -79 73 -22 23 -45 42 -52 42 -7 0 -20 11 -28 24 -9 13 -33 30 -54 36 -21 7 -76 30 -123 52 -47 22 -101 47 -120 55 -19 9 -47 22 -62 29 -14 8 -32 14 -39 14 -7 0 -20 6 -28 14 -23 19 -112 66 -206 106 -44 18 -89 40 -100 47 -11 7 -28 13 -38 13 -9 0 -44 14 -77 30 -70 35 -81 36 -104 11z m1119 -641 c14 -22 34 -46 46 -52 11 -7 29 -28 41 -46 11 -18 37 -44 58 -57 47 -30 64 -74 79 -205 23 -201 31 -246 45 -285 8 -22 15 -59 16 -82 0 -23 5 -45 10 -48 6 -4 10 -57 11 -123 0 -64 4 -151 9 -192 5 -41 15 -140 24 -220 19 -180 30 -246 44 -262 21 -25 43 -185 46 -338 5 -192 19 -318 46 -392 35 -101 19 -156 -32 -108 -13 12 -34 28 -48 35 -14 7 -40 30 -59 50 -18 19 -48 42 -67 50 -40 17 -84 82 -84 127 0 18 -10 67 -21 108 -27 96 -37 174 -49 390 -6 96 -14 204 -19 240 -27 197 -42 287 -52 304 -10 17 -18 122 -23 291 -4 135 -19 257 -58 470 -24 130 -51 363 -43 375 3 6 17 10 30 10 18 0 32 -11 50 -40z m397 -367 c9 -10 19 -29 23 -42 4 -14 23 -39 41 -57 21 -19 34 -41 34 -56 0 -14 7 -42 15 -61 11 -26 15 -74 16 -164 0 -70 4 -150 10 -178 5 -27 13 -88 18 -135 5 -47 18 -119 29 -160 12 -44 23 -125 27 -195 6 -125 17 -209 40 -310 8 -33 17 -80 21 -105 3 -25 12 -70 19 -100 7 -30 16 -122 20 -205 3 -82 11 -172 16 -200 6 -27 15 -84 20 -125 6 -41 17 -86 24 -100 7 -14 16 -42 20 -62 6 -30 3 -38 -16 -52 -28 -19 -42 -21 -36 -3 8 21 -20 62 -55 81 -53 28 -77 81 -87 188 -5 51 -18 121 -30 155 -16 47 -21 88 -22 165 0 57 -5 126 -10 153 -6 28 -14 93 -18 145 -5 52 -14 113 -20 135 -6 22 -11 62 -11 88 0 27 -6 63 -14 80 -16 37 -35 186 -46 377 -10 167 -26 283 -45 333 -8 20 -15 64 -15 98 0 33 -7 76 -16 97 -21 50 -30 212 -12 223 21 14 44 10 60 -8z m175 -169 c-9 -9 -28 6 -21 18 4 6 10 6 17 -1 6 -6 8 -13 4 -17z m63 -64 c0 -5 13 -29 30 -52 31 -45 37 -79 60 -333 4 -49 13 -106 19 -125 6 -19 11 -56 11 -83 0 -26 7 -64 15 -84 8 -19 15 -57 15 -82 0 -26 6 -70 14 -97 8 -27 17 -89 20 -139 3 -49 15 -139 27 -200 11 -60 24 -141 29 -180 5 -38 18 -115 30 -170 11 -55 24 -161 29 -235 5 -74 14 -148 20 -163 6 -16 11 -45 11 -66 0 -20 11 -75 25 -121 24 -85 22 -105 -10 -98 -28 5 -57 52 -71 115 -25 118 -47 198 -57 208 -9 10 -7 -40 9 -219 l6 -69 -29 18 -30 17 5 125 c3 79 1 132 -6 146 -6 12 -16 63 -21 112 -6 50 -16 115 -22 146 -7 32 -8 69 -4 85 l8 29 7 -25 c5 -14 8 -46 9 -71 1 -32 6 -49 16 -53 12 -4 15 -25 15 -100 0 -52 4 -97 9 -101 18 -10 22 36 12 123 -6 48 -13 139 -17 202 -4 63 -13 130 -20 149 -8 18 -14 45 -14 60 0 14 -11 71 -25 126 -17 69 -27 151 -34 265 -6 101 -18 198 -31 250 -29 119 -50 273 -60 425 -4 72 -13 155 -21 186 -12 56 -9 89 11 89 5 0 10 -4 10 -10z m59 -937 c1 -12 -3 -25 -9 -28 -6 -4 -10 12 -9 42 0 36 3 43 9 28 5 -11 9 -30 9 -42z m51 -479 c0 -27 -4 -43 -10 -39 -17 11 -11 85 7 85 2 0 3 -21 3 -46z m-231 -146 c0 -10 -3 -18 -9 -18 -5 0 -9 21 -9 48 1 42 2 44 9 17 4 -16 8 -38 9 -47z m-669 16 c0 -2 -15 -4 -32 -4 -23 0 -29 3 -19 9 12 8 51 4 51 -5z m694 -232 c4 -49 3 -63 -7 -59 -11 4 -19 101 -9 120 7 13 9 5 16 -61z m-214 12 c0 -14 -3 -14 -15 -4 -8 7 -15 14 -15 16 0 2 7 4 15 4 8 0 15 -7 15 -16z m610 -469 c0 -8 -7 -15 -15 -15 -8 0 -15 7 -15 15 0 8 7 15 15 15 8 0 15 -7 15 -15z m113 -66 c-8 -8 -16 -8 -30 0 -16 9 -14 10 12 11 21 0 26 -3 18 -11z"/> <path d="M7317 4321 c-11 -55 -8 -135 7 -156 8 -12 16 -59 19 -110 6 -104 31 -243 45 -257 6 -6 16 -7 22 -3 9 6 11 30 7 86 -4 43 -2 81 2 83 5 3 21 -4 35 -15 15 -12 29 -20 30 -18 2 2 11 31 19 64 14 54 14 62 0 78 -9 9 -27 17 -40 17 -20 0 -23 -4 -18 -20 5 -16 2 -20 -14 -20 -13 0 -21 6 -21 16 0 9 -9 18 -19 21 -25 6 -38 42 -46 128 -3 39 -9 86 -14 105 l-7 35 -7 -34z"/> <path d="M6717 4268 c-2 -7 -1 -22 4 -33 6 -16 8 -14 8 13 1 33 -4 41 -12 20z"/> <path d="M5490 4042 c-23 -18 -23 -19 -10 -135 11 -94 11 -119 0 -132 -17 -21 -53 -19 -100 5 -22 11 -49 20 -61 20 -11 0 -33 6 -47 14 -15 8 -47 22 -72 31 -25 9 -53 21 -62 26 -23 12 -94 38 -133 49 -16 4 -55 18 -85 29 -47 18 -68 20 -142 15 -55 -4 -86 -11 -85 -18 1 -6 -15 -12 -37 -14 -21 -2 -50 -10 -63 -19 -20 -13 -42 -15 -127 -9 -86 5 -105 4 -116 -9 -7 -8 -28 -15 -47 -15 -33 0 -71 -19 -105 -52 -10 -10 -31 -18 -47 -18 -16 0 -44 -6 -62 -14 -19 -7 -65 -16 -103 -20 -56 -6 -72 -4 -87 10 -24 22 -79 11 -79 -17 0 -21 -10 -25 -27 -8 -19 19 -77 6 -88 -19 -8 -18 -17 -22 -45 -20 -33 3 -35 1 -44 -40 -12 -57 0 -69 45 -43 37 22 158 52 284 70 195 29 229 36 254 56 17 13 53 24 111 31 138 18 453 74 483 86 26 10 31 19 28 45 -3 26 22 24 52 -4 29 -27 111 -73 131 -73 8 0 254 -84 291 -100 117 -49 186 -58 235 -33 58 30 68 123 15 143 -30 11 -30 12 -7 50 l19 30 26 -28 c14 -15 28 -40 30 -57 6 -34 -1 46 -9 118 -9 74 -65 108 -114 69z"/> <path d="M6740 4006 c0 -27 24 -56 45 -56 22 0 27 18 6 25 -10 3 -22 17 -25 30 -8 32 -26 32 -26 1z"/> <path d="M7223 4010 c-34 -20 -41 -34 -23 -45 17 -10 70 24 70 45 0 25 -7 25 -47 0z"/> <path d="M6865 3989 c-11 -17 1 -21 44 -14 57 9 61 25 7 25 -25 0 -48 -5 -51 -11z"/> <path d="M7245 3930 c-11 -5 -43 -9 -70 -9 -28 -1 -56 -6 -63 -13 -6 -6 -33 -15 -59 -19 -63 -11 -144 -27 -220 -45 -34 -8 -81 -14 -105 -15 -59 0 -181 -32 -186 -48 -7 -21 145 -10 181 13 17 12 36 16 51 12 23 -6 24 -10 30 -113 3 -60 6 -124 7 -143 0 -19 5 -40 11 -47 14 -18 2 -60 -21 -68 -23 -7 -71 10 -71 26 0 8 -16 10 -52 5 -67 -8 -228 -42 -292 -61 -27 -8 -66 -13 -90 -10 -35 5 -38 4 -16 -5 35 -15 35 -18 15 -41 -25 -26 -13 -47 45 -76 24 -12 82 -60 129 -106 88 -85 141 -127 141 -110 0 8 -107 117 -206 210 -13 12 -24 27 -24 33 0 15 64 41 125 51 44 7 116 24 181 44 31 10 34 -3 14 -62 -17 -51 -16 -54 4 -98 22 -47 24 -49 43 -37 17 11 18 32 4 92 -19 79 -14 96 27 92 18 -2 32 1 32 7 0 14 64 14 114 0 31 -8 46 -8 75 4 20 8 70 21 111 28 41 7 92 18 114 26 58 20 86 17 86 -8 0 -37 -19 -59 -51 -59 -35 0 -93 -42 -115 -82 -13 -25 -13 -28 1 -28 32 0 144 42 149 56 3 8 19 14 36 14 25 0 30 4 30 24 0 12 -5 37 -11 55 -8 23 -8 35 1 46 16 19 7 31 -32 39 l-33 7 29 16 c31 16 66 13 119 -11 37 -17 143 -50 207 -66 96 -24 95 -23 98 -58 2 -23 10 -36 25 -42 55 -23 72 -64 47 -111 -6 -10 -13 -43 -16 -72 -2 -28 -7 -64 -10 -78 -4 -20 1 -30 20 -43 29 -18 72 -21 82 -5 16 26 23 88 17 147 -5 56 -10 67 -44 99 -36 35 -37 37 -24 63 17 32 33 40 83 40 66 1 87 33 58 89 -37 71 -58 285 -36 363 11 35 -3 63 -27 53 -8 -3 -22 2 -30 11 -10 9 -25 13 -37 10 -12 -3 -31 -6 -43 -6 -13 0 -41 -16 -63 -36 l-40 -36 -84 27 c-46 15 -90 25 -97 23 -19 -6 44 -68 69 -68 11 0 36 -7 55 -15 52 -21 62 -19 107 21 40 36 66 38 55 3 -4 -12 2 -37 14 -60 12 -22 21 -58 21 -82 0 -39 20 -118 41 -159 5 -10 9 -24 9 -33 0 -8 9 -19 20 -25 11 -6 18 -16 14 -22 -8 -13 -119 -5 -137 10 -7 5 -77 31 -157 57 -80 26 -173 58 -208 73 l-63 25 -82 -27 c-94 -30 -155 -44 -247 -56 -36 -4 -78 -13 -94 -19 -56 -23 -83 7 -71 78 4 23 0 63 -11 104 -9 37 -14 73 -11 81 3 8 23 18 44 21 21 4 93 20 161 36 83 20 134 28 157 23 43 -8 45 -20 5 -28 -21 -4 -34 -14 -41 -32 -15 -41 1 -50 56 -32 25 9 48 11 51 7 3 -5 12 -9 20 -9 12 0 14 14 12 76 -3 64 -7 79 -23 89 -13 8 -28 10 -40 5z m5 -418 c0 -14 -64 -32 -113 -32 -51 0 -57 5 -29 26 18 14 142 20 142 6z m-205 -51 c-15 -15 -95 -26 -95 -13 0 13 22 19 70 21 21 1 30 -3 25 -8z"/> <path d="M6430 3900 c-8 -5 -36 -10 -63 -10 -28 0 -62 -8 -84 -20 -21 -11 -53 -20 -71 -20 -25 0 -35 -5 -42 -25 -6 -15 -17 -25 -29 -25 -10 0 -21 -7 -25 -15 -3 -8 -14 -15 -24 -15 -10 0 -27 -10 -38 -21 l-19 -22 97 7 c140 10 140 -8 1 -44 -51 -13 -57 -39 -18 -76 29 -27 34 -84 11 -138 -23 -55 -4 -142 42 -190 20 -21 45 -47 55 -58 9 -10 24 -18 33 -18 21 0 10 37 -22 70 -39 43 -53 90 -54 191 -1 67 4 110 17 148 l18 55 85 19 c47 10 103 27 126 38 23 10 51 19 62 19 11 0 23 4 26 9 10 16 -26 22 -60 11 -41 -14 -66 -3 -39 17 11 7 31 13 46 13 15 0 29 7 33 15 3 8 14 15 25 15 33 0 34 20 1 26 -38 8 -49 24 -21 31 12 3 21 9 21 14 0 12 -71 11 -90 -1z"/> <path d="M4750 3800 c-36 -10 -94 -22 -130 -25 -36 -4 -79 -16 -96 -26 -17 -11 -43 -19 -57 -19 -14 0 -38 -5 -54 -11 -15 -6 -57 -15 -93 -20 -36 -4 -110 -15 -165 -24 -55 -9 -121 -18 -147 -22 -55 -6 -76 -24 -53 -43 15 -13 52 -11 165 10 30 5 89 12 130 16 41 4 86 12 100 19 31 16 171 45 213 45 17 0 46 6 65 12 28 11 38 10 61 -3 24 -14 30 -14 46 -3 32 24 50 16 73 -32 29 -59 48 -54 44 14 -2 27 2 60 8 72 9 18 8 25 -6 41 -20 22 -20 22 -104 -1z"/> <path d="M5875 3788 c-22 -5 -62 -15 -90 -21 -33 -8 -51 -18 -53 -30 -3 -13 3 -17 25 -17 33 1 119 22 129 33 4 4 14 7 23 7 9 0 34 5 56 11 34 10 37 13 20 20 -26 10 -60 9 -110 -3z"/> <path d="M4914 3769 c-10 -17 16 -37 76 -60 208 -78 230 -82 230 -41 0 14 -20 26 -82 50 -46 18 -90 32 -99 32 -9 0 -33 7 -52 15 -43 18 -63 19 -73 4z"/> <path d="M5624 3766 c-7 -19 13 -56 31 -56 23 0 27 18 9 45 -18 28 -32 32 -40 11z"/> <path d="M5960 3695 c-5 -14 -10 -31 -10 -36 0 -5 -20 -9 -44 -9 -25 0 -56 -4 -70 -10 -24 -9 -26 -14 -26 -79 0 -92 11 -103 82 -87 58 13 57 10 43 96 -7 43 8 71 27 52 6 -6 15 -12 19 -12 12 0 31 57 27 81 -4 34 -36 37 -48 4z"/> <path d="M7635 3661 c-3 -11 -19 -24 -35 -30 -31 -10 -38 -33 -21 -60 13 -21 61 2 61 28 0 10 11 26 25 35 32 21 33 46 1 46 -16 0 -27 -7 -31 -19z"/> <path d="M7475 3656 c-22 -16 -14 -46 13 -46 29 0 48 26 32 45 -15 18 -21 19 -45 1z"/> <path d="M7003 3643 c-7 -2 -13 -8 -13 -13 0 -10 38 -1 46 11 6 10 -13 11 -33 2z"/> <path d="M4711 3603 c-6 -21 -11 -43 -11 -49 0 -6 -11 -17 -25 -24 -21 -11 -27 -11 -43 3 -23 21 -46 21 -78 1 -36 -24 -50 -7 -33 40 23 65 -26 77 -58 15 -16 -31 -17 -121 -1 -137 18 -18 89 -14 133 8 21 11 55 19 74 18 55 -2 111 22 118 51 7 29 -32 111 -53 111 -7 0 -18 -17 -23 -37z"/> <path d="M5343 3620 c-20 -8 -23 -17 -23 -57 1 -26 7 -65 14 -86 8 -21 14 -85 15 -150 2 -123 14 -224 29 -254 12 -22 44 -51 75 -69 64 -37 67 -38 113 -26 24 7 69 12 99 12 34 0 88 11 142 29 49 16 113 34 143 40 30 6 78 16 105 21 28 6 64 8 81 5 39 -7 77 25 72 62 -2 22 -11 28 -53 40 -98 27 -94 28 -129 -6 -37 -36 -137 -71 -204 -71 -24 0 -60 -9 -80 -19 -68 -35 -106 -42 -194 -35 -89 7 -105 14 -120 54 -14 36 -37 200 -42 305 -3 50 -8 107 -12 128 -6 32 -3 41 15 53 11 8 21 19 21 25 0 11 -37 11 -67 -1z"/> <path d="M3789 3610 c-9 -5 -52 -12 -97 -16 l-81 -7 3 -125 c3 -138 12 -157 47 -98 11 20 25 36 30 36 11 0 -1 31 -18 48 -7 7 -13 26 -13 42 0 23 6 30 33 38 158 48 146 47 170 25 33 -29 74 -53 92 -53 27 0 16 43 -20 83 -30 33 -39 37 -82 37 -26 0 -55 -5 -64 -10z"/> <path d="M5665 3603 c-22 -8 -46 -20 -54 -28 -13 -13 -12 -18 8 -39 l23 -25 -21 -27 c-11 -15 -21 -33 -21 -41 0 -22 42 -33 67 -17 12 8 34 14 48 14 32 0 40 20 28 68 -6 24 -5 47 1 65 8 22 7 30 -4 37 -18 12 -25 11 -75 -7z"/> <path d="M7668 3588 c-8 -21 2 -38 24 -38 14 0 19 6 16 22 -3 25 -33 36 -40 16z"/> <path d="M4145 3580 c-3 -5 2 -24 12 -40 l17 -30 -47 -43 c-45 -42 -61 -78 -34 -76 6 0 64 10 127 22 99 20 116 26 127 46 20 41 -6 70 -32 35 -11 -16 -15 -15 -59 1 -48 18 -48 19 -42 57 6 38 6 38 -28 38 -19 0 -38 -4 -41 -10z"/> <path d="M5145 3579 c-4 -6 -5 -13 -1 -16 8 -8 56 6 56 17 0 13 -47 13 -55 -1z"/> <path d="M4915 3560 c-10 -11 -26 -20 -36 -20 -48 0 -63 -25 -31 -53 30 -27 49 -20 77 26 36 63 30 92 -10 47z"/> <path d="M5500 3558 c-57 -12 -71 -29 -59 -71 5 -18 9 -48 9 -69 0 -43 18 -53 69 -38 55 16 60 24 56 101 -4 68 -10 90 -23 88 -4 -1 -27 -5 -52 -11z"/> <path d="M7732 3548 c3 -7 13 -15 22 -16 12 -3 17 1 14 10 -3 7 -13 15 -22 16 -12 3 -17 -1 -14 -10z"/> <path d="M5022 3538 c-7 -7 -12 -25 -12 -41 0 -23 -7 -31 -35 -43 -19 -7 -46 -14 -60 -14 -27 0 -34 -14 -10 -24 8 -3 15 -17 15 -31 0 -23 -4 -25 -45 -25 -35 0 -51 6 -79 30 l-34 30 -74 -24 c-41 -14 -115 -32 -164 -40 -225 -38 -227 -38 -331 -78 -30 -11 -71 -19 -95 -17 -24 1 -56 -3 -73 -10 -16 -7 -43 -11 -60 -8 -16 2 -54 -2 -85 -9 -41 -10 -78 -11 -149 -3 -79 8 -97 7 -111 -6 -22 -20 -36 -19 -59 6 l-19 21 -7 -30 c-9 -42 -38 -66 -70 -58 -26 7 -85 -19 -85 -37 0 -4 -18 -24 -40 -45 -22 -20 -48 -49 -58 -63 -9 -15 -32 -46 -49 -69 -18 -24 -33 -55 -33 -69 0 -14 -21 -64 -45 -110 -48 -89 -53 -116 -31 -159 8 -15 17 -50 21 -77 7 -52 33 -143 45 -160 4 -5 10 -26 13 -46 3 -20 23 -66 46 -102 22 -36 48 -90 57 -119 16 -51 48 -98 67 -98 5 0 6 17 2 39 -6 34 -3 41 25 65 17 14 37 26 43 27 7 0 21 3 32 5 11 3 39 8 61 11 37 5 44 2 59 -20 12 -19 15 -37 10 -66 -12 -69 -20 -74 -128 -75 l-95 -1 16 -27 c17 -29 64 -39 77 -18 9 15 81 12 95 -5 21 -25 8 -50 -30 -55 l-35 -5 23 -22 c25 -26 36 -28 81 -12 25 9 36 8 56 -5 16 -11 47 -16 92 -16 l68 0 19 -48 c10 -26 24 -54 30 -62 7 -8 20 -40 31 -70 10 -30 27 -67 38 -82 23 -31 68 -52 94 -44 10 3 63 12 119 20 125 19 221 45 228 62 4 11 -12 13 -87 8 -51 -3 -97 -10 -103 -15 -6 -5 -44 -11 -84 -14 -39 -3 -76 -8 -81 -11 -16 -10 -55 23 -69 58 -7 18 -19 40 -25 48 -7 8 -18 32 -24 52 -7 20 -27 56 -45 80 -18 24 -65 100 -105 169 -39 70 -81 135 -91 144 -15 13 -20 31 -20 68 0 27 -7 61 -15 75 -8 15 -32 70 -53 122 -21 52 -53 120 -70 150 -26 45 -32 51 -38 35 -9 -23 11 -123 29 -144 8 -9 17 -45 20 -81 3 -36 8 -72 11 -80 3 -8 1 -22 -4 -30 -8 -12 -13 -13 -29 -3 -10 6 -28 9 -40 6 -25 -6 -28 12 -4 25 10 6 14 16 9 27 -5 13 -9 15 -20 6 -7 -6 -27 -8 -43 -5 -17 3 -40 1 -51 -5 -18 -10 -24 -8 -38 14 -10 16 -14 34 -10 51 5 20 3 27 -12 30 -10 3 -23 19 -29 35 -7 18 -18 29 -30 29 -25 0 -40 32 -47 100 -3 30 -8 79 -12 108 -5 41 -3 56 9 70 9 9 20 36 25 60 13 55 36 90 70 104 15 5 45 19 68 29 55 25 60 24 68 -11 3 -16 9 -30 13 -30 19 1 36 20 37 41 1 21 7 24 44 27 23 2 42 -1 42 -7 0 -39 105 -56 164 -26 15 8 45 15 66 15 21 0 43 7 50 15 12 14 39 17 154 16 37 -1 60 6 98 29 45 28 54 30 111 24 38 -4 86 -1 122 6 33 7 84 12 112 12 48 -1 53 1 59 23 9 35 42 33 55 -2 31 -84 266 -569 311 -644 15 -25 28 -53 28 -62 0 -18 55 -67 76 -67 8 0 14 9 14 20 0 11 -5 20 -10 20 -6 0 -20 21 -32 48 -12 26 -68 144 -126 262 -57 118 -115 238 -127 265 -92 203 -125 249 -189 260 -32 6 -41 4 -65 -19 -15 -14 -36 -26 -47 -26 -10 0 -32 -7 -49 -16 -44 -24 -185 -27 -201 -5 -7 9 -16 13 -20 9 -4 -4 -1 -14 6 -23 18 -22 -8 -29 -80 -22 -45 4 -57 2 -54 -8 7 -18 -53 -27 -95 -15 -37 10 -56 3 -56 -20 0 -16 -2 -16 -129 -4 -51 5 -67 4 -62 -5 4 -6 16 -11 27 -11 10 0 19 -7 19 -15 0 -9 -9 -15 -25 -15 -36 0 -132 27 -157 44 -17 12 -38 14 -95 9 -64 -5 -73 -4 -73 11 0 9 4 16 8 16 5 0 15 15 24 33 10 21 32 40 63 56 58 29 78 21 85 -35 6 -50 35 -57 71 -16 22 24 40 31 125 46 54 10 132 24 173 32 40 8 89 14 109 14 19 0 58 7 86 14 28 8 92 20 141 26 50 6 144 25 210 41 66 15 170 38 230 49 61 11 122 23 136 26 24 5 28 2 34 -28 4 -18 15 -49 25 -68 21 -39 81 -176 142 -320 22 -52 50 -105 62 -118 21 -22 24 -22 40 -7 22 22 20 34 -10 91 -14 27 -53 110 -85 184 -33 74 -71 152 -84 172 -14 21 -25 41 -25 46 0 5 14 21 30 37 24 23 34 27 48 19 20 -13 62 -91 62 -116 0 -11 11 -38 24 -61 13 -23 41 -80 62 -127 21 -47 43 -92 50 -100 6 -8 17 -31 23 -52 7 -20 19 -39 28 -42 18 -7 53 20 53 40 0 7 7 17 16 22 13 7 15 17 10 43 -4 19 -9 57 -11 84 -6 80 -14 111 -35 135 -11 13 -20 33 -20 46 0 59 -54 104 -62 52 -2 -13 -15 -29 -32 -37 -25 -12 -33 -11 -63 3 -26 12 -34 22 -31 38 4 26 21 35 80 43 44 6 48 8 54 40 3 19 4 42 0 50 -7 20 -53 19 -101 -1 -20 -8 -49 -14 -64 -12 -22 2 -26 8 -26 33 0 30 2 31 76 65 22 10 49 46 49 65 0 11 -77 4 -88 -7z m190 -428 c1 -33 2 -70 2 -82 2 -59 -56 1 -69 72 -5 31 -3 37 22 52 15 9 31 17 36 17 4 1 8 -26 9 -59z m58 -170 c0 -11 -4 -20 -10 -20 -5 0 -10 9 -10 20 0 11 5 20 10 20 6 0 10 -9 10 -20z"/> <path d="M3797 3523 c-14 -13 -6 -23 18 -23 28 0 34 15 9 24 -19 7 -19 7 -27 -1z"/> <path d="M3775 3457 c-9 -33 8 -58 26 -40 8 8 7 19 -4 39 l-15 29 -7 -28z"/> <path d="M3923 3473 c-7 -2 -13 -19 -13 -37 0 -37 -29 -70 -53 -60 -22 8 -57 -13 -57 -35 0 -34 26 -45 71 -32 32 10 47 23 74 66 38 58 42 74 23 93 -13 13 -24 14 -45 5z"/> <path d="M7456 3461 c-7 -11 28 -21 44 -11 8 5 7 9 -5 14 -23 8 -33 8 -39 -3z"/> <path d="M5849 3400 c-13 -7 -16 -24 -14 -78 1 -38 5 -74 9 -80 8 -13 53 -7 105 14 30 12 33 17 27 41 -4 16 -8 46 -9 68 l-2 40 -50 2 c-27 2 -57 -1 -66 -7z"/> <path d="M5695 3364 c-51 -19 -61 -29 -47 -47 9 -10 8 -24 -5 -55 -9 -23 -19 -42 -23 -42 -15 0 -33 32 -40 68 -6 37 -6 37 -50 34 -73 -4 -73 -4 -67 -78 3 -38 10 -70 18 -74 18 -12 80 -1 109 19 17 12 37 16 61 13 20 -2 40 1 43 7 4 6 19 8 34 5 40 -8 56 14 44 59 -5 19 -7 47 -4 62 3 17 0 30 -9 36 -17 11 -15 11 -64 -7z"/> <path d="M3665 3311 c-7 -12 34 -41 57 -41 21 0 24 20 6 38 -14 14 -54 16 -63 3z"/> <path d="M7053 3234 c-8 -21 19 -46 40 -38 20 7 22 25 5 42 -17 17 -37 15 -45 -4z"/> <path d="M7346 3220 c-7 -35 4 -57 23 -46 15 10 14 38 -2 61 -13 17 -14 15 -21 -15z"/> <path d="M6308 3186 c-25 -24 -26 -29 -33 -182 l-8 -157 54 -48 c30 -26 57 -48 62 -49 4 0 12 12 17 26 6 14 19 28 30 31 22 6 27 29 8 36 -25 10 16 27 64 27 45 0 49 -2 68 -40 25 -49 26 -101 1 -131 -17 -21 -20 -22 -52 -9 -19 7 -41 22 -50 33 -10 12 -25 18 -40 15 l-24 -3 28 -26 c15 -15 27 -35 27 -46 0 -10 6 -28 14 -38 13 -18 15 -18 81 4 38 12 83 35 101 51 32 28 88 50 128 50 15 0 17 -5 13 -29 -5 -22 -1 -32 15 -43 15 -10 19 -20 14 -36 -4 -12 -12 -22 -17 -22 -24 0 -109 -44 -106 -54 2 -7 39 -11 101 -11 95 0 98 -1 118 -28 l20 -27 148 0 c119 0 150 3 160 15 15 18 51 19 72 3 17 -15 31 -70 22 -93 -4 -8 -18 -15 -33 -15 -48 0 -99 -19 -104 -40 -3 -11 -14 -20 -25 -20 -25 0 -74 -25 -136 -68 -42 -29 -53 -33 -68 -23 -20 12 -58 6 -58 -8 0 -5 7 -14 15 -21 8 -7 15 -18 15 -26 0 -7 11 -25 23 -40 26 -30 47 -26 47 9 1 20 2 20 11 5 16 -28 29 -21 29 16 0 39 8 66 20 66 5 0 37 19 71 43 82 56 76 53 139 67 56 13 99 47 100 81 0 10 -11 37 -25 60 -33 59 -32 76 11 101 25 14 34 27 32 41 -5 35 -27 31 -66 -12 -21 -23 -45 -41 -53 -41 -9 0 -28 -10 -43 -21 -23 -18 -40 -21 -121 -21 -52 0 -104 6 -116 12 -12 7 -34 10 -49 7 -41 -9 -68 25 -72 88 -3 46 -6 51 -38 67 -43 22 -45 40 -5 48 51 11 78 29 65 45 -6 8 -10 33 -8 57 3 37 0 43 -17 43 -13 0 -21 -8 -23 -22 -2 -12 -10 -27 -18 -33 -8 -7 -14 -28 -14 -46 0 -19 -5 -34 -11 -34 -27 0 -78 43 -88 73 -6 18 -34 52 -63 77 -50 43 -54 44 -111 42 -32 -2 -79 -9 -104 -17 -76 -23 -79 -19 -88 136 -5 95 -11 129 -24 129 -3 0 -18 -11 -33 -24z m377 -366 c10 -16 -5 -50 -21 -50 -17 0 -28 24 -20 45 6 17 32 20 41 5z"/> <path d="M6618 3203 c-26 -7 -22 -32 6 -39 31 -7 46 1 46 27 0 19 -14 22 -52 12z"/> <path d="M7330 3100 c-8 -5 -46 -14 -85 -20 -38 -7 -92 -18 -120 -25 -27 -7 -78 -16 -113 -20 -79 -8 -92 -13 -92 -34 0 -28 21 -41 66 -41 60 0 104 -18 115 -48 9 -24 10 -24 29 -7 11 10 46 22 76 26 97 13 89 29 -14 29 -108 0 -123 16 -39 43 39 12 71 15 120 10 69 -6 76 -10 55 -31 -18 -18 32 -15 56 3 26 20 49 19 87 -4 29 -18 35 -18 53 -5 26 18 59 18 99 0 18 -8 79 -27 136 -42 83 -21 108 -24 123 -15 16 10 20 8 27 -11 5 -13 5 -32 1 -43 -6 -16 -16 -20 -56 -19 -60 1 -192 27 -221 42 -28 15 -124 15 -160 0 -30 -12 -73 -19 -242 -38 -93 -10 -105 -10 -113 4 -11 20 -37 21 -45 0 -7 -20 26 -94 43 -94 7 0 14 10 16 23 4 30 40 34 77 6 l29 -22 30 22 c36 25 55 26 88 5 24 -16 26 -16 40 5 17 23 56 28 72 8 6 -7 12 -37 14 -67 3 -53 4 -55 33 -58 17 -2 39 3 49 11 19 14 19 15 -3 67 -12 28 -20 58 -18 64 6 15 101 28 135 20 22 -6 25 -14 37 -87 4 -28 13 -41 31 -49 35 -16 48 5 28 45 -22 42 -12 61 31 54 20 -3 37 -1 41 5 4 6 23 8 45 5 58 -8 65 12 43 121 -3 17 -10 22 -20 18 -9 -3 -27 3 -41 14 -15 12 -41 20 -62 20 -20 0 -65 9 -100 20 -35 11 -103 30 -150 41 -47 12 -101 30 -119 40 -35 20 -88 25 -112 9z"/> <path d="M6761 3021 c-23 -15 -5 -56 34 -76 44 -25 60 -13 44 33 -15 44 -48 62 -78 43z"/> <path d="M5955 2970 c-38 -11 -81 -20 -95 -21 -25 -1 -25 -1 3 -11 38 -14 29 -30 -25 -47 -53 -16 -78 -10 -78 19 0 19 -6 20 -100 20 -105 0 -180 -19 -180 -46 0 -12 27 -20 54 -15 18 4 202 -21 224 -30 22 -8 22 -12 17 -91 -3 -46 -8 -104 -10 -129 -4 -38 -1 -50 19 -72 22 -24 24 -33 22 -125 -1 -66 -6 -105 -15 -116 -7 -9 -11 -25 -8 -36 6 -23 -16 -45 -35 -34 -10 5 -10 4 -2 -5 13 -14 87 -16 129 -3 40 12 38 36 -12 205 -8 27 -20 115 -27 195 -7 81 -16 154 -20 163 -9 21 6 36 99 94 66 41 81 47 104 39 21 -8 26 -16 25 -39 -1 -17 4 -50 11 -75 7 -25 16 -63 20 -85 3 -22 13 -59 21 -83 8 -23 14 -59 14 -78 0 -19 4 -43 9 -53 6 -11 6 -34 0 -60 -5 -24 -7 -46 -4 -49 10 -10 72 29 82 51 6 14 7 35 1 55 -5 19 -7 41 -3 50 5 15 -3 37 -41 113 -8 15 -18 55 -23 90 -5 35 -18 89 -29 119 -12 30 -22 66 -24 80 -4 32 -31 35 -123 10z"/> <path d="M3953 2913 c-4 -10 17 -63 55 -139 34 -67 62 -127 62 -134 0 -7 27 -65 60 -131 33 -65 60 -124 60 -130 0 -7 36 -85 79 -173 130 -264 221 -456 221 -464 0 -4 12 -25 26 -46 22 -32 25 -43 15 -57 -6 -10 -11 -28 -11 -40 0 -20 3 -21 83 -15 45 3 129 9 187 12 l106 6 12 -26 c7 -15 23 -28 39 -32 15 -3 40 -10 55 -16 44 -16 73 -7 76 25 6 47 -12 57 -96 57 -104 0 -82 20 31 29 76 6 88 9 121 38 20 18 49 39 65 47 37 20 47 45 24 62 -10 7 -21 14 -25 14 -5 0 -8 10 -8 23 0 13 -29 81 -65 151 -36 70 -63 131 -60 137 16 25 85 -2 85 -34 0 -7 15 -33 34 -59 18 -26 39 -68 46 -93 7 -25 17 -48 21 -51 5 -3 9 -25 9 -50 0 -50 12 -56 53 -24 14 11 40 20 59 20 18 0 60 14 93 30 43 21 63 26 72 18 16 -13 43 -3 43 17 0 9 -9 15 -26 15 -33 0 -64 17 -64 35 0 9 -9 23 -21 33 -22 19 -79 131 -79 156 0 10 15 23 36 32 34 14 37 14 68 -10 31 -23 35 -24 72 -11 21 8 51 14 66 15 52 0 59 8 37 43 -10 18 -19 42 -19 55 0 13 -5 33 -11 44 -8 16 -8 31 2 60 12 36 11 40 -13 66 -23 23 -27 39 -32 117 -14 214 -29 264 -58 200 -13 -29 -34 -27 -81 7 -23 16 -38 19 -74 13 -35 -5 -49 -3 -64 11 -14 13 -28 15 -61 10 -24 -4 -57 -9 -75 -10 -42 -3 -83 -32 -83 -57 0 -21 4 -20 51 14 18 13 48 20 93 22 36 2 66 2 66 -1 0 -3 -9 -17 -20 -31 -27 -35 -25 -41 12 -45 25 -2 33 -9 39 -32 11 -39 23 -45 74 -34 24 5 59 8 76 6 30 -3 34 -7 41 -42 5 -24 4 -52 -3 -73 -13 -40 -6 -53 30 -53 38 0 52 -19 44 -63 -3 -23 0 -48 10 -69 29 -62 31 -85 7 -98 -12 -6 -29 -9 -38 -5 -28 11 -316 24 -328 14 -5 -4 -37 -8 -70 -8 -32 -1 -95 -2 -139 -5 -44 -2 -104 -5 -132 -5 -29 -1 -53 -6 -53 -11 0 -15 63 -51 78 -45 20 7 66 -20 81 -48 16 -31 8 -57 -19 -64 -11 -3 -20 -9 -20 -14 0 -8 86 -176 99 -194 15 -19 41 -107 35 -117 -4 -6 -27 -8 -51 -5 -42 4 -151 -8 -283 -32 -30 -5 -82 -13 -115 -16 -69 -7 -81 1 -104 70 -15 42 -99 218 -130 270 -10 17 -21 43 -25 60 -4 16 -20 48 -35 70 -27 41 -91 184 -91 205 0 6 -11 26 -24 43 -13 18 -27 43 -31 57 -4 14 -28 70 -52 125 -25 55 -55 125 -68 155 -59 138 -86 189 -107 204 -28 20 -37 20 -45 -1z m1352 -794 c7 -21 -1 -39 -16 -39 -9 0 -18 18 -34 68 -7 23 -6 23 19 7 14 -9 28 -25 31 -36z m58 -96 c8 -16 17 -44 21 -64 6 -31 3 -37 -19 -47 -14 -6 -31 -9 -40 -6 -20 8 -29 42 -15 59 6 7 8 25 4 38 -12 51 26 66 49 20z m-247 -170 c-10 -11 -25 18 -18 35 4 13 8 11 15 -6 6 -12 7 -25 3 -29z"/> <path d="M6955 2840 c-8 -13 4 -32 16 -25 12 8 12 35 0 35 -6 0 -13 -4 -16 -10z"/> <path d="M3411 2781 c-11 -7 -9 -20 9 -70 13 -34 26 -64 30 -66 11 -7 21 25 13 38 -4 7 -10 32 -13 56 -5 46 -15 57 -39 42z"/> <path d="M7246 2723 c13 -51 24 -73 40 -80 18 -7 29 3 38 34 9 27 -32 73 -64 73 -17 0 -19 -4 -14 -27z"/> <path d="M7827 2723 c-4 -3 -7 -23 -7 -44 0 -41 -14 -59 -24 -33 -5 13 -15 15 -48 11 -22 -3 -51 -1 -64 3 -25 10 -54 4 -54 -11 0 -5 22 -9 49 -9 59 0 69 -16 32 -47 -33 -28 -20 -44 39 -45 73 -1 127 58 114 127 -6 35 -26 60 -37 48z"/> <path d="M7155 2680 c-3 -6 1 -13 10 -16 19 -8 30 0 20 15 -8 14 -22 14 -30 1z"/> <path d="M5061 2633 c-16 -14 -23 -37 -31 -103 -6 -47 -17 -107 -25 -134 -8 -26 -12 -52 -9 -57 8 -14 47 -10 72 7 20 14 22 24 22 98 0 63 4 87 16 96 31 27 36 49 17 80 -20 34 -32 37 -62 13z"/> <path d="M7022 2629 c-34 -13 -21 -35 19 -31 32 3 58 17 48 26 -12 11 -47 13 -67 5z"/> <path d="M7481 2616 c-15 -18 -3 -46 19 -46 24 0 33 15 25 40 -7 23 -28 26 -44 6z"/> <path d="M5191 2586 c-7 -8 -15 -40 -18 -70 -5 -52 -4 -56 16 -56 12 0 21 6 21 14 0 8 18 27 40 43 44 31 48 43 22 66 -23 21 -65 22 -81 3z"/> <path d="M6595 2578 c-68 -35 -96 -68 -58 -68 23 0 113 62 113 78 0 16 -8 15 -55 -10z"/> <path d="M7436 2493 c12 -222 24 -347 38 -403 9 -36 16 -88 16 -116 0 -116 45 -154 181 -154 84 0 99 13 27 25 -24 3 -68 18 -98 33 -55 27 -55 27 -62 82 -42 342 -54 420 -68 455 -6 17 -12 52 -13 79 -2 27 -7 51 -13 53 -7 2 -10 -16 -8 -54z"/> <path d="M5380 2505 c-31 -37 30 -64 63 -27 13 14 14 21 5 30 -17 17 -53 15 -68 -3z"/> <path d="M6740 2476 l-35 -13 65 -7 c36 -4 74 -4 84 0 18 7 18 8 0 21 -22 16 -67 16 -114 -1z"/> <path d="M5972 2464 c-12 -8 -22 -22 -22 -30 0 -23 74 -15 78 8 5 26 -31 40 -56 22z"/> <path d="M7583 2465 c-12 -8 -28 -12 -37 -9 -12 4 -16 0 -16 -15 0 -16 9 -25 30 -33 32 -11 80 -87 80 -126 0 -11 14 -33 30 -50 28 -30 30 -37 30 -106 0 -54 4 -79 16 -90 33 -33 60 -13 55 40 -2 27 2 33 27 42 40 14 46 39 27 104 -10 37 -29 68 -59 100 -27 27 -49 62 -56 87 -17 64 -77 91 -127 56z"/> <path d="M6291 2448 c-14 -36 -49 -63 -146 -114 -49 -26 -106 -58 -125 -71 -19 -13 -51 -26 -70 -29 -26 -5 -41 -16 -58 -41 -22 -34 -22 -36 -5 -55 17 -19 17 -20 -2 -34 -14 -10 -32 -13 -57 -9 -29 5 -39 3 -44 -9 -9 -24 -32 -19 -36 6 -3 25 -36 37 -48 18 -8 -13 -71 -29 -117 -30 -32 0 -33 -2 -33 -40 0 -51 30 -72 54 -38 9 12 16 28 16 35 0 21 19 24 49 8 34 -17 87 -20 96 -5 8 13 51 13 75 0 11 -6 22 -26 26 -45 7 -39 39 -64 57 -46 6 6 10 45 9 93 -1 81 -1 84 33 120 36 39 96 73 117 66 7 -3 -9 -17 -36 -33 -34 -20 -44 -30 -34 -36 35 -23 98 1 98 37 0 10 13 14 50 14 38 0 50 4 50 15 0 16 15 19 67 16 36 -3 93 26 93 47 0 17 -84 7 -117 -14 -12 -8 -31 -14 -42 -14 -10 0 -32 -7 -47 -15 -37 -19 -64 -19 -64 -1 0 19 111 86 142 86 15 0 39 14 59 34 31 29 44 34 107 40 53 5 74 12 81 25 19 34 0 42 -80 33 -44 -6 -81 -6 -92 0 -13 7 -19 4 -26 -14z"/> <path d="M5127 2443 c-4 -3 -7 -21 -7 -38 0 -37 35 -75 68 -75 27 0 28 21 3 44 -11 10 -25 31 -31 47 -12 29 -21 35 -33 22z"/> <path d="M5247 2433 c-14 -13 -7 -63 8 -63 8 0 15 9 15 19 0 11 3 26 6 35 6 16 -16 23 -29 9z"/> <path d="M5332 2431 c2 -7 7 -12 11 -12 12 1 9 15 -3 20 -7 2 -11 -2 -8 -8z"/> <path d="M5425 2420 c-20 -22 -14 -50 10 -50 25 0 75 29 75 44 0 30 -59 35 -85 6z"/> <path d="M6502 2370 c-13 -16 -29 -30 -36 -30 -23 0 -38 -26 -23 -39 14 -11 106 -9 125 3 19 11 27 77 11 87 -27 17 -55 9 -77 -21z"/> <path d="M5325 2355 c-33 -28 -37 -36 -25 -44 16 -11 57 -5 78 12 6 5 12 22 12 38 0 38 -16 37 -65 -6z"/> <path d="M6050 2380 c0 -5 7 -10 15 -10 8 0 15 5 15 10 0 6 -7 10 -15 10 -8 0 -15 -4 -15 -10z"/> <path d="M6685 2372 c-11 -12 -4 -42 13 -50 9 -5 55 -13 102 -16 47 -4 102 -12 123 -18 77 -23 58 19 -26 54 -57 25 -197 44 -212 30z"/> <path d="M6740 2255 c-7 -8 -10 -27 -7 -42 3 -15 3 -33 0 -40 -8 -21 -70 -15 -123 12 -49 25 -81 31 -93 18 -4 -3 2 -12 13 -20 11 -8 20 -23 20 -33 0 -10 9 -22 21 -25 30 -10 159 5 193 22 26 13 28 18 22 53 -3 23 -2 41 4 45 6 4 8 11 5 16 -9 14 -41 11 -55 -6z"/> <path d="M6352 2218 c-4 -4 -37 -9 -72 -10 -50 -2 -69 -8 -82 -23 -10 -11 -17 -23 -18 -27 0 -15 73 -8 84 8 10 13 89 29 169 34 4 0 7 4 7 9 0 11 -78 19 -88 9z"/> <path d="M6270 2133 c0 -7 9 -22 20 -33 36 -36 186 -23 225 20 22 24 29 23 -132 24 -84 1 -113 -2 -113 -11z"/> <path d="M4802 2118 c-31 -31 -5 -96 47 -118 30 -12 48 -41 36 -60 -8 -12 22 -70 36 -70 15 0 2 70 -17 91 -8 8 -14 26 -14 39 0 13 -11 37 -24 54 -13 18 -25 40 -27 50 -5 24 -21 30 -37 14z"/> <path d="M5646 1961 c-40 -44 4 -77 62 -47 32 16 42 13 42 -15 0 -17 27 -39 49 -39 5 0 14 15 19 33 6 17 13 39 17 48 5 14 -4 17 -57 22 -35 3 -74 9 -88 12 -19 5 -31 1 -44 -14z"/> <path d="M5882 1868 c-7 -7 -12 -17 -12 -22 0 -6 -12 -21 -27 -34 -20 -17 -35 -22 -53 -18 -14 4 -63 14 -109 23 -77 15 -85 15 -111 -1 -18 -10 -50 -16 -87 -16 -65 0 -83 -11 -83 -49 0 -23 1 -24 13 -7 23 31 88 23 158 -19 65 -40 109 -42 109 -6 0 14 -6 17 -26 13 -22 -4 -25 -2 -22 19 2 18 12 25 39 32 32 7 40 5 64 -17 15 -14 36 -28 46 -31 42 -14 107 48 123 118 7 29 -2 35 -22 15z"/> <path d="M5420 1666 c0 -14 5 -28 10 -31 6 -4 9 -19 8 -33 -3 -22 3 -30 33 -45 36 -17 37 -18 35 -75 l-2 -57 -89 3 c-50 2 -133 8 -185 14 -52 5 -118 12 -145 15 -28 2 -88 -3 -134 -11 -48 -9 -143 -16 -225 -17 -77 -1 -154 -5 -171 -9 -16 -4 -27 -8 -24 -9 66 -12 199 -34 249 -41 36 -4 83 -13 105 -19 22 -6 83 -10 135 -10 89 0 126 4 325 30 44 6 95 10 113 10 68 -2 109 39 103 101 -4 42 -49 129 -89 171 -42 43 -52 46 -52 13z m-359 -273 c28 -5 30 -7 14 -14 -25 -10 -98 -11 -120 -3 -13 5 -14 8 -3 15 16 10 64 11 109 2z"/> <path d="M4700 1565 c0 -19 39 -22 118 -9 59 9 33 24 -43 24 -60 0 -75 -3 -75 -15z"/> <path d="M4501 1541 c-16 -30 -14 -111 3 -111 9 0 12 8 8 25 -7 39 14 56 58 49 37 -6 80 8 80 25 0 5 -19 12 -42 16 -24 3 -55 8 -70 11 -20 4 -29 0 -37 -15z"/> </g> </svg> 