<?xml version="1.0" standalone="no"?>
<!DOCTYPE svg PUBLIC "-//W3C//DTD SVG 20010904//EN"
 "http://www.w3.org/TR/2001/REC-SVG-20010904/DTD/svg10.dtd">
<svg version="1.0" xmlns="http://www.w3.org/2000/svg"
 width="1434.000000pt" height="957.000000pt" viewBox="0 0 1434.000000 957.000000"
 preserveAspectRatio="xMidYMid meet">
<metadata>
Created by potrace 1.10, written by Peter Selinger 2001-2011
</metadata>
<g transform="translate(0.000000,957.000000) scale(0.100000,-0.100000)"
fill="#00ffff" stroke="none">
<path d="M7318 9110 c-54 -9 -72 -21 -116 -71 -60 -69 -81 -153 -103 -424 -24
-284 -22 -279 -97 -272 -61 6 -142 -22 -191 -66 -22 -20 -47 -37 -54 -37 -17
0 -47 -32 -47 -49 0 -21 43 -31 57 -13 11 13 16 14 37 2 32 -17 55 -7 67 28
16 47 92 71 104 33 3 -11 1 -28 -6 -38 -13 -21 -64 -53 -84 -53 -8 0 -18 -6
-22 -14 -4 -8 -21 -16 -36 -18 -15 -1 -27 -6 -27 -10 0 -5 0 -24 0 -43 0 -33
2 -35 35 -35 33 0 35 2 35 35 0 29 5 37 27 46 16 6 35 16 43 24 8 7 28 15 45
17 21 2 31 10 36 28 8 30 9 28 15 -28 l5 -44 -31 7 -32 7 7 -51 c6 -48 5 -51
-19 -62 -30 -14 -29 -12 -16 -61 10 -34 14 -37 53 -40 29 -2 42 -8 42 -18 0
-10 -11 -15 -35 -15 -50 0 -73 -11 -91 -43 -13 -22 -26 -31 -59 -36 -24 -4
-55 -14 -70 -23 -18 -10 -37 -13 -54 -9 -24 6 -26 10 -26 64 0 31 -5 86 -10
122 -6 36 -13 103 -16 150 -4 47 -8 87 -11 90 -3 3 -15 -8 -28 -24 -24 -30
-31 -62 -56 -248 -11 -91 -6 -163 16 -188 18 -21 26 -71 30 -170 1 -47 7 -119
13 -160 6 -41 12 -136 12 -210 0 -74 6 -153 12 -175 6 -22 14 -123 18 -225 9
-214 27 -487 34 -498 2 -4 12 -81 21 -172 9 -91 23 -196 31 -234 8 -38 17
-137 20 -220 6 -139 9 -156 35 -210 16 -32 29 -63 29 -70 0 -16 52 -66 68 -66
16 0 15 19 -3 70 -8 23 -15 66 -15 94 0 28 -6 89 -14 136 -17 101 -31 228 -52
440 -8 85 -19 187 -25 225 -6 39 -12 90 -13 115 -1 42 1 45 23 42 14 -1 26 -4
28 -6 10 -9 43 -165 43 -199 0 -25 4 -36 11 -31 8 4 9 23 4 58 -5 28 -9 65
-11 81 -3 32 -25 125 -43 187 -9 28 -16 35 -30 31 -22 -6 -40 32 -23 49 13 13
32 2 32 -20 1 -15 2 -15 11 1 15 25 3 73 -14 58 -19 -15 -57 -2 -61 23 -21
103 -10 206 22 206 30 0 41 21 37 64 -3 23 -12 100 -20 171 -8 72 -15 192 -15
267 0 158 -6 199 -31 205 -20 6 -32 30 -23 45 3 5 12 7 20 4 7 -3 16 -1 19 4
9 15 56 12 88 -5 15 -8 62 -24 105 -36 68 -19 92 -21 207 -15 126 6 132 5 162
-17 17 -12 50 -47 74 -77 65 -83 227 -240 248 -240 10 0 24 -7 31 -15 7 -8 25
-15 41 -15 22 0 29 5 29 20 0 15 -7 20 -25 20 -33 0 -105 64 -212 190 -61 72
-193 266 -193 285 0 6 -25 60 -55 120 -31 60 -57 126 -59 145 -5 45 -45 142
-57 135 -4 -3 -6 -33 -4 -66 4 -72 -16 -78 -27 -8 -4 24 -13 78 -21 119 -13
71 -13 78 9 140 12 36 24 96 27 133 2 38 8 72 14 75 23 15 32 51 26 104 -3 34
1 86 11 137 9 45 15 90 12 99 -7 21 2 35 32 51 12 6 22 21 22 32 0 32 16 55
55 78 49 29 69 27 131 -14 29 -19 64 -35 77 -35 18 0 32 -10 47 -35 13 -21 30
-35 41 -35 26 0 89 -69 89 -97 0 -15 6 -23 16 -23 9 0 34 -16 55 -35 40 -36
59 -44 59 -24 0 18 -22 52 -73 114 -27 33 -57 75 -65 92 -9 18 -20 33 -24 33
-5 0 -30 20 -56 43 -98 91 -186 119 -304 97z m-134 -1250 c14 -5 26 -14 26
-19 0 -5 5 -22 12 -38 26 -64 46 -128 42 -134 -5 -9 -73 6 -86 19 -5 5 -4 19
3 36 15 33 6 43 -26 28 -14 -7 -37 -12 -50 -12 -18 0 -25 -5 -25 -19 0 -11 5
-23 10 -26 16 -10 2 -25 -23 -25 -12 0 -44 9 -72 19 -27 11 -58 22 -67 25 -15
4 -16 10 -6 37 8 23 22 36 57 51 25 12 52 26 60 32 13 10 79 32 108 35 6 0 23
-3 37 -9z m-394 -160 c0 -11 -4 -20 -8 -20 -5 0 -17 9 -27 20 -18 20 -17 20 8
20 20 0 27 -5 27 -20z"/>
<path d="M7459 8663 c-6 -16 -16 -35 -24 -43 -7 -8 -18 -35 -25 -59 -6 -24
-19 -55 -27 -68 -20 -31 -10 -96 15 -91 11 2 19 17 23 43 3 22 17 69 30 105
26 71 54 89 81 52 7 -10 53 -53 101 -95 48 -42 100 -89 116 -104 15 -16 44
-41 64 -56 31 -23 37 -34 37 -65 0 -35 -3 -38 -48 -55 -26 -11 -56 -23 -67
-27 -11 -5 -35 -12 -53 -15 -18 -4 -45 -13 -60 -21 -15 -8 -32 -14 -38 -14 -6
0 -17 -7 -24 -15 -7 -8 -24 -15 -39 -15 -14 -1 -46 -11 -71 -23 -44 -22 -45
-23 -51 -82 -8 -78 5 -135 31 -135 22 0 26 19 21 96 -2 36 2 44 26 61 32 22
111 53 134 53 19 0 216 85 236 101 10 9 18 7 34 -7 23 -21 23 -34 -9 -154 -11
-41 -28 -120 -37 -175 -10 -55 -24 -118 -32 -139 -16 -48 -9 -74 23 -82 43
-11 54 1 54 59 0 29 6 76 14 103 8 27 22 94 31 149 22 122 40 197 55 225 6 12
10 23 8 24 -2 1 -15 10 -30 19 -24 15 -28 24 -28 61 0 40 -4 47 -62 100 -35
31 -74 67 -88 80 -14 13 -63 56 -110 95 -47 39 -101 86 -121 106 -45 43 -75
46 -90 8z"/>
<path d="M7856 8651 c-4 -6 -2 -18 4 -27 7 -8 20 -29 29 -46 18 -35 41 -49 41
-24 0 9 -4 16 -10 16 -5 0 -10 7 -10 15 0 7 -6 18 -13 22 -7 4 -17 19 -23 32
-7 17 -13 21 -18 12z"/>
<path d="M6745 8129 c-9 -26 10 -48 26 -32 12 12 3 53 -11 53 -5 0 -12 -9 -15
-21z"/>
<path d="M8060 7982 c0 -37 5 -73 11 -79 7 -7 11 -72 12 -178 2 -148 0 -167
-15 -176 -13 -7 -17 -22 -17 -58 1 -26 -4 -57 -10 -69 -6 -11 -11 -30 -11 -42
0 -11 -7 -23 -15 -26 -8 -4 -15 -11 -15 -18 0 -19 -68 -86 -88 -86 -11 0 -22
-6 -25 -14 -3 -8 -25 -19 -49 -24 l-43 -10 43 -1 c23 -1 42 4 42 9 0 6 13 10
29 10 16 0 34 7 41 15 7 8 18 15 25 15 22 0 64 58 80 112 8 28 19 56 24 62 5
6 17 40 26 76 14 50 17 101 16 220 -1 142 -6 179 -33 293 -14 59 -28 43 -28
-31z"/>
<path d="M6768 7991 c-2 -16 0 -39 4 -52 8 -20 11 -21 23 -8 10 10 13 26 8 52
-7 44 -29 49 -35 8z"/>
<path d="M6841 6765 c0 -59 3 -83 9 -70 5 11 9 43 9 70 0 28 -4 59 -9 70 -6
13 -9 -11 -9 -70z"/>
<path d="M6930 6021 c5 -83 20 -123 20 -54 0 54 -11 133 -19 133 -3 0 -4 -36
-1 -79z"/>
<path d="M6945 5908 c-7 -19 11 -254 22 -271 4 -6 10 -60 13 -119 3 -64 11
-113 18 -120 9 -9 12 9 12 88 -1 54 -5 119 -10 144 -5 25 -14 97 -20 160 -10
110 -22 151 -35 118z"/>
<path d="M6390 5702 c0 -84 25 -124 148 -246 64 -63 146 -138 182 -168 84 -70
107 -105 115 -176 4 -31 16 -118 27 -192 32 -218 47 -359 47 -450 1 -47 7
-132 15 -190 25 -181 36 -275 36 -306 l0 -31 46 7 c69 11 79 25 60 90 -9 29
-20 112 -26 184 -6 72 -15 154 -20 181 -5 28 -12 102 -15 165 -2 63 -9 131
-15 150 -6 19 -13 82 -16 140 -3 58 -10 120 -16 137 -5 18 -11 70 -14 115 -3
75 -6 85 -30 103 -14 11 -58 49 -97 85 -40 36 -90 79 -112 94 -22 16 -44 34
-50 40 -5 6 -32 29 -60 51 -63 50 -72 62 -79 103 -3 19 -14 52 -24 75 -11 23
-22 50 -25 60 -5 12 -17 17 -42 17 -34 0 -35 -1 -35 -38z"/>
<path d="M6650 5490 c19 -13 30 -13 30 0 0 6 -10 10 -22 10 -19 0 -20 -2 -8
-10z"/>
<path d="M7053 4870 c9 -151 29 -315 40 -329 19 -23 28 36 17 119 -26 201 -37
261 -50 274 -9 8 -10 -8 -7 -64z"/>
<path d="M7697 4603 c-4 -3 -7 -28 -7 -55 0 -26 -4 -48 -10 -48 -11 0 -14
-121 -4 -193 11 -80 24 -40 24 74 0 111 10 136 32 82 6 -16 12 -57 13 -93 1
-36 6 -84 9 -107 7 -40 5 -45 -27 -75 -19 -18 -40 -43 -46 -55 -9 -18 -8 -23
10 -28 13 -4 27 -1 39 10 14 13 28 15 58 10 34 -5 41 -3 56 19 12 20 25 26 51
26 43 0 46 21 10 74 -14 20 -25 44 -25 53 0 14 19 79 26 91 1 2 11 -1 21 -6
31 -17 63 -96 72 -177 9 -78 20 -103 40 -91 13 9 14 76 2 108 -10 28 0 100 15
105 6 2 25 -17 43 -43 29 -39 34 -55 36 -112 2 -37 9 -109 16 -160 11 -81 10
-95 -3 -108 -20 -20 -66 -3 -72 28 -19 93 -24 118 -25 132 -1 5 -8 3 -17 -5
-10 -8 -14 -22 -11 -38 6 -29 -11 -71 -28 -71 -6 0 -18 11 -25 25 -11 21 -11
32 -2 59 12 33 8 66 -9 66 -8 0 -78 -57 -91 -74 -8 -11 0 -33 24 -68 10 -14
18 -33 18 -41 0 -38 108 -117 160 -117 9 0 23 -7 30 -15 7 -8 20 -15 30 -15 9
0 25 -9 35 -20 10 -11 30 -20 45 -20 22 0 30 8 45 39 20 46 14 64 -21 55 -23
-6 -25 -4 -22 17 3 21 8 24 50 24 37 0 52 6 75 28 23 22 38 27 76 27 45 0 47
-1 47 -28 0 -18 -10 -38 -26 -53 -32 -29 -68 -105 -58 -121 4 -6 9 -51 11 -99
1 -48 7 -107 12 -131 5 -23 13 -78 17 -121 7 -76 7 -78 32 -75 23 3 26 9 30
48 3 25 4 69 4 99 -2 69 10 86 44 64 26 -17 31 -42 12 -61 -9 -9 -7 -16 7 -32
10 -11 24 -20 31 -20 17 0 44 -28 44 -46 0 -21 -37 -17 -53 6 -13 18 -16 19
-27 5 -16 -19 0 -40 49 -63 35 -17 52 -48 33 -61 -9 -6 -42 -65 -42 -76 0 -3
5 -3 12 1 7 5 26 7 42 6 16 -2 33 3 38 10 14 22 9 123 -7 144 -8 10 -15 39
-15 65 0 25 -4 49 -9 55 -5 5 -12 61 -14 124 -3 63 -8 131 -10 150 -3 19 -8
85 -12 145 -4 61 -14 124 -22 142 -8 17 -13 44 -12 60 8 97 9 95 -108 160
-149 81 -344 176 -433 208 -24 9 -64 30 -88 46 -24 16 -52 29 -62 29 -10 0
-23 6 -27 14 -4 7 -25 21 -45 31 -21 9 -38 21 -38 26 0 5 -13 15 -30 24 -33
17 -34 17 -43 8z m141 -271 c2 -7 -3 -12 -12 -12 -9 0 -16 7 -16 16 0 17 22
14 28 -4z m6 -80 c9 -14 -9 -31 -23 -23 -7 5 -10 14 -7 20 8 13 23 14 30 3z
m396 -57 c0 -8 5 -26 10 -41 l11 -27 15 22 c9 12 13 28 10 36 -6 18 -7 18 32
4 37 -13 42 -26 46 -124 3 -63 0 -80 -15 -98 -19 -22 -19 -22 -34 -3 -8 11
-15 28 -15 37 0 23 -16 33 -26 17 -5 -7 -11 -31 -14 -53 -4 -31 -9 -40 -25
-40 -13 0 -21 9 -25 30 -4 17 -12 40 -18 51 -16 31 -18 194 -2 224 l13 24 18
-23 c11 -13 19 -29 19 -36z m217 -116 c43 -46 48 -64 18 -64 -15 0 -21 -8 -23
-32 -2 -18 -6 -33 -10 -33 -20 1 -30 20 -35 70 -4 30 -9 65 -13 78 -10 36 21
27 63 -19z m103 -314 c5 -14 9 -47 9 -73 -1 -26 2 -61 6 -78 8 -36 -7 -53 -30
-34 -17 14 -20 56 -4 65 12 8 3 104 -12 120 -14 14 -11 25 6 25 9 0 20 -11 25
-25z"/>
<path d="M7111 4457 c-1 -43 3 -66 9 -62 12 7 12 69 0 105 -6 18 -8 6 -9 -43z"/>
<path d="M7110 4331 c0 -5 5 -22 11 -38 9 -24 12 -54 18 -196 0 -16 5 -26 11
-22 11 7 12 195 1 235 -7 24 -41 42 -41 21z"/>
<path d="M7563 4093 c-12 -2 -27 -11 -33 -19 -8 -8 -31 -14 -59 -14 -25 0 -55
-7 -65 -15 -11 -8 -35 -15 -54 -15 -28 0 -64 -14 -102 -38 -2 -2 2 -7 10 -12
13 -8 12 -11 -4 -23 -25 -19 -12 -37 26 -37 40 0 175 65 209 101 18 19 44 31
85 39 70 15 81 20 63 31 -14 9 -37 10 -76 2z"/>
<path d="M8633 4083 c-4 -9 3 -33 15 -54 12 -21 24 -62 26 -91 3 -29 11 -69
19 -88 15 -35 34 -186 29 -225 -5 -36 7 -65 28 -65 23 0 30 11 36 53 2 18 7
51 10 75 6 38 4 44 -15 49 -15 4 -21 13 -21 33 0 24 5 28 37 33 32 6 40 2 70
-28 19 -20 33 -44 33 -59 0 -14 6 -29 14 -33 8 -4 24 -27 36 -51 12 -23 27
-45 32 -48 14 -9 29 17 22 39 -7 22 18 32 44 18 14 -7 25 -30 33 -66 10 -47
15 -55 35 -55 13 0 29 -7 36 -15 7 -9 28 -31 46 -49 36 -37 39 -46 17 -46 -17
0 -20 -16 -6 -25 6 -3 14 2 19 11 13 23 29 10 36 -30 4 -19 13 -39 21 -46 12
-10 17 -7 26 14 7 14 15 26 19 26 15 0 37 -38 65 -109 16 -40 35 -75 42 -78
32 -12 36 -43 11 -89 l-23 -44 32 -29 c18 -16 35 -42 38 -58 3 -15 12 -56 20
-91 9 -35 13 -67 10 -72 -4 -6 -19 -10 -35 -10 -40 0 -45 -14 -21 -54 25 -39
40 -149 22 -160 -18 -12 -13 -44 9 -51 11 -3 24 -3 30 0 19 12 22 -23 5 -55
-18 -34 -18 -35 28 -61 17 -10 23 -40 10 -52 -3 -4 -12 -2 -19 4 -37 31 -59
-26 -27 -71 12 -17 13 -25 5 -28 -17 -5 -15 -27 3 -42 8 -7 15 -28 15 -47 0
-33 29 -61 38 -35 2 7 8 12 14 12 7 0 8 -20 3 -57 -4 -32 -7 -80 -6 -108 0
-27 -2 -57 -5 -65 -3 -8 -7 -46 -8 -84 -2 -56 1 -71 16 -85 16 -16 17 -21 5
-52 -21 -51 -11 -118 19 -131 34 -16 42 -49 15 -66 -30 -20 -26 -43 14 -82 41
-40 42 -46 11 -84 -17 -21 -29 -26 -44 -22 -34 11 -92 83 -92 114 0 34 -36 95
-51 86 -6 -3 -9 -24 -7 -45 2 -22 0 -39 -5 -39 -4 0 -22 16 -39 35 -43 50 -65
60 -94 44 -21 -11 -27 -10 -49 11 -18 17 -25 35 -27 73 -3 56 -28 80 -28 28 0
-21 -5 -31 -15 -31 -23 0 -55 41 -55 71 0 15 -7 29 -15 33 -8 3 -15 12 -15 21
0 8 -5 15 -11 15 -6 0 -8 -7 -5 -16 10 -26 -12 -46 -37 -33 -38 21 -87 78 -87
102 0 13 -11 34 -24 46 -21 19 -24 20 -30 6 -3 -9 -6 -34 -6 -55 0 -33 -6 -43
-42 -71 -24 -18 -47 -36 -52 -40 -10 -9 57 -39 86 -39 15 0 17 3 8 19 -14 27
-13 31 8 31 20 -1 112 -66 112 -80 0 -6 -9 -10 -20 -10 -24 0 -27 -15 -5 -24
9 -3 18 1 21 9 8 20 24 19 48 -4 23 -21 77 -55 113 -70 12 -6 39 -27 60 -48
21 -21 51 -44 66 -51 34 -15 134 -87 164 -119 12 -13 31 -23 42 -23 11 0 27
-11 36 -23 8 -13 26 -29 39 -35 13 -5 48 -31 79 -56 65 -52 92 -58 109 -21 9
21 8 40 -5 93 -9 37 -18 112 -21 167 -3 55 -13 156 -21 225 -8 69 -24 215 -35
325 -11 110 -25 227 -30 260 -18 118 -40 303 -55 470 -24 260 -57 505 -73 547
-11 26 -106 145 -146 182 -12 11 -50 47 -86 80 -36 33 -101 94 -145 136 -44
41 -100 92 -125 112 -25 19 -126 115 -225 212 -98 97 -183 176 -187 176 -5 0
-12 -8 -15 -17z"/>
<path d="M7713 4068 c-6 -7 -13 -35 -17 -62 -5 -45 -3 -53 20 -78 21 -21 24
-30 16 -40 -6 -8 -12 -43 -13 -80 -2 -52 2 -73 19 -101 12 -19 22 -44 22 -55
0 -52 34 -73 46 -27 6 26 2 72 -16 173 -6 35 -17 112 -23 170 -10 83 -16 107
-28 110 -9 1 -20 -3 -26 -10z"/>
<path d="M5861 4024 c-11 -14 -23 -41 -27 -60 -3 -18 -12 -38 -20 -45 -12 -9
-10 -16 11 -41 20 -24 25 -40 25 -88 0 -32 -4 -70 -9 -83 -10 -25 -55 -47 -98
-47 -41 0 -70 -40 -78 -106 -4 -33 -12 -65 -18 -72 -9 -12 -23 -62 -34 -129
-7 -45 11 -42 41 6 31 49 43 53 74 24 31 -28 38 -22 45 37 3 25 9 60 13 79 7
34 6 34 -24 28 -36 -7 -46 9 -28 44 10 19 19 23 45 21 26 -2 35 3 49 28 9 16
22 30 28 30 25 0 48 30 53 71 6 42 8 44 39 41 30 -2 32 0 32 28 0 17 -5 39
-12 49 -19 31 -3 49 49 57 l48 7 -33 9 c-22 6 -41 22 -60 50 -31 47 -69 88
-82 88 -5 0 -18 -12 -29 -26z m-116 -544 c8 -26 -1 -40 -26 -40 -22 0 -26 29
-7 48 17 17 26 15 33 -8z"/>
<path d="M5127 3999 c-10 -6 -44 -15 -75 -19 -71 -11 -204 -41 -302 -69 -41
-12 -111 -28 -155 -36 -44 -8 -120 -23 -170 -34 -49 -11 -126 -27 -170 -36
-121 -25 -157 -37 -188 -65 -26 -23 -30 -36 -39 -114 -5 -49 -7 -99 -4 -112 8
-32 45 -35 80 -6 37 30 52 24 48 -21 -3 -27 1 -39 12 -43 37 -14 63 47 30 71
-14 10 -14 15 -4 34 9 18 17 22 38 17 35 -9 40 -9 87 -1 46 8 125 41 125 53 0
32 -47 26 -190 -26 -28 -10 -145 -10 -157 0 -19 15 -16 52 5 70 16 15 64 29
162 48 25 5 64 16 88 24 24 9 80 18 125 22 64 5 90 12 119 31 27 18 44 23 65
19 19 -4 57 4 113 24 47 16 99 30 116 30 17 0 37 7 44 15 8 10 30 15 64 15 75
0 166 17 186 35 23 21 49 19 95 -10 22 -13 51 -25 65 -25 14 0 34 -6 45 -14
11 -7 38 -16 60 -20 21 -4 57 -17 78 -28 38 -19 41 -19 79 -2 53 24 47 45 -17
60 -49 12 -88 26 -171 64 -101 46 -250 72 -287 49z"/>
<path d="M7514 3993 c-3 -10 -12 -33 -20 -51 -16 -37 -12 -52 15 -52 21 0 52
32 74 76 19 37 15 44 -30 44 -23 0 -35 -5 -39 -17z"/>
<path d="M7180 3976 c0 -8 -3 -21 -6 -30 -4 -12 0 -16 15 -16 26 0 38 25 21
45 -16 19 -30 19 -30 1z"/>
<path d="M6790 3911 l-25 -7 23 -13 c12 -6 20 -16 17 -22 -8 -12 -72 -12 -80
1 -3 6 -21 10 -38 10 l-32 0 24 -19 c30 -23 15 -35 -49 -37 -47 -2 -170 -28
-205 -43 -11 -5 -32 -12 -47 -15 -44 -10 -35 -38 21 -64 57 -28 121 -23 121 8
0 18 19 30 48 30 19 0 111 34 163 61 20 11 44 19 53 19 17 0 61 19 106 45 15
9 19 15 10 15 -8 0 -21 9 -28 20 -12 20 -37 24 -82 11z"/>
<path d="M5716 3880 c-56 -6 -77 -30 -26 -30 40 0 36 -21 -7 -35 -27 -9 -118
-78 -145 -110 -22 -27 -79 -113 -89 -135 -29 -63 -52 -129 -64 -175 -6 -27
-14 -57 -17 -65 -15 -38 -40 -243 -44 -361 -8 -188 17 -441 56 -580 14 -49 7
-96 -10 -69 -6 8 -10 29 -10 47 0 17 -5 35 -11 38 -26 17 -62 175 -81 360 -12
118 -12 151 -2 387 l6 116 -26 17 c-27 18 -34 53 -16 71 17 17 1 42 -35 54
-27 9 -39 8 -57 -3 -13 -8 -47 -15 -77 -16 -30 0 -64 -7 -77 -16 -15 -10 -47
-15 -89 -15 -40 0 -78 -6 -96 -15 -16 -9 -59 -20 -97 -25 -37 -5 -83 -13 -102
-19 -19 -6 -54 -11 -77 -11 -23 0 -54 -6 -70 -14 -33 -17 -142 -38 -154 -30
-5 3 -9 16 -9 30 0 25 -23 31 -64 15 -12 -4 -33 0 -55 11 -19 10 -43 18 -53
18 -28 0 -52 47 -49 96 2 34 -1 44 -13 44 -23 0 -28 -17 -16 -56 9 -26 9 -39
1 -47 -22 -22 -12 -46 25 -62 19 -8 46 -23 60 -34 l25 -20 -33 -6 c-35 -7 -82
7 -108 30 -13 12 -21 11 -56 -4 -22 -10 -99 -31 -170 -45 -141 -30 -268 -68
-326 -98 -20 -11 -53 -38 -73 -61 -20 -23 -42 -49 -50 -58 -19 -20 -19 -49 0
-49 8 0 15 5 15 11 0 6 24 35 54 64 44 43 61 54 97 58 24 3 69 12 99 20 30 8
100 22 155 32 55 10 118 26 139 37 31 16 44 18 63 9 13 -6 40 -11 60 -11 20 0
51 -10 70 -21 l35 -22 67 22 c36 11 98 25 136 31 103 14 194 33 311 66 28 8
72 14 98 14 26 0 60 7 76 15 30 15 126 34 217 42 29 3 57 11 64 19 31 38 84
-19 60 -64 -9 -18 -5 -28 29 -66 l39 -46 -15 -42 c-18 -51 -20 -182 -5 -303
24 -202 30 -243 45 -305 8 -36 26 -117 39 -180 21 -102 26 -115 45 -118 22 -3
61 31 62 53 0 6 13 19 30 28 27 17 29 20 16 40 -9 14 -16 69 -21 152 -3 72
-11 147 -16 167 -12 46 1 75 36 84 62 15 51 71 -12 61 -38 -7 -53 11 -53 63 0
47 16 70 50 70 20 0 31 6 35 21 9 27 -2 37 -45 41 -32 3 -35 6 -38 38 -3 40
26 80 58 80 38 0 36 46 -2 52 -12 2 -26 11 -32 20 -13 22 21 71 52 76 27 4 46
28 38 48 -4 12 -13 14 -31 10 -14 -4 -35 -1 -47 5 -19 10 -20 13 -6 23 8 6 20
21 27 34 9 18 19 22 47 20 37 -2 54 12 54 46 0 11 8 38 19 60 33 72 44 106 37
114 -7 6 -26 -13 -46 -48 -5 -8 -12 -11 -16 -7 -5 4 -3 16 4 25 7 9 15 24 18
33 3 9 22 20 42 25 27 7 37 16 43 37 4 15 26 46 48 69 23 22 41 48 41 57 0 9
14 25 30 34 52 31 40 45 -34 37z m-198 -387 c-3 -35 -6 -38 -33 -38 -24 0 -29
4 -27 20 5 25 31 55 49 55 10 0 13 -10 11 -37z m-1308 -238 c0 -8 -7 -15 -15
-15 -26 0 -18 20 13 29 1 1 2 -6 2 -14z"/>
<path d="M6090 3877 c0 -19 33 -47 53 -47 24 0 21 11 -10 37 -30 26 -43 29
-43 10z"/>
<path d="M7609 3848 c-1 -2 -2 -15 -3 -29 -2 -23 1 -26 19 -19 25 9 27 43 3
48 -10 2 -19 2 -19 0z"/>
<path d="M5138 3801 c-13 -11 -44 -23 -68 -28 -62 -12 -61 -36 1 -43 26 -3 54
-12 62 -19 9 -7 21 -10 27 -6 15 9 12 -4 -5 -21 -8 -9 -15 -27 -15 -40 0 -14
-7 -39 -16 -55 -10 -20 -13 -41 -8 -62 10 -50 21 -58 83 -55 47 2 60 -2 83
-23 20 -19 25 -31 21 -52 -3 -15 -9 -30 -14 -33 -5 -3 -9 -15 -9 -27 0 -21 2
-20 25 8 20 23 24 38 21 64 -5 35 33 127 100 239 29 50 26 68 -13 83 -15 6
-35 16 -43 23 -22 18 -101 46 -132 46 -15 0 -38 4 -52 9 -19 8 -30 6 -48 -8z
m137 -51 c10 -11 39 -26 64 -34 51 -15 65 -40 33 -62 -10 -7 -31 -38 -45 -68
-14 -30 -30 -57 -36 -60 -5 -4 -28 1 -50 10 -46 18 -52 37 -48 137 4 85 42
121 82 77z"/>
<path d="M7371 3800 c-13 -11 -31 -20 -42 -20 -28 0 -30 -13 -7 -59 26 -52 53
-53 52 -1 0 38 10 50 42 50 19 0 54 28 54 43 0 16 -76 5 -99 -13z"/>
<path d="M6237 3752 l37 -38 23 24 c13 13 23 25 21 26 -6 4 -99 26 -108 26 -6
0 6 -17 27 -38z"/>
<path d="M7220 3746 c0 -25 5 -57 12 -73 11 -27 12 -25 19 36 9 69 6 81 -17
81 -10 0 -14 -12 -14 -44z"/>
<path d="M7095 3759 c-16 -6 -92 -23 -168 -39 -75 -16 -170 -40 -211 -54 -57
-20 -85 -24 -120 -20 -40 6 -46 4 -46 -11 0 -10 9 -32 19 -49 15 -24 21 -55
24 -129 2 -54 10 -103 16 -111 8 -9 10 -28 6 -50 -5 -26 -2 -44 15 -74 l22
-39 -17 -144 c-20 -166 -20 -182 -3 -188 7 -2 44 -34 83 -70 38 -37 82 -75 98
-86 34 -25 45 -77 27 -139 -9 -34 -20 -48 -50 -65 -20 -11 -44 -28 -51 -38
-27 -32 -132 -93 -161 -93 -19 0 -52 -17 -99 -52 -38 -28 -69 -54 -69 -58 0
-3 -17 -14 -38 -23 -35 -15 -132 -100 -132 -115 0 -4 7 -26 15 -50 16 -45 13
-62 -9 -62 -30 0 -76 -94 -56 -114 15 -15 12 -52 -5 -66 -19 -16 -19 -30 0
-30 15 0 51 -47 43 -56 -3 -2 -31 -5 -62 -5 -45 -1 -65 4 -95 24 -20 14 -62
35 -92 48 -72 30 -130 72 -197 142 -15 15 -32 27 -39 27 -18 0 -46 47 -39 65
3 8 17 15 30 15 14 0 37 5 51 12 22 10 32 9 61 -7 34 -18 35 -18 50 3 20 29
93 28 165 -3 11 -4 26 3 43 22 49 53 38 60 -109 68 -55 3 -129 10 -165 16 -36
6 -81 9 -100 7 -31 -3 -35 -6 -32 -30 4 -35 -26 -52 -79 -43 -38 7 -39 6 -39
-24 0 -18 7 -35 19 -43 25 -18 45 -62 38 -82 -5 -12 -12 -13 -35 -5 -39 13
-102 67 -102 86 0 18 -63 83 -80 83 -5 0 -19 6 -30 12 -17 11 -23 9 -41 -9
l-22 -22 -39 20 c-43 22 -54 40 -40 65 6 11 3 32 -10 68 -11 28 -28 74 -37
101 -10 28 -30 74 -45 104 -14 30 -26 60 -26 66 0 5 -8 26 -18 45 -11 19 -22
48 -26 65 -4 16 -18 52 -31 80 -21 46 -31 70 -66 164 -19 52 -57 91 -87 91
-28 0 -155 -25 -208 -41 -17 -5 -44 -9 -60 -9 -16 0 -45 -5 -64 -11 -46 -13
-228 -48 -310 -59 -36 -5 -107 -13 -159 -20 -52 -6 -102 -15 -112 -20 -9 -5
-53 -14 -96 -19 -44 -4 -89 -13 -101 -20 -11 -6 -32 -11 -46 -11 -14 0 -36
-10 -49 -22 l-22 -23 55 -6 c36 -4 67 -1 89 7 18 8 37 12 41 9 4 -3 30 2 56
10 27 8 90 18 139 21 50 4 100 13 112 21 12 8 38 13 60 11 35 -3 38 -6 44 -38
3 -19 20 -65 37 -101 18 -36 32 -71 32 -76 0 -6 7 -16 15 -23 8 -7 15 -18 15
-25 0 -12 38 -94 160 -350 26 -55 55 -118 64 -140 10 -22 31 -67 46 -100 16
-33 46 -96 66 -140 20 -44 46 -90 57 -102 17 -20 19 -27 8 -49 -10 -23 -15
-25 -44 -19 -57 12 -284 7 -293 -7 -3 -4 -46 -8 -96 -8 -68 0 -96 -4 -108 -15
-24 -21 -66 -5 -88 35 -16 28 -42 41 -42 20 0 -5 9 -27 21 -49 34 -66 87 -71
414 -42 50 5 100 12 111 16 16 5 26 0 43 -20 15 -20 24 -25 33 -17 7 5 36 13
63 17 28 4 75 14 105 21 30 8 77 14 105 14 27 0 68 5 89 11 22 6 74 15 115 20
133 17 156 21 166 30 13 13 59 11 73 -3 7 -7 12 -36 12 -66 0 -46 -4 -58 -29
-83 -25 -25 -38 -29 -83 -30 -29 0 -75 -5 -103 -10 -95 -18 -390 -49 -420 -43
-37 7 -82 -24 -72 -48 9 -24 77 -33 222 -30 126 3 131 4 158 30 25 24 41 28
135 38 59 7 127 19 152 29 50 19 135 16 228 -9 61 -17 116 -7 132 24 5 10 10
57 10 103 0 91 -15 135 -53 162 -12 8 -31 31 -42 51 -32 60 -47 63 -93 23 -23
-19 -40 -41 -39 -49 3 -21 38 -25 49 -6 20 36 68 11 68 -35 0 -17 9 -32 24
-43 23 -15 44 -71 32 -83 -3 -4 -23 -7 -44 -9 -20 -1 -68 -7 -105 -14 -78 -15
-98 -7 -80 32 8 20 4 28 -29 60 -27 26 -49 38 -69 38 -36 0 -37 11 -4 46 14
15 25 36 25 48 0 25 -26 107 -50 156 -27 57 -43 117 -36 137 7 16 10 14 23
-12 9 -16 22 -34 29 -40 19 -16 64 -157 64 -203 0 -23 5 -42 11 -42 5 0 36 24
67 53 55 50 63 59 95 101 13 18 18 18 46 7 17 -8 31 -19 31 -26 0 -24 43 -66
93 -92 29 -14 66 -36 82 -48 17 -12 54 -30 84 -40 55 -18 110 -64 112 -95 1
-8 1 -32 0 -52 -3 -48 14 -78 44 -78 32 0 45 27 45 95 0 50 4 62 34 98 l34 42
182 3 c173 2 185 4 225 27 58 35 80 88 55 136 -9 16 -7 21 13 28 27 10 49 84
36 119 -7 18 -14 21 -41 15 -18 -3 -35 -7 -37 -9 -2 -2 1 -22 7 -46 12 -47 9
-58 -18 -58 -23 0 -38 -46 -21 -63 14 -14 14 -27 1 -27 -5 0 -10 7 -10 15 0
22 -47 19 -60 -4 -5 -11 -10 -29 -10 -40 0 -25 -12 -28 -146 -36 -105 -7 -112
-6 -118 12 -6 17 35 123 93 243 11 22 17 49 14 59 -3 12 4 33 17 51 18 25 28
30 64 30 24 0 63 -7 86 -15 23 -8 56 -15 72 -15 34 0 76 -20 102 -49 19 -21
19 -21 50 -2 17 10 67 23 111 29 44 6 107 17 140 25 45 10 85 11 162 4 57 -5
110 -7 118 -3 29 11 18 71 -20 112 -23 24 -35 46 -35 66 0 33 -27 49 -44 26
-6 -8 -21 -20 -33 -26 -30 -16 -19 -51 18 -59 32 -6 74 -47 64 -62 -10 -17
-52 -13 -92 9 -21 11 -48 20 -61 20 -13 0 -32 5 -43 11 -16 8 -26 7 -44 -5
-12 -8 -54 -20 -91 -26 -38 -6 -96 -19 -129 -28 -80 -22 -169 -21 -195 3 -11
10 -37 21 -58 24 -22 4 -37 12 -37 20 0 13 64 40 140 60 17 4 41 14 55 21 13
7 51 17 85 21 33 5 76 11 95 15 28 4 43 0 73 -20 21 -14 41 -26 44 -26 3 0 3
20 1 45 -3 25 -2 47 2 50 11 7 60 -34 60 -51 0 -18 -2 -18 45 6 22 11 47 20
56 20 9 0 22 7 30 16 10 12 24 14 71 9 35 -4 63 -3 71 3 7 6 28 12 47 14 30 3
36 7 40 33 4 26 10 30 39 33 33 3 34 3 28 -27 -7 -35 4 -45 39 -37 29 8 30 16
3 45 l-21 23 23 16 c21 15 22 16 3 23 -10 4 -35 8 -55 8 -19 1 -39 5 -45 10
-5 5 -23 12 -41 16 -26 5 -34 3 -43 -15 -15 -28 -108 -69 -171 -75 -28 -3 -59
-10 -70 -15 -22 -12 -193 13 -216 32 -29 24 -15 65 37 109 42 36 49 46 43 68
-3 14 -9 31 -14 36 -4 6 -12 23 -18 37 -18 48 37 78 74 41 13 -12 16 -27 12
-58 -5 -37 -3 -45 21 -69 26 -24 35 -26 109 -26 49 0 95 -6 116 -15 58 -24 77
-20 77 15 0 32 -16 38 -51 19 -17 -8 -24 -6 -40 15 -18 23 -27 26 -90 26 -76
0 -87 8 -70 53 6 16 18 27 29 27 31 0 110 -39 126 -62 9 -12 21 -18 30 -15 28
11 17 46 -29 88 -38 35 -60 79 -39 79 31 0 84 -27 100 -51 29 -43 40 -42 70 5
15 23 51 59 81 79 l55 38 52 -15 c38 -11 56 -23 64 -40 6 -13 20 -27 31 -31
11 -3 31 -29 45 -58 27 -57 80 -98 90 -70 3 8 1 34 -5 59 -17 68 -14 71 85 66
94 -5 146 10 167 50 10 18 17 20 58 15 25 -3 60 -13 76 -21 17 -9 37 -16 46
-16 27 0 41 -26 56 -107 21 -109 52 -163 69 -118 4 10 13 13 25 10 14 -5 20 2
30 33 9 32 8 44 -5 70 -18 34 -22 157 -6 167 5 3 14 24 21 47 l11 41 22 -28
c32 -40 46 -25 46 50 0 72 -39 169 -64 159 -21 -8 -69 76 -54 93 13 16 19 11
-68 62 -42 24 -83 41 -102 41 -19 0 -36 7 -44 19 -8 12 -32 22 -61 26 -26 4
-49 11 -52 15 -3 5 -23 11 -44 15 -22 4 -45 13 -52 21 -6 8 -19 14 -28 14 -9
0 -25 7 -35 15 -11 8 -29 15 -41 15 -11 0 -31 7 -44 16 -21 15 -25 15 -55 -1
-23 -13 -45 -16 -75 -12 -22 3 -43 1 -46 -4 -3 -4 17 -33 45 -64 44 -48 50
-61 45 -85 -3 -16 3 -92 15 -170 20 -133 20 -180 0 -180 -5 0 -20 5 -34 11
-21 10 -34 7 -88 -21 -35 -18 -74 -43 -87 -56 -20 -20 -34 -24 -89 -24 -66 0
-256 -41 -304 -66 -37 -19 -87 -18 -95 2 -6 16 0 23 44 50 17 11 16 14 -16 45
-19 19 -45 52 -58 73 -28 44 -195 216 -210 216 -14 0 -77 61 -92 87 -19 36
-14 90 11 107 18 13 21 23 19 85 -3 86 1 88 126 86 85 -2 94 0 115 22 28 30
52 29 66 -2 7 -14 23 -30 37 -35 22 -8 25 -16 25 -56 0 -40 -2 -45 -17 -39
-10 4 -44 12 -76 17 -53 9 -61 7 -102 -17 -25 -14 -45 -32 -45 -40 0 -9 -10
-15 -25 -15 -22 0 -25 -4 -25 -39 l0 -38 50 -7 c39 -5 58 -2 89 14 25 12 60
20 90 20 41 0 57 6 93 33 46 36 48 44 29 127 -5 25 -10 71 -11 103 0 61 -13
98 -33 96 -7 0 -25 -5 -42 -10z m758 -344 c26 -8 57 -21 69 -30 15 -10 33 -13
55 -9 28 5 39 1 74 -31 28 -25 46 -34 57 -30 42 17 53 16 89 -14 21 -17 43
-31 50 -31 19 0 59 -48 81 -99 19 -45 43 -155 46 -216 1 -28 -1 -30 -33 -27
-19 1 -58 18 -87 37 -29 20 -68 38 -86 42 -18 3 -49 14 -67 24 -24 13 -46 17
-71 13 -24 -4 -48 -1 -68 10 -17 9 -44 16 -61 16 -17 0 -41 10 -55 23 -23 19
-28 38 -46 160 -14 100 -17 144 -10 158 6 10 12 19 13 19 1 0 23 -7 50 -15z
m-1026 -215 c32 -49 131 -148 176 -177 57 -36 49 -62 -28 -83 -151 -42 -178
-35 -181 51 -1 30 -9 94 -18 143 -8 49 -13 93 -10 98 11 17 38 3 61 -32z
m1098 -220 c6 0 24 2 40 5 17 3 37 1 45 -4 24 -16 -3 -34 -67 -43 -100 -15
-107 -14 -111 5 -6 30 18 49 52 43 17 -4 36 -6 41 -6z m-3015 -106 c0 -15 11
-47 24 -73 13 -25 38 -82 56 -126 18 -44 45 -107 60 -140 45 -98 130 -296 152
-352 11 -29 23 -53 27 -53 4 0 15 -24 26 -52 10 -29 24 -62 32 -73 7 -11 13
-27 13 -37 0 -17 18 -66 46 -121 15 -30 19 -104 6 -123 -8 -13 -95 -29 -257
-48 -60 -7 -123 -18 -138 -24 -44 -19 -91 -15 -116 10 -23 21 -71 117 -71 142
0 7 -8 20 -18 30 -11 9 -27 42 -37 74 -11 31 -24 64 -30 72 -6 8 -19 35 -29
60 -16 40 -63 142 -89 195 -66 131 -127 264 -127 278 0 8 -9 22 -20 32 -11 10
-20 26 -20 37 0 10 -4 26 -10 36 -5 9 -24 48 -41 87 -37 82 -32 97 32 106 127
18 192 30 208 39 10 5 51 14 92 19 41 6 92 15 114 20 22 5 57 9 78 10 34 1 37
-1 37 -25z m2438 -412 c2 -7 -6 -12 -17 -12 -21 0 -27 11 -14 24 9 9 26 2 31
-12z"/>
<path d="M7913 3303 c-4 -10 -17 -26 -30 -36 -13 -10 -23 -29 -23 -43 0 -47
42 -18 63 44 14 40 4 73 -10 35z"/>
<path d="M8188 3244 c-10 -16 -20 -121 -14 -142 8 -24 29 -34 52 -25 13 5 15
15 11 47 -7 50 -41 134 -49 120z"/>
<path d="M4788 2819 c-27 -15 -21 -29 7 -16 14 7 25 15 25 20 0 10 -11 8 -32
-4z"/>
<path d="M4818 3730 c-7 -4 -35 -11 -63 -15 -80 -11 -157 -33 -176 -51 -12
-11 -27 -14 -49 -9 -21 5 -39 2 -55 -9 -32 -21 -31 -33 1 -48 24 -11 64 -76
64 -104 0 -6 -8 -22 -18 -34 -17 -21 -22 -22 -52 -11 -41 14 -50 6 -54 -47 -3
-37 -1 -39 15 -29 14 8 27 8 52 -1 48 -17 59 -15 52 8 -8 25 42 47 122 54 32
3 60 11 64 18 4 7 17 24 28 37 25 28 24 23 11 55 -11 31 -30 34 -30 5 0 -24
-57 -79 -82 -79 -21 0 -53 45 -63 88 -5 26 -13 34 -36 39 -55 11 -24 28 56 31
66 2 80 6 95 25 16 20 21 21 52 9 49 -17 67 -15 88 10 15 19 27 22 69 20 50
-2 101 18 101 39 0 10 -172 9 -192 -1z"/>
<path d="M6165 3731 c-7 -12 12 -24 25 -16 11 7 4 25 -10 25 -5 0 -11 -4 -15
-9z"/>
<path d="M6255 3670 c-62 -28 -140 -50 -179 -50 -19 0 -55 -6 -78 -14 -24 -8
-54 -16 -68 -18 -25 -3 -25 -4 -30 -129 -3 -82 -10 -131 -18 -142 -29 -35 -32
-78 -12 -163 11 -45 20 -116 20 -157 0 -42 4 -87 10 -101 9 -23 15 -26 63 -26
31 0 61 6 73 15 11 8 42 14 75 15 30 0 61 6 67 12 8 8 45 13 105 13 l92 0 6
-43 c3 -23 24 -79 47 -125 23 -45 42 -91 42 -102 0 -11 7 -29 15 -39 8 -11 15
-30 15 -43 0 -13 4 -31 10 -41 5 -9 15 -30 20 -45 8 -22 15 -28 33 -25 30 4
35 48 7 73 -11 10 -20 27 -20 38 0 30 -22 100 -37 118 -7 8 -13 23 -13 31 0 9
-15 49 -33 89 -19 41 -37 86 -40 101 -4 15 -19 35 -35 46 -30 21 -128 37 -137
21 -4 -5 -15 -9 -25 -9 -10 0 -25 -7 -34 -15 -11 -12 -20 -13 -38 -4 -24 10
-36 8 -148 -36 -38 -15 -80 -19 -80 -8 0 13 82 173 91 179 17 10 181 38 319
53 43 5 94 18 120 31 25 13 59 26 75 29 21 5 31 14 33 28 4 26 -17 38 -73 45
-22 3 -58 14 -80 24 -39 19 -40 20 -46 84 -7 78 -31 294 -33 296 -10 12 -50 9
-81 -6z m35 -106 c0 -32 -18 -66 -31 -58 -21 12 -40 -19 -37 -59 3 -36 0 -42
-26 -57 -42 -23 -42 -36 -2 -50 26 -8 40 -8 56 0 40 21 89 -17 75 -59 -6 -19
-58 -31 -129 -31 -18 0 -37 -5 -44 -12 -7 -7 -38 -15 -70 -19 -31 -4 -74 -10
-96 -14 -27 -6 -40 -4 -46 5 -9 15 -6 147 3 156 11 11 27 -7 27 -32 0 -19 5
-24 25 -24 29 0 33 24 10 54 -8 11 -15 31 -15 44 0 13 -4 31 -10 41 -19 37 44
89 110 89 19 0 48 5 63 11 16 6 39 11 52 11 12 0 33 9 46 19 28 23 39 19 39
-15z"/>
<path d="M5009 3658 c-10 -18 -8 -24 10 -39 29 -23 71 -7 71 27 0 38 -62 48
-81 12z"/>
<path d="M4915 3620 c-9 -15 25 -66 53 -82 25 -13 34 -13 101 -2 26 4 31 8 20
15 -8 5 -27 9 -42 9 -19 0 -39 11 -61 35 -33 35 -59 44 -71 25z"/>
<path d="M7983 3593 c-14 -5 -18 -49 -5 -57 17 -10 52 7 52 25 0 20 -28 39
-47 32z"/>
<path d="M8127 3583 c-4 -3 -7 -17 -7 -30 0 -18 5 -23 25 -23 20 0 25 5 25 24
0 13 -7 27 -16 30 -19 7 -19 7 -27 -1z"/>
<path d="M8820 3555 c0 -8 7 -15 16 -15 14 0 14 3 4 15 -7 8 -14 15 -16 15 -2
0 -4 -7 -4 -15z"/>
<path d="M8092 3498 c2 -18 11 -24 36 -26 40 -4 44 19 7 36 -37 17 -47 15 -43
-10z"/>
<path d="M7477 3490 c-17 -24 -12 -45 17 -70 9 -7 16 -20 16 -30 0 -29 -111
-33 -169 -6 -52 24 -65 46 -27 46 19 0 26 5 26 20 0 24 -41 28 -60 5 -7 -8
-23 -15 -35 -15 -39 0 -55 -11 -55 -36 0 -16 6 -24 16 -24 9 0 38 -13 64 -29
26 -16 55 -31 66 -33 10 -2 28 -17 40 -35 21 -31 23 -72 12 -173 -4 -36 39
-49 89 -26 21 9 67 20 103 24 l65 7 0 48 c-3 256 -4 270 -33 304 -21 26 -38
34 -73 39 -41 6 -48 4 -62 -16z m98 -174 c4 -17 2 -44 -4 -59 -9 -24 -16 -28
-43 -25 -31 3 -33 5 -32 40 2 80 66 115 79 44z"/>
<path d="M8755 3437 c-9 -85 4 -152 30 -152 17 0 20 8 23 63 2 50 -1 68 -17
87 -11 15 -17 34 -14 45 3 11 1 20 -5 20 -6 0 -13 -28 -17 -63z"/>
<path d="M4233 3438 c-51 -44 -59 -64 -30 -82 43 -27 136 72 104 112 -14 18
-22 16 -74 -30z"/>
<path d="M4955 3460 c-3 -5 3 -10 14 -10 12 0 21 5 21 10 0 6 -6 10 -14 10 -8
0 -18 -4 -21 -10z"/>
<path d="M9120 3455 c0 -8 5 -15 10 -15 6 0 10 7 10 15 0 8 -4 15 -10 15 -5 0
-10 -7 -10 -15z"/>
<path d="M4773 3437 c-24 -5 -43 -14 -43 -18 0 -5 -20 -9 -45 -9 -25 0 -45 -4
-45 -10 0 -16 69 -11 96 7 18 11 44 16 85 15 59 -2 79 10 37 22 -27 7 -31 7
-85 -7z"/>
<path d="M9122 3333 c3 -78 21 -84 23 -8 1 56 -3 75 -17 75 -5 0 -8 -30 -6
-67z"/>
<path d="M6805 3367 c-4 -10 -5 -21 -1 -24 10 -10 18 4 13 24 -4 17 -4 17 -12
0z"/>
<path d="M4355 3340 c-3 -5 3 -10 14 -10 11 0 23 5 26 10 3 6 -3 10 -14 10
-11 0 -23 -4 -26 -10z"/>
<path d="M9020 3286 c0 -27 15 -42 25 -26 8 13 -3 50 -16 50 -5 0 -9 -11 -9
-24z"/>
<path d="M5700 3279 c-16 -12 -45 -21 -75 -23 -45 -2 -50 -5 -62 -35 -9 -21
-16 -99 -20 -214 -3 -125 -10 -191 -19 -211 -10 -20 -11 -33 -4 -40 17 -17 91
-9 120 13 22 16 37 18 87 14 54 -5 62 -3 76 17 17 25 13 82 -9 115 -8 11 -14
44 -15 75 0 30 -4 78 -10 105 -5 28 -13 81 -18 118 -5 38 -13 73 -17 77 -5 4
-20 -1 -34 -11z m-39 -190 c6 -12 8 -34 5 -49 -3 -20 3 -44 20 -76 14 -25 24
-54 22 -63 -1 -9 1 -22 6 -30 10 -15 -12 -34 -28 -24 -5 3 -15 -2 -22 -12 -13
-17 -15 -15 -33 26 -16 36 -19 60 -15 139 2 52 4 98 4 103 0 16 30 6 41 -14z"/>
<path d="M7128 3263 c-24 -28 -46 -83 -52 -133 -4 -40 -1 -52 32 -102 36 -56
62 -76 82 -63 7 4 7 13 0 26 -6 11 -12 79 -14 152 -3 105 -6 133 -18 135 -8 1
-21 -5 -30 -15z"/>
<path d="M5020 3250 c-8 -5 -28 -15 -45 -22 -19 -8 -31 -22 -33 -36 -2 -14
-18 -32 -38 -44 -39 -23 -41 -29 -16 -51 27 -25 50 -21 66 12 9 16 22 31 30
34 8 3 20 25 27 48 7 22 19 43 26 46 14 5 18 23 6 22 -5 0 -15 -4 -23 -9z"/>
<path d="M8797 3223 c-11 -10 -8 -43 3 -43 6 0 10 11 10 25 0 26 -2 29 -13 18z"/>
<path d="M8659 3103 c-5 -15 -8 -37 -5 -49 4 -14 -2 -28 -17 -43 -27 -24 -37
-19 -37 18 0 33 -14 56 -29 47 -15 -10 -14 -46 4 -80 8 -15 15 -43 15 -61 0
-47 23 -63 39 -28 l13 28 12 -24 c10 -17 11 -33 3 -56 -8 -29 -6 -37 18 -69
15 -20 31 -36 36 -36 9 0 13 62 9 149 -1 27 -10 55 -23 73 -19 26 -20 32 -9
74 9 32 9 51 2 64 -14 26 -19 25 -31 -7z"/>
<path d="M4823 3098 c2 -7 10 -13 17 -13 7 0 15 6 18 13 2 7 -5 12 -18 12 -13
0 -20 -5 -17 -12z"/>
<path d="M4625 3070 c-8 -12 20 -24 35 -15 5 3 10 10 10 16 0 12 -37 12 -45
-1z"/>
<path d="M3980 3045 c-10 -12 -9 -15 8 -15 11 0 25 7 32 15 10 12 9 15 -8 15
-11 0 -25 -7 -32 -15z"/>
<path d="M8820 3016 c0 -20 19 -31 32 -18 7 7 3 14 -11 21 -17 10 -21 9 -21
-3z"/>
<path d="M3825 2966 c-55 -24 -113 -51 -130 -60 -16 -9 -38 -16 -47 -16 -10 0
-24 -13 -33 -30 -9 -16 -20 -30 -25 -30 -6 0 -19 -9 -31 -21 -15 -15 -29 -20
-49 -16 -32 7 -50 -8 -50 -39 0 -24 34 -54 60 -54 9 0 31 -16 48 -36 40 -45
56 -37 48 23 -5 39 -2 49 30 93 22 31 46 53 62 56 15 4 37 15 48 26 12 11 35
27 51 36 68 39 98 58 127 84 27 24 28 27 11 27 -11 0 -65 -20 -120 -43z"/>
<path d="M8890 2980 c0 -5 7 -10 15 -10 8 0 15 5 15 10 0 6 -7 10 -15 10 -8 0
-15 -4 -15 -10z"/>
<path d="M9055 2978 c-4 -10 -4 -26 0 -35 8 -17 8 -17 12 0 3 9 3 25 0 35 -4
16 -4 16 -12 0z"/>
<path d="M7514 2852 c-43 -55 -41 -68 21 -96 44 -20 62 -35 87 -75 17 -28 37
-51 45 -51 41 0 71 44 38 56 -14 6 -106 116 -138 167 -21 33 -26 33 -53 -1z"/>
<path d="M9072 2858 c6 -18 28 -21 28 -4 0 9 -7 16 -16 16 -9 0 -14 -5 -12
-12z"/>
<path d="M9184 2810 c4 -28 9 -57 12 -65 9 -21 34 -19 34 4 0 21 -38 111 -47
111 -3 0 -3 -23 1 -50z"/>
<path d="M8815 2823 c4 -10 9 -27 12 -38 11 -46 12 -48 28 -35 21 17 19 35 -9
64 -27 30 -41 34 -31 9z"/>
<path d="M3258 2793 c-9 -10 -21 -55 -27 -100 -10 -71 -10 -86 4 -113 15 -30
15 -34 -4 -76 -16 -34 -19 -49 -11 -69 6 -15 10 -40 10 -57 0 -41 95 -320 125
-368 14 -22 25 -44 25 -49 0 -5 27 -37 61 -70 44 -44 71 -63 102 -71 23 -5 56
-15 72 -22 52 -21 126 -16 162 11 28 21 35 22 64 12 17 -6 45 -11 60 -11 16 0
29 -4 29 -10 0 -5 -4 -10 -10 -10 -5 0 -10 -9 -10 -20 0 -17 7 -20 47 -20 50
0 108 -30 119 -62 6 -19 24 -25 24 -9 0 19 -38 97 -54 110 -9 7 -62 106 -117
220 -121 247 -123 251 -144 321 -10 30 -21 62 -26 70 -5 8 -19 35 -30 60 -25
56 -47 80 -71 80 -20 0 -24 -29 -8 -60 7 -13 6 -21 -5 -30 -24 -20 -17 -40 20
-56 29 -12 35 -19 35 -45 0 -16 6 -42 14 -57 40 -79 53 -280 22 -337 -9 -16
-19 -45 -22 -63 -7 -37 -22 -47 -58 -38 -28 7 -40 31 -26 56 7 13 6 21 -5 30
-13 11 -13 15 0 33 8 12 15 32 15 46 0 23 -2 24 -48 18 -45 -5 -56 -2 -133 41
-96 54 -105 72 -69 143 13 25 20 53 18 71 -3 19 0 32 9 35 20 8 15 23 -8 23
-12 0 -23 -8 -26 -20 -6 -24 -23 -27 -23 -3 0 9 -12 32 -27 52 -35 45 -49 146
-25 174 13 14 13 21 2 41 -11 22 -10 28 11 55 13 16 32 33 42 36 19 7 23 35 5
35 -20 1 -65 43 -73 68 -8 27 -17 28 -37 5z m302 -808 c0 -8 -6 -15 -14 -15
-17 0 -28 14 -19 24 12 12 33 6 33 -9z m305 -101 c-10 -7 -22 -11 -28 -7 -6 3
-3 11 8 19 10 7 22 11 28 7 6 -3 3 -11 -8 -19z"/>
<path d="M6041 2801 c-20 -13 -7 -37 24 -45 63 -16 71 -28 73 -121 1 -47 8
-97 14 -112 6 -16 14 -82 17 -149 4 -82 11 -126 20 -138 25 -30 36 0 39 113 3
85 1 115 -12 139 -11 21 -16 58 -16 116 0 132 -41 206 -115 206 -16 0 -36 -4
-44 -9z"/>
<path d="M6272 2778 c-16 -16 -15 -28 2 -28 16 0 29 27 17 34 -4 3 -13 0 -19
-6z"/>
<path d="M5845 2745 c-22 -7 -52 -18 -67 -24 l-28 -11 60 -61 c33 -34 60 -63
60 -65 0 -17 -49 -74 -65 -76 -36 -5 -28 -35 20 -69 59 -42 59 -70 0 -82 -43
-9 -129 -10 -157 -1 -39 12 -2 64 45 64 14 0 29 5 32 10 11 18 -6 50 -27 50
-25 0 -108 -66 -108 -85 0 -8 -9 -20 -21 -29 -15 -10 -19 -20 -14 -35 6 -21
38 -36 54 -27 5 4 23 -5 39 -19 38 -32 77 -46 101 -37 10 4 57 32 105 62 l87
55 -7 60 c-3 33 -6 111 -5 174 2 158 -11 176 -104 146z"/>
<path d="M8704 2705 c-15 -24 -15 -27 0 -44 17 -19 21 -67 7 -90 -13 -20 -39
2 -49 42 -10 38 -28 46 -37 16 -5 -14 0 -30 13 -49 14 -18 17 -31 11 -41 -12
-19 -11 -82 1 -115 15 -38 24 -22 24 44 1 50 3 57 21 57 18 0 20 -7 20 -57 0
-69 15 -90 45 -63 14 13 19 26 15 40 -23 75 -36 145 -31 171 6 40 -4 114 -15
114 -5 0 -16 -11 -25 -25z"/>
<path d="M7375 2710 c-3 -5 4 -15 17 -21 13 -5 32 -27 44 -47 17 -32 24 -37
53 -35 42 2 50 10 24 28 -11 8 -24 26 -27 40 -5 20 -13 25 -37 25 -17 0 -39 5
-49 10 -13 7 -21 7 -25 0z"/>
<path d="M8029 2700 c-9 -5 -38 -14 -65 -20 -27 -6 -64 -23 -83 -37 l-34 -26
-22 27 c-20 25 -25 26 -43 15 -16 -10 -18 -17 -11 -31 6 -10 8 -22 5 -27 -3
-4 -1 -24 5 -44 8 -30 15 -37 35 -37 14 0 45 -9 69 -20 28 -13 54 -18 73 -14
19 4 34 1 44 -9 8 -9 33 -17 54 -19 34 -3 39 -6 39 -28 0 -24 2 -25 60 -25 68
-1 109 -18 139 -58 26 -35 16 -54 -46 -85 -124 -62 -410 -34 -391 39 8 31 45
50 110 56 99 10 115 31 45 60 -33 13 -37 13 -63 -6 -36 -27 -40 -27 -69 7 -14
16 -48 36 -75 46 -28 10 -64 24 -81 32 -29 15 -84 11 -84 -5 0 -4 14 -17 30
-29 17 -13 30 -29 30 -37 0 -21 15 -26 44 -16 19 8 30 6 48 -9 23 -18 23 -18
4 -51 -19 -32 -19 -32 0 -46 44 -33 50 -39 64 -66 23 -45 58 -76 80 -70 24 6
26 -9 5 -27 -17 -14 -20 -50 -5 -50 15 0 52 -78 40 -85 -6 -3 -10 -17 -10 -30
0 -20 10 -26 62 -44 34 -12 73 -21 86 -21 13 0 32 -5 43 -11 11 -6 42 -11 69
-13 29 -1 57 -9 68 -19 10 -9 32 -17 49 -17 17 0 47 -7 66 -15 20 -8 56 -15
80 -15 24 0 52 -7 63 -15 10 -8 33 -15 51 -15 17 0 44 -6 60 -14 27 -14 79
-29 155 -45 48 -11 63 3 38 38 -11 16 -20 52 -24 93 -3 38 -10 77 -16 88 -6
12 -8 40 -4 69 7 57 -2 67 -45 45 -43 -21 -61 -12 -61 30 0 37 -24 56 -38 29
-11 -19 17 -71 64 -117 27 -26 31 -39 32 -83 0 -29 -1 -53 -4 -53 -18 0 -44
24 -44 40 0 10 -4 22 -10 25 -6 4 -10 -6 -10 -22 0 -37 -21 -66 -45 -62 -29 6
-66 145 -58 219 4 40 2 59 -7 65 -20 12 -31 -17 -24 -65 11 -86 9 -160 -7
-176 -22 -21 -47 -8 -55 29 -6 32 -30 67 -46 67 -4 0 -8 -13 -8 -29 0 -68 -29
-79 -83 -32 -27 25 -44 30 -92 33 l-59 3 -9 38 c-11 44 -19 46 -46 11 -34 -43
-51 -26 -51 53 0 75 9 97 35 91 18 -3 29 -17 39 -51 5 -16 9 -15 33 11 16 16
36 43 45 61 10 18 25 31 36 31 13 0 25 14 37 41 17 37 48 69 67 69 4 0 14 -12
21 -27 l15 -27 6 31 c4 18 3 41 -3 52 -16 29 -13 49 9 68 26 22 25 38 -1 56
-14 10 -22 30 -25 59 -8 69 -14 89 -24 83 -13 -8 -13 -108 1 -138 10 -23 -2
-132 -17 -146 -3 -3 -20 11 -37 32 -28 32 -32 46 -35 103 -1 38 2 72 8 80 7 7
10 23 8 36 -2 18 -12 24 -45 31 -25 5 -43 14 -43 21 0 21 -39 41 -100 54 -30
6 -64 14 -75 17 -11 3 -27 1 -36 -5z m148 -97 l35 -16 -27 -26 c-24 -25 -30
-26 -126 -24 -59 1 -107 7 -115 14 -19 16 -18 46 4 58 29 17 189 13 229 -6z
m81 -86 c6 -29 -7 -67 -23 -67 -18 0 -29 34 -21 66 8 29 39 29 44 1z"/>
<path d="M8505 2677 c-4 -12 -1 -35 4 -51 6 -15 11 -38 11 -52 0 -15 6 -24 16
-24 12 0 15 6 10 23 -3 12 -9 46 -12 75 -7 55 -20 68 -29 29z"/>
<path d="M3475 2660 c-4 -6 -3 -16 3 -22 6 -6 12 -6 17 2 4 6 3 16 -3 22 -6 6
-12 6 -17 -2z"/>
<path d="M9115 2607 c-5 -17 -3 -33 3 -39 16 -16 27 18 14 45 -10 22 -10 21
-17 -6z"/>
<path d="M5527 2602 c-23 -25 -38 -72 -32 -93 7 -22 30 -24 65 -4 14 8 44 14
68 15 38 0 42 2 42 25 0 17 -11 32 -37 50 -44 29 -83 32 -106 7z"/>
<path d="M9344 2607 c-8 -21 3 -67 16 -67 18 0 23 51 7 68 -15 14 -17 14 -23
-1z"/>
<path d="M7580 2595 c0 -21 28 -31 43 -16 9 9 8 14 -3 21 -22 14 -40 12 -40
-5z"/>
<path d="M4250 2561 c0 -12 5 -21 10 -21 6 0 10 6 10 14 0 8 -4 18 -10 21 -5
3 -10 -3 -10 -14z"/>
<path d="M8860 2556 c0 -34 43 -50 54 -20 8 21 -11 44 -35 44 -13 0 -19 -7
-19 -24z"/>
<path d="M4277 2493 c-12 -12 -7 -33 8 -33 17 0 19 9 7 28 -5 7 -11 9 -15 5z"/>
<path d="M9381 2481 c-14 -26 -14 -68 0 -77 20 -12 42 21 34 55 -8 39 -21 47
-34 22z"/>
<path d="M4220 2465 c-10 -12 -10 -19 -2 -27 13 -13 42 6 42 28 0 19 -24 18
-40 -1z"/>
<path d="M8875 2457 c-4 -9 -4 -29 0 -45 l8 -27 8 29 c10 35 -5 73 -16 43z"/>
<path d="M7620 2445 c-8 -9 -6 -17 5 -29 24 -24 45 -20 45 8 0 27 -33 41 -50
21z"/>
<path d="M9118 2448 c-9 -25 4 -59 21 -56 22 4 22 62 0 66 -10 2 -19 -3 -21
-10z"/>
<path d="M3933 2434 c-3 -8 1 -22 9 -30 13 -13 16 -13 27 0 7 9 11 23 7 31 -7
20 -35 19 -43 -1z"/>
<path d="M8540 2391 c0 -58 10 -111 20 -111 16 0 18 44 5 78 -8 19 -12 45 -9
58 4 15 2 24 -5 24 -7 0 -11 -20 -11 -49z"/>
<path d="M7730 2386 c0 -8 5 -18 10 -21 6 -3 10 1 10 9 0 8 -4 18 -10 21 -5 3
-10 -1 -10 -9z"/>
<path d="M8750 2302 c0 -32 -3 -62 -7 -65 -3 -4 -22 5 -40 19 l-34 26 3 -33
c2 -27 10 -37 35 -48 18 -8 35 -22 38 -31 7 -22 53 -65 61 -57 4 3 1 21 -5 39
-7 20 -9 59 -5 103 5 59 4 74 -11 88 -28 28 -35 20 -35 -41z"/>
<path d="M4230 2316 c0 -9 7 -16 16 -16 9 0 14 5 12 12 -6 18 -28 21 -28 4z"/>
<path d="M9367 2313 c-4 -3 -7 -17 -7 -30 0 -29 36 -32 45 -3 10 31 -17 55
-38 33z"/>
<path d="M7647 2280 c-19 -16 -39 -30 -45 -30 -6 0 -24 -16 -40 -36 -26 -32
-32 -35 -51 -24 -12 6 -42 17 -66 24 -37 12 -47 12 -65 -1 -13 -9 -20 -23 -18
-36 3 -21 9 -22 101 -25 l99 -3 55 43 c101 80 116 95 109 106 -12 20 -44 13
-79 -18z"/>
<path d="M5460 2266 c0 -19 3 -41 6 -50 9 -23 50 -19 69 7 15 21 14 23 -15 50
-42 37 -60 35 -60 -7z"/>
<path d="M8902 2238 c2 -13 8 -23 13 -23 6 0 11 10 13 23 2 15 -2 22 -13 22
-11 0 -15 -7 -13 -22z"/>
<path d="M9146 2252 c-8 -13 5 -52 15 -46 12 7 12 54 0 54 -6 0 -12 -4 -15 -8z"/>
<path d="M9406 2198 c-2 -7 -10 -33 -17 -57 -12 -40 -11 -45 6 -57 31 -23 35
-17 35 50 0 59 -14 97 -24 64z"/>
<path d="M8426 2144 c-4 -9 0 -27 9 -40 8 -13 15 -35 15 -49 0 -16 6 -25 16
-25 12 0 14 8 9 48 -9 67 -15 82 -30 82 -7 0 -16 -7 -19 -16z"/>
<path d="M9170 2125 c0 -22 4 -34 10 -30 6 3 10 17 10 30 0 13 -4 27 -10 30
-6 4 -10 -8 -10 -30z"/>
<path d="M5450 2116 c0 -9 7 -16 16 -16 9 0 14 5 12 12 -6 18 -28 21 -28 4z"/>
<path d="M9324 2077 c-9 -24 6 -44 18 -22 7 11 6 21 -1 28 -7 7 -12 6 -17 -6z"/>
<path d="M7909 2045 c-30 -55 -31 -82 -7 -105 40 -37 44 -23 29 85 l-7 50 -15
-30z"/>
<path d="M9170 2026 c0 -24 25 -43 35 -26 6 10 -16 50 -27 50 -5 0 -8 -11 -8
-24z"/>
<path d="M8305 2030 c-10 -17 12 -37 25 -24 8 8 6 15 -4 23 -10 9 -16 9 -21 1z"/>
<path d="M8952 2010 c-26 -22 -28 -36 -6 -44 21 -8 44 11 44 35 0 26 -12 29
-38 9z"/>
<path d="M6015 1989 c-4 -6 -28 -9 -53 -7 -38 2 -47 0 -50 -15 -4 -21 14 -37
82 -73 47 -25 50 -25 63 -8 12 17 13 17 13 -2 0 -25 23 -89 33 -93 27 -10 30
8 13 70 -9 36 -14 72 -11 81 4 11 -5 22 -30 37 -41 24 -51 26 -60 10z"/>
<path d="M9427 1935 c-34 -42 -34 -47 0 -43 20 2 30 11 37 31 16 44 -5 52 -37
12z"/>
<path d="M9045 1914 c-11 -11 -13 -20 -6 -27 15 -15 41 0 41 23 0 24 -13 26
-35 4z"/>
<path d="M9192 1903 c-21 -41 -22 -71 -3 -94 l19 -24 12 30 c19 51 -6 131 -28
88z"/>
<path d="M8035 1860 c3 -5 14 -10 24 -10 10 0 32 -7 47 -15 16 -8 40 -15 54
-15 14 0 34 -7 44 -15 11 -8 31 -15 44 -15 13 0 45 -7 71 -15 183 -58 220 -64
228 -39 4 13 -83 41 -252 79 -66 15 -138 34 -160 41 -48 16 -109 19 -100 4z"/>
<path d="M9447 1816 c-4 -10 -5 -21 -2 -24 9 -9 17 6 13 25 -3 17 -4 17 -11
-1z"/>
<path d="M9376 1762 c-3 -5 -19 -7 -37 -4 -24 3 -30 1 -27 -9 3 -9 22 -15 53
-16 26 -1 58 -9 71 -18 21 -14 24 -14 24 0 0 34 -68 72 -84 47z"/>
<path d="M8569 1716 c17 -20 95 -22 89 -3 -3 7 -26 13 -53 15 -43 3 -47 1 -36
-12z"/>
<path d="M5630 1628 c1 -31 1 -32 15 -13 17 21 15 37 -3 43 -8 2 -12 -8 -12
-30z"/>
<path d="M9325 1611 c-7 -24 4 -73 16 -65 12 7 12 71 0 79 -5 3 -12 -3 -16
-14z"/>
<path d="M4685 1468 c-7 -18 20 -78 35 -78 13 0 1 62 -16 79 -11 13 -14 12
-19 -1z"/>
<path d="M5418 1391 c-1 -6 -49 -13 -106 -17 -87 -6 -102 -9 -100 -23 5 -24
147 -15 239 14 l71 22 -39 6 c-51 9 -61 9 -65 -2z"/>
</g>
</svg>
