 <svg  version="1.0" xmlns="http://www.w3.org/2000/svg"  width="478.000000pt" height="319.000000pt" viewBox="0 0 478.000000 319.000000"  preserveAspectRatio="xMidYMid meet">  <g transform="translate(0.000000,319.000000) scale(0.100000,-0.100000)" fill="#00ffff" stroke="none"> <path d="M2260 3181 c-17 -5 -21 -9 -12 -14 17 -11 -13 -68 -32 -61 -9 3 -20 -4 -27 -18 -11 -20 -10 -21 3 -11 22 19 29 4 13 -27 -11 -21 -20 -27 -36 -23 -19 5 -20 4 -9 -14 18 -28 -34 -147 -62 -140 -20 6 -25 -9 -6 -15 9 -3 9 -12 -1 -36 -11 -27 -17 -31 -40 -26 -24 5 -25 4 -8 -9 17 -14 17 -17 3 -45 -12 -23 -21 -29 -38 -25 -22 4 -22 4 -4 -11 17 -14 18 -18 6 -42 -8 -15 -20 -24 -30 -21 -10 2 -21 -9 -33 -32 -17 -36 -17 -36 2 -13 19 21 41 30 41 15 -1 -21 -39 -56 -54 -50 -9 4 -16 2 -16 -2 0 -5 7 -11 15 -15 13 -5 13 -10 -2 -40 -13 -28 -19 -33 -30 -24 -7 6 -17 8 -21 4 -4 -4 1 -12 11 -17 15 -9 15 -13 3 -37 -7 -15 -11 -34 -9 -42 3 -10 0 -9 -7 3 -12 18 -40 24 -40 7 0 -5 7 -10 16 -10 11 0 14 -5 9 -17 -4 -10 -10 -26 -12 -35 -6 -21 -14 -23 -31 -6 -9 9 -12 8 -12 -4 0 -9 5 -18 10 -20 7 -2 7 -14 -1 -36 -9 -27 -14 -30 -25 -21 -8 7 -18 8 -22 4 -4 -4 -1 -10 6 -12 15 -6 16 -45 1 -60 -8 -8 -7 -17 5 -34 14 -22 13 -27 -1 -57 -13 -27 -18 -30 -25 -19 -4 9 -4 27 2 43 12 32 4 64 -16 64 -18 0 -18 -10 0 -24 12 -9 11 -16 -1 -45 -13 -31 -15 -32 -28 -15 -7 11 -17 15 -22 11 -4 -5 0 -14 10 -22 15 -11 16 -17 6 -39 -9 -18 -18 -25 -30 -21 -9 3 -20 1 -24 -5 -3 -5 1 -10 9 -10 18 0 20 -9 7 -44 -8 -19 -15 -23 -33 -19 -22 4 -22 4 -4 -11 18 -14 21 -14 38 0 9 9 20 25 24 36 4 13 9 17 15 11 14 -14 -11 -65 -27 -59 -8 3 -16 1 -19 -4 -3 -4 1 -10 7 -13 10 -3 9 -12 -5 -37 -12 -22 -15 -36 -8 -43 10 -10 19 5 36 57 4 15 8 17 17 8 9 -9 8 -21 -6 -48 -9 -20 -14 -39 -11 -42 9 -9 34 31 35 56 0 12 5 22 10 22 19 0 22 -30 6 -55 -18 -27 -21 -45 -7 -45 5 0 15 16 21 35 6 19 15 35 20 35 18 0 20 -20 5 -49 -17 -35 -18 -41 -6 -41 5 0 15 16 21 35 6 19 15 35 19 35 19 0 19 -15 0 -51 -16 -32 -17 -39 -5 -39 8 0 20 16 27 35 7 19 16 35 20 35 18 0 18 -21 -1 -52 -22 -37 -25 -48 -10 -48 5 0 16 16 24 35 8 19 20 35 25 35 15 0 13 -22 -4 -44 -8 -11 -15 -26 -15 -33 0 -24 16 -13 33 22 17 35 37 47 37 22 0 -7 -7 -22 -15 -33 -17 -22 -19 -44 -5 -44 6 0 10 6 10 13 0 6 9 23 19 36 23 30 39 11 17 -21 -17 -24 -21 -48 -8 -48 10 0 72 122 72 141 0 10 3 10 11 2 13 -13 -6 -73 -23 -73 -5 0 -7 -4 -4 -8 3 -5 -4 -23 -15 -41 -11 -18 -17 -36 -14 -39 8 -8 44 38 45 56 0 6 5 12 10 12 15 0 12 -33 -6 -58 -8 -12 -12 -27 -9 -33 7 -10 30 24 37 55 2 10 8 13 17 7 15 -10 8 -43 -14 -65 -13 -12 -11 -16 10 -30 14 -9 36 -23 50 -32 25 -17 26 -16 41 24 11 28 21 39 31 35 10 -4 11 -9 4 -16 -6 -6 -11 -18 -11 -26 0 -11 4 -10 20 4 15 14 23 15 33 6 8 -6 17 -8 20 -4 12 11 7 21 -13 26 -22 6 -18 30 8 57 13 12 17 11 32 -8 10 -12 23 -22 28 -22 6 0 39 39 75 88 35 48 115 152 176 231 61 79 111 147 111 151 0 5 7 16 16 25 9 9 14 18 11 21 -5 5 -40 -38 -161 -201 -64 -87 -212 -282 -222 -294 -37 -43 98 240 248 518 16 29 27 56 24 58 -2 2 -16 -18 -32 -46 -15 -28 -32 -51 -38 -51 -6 0 -22 9 -36 19 -22 18 -23 21 -10 45 7 14 19 26 27 26 15 0 17 -16 3 -25 -13 -8 -13 -35 -1 -35 5 0 13 9 16 21 4 12 12 18 21 15 8 -3 14 -1 14 4 0 6 -7 10 -15 10 -11 0 -9 8 8 35 26 40 35 43 46 13 6 -18 20 2 83 123 73 139 246 474 316 612 19 37 38 67 43 67 14 0 33 59 -144 -462 -51 -152 -100 -284 -108 -294 -10 -13 -10 -16 -1 -10 8 5 20 2 30 -6 9 -8 30 -22 46 -32 27 -17 29 -17 23 -1 -5 11 -3 15 5 12 7 -2 12 -11 12 -20 -1 -8 9 -21 23 -28 22 -12 26 -10 48 17 38 46 68 111 62 133 -6 26 20 17 28 -10 3 -10 19 -28 35 -39 29 -21 66 -28 55 -10 -4 6 -10 8 -15 5 -5 -3 -21 6 -36 20 -21 19 -25 28 -16 37 9 9 18 5 36 -15 15 -16 27 -23 31 -16 8 12 -1 24 -18 24 -7 0 -11 8 -11 17 2 17 -18 15 -43 -4 -22 -18 -23 11 -1 56 13 28 26 42 32 37 6 -4 22 -8 35 -9 30 -1 38 -9 23 -24 -8 -8 -15 -8 -25 0 -11 9 -14 8 -14 -3 0 -8 3 -12 7 -10 4 2 16 -3 26 -11 17 -14 17 -15 1 -10 -10 3 -15 2 -12 -3 3 -6 14 -9 25 -8 17 1 18 3 4 18 -13 14 -13 18 1 29 17 14 21 35 5 25 -5 -3 -10 1 -10 10 0 9 4 14 9 10 5 -3 12 -1 16 5 3 5 11 10 16 10 6 0 7 -4 4 -10 -3 -5 -1 -10 6 -10 8 0 7 -5 -3 -17 -28 -33 -29 -52 -3 -69 27 -17 56 -13 54 8 0 10 -2 10 -6 1 -2 -7 -10 -13 -16 -13 -22 0 -38 16 -32 32 5 11 14 14 38 9 27 -6 32 -11 29 -33 -1 -16 4 -28 13 -32 12 -4 15 0 11 22 -2 15 -5 38 -6 52 -1 23 -2 24 -11 5 -9 -18 -9 -18 -4 3 3 12 7 32 10 45 3 12 -3 5 -12 -16 -16 -34 -20 -36 -36 -25 -17 13 -17 15 7 37 15 14 22 29 19 39 -4 10 -2 13 5 8 6 -3 14 -1 18 5 4 8 3 9 -4 5 -18 -11 -14 10 4 25 8 7 27 34 40 61 13 26 26 48 29 48 6 0 -9 -40 -30 -79 -12 -23 -13 -46 -6 -113 4 -45 4 -84 -1 -86 -14 -6 -9 -22 8 -22 14 0 15 12 9 98 l-6 97 55 123 c31 68 56 126 56 128 0 3 -6 2 -12 -1 -7 -3 -3 2 10 11 26 19 29 44 6 44 -10 0 -14 -6 -10 -15 3 -8 1 -15 -4 -15 -15 0 -52 -79 -46 -98 3 -9 1 -24 -5 -32 -8 -11 -9 -9 -3 10 10 37 1 24 -45 -63 -22 -42 -57 -94 -77 -113 -25 -26 -32 -39 -24 -44 7 -4 9 -13 5 -20 -6 -9 -10 -8 -17 4 -6 11 -6 22 2 32 8 9 9 14 2 14 -6 0 -17 -9 -25 -20 -8 -11 -17 -17 -20 -14 -10 10 -38 -17 -31 -28 4 -6 -1 -8 -12 -5 -67 20 -68 20 -87 -28 -11 -25 -25 -45 -32 -45 -8 0 -20 -8 -27 -17 -7 -10 -19 -19 -26 -21 -22 -4 -72 -45 -66 -54 3 -4 0 -8 -7 -8 -7 0 -10 -3 -6 -6 8 -8 95 44 106 64 5 9 13 14 16 10 4 -4 -4 -26 -17 -50 l-24 -43 -69 3 c-38 1 -74 7 -81 13 -13 10 -13 41 -1 69 7 18 121 354 184 544 37 109 44 142 35 156 -8 14 -7 25 7 51 28 52 4 111 -33 80 -10 -8 -21 -8 -42 -1 -38 15 -74 5 -74 -20 0 -21 -15 -34 -30 -25 -6 4 -6 15 0 30 13 34 -4 32 -19 -2 -9 -20 -14 -24 -21 -13 -4 7 -6 19 -3 27 3 7 1 13 -5 13 -6 0 -12 -6 -15 -12 -4 -10 -7 -10 -18 0 -7 6 -22 12 -33 12 -17 0 -18 -2 -6 -10 12 -8 12 -11 -3 -28 -9 -10 -17 -23 -17 -28 0 -5 -9 -20 -20 -34 -11 -14 -20 -33 -20 -42 0 -10 -7 -18 -15 -18 -23 0 -18 37 8 63 12 12 21 26 19 30 -1 4 5 21 13 37 9 18 11 30 5 30 -6 0 -16 -11 -22 -25 -6 -14 -18 -25 -26 -25 -8 0 -12 -6 -9 -14 9 -22 -23 -80 -36 -67 -7 7 -1 29 20 71 17 33 27 60 22 60 -4 0 -13 -9 -19 -20 -11 -21 -35 -17 -27 4 3 7 -9 12 -35 12 -21 1 -36 -1 -34 -4 11 -10 -35 -61 -49 -56 -12 5 -11 10 5 32 11 14 18 28 14 31 -3 3 -16 -7 -29 -24 -13 -16 -22 -31 -20 -34 3 -2 -2 -15 -11 -29 -21 -32 -7 -43 16 -12 24 32 36 20 19 -19 -15 -33 -33 -40 -43 -16 -3 8 -12 15 -21 15 -20 0 -20 1 15 65 23 42 26 55 15 55 -8 0 -15 -7 -15 -14 0 -13 -4 -13 -35 0 -49 20 -59 18 -72 -16 -6 -16 -16 -30 -22 -30 -14 0 -14 16 -1 41 8 14 7 19 -3 19 -8 0 -18 -9 -23 -20 -7 -14 -13 -17 -24 -10 -13 9 -13 11 0 20 17 11 7 11 -30 1z m150 -19 c0 -10 -8 -29 -17 -42 -10 -14 -23 -38 -28 -55 -7 -19 -17 -29 -28 -29 -13 1 -16 -3 -12 -17 8 -23 -11 -59 -30 -59 -19 0 -19 14 0 30 8 7 15 19 15 27 0 8 9 26 20 40 11 14 17 29 14 34 -3 5 -1 9 3 9 5 0 16 18 26 40 18 42 37 53 37 22z m570 9 c0 -5 -7 -14 -15 -21 -16 -13 -20 -40 -7 -40 5 0 15 11 22 25 12 23 30 34 30 18 0 -15 -24 -73 -31 -73 -4 0 -12 7 -19 15 -19 23 -27 18 -34 -19 -7 -38 -30 -64 -41 -46 -6 10 22 77 53 128 14 21 42 31 42 13z m86 -29 c-10 -10 -29 15 -21 28 6 9 10 8 17 -4 6 -10 7 -20 4 -24z m-456 10 c0 -28 -26 -59 -39 -46 -8 7 -7 18 1 37 15 31 38 36 38 9z m200 8 c0 -6 -7 -25 -16 -42 -11 -21 -19 -27 -26 -20 -7 7 -4 20 8 41 18 31 34 40 34 21z m-374 -51 c-12 -28 -16 -31 -22 -16 -9 24 13 74 27 60 6 -6 4 -21 -5 -44z m209 31 c4 -6 -3 -27 -14 -46 -12 -19 -21 -41 -21 -47 -1 -22 -29 -52 -40 -41 -12 12 9 64 27 64 7 0 10 6 7 14 -3 8 -1 17 5 21 6 3 11 15 11 26 0 20 15 26 25 9z m-345 -3 c0 -11 -69 -132 -77 -134 -22 -8 -20 25 2 49 13 14 21 28 19 31 -9 9 27 57 42 57 8 0 14 -1 14 -3z m20 -57 c-8 -19 -17 -27 -26 -23 -13 5 -13 9 1 29 8 13 15 31 15 41 1 17 1 17 11 0 8 -13 7 -27 -1 -47z m530 56 c0 -19 -25 -66 -35 -66 -7 0 -11 -8 -9 -17 5 -23 -29 -68 -45 -59 -8 5 -6 15 7 34 29 42 52 94 46 103 -3 5 4 9 15 9 12 0 21 -2 21 -4z m205 -6 c10 -16 -23 -70 -40 -64 -17 7 -21 34 -5 34 6 0 10 9 10 20 0 21 24 28 35 10z m-170 -10 c9 -15 -57 -149 -73 -150 -7 0 -10 -4 -7 -10 3 -5 -1 -23 -10 -40 -16 -32 -39 -35 -69 -11 -14 12 -14 16 1 42 17 29 41 34 34 8 -2 -8 -6 -23 -9 -34 -5 -17 -3 -18 11 -7 8 7 19 26 22 42 3 16 13 34 21 41 8 6 14 18 14 25 0 8 7 14 16 14 8 0 13 4 10 8 -7 11 15 82 25 82 4 0 11 -5 14 -10z m-326 -72 c-12 -16 -25 -28 -31 -26 -12 4 -11 11 10 47 12 22 20 27 29 19 10 -8 8 -16 -8 -40z m206 2 c-8 -9 -15 -22 -15 -28 0 -7 -7 -12 -15 -12 -20 0 -19 24 1 56 13 19 19 22 31 13 11 -10 11 -14 -2 -29z m-355 11 c0 -10 -8 -29 -18 -42 -10 -13 -24 -38 -31 -56 -9 -22 -18 -30 -28 -26 -13 5 -13 3 -4 -15 7 -12 19 -22 27 -22 8 0 13 4 10 9 -3 5 2 23 10 41 12 23 19 29 28 20 16 -16 -52 -140 -78 -140 -17 0 -18 2 -4 18 24 27 29 40 19 47 -6 3 -16 -6 -23 -19 -10 -18 -17 -23 -28 -16 -12 8 -12 11 3 28 9 10 17 24 17 31 0 7 9 24 20 38 11 14 17 29 14 34 -3 5 2 9 11 9 9 0 14 4 11 9 -7 11 22 71 35 71 5 0 9 -8 9 -19z m552 -13 c-13 -13 -16 -38 -4 -38 4 0 14 11 22 25 10 16 20 21 28 16 17 -10 -52 -151 -73 -151 -18 0 -19 11 -3 45 6 14 17 25 25 25 17 0 17 15 -2 30 -19 16 -27 8 -31 -26 -3 -32 -24 -58 -36 -46 -9 9 6 61 20 72 4 3 15 23 25 44 14 29 21 36 30 27 8 -8 8 -14 -1 -23z m-524 -36 c-7 -18 -16 -32 -20 -32 -15 0 -16 17 -2 49 19 45 39 29 22 -17z m204 17 c-8 -38 -58 -129 -71 -129 -11 0 -12 -3 -3 -12 15 -15 -22 -70 -44 -61 -13 5 -13 7 1 23 8 9 15 23 15 31 0 8 9 25 20 39 11 14 20 31 20 38 0 6 3 12 8 12 9 0 32 49 32 68 0 7 6 12 13 9 6 -2 11 -11 9 -18z m-342 2 c0 -6 -4 -12 -9 -15 -5 -3 -20 -30 -35 -61 -14 -30 -31 -55 -36 -55 -6 0 -9 -4 -6 -9 3 -5 -2 -23 -10 -41 -23 -46 -39 -23 -17 26 9 21 16 42 15 45 -1 4 9 18 22 32 13 14 22 28 19 31 -8 8 29 56 43 56 8 0 14 -4 14 -9z m184 -26 c-22 -34 -8 -47 16 -15 10 14 22 22 26 18 9 -9 -57 -139 -73 -145 -7 -3 -11 -9 -8 -13 6 -10 -15 -60 -26 -60 -17 0 -17 18 2 48 10 18 19 38 19 45 0 7 9 23 21 36 23 24 19 51 -7 51 -10 0 -14 -5 -11 -14 6 -16 -13 -76 -25 -76 -18 0 -15 22 14 83 22 48 37 67 50 67 17 0 18 -1 2 -25z m200 16 c3 -5 -2 -23 -10 -41 -21 -40 -39 -26 -23 18 11 32 23 40 33 23z m200 -10 c4 -5 -9 -38 -27 -73 -25 -48 -38 -64 -57 -66 l-25 -4 24 25 c12 14 20 30 16 36 -3 6 2 11 12 11 12 0 18 8 19 25 3 47 23 71 38 46z m-681 -62 c-20 -40 -37 -24 -21 18 9 23 15 29 24 22 9 -8 9 -17 -3 -40z m527 42 c0 -6 -4 -13 -10 -16 -5 -3 -10 -15 -10 -27 0 -14 -5 -18 -16 -14 -11 4 -15 2 -11 -8 8 -20 -23 -80 -35 -68 -5 5 -5 18 0 33 5 13 10 28 10 33 0 5 4 12 9 15 5 3 14 18 20 34 12 25 43 38 43 18z m-157 -7 c12 -12 -33 -63 -49 -57 -13 5 -13 7 1 23 8 9 15 22 15 28 0 13 22 16 33 6z m-290 -82 c-9 -15 -18 -28 -19 -30 0 -1 -8 0 -17 4 -14 5 -13 10 6 39 16 24 25 31 34 23 10 -8 9 -16 -4 -36z m361 40 c8 -13 -25 -71 -38 -66 -10 4 -9 13 3 39 16 34 26 42 35 27z m240 -30 c7 -12 -56 -133 -72 -139 -22 -9 -26 6 -8 26 10 11 15 25 11 32 -6 8 -12 3 -22 -15 -11 -20 -19 -25 -34 -21 -23 8 -48 -18 -49 -47 0 -25 -30 -23 -30 2 0 11 9 29 21 41 11 11 18 23 15 26 -9 9 27 64 39 59 5 -2 8 -10 6 -17 -2 -8 -6 -23 -9 -34 -5 -18 -4 -18 11 -6 9 7 17 20 17 27 0 18 10 17 34 -1 27 -21 31 -19 32 14 2 50 22 78 38 53z m-714 -12 c0 -16 -23 -60 -32 -60 -11 0 -10 13 2 44 9 25 30 36 30 16z m360 2 c0 -5 -14 -34 -31 -66 -33 -60 -33 -85 0 -45 26 32 37 19 16 -20 -8 -17 -13 -31 -10 -31 12 0 30 26 55 77 26 54 34 61 46 42 9 -14 -16 -59 -33 -59 -18 0 -17 -16 2 -24 23 -8 30 -7 30 7 3 43 22 76 37 62 7 -8 -36 -113 -56 -137 -9 -10 -15 -22 -14 -26 5 -16 -34 -61 -48 -55 -13 5 -13 8 1 23 8 9 15 22 15 28 0 7 6 12 13 12 9 0 9 2 -1 8 -9 7 -8 13 8 27 11 10 20 25 20 34 -1 11 -7 8 -20 -11 -23 -29 -48 -28 -76 3 -20 22 -46 25 -38 5 8 -21 -25 -81 -38 -68 -13 13 50 142 69 142 10 0 11 5 5 16 -6 11 -3 23 12 40 21 24 36 31 36 16z m200 -11 c0 -6 -4 -13 -10 -16 -5 -3 -10 -15 -10 -26 0 -11 -7 -19 -16 -19 -8 0 -13 -4 -10 -9 9 -14 -25 -74 -36 -63 -13 13 48 142 67 142 8 0 15 -4 15 -9z m197 -3 c6 -9 4 -24 -7 -46 -14 -28 -18 -31 -28 -19 -9 10 -9 22 -1 46 12 33 21 38 36 19z m-517 -21 c0 -18 -24 -67 -32 -67 -5 0 -8 -8 -8 -17 -1 -26 -27 -56 -40 -48 -9 5 -9 10 -1 18 6 6 11 19 11 29 0 10 7 18 15 18 9 0 15 6 14 13 -3 18 19 67 31 67 5 0 10 -6 10 -13z m-155 -7 c7 -11 -23 -60 -36 -60 -12 0 -11 27 1 51 12 21 25 25 35 9z m43 -29 c-40 -83 -71 -131 -86 -131 -12 0 -14 -3 -4 -8 10 -7 9 -15 -4 -41 -10 -21 -20 -29 -26 -23 -11 11 48 142 63 142 6 0 7 4 4 10 -10 15 26 69 42 63 8 -3 12 -8 11 -12z m-164 0 c8 -12 -17 -61 -31 -61 -16 0 -16 -1 -2 39 11 31 23 39 33 22z m26 -66 c-7 -20 -14 -25 -21 -18 -8 8 -5 21 7 44 21 39 31 20 14 -26z m170 44 c0 -20 -21 -49 -35 -49 -19 0 -19 6 3 35 18 26 32 32 32 14z m555 -8 c7 -24 -51 -141 -70 -141 -22 0 -28 19 -11 36 9 8 16 20 16 25 0 16 -17 10 -32 -13 -22 -34 -40 -14 -20 22 19 33 37 38 46 15 6 -17 36 -21 36 -5 0 6 -5 10 -10 10 -7 0 -7 6 -1 18 5 9 12 25 15 35 7 23 23 22 31 -2z m-671 -10 c3 -5 -2 -23 -10 -41 -21 -40 -38 -26 -22 18 12 32 22 39 32 23z m1229 -6 c-3 -9 -8 -14 -10 -11 -3 3 -2 9 2 15 9 16 15 13 8 -4z m-1033 -12 c0 -16 -25 -73 -31 -73 -15 0 -21 22 -10 33 6 6 11 19 11 29 0 10 7 18 15 18 8 0 15 -3 15 -7z m353 0 c2 -5 -2 -23 -10 -41 -11 -28 -16 -32 -28 -22 -13 11 -13 16 2 41 17 29 28 36 36 22z m-668 -14 c4 -5 2 -23 -5 -38 -8 -21 -18 -28 -35 -27 -24 1 -24 1 -4 22 10 11 19 28 19 37 0 19 15 23 25 6z m198 -15 c3 -4 -1 -21 -10 -38 -21 -41 -23 -43 -33 -26 -6 9 -3 24 8 42 17 28 24 33 35 22z m350 0 c8 -8 -25 -75 -36 -71 -10 3 -10 4 5 45 12 32 19 38 31 26z m-508 -13 c3 -5 -9 -38 -26 -73 -39 -76 -37 -74 -49 -62 -10 10 8 64 22 64 3 0 10 15 13 33 4 17 9 35 12 40 6 10 21 9 28 -2z m195 -17 c0 -24 -19 -54 -35 -54 -19 0 -19 14 0 30 8 7 15 19 15 26 0 8 5 14 10 14 6 0 10 -7 10 -16z m160 11 c0 -14 -32 -65 -40 -65 -13 0 -13 13 2 45 10 21 38 36 38 20z m194 -4 c8 -12 -24 -72 -35 -65 -8 5 -3 47 8 67 6 10 21 9 27 -2z m-510 -10 c3 -4 -3 -25 -13 -46 -22 -46 -38 -31 -21 20 11 34 23 44 34 26z m356 -8 c0 -5 -14 -32 -30 -62 -17 -30 -30 -60 -30 -68 0 -7 -4 -13 -8 -13 -4 0 -14 -16 -21 -35 -7 -19 -19 -35 -28 -35 -10 0 -13 5 -8 18 4 9 10 25 12 35 3 9 9 17 13 17 5 0 11 14 15 31 4 19 15 33 27 37 12 3 17 10 13 20 -6 16 20 62 35 62 6 0 10 -3 10 -7z m-160 -21 c0 -10 -8 -27 -18 -38 -10 -11 -22 -32 -26 -47 -6 -27 -31 -46 -43 -33 -3 3 0 12 6 20 18 22 51 88 51 103 0 7 7 13 15 13 8 0 15 -8 15 -18z m352 12 c8 -7 -21 -64 -33 -64 -13 0 -11 44 3 58 13 13 22 15 30 6z m-662 -19 c0 -4 -7 -20 -16 -37 -11 -20 -19 -27 -26 -20 -7 7 -4 18 7 36 16 23 35 35 35 21z m350 -2 c0 -15 -25 -73 -31 -73 -12 0 -19 29 -9 35 6 4 10 15 10 26 0 10 7 19 15 19 8 0 15 -3 15 -7z m353 0 c2 -5 -2 -23 -10 -42 -13 -31 -16 -33 -30 -18 -14 14 -14 18 3 41 20 26 30 31 37 19z m-519 -44 c-8 -16 -19 -29 -24 -29 -5 0 -7 -6 -4 -14 3 -8 1 -17 -5 -21 -6 -3 -11 -15 -11 -26 0 -10 -7 -19 -15 -19 -9 0 -15 -6 -14 -12 4 -23 -21 -72 -31 -62 -11 11 9 74 22 74 4 0 8 8 8 18 0 9 9 28 20 42 11 14 20 31 20 38 0 25 20 51 35 46 13 -5 13 -10 -1 -35z m361 17 c-3 -6 -8 -19 -11 -28 -4 -10 -13 -18 -22 -18 -12 0 -13 -3 -5 -11 18 -18 -24 -70 -52 -63 -16 4 -24 -2 -38 -30 -15 -33 -37 -48 -37 -27 0 24 21 61 34 61 9 0 12 7 9 18 -5 20 31 71 42 60 4 -3 -1 -21 -10 -38 -13 -24 -13 -31 -3 -28 7 3 19 18 26 34 7 16 17 36 23 44 5 8 12 23 15 32 4 9 12 14 20 11 8 -3 12 -11 9 -17z m-160 5 c8 -14 -16 -61 -31 -61 -8 0 -11 -6 -8 -15 3 -8 -3 -31 -15 -50 -12 -20 -21 -42 -21 -49 0 -7 -9 -22 -20 -34 -11 -12 -20 -28 -20 -37 0 -9 -12 -27 -26 -40 -15 -14 -22 -25 -16 -25 8 0 6 -12 -5 -35 -12 -26 -20 -32 -29 -24 -10 8 -8 20 12 56 13 25 29 52 35 60 7 7 9 17 5 21 -7 7 -31 -18 -39 -42 -3 -8 -8 -8 -17 1 -10 9 -8 18 6 42 18 31 34 40 34 21 0 -32 49 10 50 43 0 9 7 17 16 17 8 0 13 4 9 10 -3 5 -1 17 4 27 5 10 20 41 33 70 23 52 32 61 43 44z m-152 -7 c3 -3 -1 -21 -10 -39 -11 -23 -21 -31 -34 -28 -17 5 -17 7 4 39 22 34 29 39 40 28z m347 -22 c-1 -23 -22 -50 -36 -45 -8 3 -6 14 5 37 16 34 31 38 31 8z m170 18 c0 -16 -23 -60 -31 -60 -17 0 -21 23 -8 46 12 23 39 33 39 14z m-676 -9 c8 -13 -17 -72 -29 -67 -10 3 -10 37 0 64 5 14 21 16 29 3z m549 -8 c2 -5 -2 -23 -10 -42 -18 -44 -38 -29 -22 17 11 31 23 40 32 25z m-520 -54 c-8 -16 -19 -27 -24 -23 -11 6 -3 41 14 62 18 23 26 -7 10 -39z m-143 23 c0 -14 -25 -62 -32 -62 -16 0 -18 21 -2 45 16 24 34 33 34 17z m350 -5 c0 -7 -14 -39 -31 -70 -33 -61 -54 -71 -82 -39 -17 18 -15 26 19 71 1 1 7 0 13 -4 7 -4 6 -16 -5 -36 -8 -17 -14 -33 -11 -35 7 -7 54 51 50 63 -2 6 1 14 6 18 6 3 11 15 11 26 0 10 7 19 15 19 8 0 15 -6 15 -13z m353 7 c8 -9 -21 -64 -34 -64 -5 0 -8 10 -7 23 6 38 24 57 41 41z m-671 -34 c-3 -29 -21 -52 -34 -44 -5 3 -2 16 7 30 9 14 13 30 9 36 -4 6 -1 9 7 6 8 -3 13 -16 11 -28z m717 11 c11 -7 12 -13 4 -23 -6 -7 -24 -38 -40 -70 -20 -36 -34 -54 -42 -49 -24 15 0 74 25 64 13 -5 15 -1 9 17 -4 13 -2 32 6 46 14 26 17 28 38 15z m-516 -7 c8 -8 -62 -144 -74 -144 -5 0 -9 4 -9 10 0 16 23 60 32 60 4 0 8 9 8 21 0 38 26 70 43 53z m354 -10 c7 -18 -37 -68 -49 -56 -9 9 21 72 35 72 4 0 10 -7 14 -16z m-507 -4 c0 -24 -25 -60 -41 -60 -18 0 -18 1 -1 35 16 32 42 48 42 25z m540 -17 c-1 -25 -26 -68 -33 -56 -7 12 14 73 25 73 4 0 8 -8 8 -17z m-506 -2 c3 -5 -1 -26 -10 -47 -13 -31 -18 -35 -25 -22 -5 10 -4 28 2 47 11 31 23 39 33 22z m536 -50 c-15 -37 -33 -31 -24 7 9 38 15 45 27 33 7 -7 6 -19 -3 -40z m-695 9 c-9 -16 -20 -30 -26 -30 -6 0 -9 -6 -6 -13 3 -7 -3 -28 -13 -47 -16 -30 -19 -32 -26 -16 -4 11 0 29 10 47 9 16 17 32 18 36 2 18 31 53 44 53 12 0 12 -5 -1 -30z m555 13 c-1 -5 -9 -24 -20 -43 -15 -29 -20 -32 -25 -17 -4 10 0 28 9 42 16 24 36 34 36 18z m-510 -13 c0 -14 -22 -60 -29 -60 -11 0 -36 20 -25 20 6 0 17 11 24 25 13 25 30 34 30 15z m560 -8 c0 -2 -9 -16 -21 -30 -22 -28 -61 -40 -52 -16 3 8 9 14 13 14 5 0 11 9 15 19 3 12 14 19 25 18 11 -1 20 -3 20 -5z m-520 -12 c0 -15 -22 -60 -30 -60 -17 0 -18 15 -3 41 17 29 33 38 33 19z m350 -1 c0 -10 -16 -44 -53 -114 -6 -11 -19 -37 -29 -57 -10 -21 -25 -38 -33 -38 -21 0 -19 13 8 42 13 14 21 30 20 35 -2 6 1 14 6 18 6 3 11 15 11 26 0 10 7 19 15 19 8 0 12 6 9 14 -3 8 -1 17 5 21 6 3 11 15 11 26 0 10 7 19 15 19 8 0 15 -5 15 -11z m-165 -40 c-17 -32 -49 -42 -38 -11 9 26 34 52 44 46 5 -3 2 -18 -6 -35z m346 -8 c-12 -16 -20 -33 -19 -38 5 -16 -35 -63 -53 -63 -25 0 -24 16 1 30 11 6 20 17 20 25 0 8 6 15 13 16 9 0 9 2 0 6 -9 3 -5 15 14 39 33 44 56 30 24 -15z m-496 30 c8 -14 -16 -61 -32 -61 -8 0 -11 -5 -8 -11 8 -12 -13 -69 -26 -69 -16 0 -18 17 -4 36 17 23 19 34 5 34 -6 0 -22 -25 -37 -56 -25 -54 -41 -70 -63 -62 -6 2 3 18 20 37 17 18 29 36 26 38 -3 3 2 19 10 34 11 23 20 28 37 24 19 -5 25 0 37 29 14 36 24 44 35 27z m350 -1 c3 -5 -13 -46 -36 -92 -23 -46 -46 -93 -52 -105 -6 -13 -16 -23 -24 -23 -15 0 -17 16 -3 25 6 3 10 15 10 26 0 10 7 19 15 19 9 0 15 6 14 13 -4 24 13 67 28 67 8 0 12 4 9 9 -7 10 15 71 26 71 4 0 9 -4 13 -10z m195 -9 c0 -26 -23 -69 -35 -65 -11 5 -11 12 3 40 16 31 32 45 32 25z m-505 -10 c3 -5 -2 -25 -11 -44 -12 -26 -20 -32 -28 -24 -9 8 -8 19 3 44 15 34 25 40 36 24z m-150 -31 c-8 -9 -15 -22 -15 -28 0 -7 -7 -12 -15 -12 -16 0 -21 -16 -6 -22 5 -1 -1 -16 -14 -33 -30 -36 -42 -27 -24 17 8 18 14 35 14 38 0 3 10 19 23 37 14 20 28 30 38 26 13 -5 13 -7 -1 -23z m505 25 c0 -14 -32 -65 -40 -65 -13 0 -13 12 0 44 8 22 40 38 40 21z m194 -7 c19 -18 -12 -70 -36 -62 -10 3 -18 1 -18 -4 0 -6 5 -12 12 -14 9 -3 9 -12 -1 -36 -7 -18 -18 -32 -23 -32 -15 0 -21 30 -8 45 7 9 10 18 7 22 -11 10 -34 -16 -41 -45 -3 -15 -14 -37 -25 -50 -17 -19 -23 -21 -45 -11 -30 14 -33 39 -8 62 25 23 35 10 15 -19 -22 -34 -10 -41 15 -9 14 17 26 24 34 19 11 -6 11 -5 0 8 -10 13 -9 21 5 47 19 33 28 38 38 20 9 -14 45 19 45 41 0 29 14 37 34 18z m-510 -7 c3 -5 -2 -23 -10 -41 -21 -40 -38 -26 -22 18 12 32 22 39 32 23z m354 -8 c-24 -49 -32 -63 -40 -63 -12 0 -10 27 4 50 12 18 44 30 36 13z m-310 -20 c-39 -89 -72 -143 -80 -135 -7 7 -3 23 11 49 11 21 25 50 31 66 5 15 17 27 26 27 8 0 14 -3 12 -7z m-315 -19 c3 -4 -1 -20 -9 -36 -8 -16 -12 -34 -8 -40 4 -6 3 -8 -4 -4 -6 4 -16 -8 -23 -29 -7 -19 -17 -35 -23 -35 -5 0 -7 -3 -3 -6 8 -9 -21 -64 -33 -64 -16 0 -12 17 18 80 15 33 33 59 40 60 7 0 12 6 10 13 -1 6 1 24 5 40 7 26 17 33 30 21z m350 -2 c3 -4 -3 -23 -13 -42 -16 -30 -19 -32 -26 -17 -11 29 25 84 39 59z m-158 -11 c6 -11 -15 -61 -25 -61 -4 0 -10 -12 -13 -27 -9 -41 -21 -55 -41 -47 -16 6 -15 8 4 29 11 12 23 33 25 46 3 13 9 25 15 27 5 2 10 12 10 23 0 20 15 26 25 10z m350 0 c6 -11 -15 -61 -27 -61 -4 0 -8 -7 -8 -15 0 -9 -7 -30 -16 -47 -12 -22 -19 -27 -27 -19 -8 8 -8 14 1 23 7 7 12 20 12 30 0 10 4 18 8 18 5 0 15 18 22 40 13 40 23 49 35 31z m-313 -41 c-3 -30 -22 -54 -34 -42 -11 11 11 74 26 69 6 -2 10 -15 8 -27z m350 14 c7 -7 -24 -64 -34 -64 -11 0 -10 15 4 45 11 25 19 30 30 19z m488 2 c0 -2 -8 -10 -17 -17 -16 -13 -17 -12 -4 4 13 16 21 21 21 13z m-948 -32 c7 -6 -24 -64 -34 -64 -17 0 -18 22 -1 45 19 25 26 29 35 19z m190 -10 c8 -7 -21 -64 -33 -64 -6 0 -8 -4 -5 -9 7 -11 -23 -73 -33 -67 -4 3 -8 -8 -8 -24 0 -34 -22 -65 -36 -51 -8 8 0 28 61 148 5 10 15 30 23 46 12 27 20 32 31 21z m-307 -31 c-4 -10 -10 -27 -12 -38 -4 -16 -2 -15 13 5 9 14 19 27 20 29 1 1 7 0 12 -3 7 -4 6 -16 -1 -35 -8 -21 -17 -28 -34 -27 -13 0 -23 4 -23 9 0 4 -5 7 -11 7 -5 0 -8 -4 -4 -9 6 -10 -14 -62 -27 -72 -4 -3 -9 -17 -10 -32 -1 -15 -9 -29 -18 -32 -8 -3 -16 -16 -16 -30 -2 -30 -24 -59 -35 -48 -9 9 10 83 21 83 4 0 13 14 20 30 7 17 16 30 21 30 5 0 9 6 9 13 0 26 55 137 68 137 10 0 12 -6 7 -17z m348 11 c3 -4 -1 -20 -9 -36 -21 -40 -11 -47 12 -9 10 17 22 31 26 31 16 0 18 -21 3 -44 -19 -28 -48 -30 -71 -5 -14 16 -14 20 1 43 18 26 27 31 38 20z m-153 -14 c0 -16 -23 -60 -32 -60 -4 0 -8 -7 -8 -15 0 -26 -22 -63 -35 -59 -9 4 -5 21 16 62 16 31 29 63 29 70 0 6 7 12 15 12 8 0 15 -4 15 -10z m345 0 c5 -8 -12 -48 -26 -60 -3 -3 -9 -16 -12 -30 -10 -36 -23 -54 -36 -46 -10 6 4 53 20 66 3 3 12 22 18 43 12 37 24 46 36 27z m-310 -20 c3 -5 -1 -24 -10 -41 -21 -40 -40 -26 -24 19 11 32 23 40 34 22z m338 -35 c-16 -33 -33 -46 -33 -26 0 24 21 61 35 61 13 0 13 -5 -2 -35z m-485 18 c-2 -5 -16 -36 -32 -70 -20 -43 -35 -63 -47 -63 -22 0 -16 24 13 56 10 11 16 23 12 26 -9 10 27 58 43 58 8 0 13 -3 11 -7z m335 -24 c-10 -17 -24 -34 -31 -37 -11 -4 -11 -6 0 -13 9 -6 10 -11 2 -16 -6 -5 -13 -16 -17 -25 -11 -30 -67 -12 -67 21 0 25 25 55 38 47 9 -5 8 -15 -4 -37 -8 -17 -13 -33 -11 -35 5 -5 47 58 47 70 0 16 34 56 47 56 11 0 11 -6 -4 -31z m-293 5 c0 -2 -8 -16 -17 -32 -26 -41 -47 -31 -25 12 9 19 23 31 30 29 6 -3 12 -7 12 -9z m330 -33 c-12 -30 -24 -39 -33 -23 -2 4 2 22 10 41 10 24 17 31 25 23 8 -8 7 -19 -2 -41z m-145 20 c3 -5 1 -12 -5 -16 -5 -3 -10 -15 -10 -26 0 -10 -7 -19 -15 -19 -18 0 -19 23 -3 50 14 22 24 25 33 11z m-305 -19 c0 -15 -25 -62 -32 -62 -10 0 -10 32 -2 54 6 16 34 23 34 8z m184 -11 c7 -10 -16 -71 -27 -71 -13 0 -21 34 -9 38 7 2 12 12 12 23 0 19 15 26 24 10z m349 2 c2 -5 -2 -23 -10 -42 -18 -44 -38 -29 -22 17 11 31 23 40 32 25z m30 -61 c-22 -39 -38 -41 -28 -5 9 36 26 56 37 45 5 -5 1 -22 -9 -40z m-500 -8 c-11 -19 -25 -28 -35 -26 -16 3 -15 8 9 38 31 42 54 31 26 -12z m357 25 c0 -20 -32 -58 -45 -53 -10 4 -8 13 8 39 21 30 37 37 37 14z m-155 1 c4 -6 1 -18 -6 -26 -6 -8 -9 -18 -5 -22 4 -4 13 1 20 11 13 16 41 25 34 10 -35 -79 -65 -132 -75 -133 -7 0 -10 -6 -7 -14 7 -17 -24 -68 -37 -61 -11 7 1 37 40 103 37 62 38 72 10 72 -12 0 -17 -4 -14 -11 9 -13 -15 -71 -27 -67 -15 5 -13 16 18 84 29 64 37 73 49 54z m-136 -21 c21 -17 22 -23 13 -44 -7 -14 -16 -25 -22 -25 -13 0 -13 27 0 35 13 8 13 25 0 25 -5 0 -16 -12 -23 -26 -19 -37 -33 -13 -15 26 15 35 16 35 47 9z m327 7 c8 -21 -26 -70 -39 -57 -7 7 -6 16 5 28 8 10 13 24 11 31 -6 17 16 15 23 -2z m166 8 c7 -6 -24 -64 -34 -64 -16 0 -20 23 -7 46 12 23 29 31 41 18z m-676 -56 c-9 -28 -15 -35 -23 -27 -9 9 -7 21 5 45 21 44 35 30 18 -18z m-109 -24 c-13 -24 -13 -31 -1 -50 12 -18 12 -27 2 -50 -17 -39 -18 -40 -28 -24 -5 8 -5 19 0 25 15 18 15 52 1 69 -11 13 -11 20 -3 28 7 7 12 23 12 37 0 23 1 24 16 9 14 -14 14 -19 1 -44z m658 47 c6 -11 -15 -61 -26 -61 -16 0 -18 18 -6 44 13 27 22 32 32 17z m-482 -13 c12 -7 24 -14 26 -16 4 -2 -2 -16 -25 -60 -1 -1 -8 0 -17 4 -15 5 -15 8 0 30 9 14 12 28 8 32 -4 4 -9 3 -12 -3 -2 -5 -8 -17 -13 -25 -16 -23 -32 8 -17 32 14 21 20 22 50 6z m166 -42 c-7 -20 -16 -36 -20 -36 -15 0 -15 26 -2 59 20 48 40 27 22 -23z m165 46 c3 -5 -4 -21 -14 -37 -16 -24 -20 -26 -25 -13 -12 29 24 74 39 50z m188 -8 c4 -3 0 -20 -7 -39 -8 -18 -13 -34 -12 -36 1 -3 -4 0 -11 6 -9 9 -10 18 -1 43 11 31 19 38 31 26z m-149 -10 c5 -5 -6 -27 -29 -63 -2 -1 -8 0 -13 4 -8 4 -6 16 6 36 18 29 25 34 36 23z m197 -25 c0 -15 -23 -59 -31 -59 -16 0 -20 22 -9 50 7 18 17 27 26 23 8 -3 14 -9 14 -14z m-509 -2 c-3 -38 -15 -58 -33 -54 -18 5 -58 -26 -58 -45 0 -15 15 -8 28 12 7 11 17 20 22 20 16 0 11 -23 -9 -49 l-18 -24 -22 22 c-11 11 -21 27 -21 35 0 21 28 46 45 40 9 -4 21 5 32 25 16 27 35 38 34 18z m338 -30 c-7 -15 -19 -27 -26 -27 -8 0 -13 3 -11 8 25 51 33 61 40 54 5 -5 4 -20 -3 -35z m-493 11 c-3 -13 -6 -29 -6 -35 0 -7 -7 -13 -15 -13 -18 0 -19 9 -5 44 12 32 35 35 26 4z m201 -4 c4 -13 -34 -60 -42 -52 -10 9 18 69 29 65 6 -2 11 -7 13 -13z m339 1 c4 -8 15 -15 26 -15 15 0 18 -5 13 -22 -9 -29 -32 -54 -42 -44 -4 4 -1 16 6 27 7 12 9 24 6 27 -4 4 -11 -1 -16 -11 -6 -9 -17 -17 -25 -17 -13 0 -13 3 0 29 9 16 12 31 9 35 -4 3 -1 6 6 6 6 0 14 -7 17 -15z m-496 -4 c0 -17 -26 -71 -32 -65 -3 3 -9 -13 -13 -35 -7 -43 -19 -59 -30 -40 -8 12 55 149 67 149 5 0 8 -4 8 -9z m336 -32 c-7 -17 -17 -29 -22 -27 -11 4 -7 37 7 55 19 22 29 4 15 -28z m-146 9 c-1 -27 -25 -57 -39 -49 -11 7 -10 13 5 35 21 28 34 33 34 14z m184 -36 c-8 -18 -20 -30 -25 -27 -13 9 -11 28 7 54 24 33 38 12 18 -27z m-149 27 c8 -12 -13 -69 -26 -69 -15 0 -21 22 -10 33 6 6 11 19 11 29 0 20 15 24 25 7z m352 -7 c9 -6 7 -16 -8 -41 -14 -24 -23 -31 -31 -23 -6 6 -7 18 -3 29 8 16 10 24 14 38 2 7 14 6 28 -3z m-653 -11 c10 -15 -13 -63 -27 -58 -11 4 -12 24 -2 55 5 14 21 16 29 3z m498 3 c8 -8 -24 -64 -37 -64 -5 0 -5 -4 2 -8 8 -5 4 -16 -13 -37 -29 -36 -45 -25 -21 16 9 17 17 35 17 40 0 13 31 59 39 59 4 0 10 -3 13 -6z m-302 -19 c0 -4 -7 -19 -15 -35 -11 -21 -20 -28 -33 -23 -14 6 -15 4 -4 -9 10 -12 10 -21 1 -42 -14 -29 -26 -32 -53 -11 -26 20 -9 71 23 67 15 -2 26 5 39 27 14 26 42 43 42 26z m340 -5 c0 -20 -24 -60 -37 -60 -17 0 -17 6 4 41 17 29 33 38 33 19z m-159 -15 c-2 -24 -57 -125 -68 -125 -7 0 -13 2 -13 5 0 11 24 55 30 55 4 0 12 18 19 41 7 22 17 39 22 37 6 -2 10 -8 10 -13z m-128 -11 c20 -8 22 -32 2 -58 -20 -27 -38 -10 -19 19 9 14 11 26 5 29 -5 4 -12 -3 -16 -14 -3 -11 -13 -20 -22 -20 -26 0 -1 -34 35 -46 1 0 -5 -15 -13 -32 -11 -20 -21 -29 -31 -25 -13 5 -13 8 1 29 17 27 19 34 6 34 -5 0 -13 -9 -16 -20 -7 -22 -35 -28 -35 -7 0 6 7 21 15 31 8 10 12 23 9 28 -4 5 3 16 15 24 12 8 21 22 21 30 0 9 5 13 13 10 6 -3 20 -9 30 -12z m322 7 c6 -11 -15 -61 -26 -61 -13 0 -20 18 -9 25 5 3 10 15 10 26 0 20 15 26 25 10z m-492 -8 c7 -12 -30 -66 -37 -55 -3 6 -1 22 5 36 12 26 24 33 32 19z m338 -6 c-2 -30 -16 -57 -28 -57 -8 0 -13 -6 -10 -12 5 -16 -20 -68 -34 -68 -6 0 -8 -4 -4 -9 8 -14 -16 -61 -32 -61 -16 0 -9 34 11 60 7 8 27 48 46 88 19 39 39 71 43 69 5 -1 8 -6 8 -10z m194 -47 c-10 -19 -20 -27 -30 -24 -17 7 -20 20 -5 29 6 3 10 15 10 26 0 17 3 18 20 9 19 -10 19 -13 5 -40z m-313 -1 c-3 -28 -16 -44 -30 -35 -13 8 9 68 23 62 5 -2 9 -14 7 -27z m202 2 c3 -5 -1 -14 -9 -21 -8 -7 -15 -19 -15 -26 0 -16 -2 -16 -24 -8 -13 5 -12 10 6 35 23 30 33 35 42 20z m36 -24 c0 -7 -7 -23 -16 -36 -24 -34 -39 -11 -17 27 17 29 33 34 33 9z m-126 -55 c-18 -38 -38 -34 -23 5 15 39 20 46 30 36 6 -6 3 -22 -7 -41z m173 31 c2 -5 -5 -20 -15 -33 -15 -19 -22 -21 -38 -12 -10 6 -14 12 -8 12 6 0 16 12 23 26 11 25 31 29 38 7z m-125 -26 c1 -19 -58 -126 -69 -127 -7 0 -13 2 -13 5 0 12 24 55 32 55 4 0 8 9 8 21 0 27 19 61 31 57 6 -2 11 -7 11 -11z m-152 -7 c0 -18 -24 -60 -32 -58 -11 4 -11 8 -2 43 6 23 34 36 34 15z m183 -38 c-9 -15 -18 -29 -19 -31 -2 -1 -8 0 -13 4 -16 9 18 65 35 58 10 -4 10 -11 -3 -31z m-117 -37 c-8 -16 -12 -33 -9 -39 3 -6 -2 -4 -11 5 -17 16 -17 18 -1 49 10 20 20 29 26 23 6 -6 4 -20 -5 -38z m174 40 c0 -4 -7 -20 -16 -36 -12 -24 -18 -28 -29 -19 -12 10 -12 15 2 36 13 21 43 34 43 19z m-88 -51 c7 -7 -24 -64 -34 -64 -11 0 -10 28 2 51 11 19 22 24 32 13z m-128 -67 c-19 -41 -37 -40 -28 1 9 36 25 55 36 44 5 -5 2 -24 -8 -45z m56 20 c0 -13 -33 -67 -41 -67 -11 0 -11 0 2 39 6 17 17 31 25 31 8 0 14 -2 14 -3z"/> <path d="M1900 1841 c-12 -24 -13 -31 -2 -31 5 0 14 11 20 25 14 29 -2 34 -18 6z"/> <path d="M2135 2980 c-3 -5 -1 -10 4 -10 6 0 11 5 11 10 0 6 -2 10 -4 10 -3 0 -8 -4 -11 -10z"/> <path d="M2115 2949 c-10 -15 3 -25 16 -12 7 7 7 13 1 17 -6 3 -14 1 -17 -5z"/> <path d="M2061 2834 c0 -11 3 -14 6 -6 3 7 2 16 -1 19 -3 4 -6 -2 -5 -13z"/> <path d="M3993 2576 c-35 -11 -63 -26 -63 -33 0 -7 -4 -13 -10 -13 -5 0 -10 -8 -10 -17 1 -17 2 -17 15 1 8 11 21 16 30 13 16 -7 21 -27 6 -27 -5 0 -13 -9 -16 -20 -7 -22 -35 -28 -35 -7 0 7 -9 18 -19 24 -18 11 -26 5 -83 -68 -35 -45 -82 -105 -106 -135 -24 -30 -39 -54 -35 -54 5 0 34 32 64 72 29 40 70 91 89 114 19 22 41 50 48 60 12 17 12 17 8 1 -4 -12 -2 -16 5 -11 7 4 10 1 7 -7 -3 -8 -10 -13 -16 -12 -7 2 -9 -4 -5 -14 4 -9 2 -14 -3 -11 -5 3 -10 -9 -11 -28 -1 -19 3 -34 8 -34 14 0 10 -42 -5 -63 -10 -13 -21 -16 -38 -12 -21 5 -27 1 -38 -24 -7 -17 -16 -29 -20 -26 -4 3 -7 -1 -6 -8 2 -20 -77 -166 -88 -160 -5 3 -6 1 -2 -6 10 -16 21 -7 36 29 14 33 27 38 37 14 10 -27 -13 -61 -42 -61 -15 0 -30 -4 -35 -9 -18 -21 -59 -104 -50 -104 6 0 10 5 10 10 0 12 27 13 34 2 2 -4 -4 -22 -15 -39 -23 -35 -50 -35 -42 0 5 22 5 22 -10 2 -20 -25 -21 -35 -3 -35 24 0 27 -16 10 -50 -15 -29 -18 -30 -32 -16 -13 12 -13 18 -2 31 7 8 10 18 7 21 -2 3 -33 -46 -68 -108 -34 -62 -94 -169 -132 -238 -83 -149 -115 -208 -199 -359 -35 -63 -69 -117 -77 -119 -9 -3 -11 0 -6 8 5 9 4 11 -3 6 -15 -9 -15 -1 -2 25 6 11 7 19 1 19 -5 0 -12 -12 -16 -27 -5 -20 -2 -31 10 -39 15 -11 15 -15 -5 -42 -18 -24 -21 -38 -16 -67 5 -26 4 -35 -4 -30 -6 4 -17 2 -24 -4 -10 -9 -15 -8 -19 3 -4 9 1 20 11 25 15 9 14 10 -5 11 -13 0 -23 5 -23 10 0 6 -6 10 -14 10 -8 0 -17 4 -21 9 -8 14 16 61 31 61 20 0 28 21 30 79 1 34 -1 49 -7 40 -5 -8 -9 -20 -9 -28 0 -7 -26 -68 -59 -135 -60 -124 -83 -177 -82 -186 1 -10 -53 -19 -63 -11 -18 14 -86 41 -86 33 0 -9 49 -32 67 -32 7 0 13 -4 13 -9 0 -5 2 -15 5 -23 3 -7 -10 -39 -29 -71 -19 -31 -34 -57 -33 -58 32 -14 43 0 82 110 13 35 13 35 66 32 30 -1 60 -8 67 -13 20 -17 132 -10 176 12 l39 19 55 -30 c59 -31 63 -33 60 -21 -3 12 32 72 42 72 16 0 12 -22 -10 -57 l-19 -33 22 -12 c12 -7 30 -17 39 -23 79 -48 161 -95 162 -93 1 2 10 22 21 45 13 32 21 40 31 33 9 -9 9 -17 -3 -40 -8 -16 -19 -32 -24 -35 -14 -9 9 -27 74 -60 31 -16 57 -33 57 -37 0 -4 5 -8 11 -8 6 0 8 7 5 16 -8 20 25 76 41 70 7 -3 15 -1 18 4 3 4 0 10 -7 12 -8 3 -8 12 3 36 11 25 18 31 34 26 15 -4 17 -3 6 4 -22 15 4 72 31 69 12 -1 23 4 25 11 3 7 -1 10 -11 6 -21 -8 -21 19 -1 36 8 7 15 20 15 28 0 12 3 13 12 4 8 -8 8 -15 -2 -27 -7 -8 -10 -18 -7 -21 3 -3 11 5 18 18 8 12 19 32 26 43 7 11 18 32 25 47 7 16 16 28 20 28 4 0 8 5 8 11 0 8 -5 7 -15 -1 -9 -7 -18 -11 -20 -8 -9 8 20 58 33 58 8 0 10 -5 6 -12 -5 -9 -2 -9 9 1 18 14 24 37 8 26 -18 -11 -22 15 -5 40 12 18 22 24 35 20 23 -8 26 10 3 19 -14 5 -14 8 0 28 9 12 16 31 16 42 0 18 1 18 19 2 17 -16 19 -15 33 6 27 43 30 53 6 25 -29 -34 -43 -25 -22 14 10 20 21 28 36 26 29 -3 75 78 51 91 -13 8 -13 12 1 40 9 18 21 32 26 32 14 0 12 -12 -7 -39 -9 -14 -11 -22 -4 -20 6 2 25 29 42 59 18 34 22 46 10 33 -17 -21 -41 -31 -41 -18 0 5 23 45 37 64 1 2 9 -2 17 -9 13 -10 18 -6 33 27 10 21 20 40 23 43 13 13 33 61 28 66 -4 3 -9 -4 -13 -15 -3 -12 -13 -21 -21 -21 -11 0 -11 6 3 35 17 36 27 43 39 24 4 -7 14 0 25 18 25 37 24 55 -1 23 -24 -32 -36 -20 -19 19 13 29 39 43 39 21 0 -23 17 -7 43 40 22 40 25 50 13 50 -22 0 -20 33 4 60 27 31 39 16 18 -21 -9 -16 -13 -29 -8 -29 5 0 17 14 25 31 15 28 15 32 0 48 -14 16 -14 19 0 31 8 7 15 19 15 26 0 17 12 18 28 2 9 -9 12 -8 12 4 0 9 -5 18 -11 20 -9 3 -9 9 0 25 14 28 14 83 0 83 -8 0 -8 4 1 15 6 8 10 22 7 32 -3 15 -6 13 -15 -9 -8 -19 -16 -26 -27 -22 -19 8 -19 18 0 34 8 7 15 19 15 27 0 8 6 13 13 10 9 -3 13 7 14 37 1 36 0 38 -9 19 -12 -24 -23 -29 -33 -14 -7 12 29 73 38 64 4 -3 6 11 6 33 -1 21 -3 31 -6 22 -2 -10 -13 -18 -24 -18 -18 0 -19 2 -4 29 8 17 19 33 25 36 16 10 12 32 -7 39 -10 3 -35 16 -55 28 -38 23 -104 60 -168 94 -19 11 -40 25 -46 33 -6 8 -16 11 -21 8 -6 -4 -18 2 -28 13 -10 11 -24 20 -32 20 -8 0 -23 9 -35 20 -25 23 -24 23 -105 -4z m48 -29 c-13 -33 -30 -43 -38 -21 -4 11 1 23 17 36 28 23 34 19 21 -15z m44 -10 c-8 -12 -13 -26 -13 -32 1 -5 -6 -11 -15 -13 -21 -4 -22 10 -2 48 10 19 20 27 30 24 12 -5 12 -9 0 -27z m-101 8 c-4 -8 -10 -12 -15 -9 -14 8 -10 24 6 24 9 0 12 -6 9 -15z m156 -14 c0 -4 -7 -16 -15 -27 -8 -10 -15 -28 -15 -39 0 -17 -1 -18 -16 -4 -14 14 -14 19 2 52 10 22 22 33 30 30 8 -3 14 -8 14 -12z m40 -22 c0 -6 -10 -24 -21 -41 -28 -39 -46 -22 -22 20 17 31 43 43 43 21z m-176 -7 c5 -9 -23 -72 -33 -72 -3 0 -12 4 -20 9 -11 7 -9 13 8 30 11 11 21 26 21 31 0 12 17 13 24 2z m211 -12 c10 -17 -23 -70 -41 -63 -8 3 -13 8 -12 12 2 3 10 18 17 34 15 28 26 34 36 17z m-170 -32 c-10 -32 -31 -52 -45 -43 -8 5 -9 10 -1 18 6 6 11 19 11 29 0 12 7 18 21 18 16 0 19 -4 14 -22z m197 -34 c-45 -91 -54 -104 -68 -104 -17 0 -18 8 -1 43 6 15 18 27 25 27 7 0 11 4 7 9 -3 5 4 26 16 46 29 49 47 31 21 -21z m-157 26 c4 -6 1 -17 -5 -25 -7 -8 -9 -15 -5 -15 4 0 2 -7 -5 -15 -9 -11 -16 -12 -26 -5 -10 9 -9 17 4 41 18 31 27 35 37 19z m-167 -9 c10 -6 10 -10 -3 -21 -8 -7 -15 -20 -15 -30 0 -25 -11 -31 -27 -15 -12 12 -12 19 2 45 16 32 22 35 43 21z m390 2 c-3 -5 -11 -23 -18 -40 -18 -42 -45 -46 -35 -6 4 16 11 34 17 40 11 14 43 18 36 6z m-193 -57 c-13 -30 -19 -35 -30 -26 -13 11 -10 24 19 68 18 28 26 -5 11 -42z m235 37 c0 -15 -40 -73 -50 -73 -14 0 -12 16 5 50 14 27 45 42 45 23z m-397 -38 c-31 -38 -51 -33 -32 8 8 18 20 27 36 27 l24 0 -28 -35z m211 -11 c-15 -19 -23 -39 -18 -46 4 -7 -1 -5 -12 4 -17 17 -17 20 -1 52 12 27 21 33 36 29 20 -5 20 -6 -5 -39z m217 23 c-1 -4 -1 -13 -1 -19 0 -7 -9 -24 -20 -38 -16 -20 -22 -22 -29 -11 -6 9 -1 25 13 47 19 29 39 41 37 21z m-381 -12 c0 -20 -29 -65 -41 -65 -21 0 -19 29 3 53 26 30 38 34 38 12z m40 -28 c-1 -30 -24 -59 -42 -52 -13 5 -12 12 5 45 20 42 37 45 37 7z m417 -44 c-10 -18 -23 -33 -27 -33 -17 0 -19 17 -5 36 16 21 19 44 6 44 -5 0 -14 -13 -21 -30 -7 -16 -16 -30 -21 -30 -18 0 -18 21 1 53 l21 35 33 -21 32 -22 -19 -32z m-204 51 c9 -9 -25 -74 -39 -74 -18 0 -27 17 -14 25 6 4 15 18 20 31 9 24 21 30 33 18z m-172 -25 c-2 -8 -4 -20 -5 -27 -4 -20 -25 -37 -35 -26 -12 13 17 77 32 71 7 -2 10 -11 8 -18z m-166 1 c7 -11 -23 -80 -36 -80 -18 0 -19 20 -2 54 17 37 27 44 38 26z m382 -9 c-2 -3 -9 -21 -16 -38 -13 -33 -25 -41 -36 -24 -9 15 28 79 43 73 7 -2 11 -7 9 -11z m-176 -14 c-3 -31 -16 -57 -30 -57 -11 0 -16 -9 -17 -31 -1 -37 -30 -72 -39 -47 -3 8 3 31 13 49 50 88 58 99 65 96 5 -1 8 -6 8 -10z m-167 -3 c14 -5 13 -9 -4 -32 -11 -14 -18 -28 -14 -31 3 -3 14 4 24 17 20 24 40 29 40 10 -1 -14 -34 -58 -45 -58 -3 0 -15 9 -27 20 -19 17 -19 22 -8 50 14 33 12 32 34 24z m380 0 c14 -5 13 -10 -6 -38 -12 -17 -23 -33 -25 -36 -2 -2 -8 2 -12 9 -7 10 15 71 26 71 1 0 8 -3 17 -6z m-153 -21 c34 -20 35 -28 10 -66 -16 -25 -19 -26 -31 -12 -11 13 -10 19 4 33 9 10 16 25 16 33 0 15 -39 -29 -40 -44 0 -5 -9 -20 -20 -34 -11 -14 -17 -29 -14 -34 3 -5 -1 -12 -10 -15 -8 -3 -18 -18 -21 -34 -7 -33 -29 -55 -45 -45 -11 7 17 65 32 65 4 0 8 6 8 13 0 8 7 28 15 45 12 22 21 29 33 25 13 -5 14 -3 5 7 -9 9 -7 20 5 46 9 18 19 34 20 34 2 0 17 -8 33 -17z m187 -41 c-17 -28 -48 -42 -48 -22 0 6 10 24 22 40 28 39 51 23 26 -18z m-328 -2 c0 -10 -7 -23 -15 -30 -20 -16 -19 -47 1 -58 15 -9 15 -12 -2 -41 -20 -34 -38 -40 -48 -16 -3 8 -12 15 -21 15 -8 0 -15 5 -15 10 0 6 -6 10 -14 10 -23 0 -25 13 -7 47 12 24 20 30 31 23 12 -7 11 -12 -5 -29 -10 -12 -15 -24 -11 -29 4 -4 14 2 22 13 8 11 22 19 30 17 17 -3 19 15 2 20 -8 3 -7 11 5 28 9 14 17 33 17 43 0 16 3 17 15 7 8 -7 15 -20 15 -30z m-210 18 c0 -7 -9 -24 -20 -38 -14 -19 -22 -22 -30 -14 -9 9 -8 18 5 38 18 27 45 35 45 14z m40 -30 c-1 -18 -25 -48 -39 -48 -6 0 -11 -4 -11 -10 0 -12 3 -12 25 -4 8 4 22 19 31 35 19 37 39 38 29 2 -9 -37 -23 -53 -41 -46 -17 6 -64 -33 -64 -54 0 -23 17 -14 32 16 10 22 18 27 28 21 13 -8 13 -13 -2 -37 -22 -36 -37 -39 -68 -10 -14 13 -30 22 -36 20 -20 -7 -24 27 -8 58 12 24 18 28 29 19 12 -10 12 -16 -3 -37 -13 -21 -14 -25 -2 -21 8 2 23 19 32 38 9 18 22 38 27 43 6 6 11 22 11 35 0 21 2 22 15 8 8 -8 15 -21 15 -28z m537 -13 c-11 -24 -21 -33 -32 -29 -19 8 -19 6 6 49 15 25 25 33 32 26 8 -8 6 -21 -6 -46z m-157 25 c0 -20 -24 -60 -37 -60 -21 0 -15 -16 12 -30 14 -7 25 -18 25 -24 -1 -19 -37 -56 -55 -56 -15 0 -14 4 5 36 12 19 20 38 16 41 -3 3 -13 -8 -23 -26 -10 -17 -21 -31 -25 -31 -19 0 -15 24 12 72 17 29 33 61 36 71 7 18 34 24 34 7z m28 -60 c-16 -31 -23 -38 -33 -30 -10 9 -9 19 8 50 15 26 25 36 33 29 8 -7 6 -20 -8 -49z m184 54 c7 -6 -19 -61 -32 -69 -17 -11 -20 15 -5 45 15 29 26 36 37 24z m-122 -39 c0 -5 -20 -39 -36 -64 -2 -1 -7 0 -12 3 -16 10 10 66 30 66 10 0 18 -2 18 -5z m-175 -14 c3 -5 -2 -16 -10 -24 -8 -9 -15 -23 -15 -31 0 -18 -15 -21 -25 -6 -7 11 22 70 35 70 5 0 11 -4 15 -9z m215 -20 c-1 -12 -38 -51 -49 -51 -15 0 -14 17 5 45 13 21 45 25 44 6z m34 -9 c7 -12 -25 -72 -39 -72 -23 0 -23 12 -2 45 22 35 32 41 41 27z m-507 -52 c-4 -24 -26 -50 -43 -50 -18 0 -18 3 5 42 11 17 17 36 14 42 -4 6 1 5 10 -3 9 -7 15 -21 14 -31z m544 -4 c-10 -25 -36 -44 -47 -33 -3 2 5 21 17 41 24 42 46 36 30 -8z m-167 2 c-9 -32 -36 -60 -46 -50 -5 5 -1 23 9 40 21 38 48 44 37 10z m-164 8 c0 -1 -5 -17 -11 -35 -10 -29 -27 -39 -41 -25 -9 9 25 64 40 64 6 0 12 -2 12 -4z m-185 -56 c-11 -22 -20 -29 -27 -22 -6 6 -4 20 7 42 11 22 20 29 27 22 6 -6 4 -20 -7 -42z m389 44 c13 -5 12 -10 -7 -37 -12 -18 -23 -34 -25 -36 -1 -3 -8 1 -15 8 -8 8 -9 14 -1 19 6 4 14 17 18 30 8 24 8 24 30 16z m-553 -49 c-15 -32 -41 -48 -41 -25 0 24 31 69 44 64 11 -4 10 -11 -3 -39z m384 35 c8 -13 -24 -72 -36 -68 -12 4 -12 4 3 46 13 33 22 39 33 22z m-165 -30 c-11 -11 -20 -27 -20 -35 0 -17 -16 -20 -25 -6 -11 19 18 61 42 61 23 0 23 0 3 -20z m377 -10 c-12 -14 -25 -29 -28 -34 -4 -4 -12 -5 -18 -2 -8 5 -6 16 4 36 11 22 22 29 40 28 l24 -2 -22 -26z m-545 -3 c-12 -13 -22 -29 -22 -35 0 -17 -20 -15 -27 3 -7 20 24 55 50 55 20 0 20 0 -1 -23z m388 18 c0 -2 -11 -20 -24 -39 -17 -25 -26 -32 -34 -24 -15 15 16 68 40 68 10 0 18 -2 18 -5z m-177 -11 c9 -9 -25 -64 -38 -64 -23 0 -24 13 -4 41 21 29 30 34 42 23z m377 -4 c0 -19 -32 -60 -47 -60 -8 0 -13 3 -11 8 24 50 33 62 45 62 7 0 13 -5 13 -10z m-541 -20 c-18 -30 -36 -50 -48 -50 -6 0 -11 -4 -11 -10 0 -5 4 -10 10 -10 11 0 -31 -69 -42 -70 -15 0 -8 42 11 68 10 15 20 32 21 37 7 26 33 54 50 52 14 -1 16 -5 9 -17z m373 14 c11 -10 -27 -64 -44 -64 -23 0 -23 5 4 40 22 30 30 35 40 24z m-542 -17 c0 -20 -30 -57 -46 -57 -18 0 -18 15 2 45 17 26 44 34 44 12z m374 5 c9 -15 -34 -71 -50 -65 -13 5 -13 9 -1 27 7 11 17 27 21 34 8 14 22 16 30 4z m376 -9 c0 -10 -9 -29 -20 -43 -19 -24 -19 -25 -37 -6 -10 10 -13 16 -6 12 7 -4 19 6 29 24 20 34 34 39 34 13z m-540 -17 c-1 -22 -38 -56 -54 -50 -18 7 -22 24 -6 24 6 0 15 11 21 24 11 24 39 26 39 2z m370 1 c-1 -21 -37 -60 -48 -53 -8 5 -5 18 11 41 21 32 37 37 37 12z m-540 -12 c0 -7 -8 -22 -17 -33 -13 -15 -23 -18 -38 -12 -11 5 -15 9 -9 9 6 1 17 14 24 30 12 29 40 33 40 6z m373 18 c6 -11 -21 -73 -32 -73 -19 0 -21 19 -4 49 18 31 28 38 36 24z m-341 -49 c-6 -11 -13 -27 -16 -38 -5 -15 -9 -16 -21 -6 -12 10 -11 16 5 43 10 17 16 35 13 41 -3 6 2 4 11 -5 14 -13 15 -21 8 -35z m178 31 c0 -1 -7 -16 -16 -33 -15 -31 -25 -38 -37 -26 -10 10 27 72 41 67 6 -3 12 -6 12 -8z m380 0 c0 -2 -10 -20 -21 -40 -28 -47 -47 -32 -25 19 11 25 19 34 30 30 9 -3 16 -8 16 -9z m155 -12 c-8 -36 -22 -50 -35 -37 -13 13 10 64 29 64 9 0 11 -8 6 -27z m-335 -6 c0 -3 -6 -20 -11 -37 -11 -30 -23 -38 -33 -21 -8 12 24 73 36 69 5 -2 9 -7 8 -11z m-171 -36 c-13 -26 -25 -38 -35 -34 -7 3 -13 8 -11 12 20 44 33 61 49 61 17 0 17 -2 -3 -39z m391 25 c0 -7 -7 -19 -15 -26 -8 -7 -13 -16 -10 -20 8 -14 -16 -23 -27 -12 -16 16 10 72 33 72 11 0 19 -6 19 -14z m-157 -12 c42 -22 42 -21 23 -39 -8 -9 -20 -24 -25 -33 -7 -13 -13 -14 -21 -6 -9 9 -8 18 5 38 10 15 15 29 12 33 -4 3 -14 -8 -24 -26 -29 -50 -50 -37 -28 17 16 37 16 37 58 16z m-152 -21 c9 -7 20 -10 25 -6 5 5 -1 -3 -13 -17 -12 -14 -26 -34 -30 -45 -18 -42 -49 -85 -61 -85 -7 0 -10 -4 -7 -10 9 -15 -25 -74 -36 -63 -14 14 56 138 76 137 18 -2 20 13 3 18 -13 5 -7 20 18 56 10 13 12 22 5 22 -6 0 -18 -14 -26 -30 -9 -17 -20 -28 -26 -24 -6 3 -9 0 -8 -7 3 -19 -21 -79 -31 -79 -21 0 -18 23 11 77 18 32 36 63 41 70 10 13 34 7 59 -14z m-164 -15 c17 -19 17 -20 0 -33 -9 -6 -17 -17 -17 -24 0 -6 -4 -11 -8 -11 -5 0 -9 -6 -9 -13 0 -17 -33 -67 -44 -67 -15 0 -10 35 9 56 10 10 16 27 14 37 -2 9 1 17 6 17 5 0 14 12 20 28 12 26 11 26 -16 -6 -24 -27 -31 -30 -41 -18 -9 11 -7 19 11 38 24 28 47 27 75 -4z m513 23 c0 -5 -7 -14 -15 -21 -9 -7 -14 -19 -11 -27 3 -8 -2 -13 -14 -13 -24 0 -26 18 -4 48 15 22 44 30 44 13z m-696 -22 c26 -20 26 -21 9 -50 -10 -16 -20 -29 -23 -29 -16 0 -18 15 -5 41 20 38 19 45 -5 24 -11 -10 -20 -24 -20 -32 0 -7 -7 -13 -16 -13 -8 0 -12 -4 -9 -10 3 -5 1 -19 -5 -31 -7 -11 -9 -24 -5 -27 9 -9 36 28 29 39 -7 11 7 11 25 0 11 -7 10 -15 -9 -41 -15 -21 -18 -31 -9 -28 8 2 18 14 24 26 10 23 45 31 45 10 -1 -20 -36 -58 -54 -58 -9 0 -25 9 -36 20 -11 11 -27 20 -35 20 -21 0 -19 19 6 59 11 18 18 35 15 38 -2 3 4 13 15 24 11 11 17 24 14 29 -11 18 22 10 49 -11z m736 4 c0 -5 -9 -21 -19 -37 -11 -17 -18 -33 -16 -37 3 -3 -4 -14 -15 -24 -11 -10 -20 -24 -20 -32 0 -7 -9 -13 -20 -13 -19 0 -19 1 -3 35 14 28 21 34 37 29 18 -6 19 -5 8 9 -12 14 -11 21 4 47 17 27 44 41 44 23z m-170 -13 c0 -19 -32 -60 -47 -60 -8 0 -13 3 -11 8 24 50 33 62 45 62 7 0 13 -5 13 -10z m-170 -14 c0 -22 -35 -60 -48 -52 -8 5 -5 16 10 37 23 31 38 37 38 15z m-170 -5 c0 -24 -21 -61 -35 -61 -19 0 -19 4 0 40 15 29 35 40 35 21z m374 1 c9 -14 -25 -71 -39 -65 -11 4 -11 11 2 39 17 34 27 41 37 26z m-539 -11 c3 -5 1 -12 -5 -16 -5 -3 -10 -15 -10 -26 0 -13 -7 -19 -21 -19 -11 0 -19 3 -17 8 32 65 40 73 53 53z m361 -40 c-10 -19 -21 -28 -30 -25 -12 5 -11 12 6 40 26 44 47 31 24 -15z m217 33 c13 -5 13 -10 -5 -40 -20 -34 -29 -40 -41 -28 -5 5 22 74 29 74 1 0 9 -3 17 -6z m-538 -14 c5 -8 -6 -31 -31 -69 -2 -1 -7 0 -12 3 -6 3 -3 20 6 41 17 36 26 42 37 25z m363 -46 c-16 -27 -23 -32 -33 -24 -11 9 -10 18 7 46 16 27 23 32 33 24 11 -9 10 -18 -7 -46z m53 16 c-3 -20 -27 -70 -34 -70 -17 0 -18 30 -1 55 14 21 37 31 35 15z m-148 -12 c32 -15 33 -24 9 -60 -13 -19 -22 -24 -32 -18 -12 7 -12 12 3 28 17 18 23 42 11 42 -10 0 -33 -33 -34 -47 0 -20 -44 -82 -58 -83 -7 0 -10 -4 -7 -10 9 -14 -23 -70 -40 -70 -17 0 -20 16 -5 25 6 3 10 15 10 26 0 10 4 19 10 19 5 0 18 17 28 38 12 25 23 36 35 34 15 -3 16 0 6 16 -10 16 -9 24 7 45 22 31 22 31 57 15z m-168 -10 c29 -13 30 -44 3 -71 -15 -15 -19 -15 -48 -1 -17 9 -30 19 -28 22 2 4 10 19 17 35 16 31 20 32 56 15z m365 -7 c-1 -14 -50 -65 -57 -58 -12 12 27 76 43 70 8 -3 14 -8 14 -12z m-717 -31 c-3 -10 -13 -26 -23 -35 -14 -13 -19 -13 -28 -2 -16 19 25 82 43 67 7 -6 11 -19 8 -30z m751 22 c3 -5 -3 -25 -14 -44 -10 -20 -17 -39 -15 -42 3 -3 -3 0 -12 9 -15 13 -15 17 3 50 19 35 28 42 38 27z m-555 -50 c-6 -18 -17 -32 -25 -32 -19 0 -18 12 3 49 22 38 37 26 22 -17z m391 31 c0 -17 -33 -63 -46 -63 -9 0 -14 3 -12 8 3 4 11 21 18 38 8 19 19 30 27 27 7 -3 13 -7 13 -10z m-547 0 c6 -11 -21 -73 -31 -73 -19 0 -20 14 -5 46 16 33 28 42 36 27z m580 -43 c-3 -10 -13 -27 -24 -39 -10 -11 -19 -26 -19 -33 -1 -33 -50 -66 -50 -33 0 8 5 15 10 15 6 0 10 7 10 15 0 9 7 18 15 21 9 4 15 11 14 18 -1 6 3 24 9 39 7 16 12 34 12 40 0 7 7 4 14 -6 8 -10 12 -26 9 -37z m-380 -10 c-29 -58 -55 -44 -27 15 12 27 20 33 29 25 11 -9 10 -16 -2 -40z m550 43 c2 -5 -4 -21 -14 -38 -10 -16 -27 -49 -39 -72 -14 -28 -26 -40 -36 -36 -20 8 -18 17 16 53 16 18 28 35 25 40 -7 11 18 60 32 60 6 0 14 -3 16 -7z m-703 -18 c0 -3 -5 -14 -12 -25 -7 -10 -8 -23 -4 -27 5 -4 10 -3 13 2 10 28 21 37 35 29 12 -8 11 -14 -8 -42 -20 -29 -24 -31 -32 -16 -14 24 -39 11 -47 -25 -7 -34 -22 -48 -36 -34 -12 12 12 63 29 63 6 0 12 7 12 15 0 25 23 65 37 65 7 0 13 -2 13 -5z m733 -36 c-8 -16 -21 -29 -30 -29 -8 0 -13 3 -11 8 24 49 32 60 43 56 10 -4 10 -12 -2 -35z m-523 10 c0 -5 -4 -9 -9 -9 -5 0 -12 -12 -15 -26 -6 -21 -9 -24 -21 -14 -13 10 -13 16 0 41 10 18 20 26 30 23 8 -4 15 -10 15 -15z m364 12 c3 -5 -1 -23 -10 -40 -27 -53 -48 -32 -22 24 12 26 23 32 32 16z m-163 -35 c-12 -12 -21 -28 -21 -34 0 -7 -7 -12 -15 -12 -19 0 -19 24 0 54 11 16 22 22 36 19 20 -6 20 -6 0 -27z m-536 9 c0 -22 -34 -57 -50 -51 -14 5 -14 8 0 36 15 29 50 39 50 15z m375 -10 c0 -7 -7 -16 -16 -19 -9 -4 -14 -13 -10 -21 3 -9 0 -15 -10 -15 -23 0 -27 27 -7 53 18 25 43 26 43 2z m370 7 c0 -19 -26 -62 -37 -62 -16 0 -17 25 -1 50 13 20 38 28 38 12z m-710 -20 c0 -26 -28 -62 -45 -56 -11 5 -10 12 8 40 24 37 37 43 37 16z m198 4 c16 -10 12 -36 -10 -60 -28 -31 -39 -9 -16 32 l20 37 -28 -30 c-15 -16 -35 -29 -43 -27 -14 2 -14 1 0 -11 16 -12 15 -14 -1 -35 -10 -12 -20 -28 -23 -35 -3 -8 -8 -9 -15 -2 -11 10 13 70 48 123 15 22 41 25 68 8z m161 -42 c-7 -13 -18 -24 -26 -24 -18 0 -17 7 9 49 18 29 23 32 26 17 2 -10 -2 -29 -9 -42z m191 51 c0 -11 -44 -65 -52 -65 -13 0 -9 19 8 45 14 22 44 35 44 20z m-315 -79 c-12 -25 -21 -34 -28 -27 -7 7 -5 21 6 43 8 18 13 37 10 43 -3 5 2 3 12 -6 16 -16 16 -19 0 -53z m378 -2 c-9 -19 -20 -34 -24 -34 -17 0 -18 21 -2 54 12 27 20 33 29 25 10 -8 10 -17 -3 -45z m-693 15 c0 -5 -8 -22 -18 -38 -20 -33 -52 -28 -37 5 5 11 9 21 9 24 6 26 46 34 46 9z m160 8 c-4 -24 -23 -67 -30 -67 -16 0 -22 21 -10 35 7 8 9 15 5 15 -4 0 -2 7 5 15 13 15 33 17 30 2z m375 3 c9 -14 -23 -70 -41 -70 -9 0 -14 3 -12 8 3 4 10 22 17 40 13 32 25 40 36 22z m-162 -6 c9 -9 -34 -75 -44 -68 -16 10 11 74 31 74 3 0 9 -3 13 -6z m192 -58 c-13 -30 -19 -35 -30 -26 -10 8 -11 17 -4 33 5 12 12 30 16 40 5 16 8 17 20 5 12 -12 11 -20 -2 -52z m179 55 c7 -11 -22 -71 -34 -71 -17 0 -18 15 -5 48 14 31 29 40 39 23z m-676 -34 c17 -13 15 -28 -7 -56 -28 -37 -44 -17 -20 24 12 19 16 35 10 35 -6 0 -17 -13 -26 -30 -17 -33 -30 -38 -39 -14 -8 22 -8 26 4 19 6 -3 10 0 10 7 0 34 34 41 68 15z m342 -12 c-11 -12 -20 -27 -20 -33 0 -7 -4 -12 -9 -12 -5 0 -11 -10 -14 -22 -9 -33 -32 -62 -45 -54 -12 7 13 66 29 66 5 0 9 9 9 20 0 32 22 60 47 58 22 -2 22 -2 3 -23z m376 13 c4 -6 2 -14 -4 -16 -7 -2 -12 -12 -12 -23 0 -10 -7 -19 -15 -19 -8 0 -15 -8 -15 -17 0 -10 -16 -45 -36 -78 -20 -33 -37 -65 -38 -72 -1 -7 -10 -20 -19 -31 -9 -10 -17 -24 -17 -30 0 -7 -7 -12 -15 -12 -19 0 -19 15 1 46 11 15 23 23 32 19 12 -4 12 -3 3 9 -16 19 17 85 39 78 12 -4 12 -2 3 8 -9 10 -8 19 5 39 9 14 19 28 22 31 3 3 13 22 22 43 18 38 31 46 44 25z m-526 -5 c0 -5 -12 -21 -26 -37 -32 -36 -55 -22 -29 18 16 23 55 37 55 19z m364 -2 c3 -5 -1 -14 -9 -21 -8 -7 -15 -21 -15 -31 0 -11 -4 -19 -9 -19 -19 0 -22 21 -9 50 13 29 31 39 42 21z m-171 -7 c7 -7 -25 -73 -36 -74 -17 0 -18 30 -2 54 17 26 27 31 38 20z m-168 -25 c0 -19 -26 -49 -43 -49 -8 0 -12 3 -10 8 25 50 33 62 42 59 6 -2 11 -10 11 -18z m361 -23 c-9 -15 -21 -26 -26 -26 -13 0 -13 6 6 42 11 21 19 27 26 20 8 -8 6 -18 -6 -36z m-695 0 c-6 -7 -8 -16 -4 -19 3 -4 1 -7 -5 -7 -7 0 -12 -7 -12 -15 0 -13 -4 -14 -20 -5 -19 10 -19 12 -2 44 14 28 20 32 35 24 13 -7 15 -13 8 -22z m163 12 c-9 -32 -26 -50 -36 -40 -11 11 13 62 30 62 9 0 11 -7 6 -22z m372 7 c4 -8 -2 -27 -12 -43 -24 -34 -48 -84 -53 -108 0 -4 -8 -1 -16 6 -13 11 -13 16 1 42 8 16 21 31 29 34 8 3 11 12 9 19 -3 7 -1 16 5 20 6 3 11 15 11 26 0 23 18 26 26 4z m200 -44 c-9 -17 -20 -31 -25 -31 -17 0 -20 14 -6 34 8 11 15 29 15 40 0 19 1 19 16 4 14 -14 14 -18 0 -47z m-362 41 c6 -10 -24 -72 -35 -72 -17 0 -20 22 -5 39 9 10 16 23 16 29 0 14 16 16 24 4z m-195 -82 c-32 -59 -52 -80 -66 -66 -3 3 1 14 10 24 10 10 17 24 17 30 0 7 6 12 13 12 6 0 13 11 13 25 2 31 24 59 36 47 6 -6 -4 -34 -23 -72z m391 31 c-7 -17 -16 -31 -21 -31 -17 0 -18 19 -3 50 22 42 43 25 24 -19z m-538 -6 c-8 -18 -20 -31 -26 -29 -6 2 -11 -9 -12 -26 -1 -35 -23 -65 -36 -52 -9 9 7 50 47 118 26 43 47 35 27 -11z m207 -17 c-21 -41 -34 -43 -34 -5 0 26 25 55 42 49 9 -3 7 -15 -8 -44z m373 -3 c-9 -19 -19 -35 -23 -35 -18 0 -19 22 -3 55 12 26 20 33 29 25 10 -8 9 -18 -3 -45z m-494 23 c16 -16 15 -29 -8 -58 -14 -19 -22 -22 -31 -13 -9 9 -7 18 10 39 12 15 19 29 16 32 -7 8 -34 -18 -40 -39 -8 -24 -37 -25 -33 -2 8 44 58 69 86 41z m340 3 c10 -6 10 -10 -3 -21 -8 -7 -15 -18 -15 -26 0 -18 -13 -24 -29 -15 -10 7 -10 14 3 40 17 33 23 36 44 22z m357 -32 c-18 -34 -40 -39 -29 -6 9 30 24 48 35 41 5 -3 2 -18 -6 -35z m-515 16 c0 -8 -4 -15 -10 -15 -5 0 -12 -11 -16 -24 -4 -16 -11 -23 -20 -19 -19 7 -18 29 3 53 21 24 43 26 43 5z m368 6 c10 -6 10 -10 -3 -21 -8 -7 -15 -18 -15 -26 0 -18 -20 -28 -32 -16 -6 6 -4 20 6 41 17 33 23 36 44 22z m-708 -28 c0 -8 -8 -26 -19 -39 -16 -20 -20 -22 -31 -9 -9 11 -8 20 10 45 22 30 40 32 40 3z m374 2 c3 -8 -1 -21 -9 -29 -8 -8 -20 -25 -25 -38 -25 -53 -42 -78 -51 -73 -5 4 -9 14 -9 23 1 24 27 55 39 47 6 -3 8 0 5 9 -6 16 22 76 35 76 5 0 11 -7 15 -15z m194 -42 c-19 -32 -38 -41 -38 -18 0 27 32 67 44 55 7 -7 6 -18 -6 -37z m182 42 c0 -5 -20 -39 -36 -64 -2 -1 -8 0 -13 4 -14 8 18 65 36 65 7 0 13 -2 13 -5z m-336 -13 c3 -5 -4 -23 -15 -42 -26 -42 -46 -27 -23 18 15 32 28 40 38 24z m-169 -12 c8 -13 -24 -72 -36 -68 -12 4 -12 7 2 48 11 31 23 38 34 20z m-164 -24 c-6 -6 -24 -40 -41 -74 -21 -44 -34 -60 -45 -56 -19 8 -19 18 0 34 8 7 15 19 15 26 0 8 7 14 16 14 8 0 13 4 10 9 -10 16 24 70 40 64 10 -4 11 -9 5 -17z m539 14 c0 -20 -24 -60 -36 -60 -20 0 -25 17 -9 30 8 7 15 19 15 26 0 8 7 14 15 14 8 0 15 -4 15 -10z m-335 -9 c7 -13 -26 -82 -36 -75 -11 6 -7 54 3 54 4 0 8 7 8 15 0 17 16 20 25 6z m167 3 c8 -7 -21 -64 -32 -64 -14 0 -21 18 -10 25 5 3 10 15 10 26 0 18 20 26 32 13z m203 -31 c-9 -35 -26 -56 -37 -45 -12 12 11 72 29 72 12 0 14 -7 8 -27z m-707 -31 c-12 -15 -24 -29 -26 -31 -1 -3 -7 0 -13 6 -8 8 -6 20 5 42 15 27 19 30 37 20 21 -11 21 -11 -3 -37z m175 42 c3 -3 -8 -27 -24 -54 -31 -51 -34 -60 -19 -60 5 0 19 20 31 45 24 51 36 62 52 46 7 -7 6 -16 -6 -29 -9 -10 -17 -27 -18 -38 0 -10 -3 -13 -6 -6 -2 6 -9 12 -14 12 -4 0 -6 -6 -3 -14 3 -7 -7 -35 -21 -61 -15 -25 -24 -50 -20 -53 3 -4 10 0 15 8 6 10 12 12 19 5 7 -7 5 -20 -6 -40 -9 -17 -24 -47 -35 -67 -10 -21 -23 -38 -28 -38 -15 0 -23 21 -11 33 6 6 11 18 11 27 0 10 -8 5 -23 -14 -30 -37 -46 -19 -21 23 17 28 19 29 45 15 36 -18 34 -18 34 11 0 27 -5 31 -22 14 -20 -20 -34 0 -18 25 8 12 12 26 8 29 -3 4 1 7 9 7 9 0 18 10 21 22 7 27 1 36 -14 21 -6 -6 -17 -9 -24 -6 -10 3 -10 11 3 34 10 16 22 29 28 29 6 0 12 11 12 25 0 36 27 66 45 49z m362 -37 c-16 -38 -41 -43 -37 -8 3 31 20 51 37 45 11 -5 11 -11 0 -37z m225 13 c0 -5 -5 -10 -11 -12 -5 -2 -11 -12 -13 -23 -3 -22 -21 -31 -30 -16 -11 17 22 71 39 65 8 -4 15 -10 15 -14z m-170 -5 c7 -8 19 -15 26 -15 20 0 17 -21 -6 -48 -26 -31 -47 -19 -25 15 17 25 15 40 -4 28 -6 -3 -11 -15 -11 -25 0 -24 -15 -33 -28 -17 -8 9 -6 22 5 45 17 36 25 39 43 17z m-540 -8 c0 -20 -30 -57 -46 -57 -19 0 -18 7 7 41 21 30 39 38 39 16z m410 -30 c0 -7 -9 -23 -20 -37 -14 -18 -22 -22 -30 -14 -8 8 -7 14 5 24 8 7 15 19 15 27 0 13 -3 13 -15 3 -8 -7 -15 -19 -15 -26 0 -16 -9 -18 -27 -6 -9 6 -7 16 8 39 19 30 21 31 49 16 17 -8 30 -20 30 -26z m-206 11 c-4 -6 2 -8 15 -3 17 5 21 2 21 -17 -1 -34 -27 -65 -42 -50 -9 9 -9 15 0 24 19 19 14 33 -6 15 -19 -17 -47 -24 -40 -9 25 50 32 60 44 55 8 -3 11 -10 8 -15z m401 -52 c-17 -25 -35 -33 -47 -20 -4 3 2 14 13 25 10 10 19 27 19 36 0 16 1 16 16 1 15 -14 15 -18 -1 -42z m-692 28 c3 -3 1 -14 -6 -25 -6 -10 -8 -22 -3 -26 4 -4 12 0 17 10 6 9 19 17 29 17 18 0 18 -2 -3 -35 -21 -32 -45 -42 -39 -15 2 7 -5 9 -18 5 -23 -7 -37 15 -24 37 5 7 9 16 10 21 1 4 2 9 3 12 2 7 26 6 34 -1z m377 -12 c0 -4 -9 -22 -21 -41 -15 -25 -23 -31 -32 -22 -8 8 -8 14 1 23 7 7 12 20 12 29 0 10 6 19 13 22 13 5 27 -1 27 -11z m160 8 c0 -6 -7 -25 -16 -42 -22 -42 -42 -23 -23 21 13 29 39 43 39 21z m204 -34 c-9 -31 -24 -45 -39 -40 -10 4 -10 13 4 44 12 29 19 36 29 28 7 -6 10 -20 6 -32z m-175 -24 c-14 -41 -44 -45 -34 -5 4 16 11 34 17 41 18 21 29 -2 17 -36z m-150 29 c10 -6 10 -10 1 -16 -6 -4 -15 -18 -20 -31 -7 -17 -14 -22 -27 -17 -14 4 -15 3 -7 -6 9 -10 8 -20 -3 -42 -16 -33 -29 -43 -37 -30 -6 9 63 151 73 151 3 0 12 -4 20 -9z m355 -39 c-8 -18 -20 -32 -25 -32 -14 0 -11 33 7 59 24 33 38 12 18 -27z m-519 28 c3 -6 -1 -17 -9 -26 -9 -8 -16 -22 -16 -29 0 -9 -6 -12 -15 -9 -20 8 -19 29 2 54 19 22 29 25 38 10z m375 -10 c0 -4 -7 -13 -15 -20 -8 -7 -13 -15 -11 -19 9 -14 -9 -30 -24 -21 -13 8 -12 14 4 44 11 21 24 32 32 29 8 -3 14 -9 14 -13z m-545 1 c8 -14 -28 -68 -42 -64 -18 6 -16 20 5 48 18 26 28 30 37 16z m388 -13 c12 -7 24 -14 25 -15 7 -3 -32 -63 -41 -63 -9 0 -7 16 9 55 7 20 7 20 -14 1 -12 -10 -19 -23 -16 -27 3 -5 1 -9 -3 -9 -5 0 -16 -18 -26 -40 -17 -39 -30 -49 -41 -31 -10 16 12 61 30 61 8 0 14 6 11 13 -5 15 20 67 33 67 6 0 20 -6 33 -12z m347 2 c0 -16 -23 -60 -32 -60 -11 0 -10 14 4 45 11 25 28 34 28 15z m-860 -38 c0 -12 3 -13 12 -4 7 7 16 12 21 12 11 0 0 -50 -16 -70 -7 -8 -21 -32 -31 -52 -11 -22 -24 -34 -32 -31 -10 4 -9 11 4 39 9 18 22 34 27 34 12 0 17 50 5 50 -4 0 -11 -7 -14 -16 -5 -13 -9 -14 -21 -4 -12 10 -11 16 3 45 13 24 20 30 30 23 6 -6 12 -18 12 -26z m162 12 c-5 -25 -21 -44 -38 -44 -18 0 -18 14 1 30 8 7 15 19 15 27 0 8 6 13 13 10 6 -2 10 -13 9 -23z m193 12 c16 -12 17 -17 6 -45 -13 -29 -30 -39 -44 -24 -4 3 0 15 10 25 9 10 13 21 9 26 -4 4 -13 -1 -20 -11 -7 -9 -19 -17 -26 -17 -9 0 -10 -3 -1 -14 9 -10 8 -16 -4 -26 -8 -7 -15 -21 -15 -32 0 -11 -5 -18 -12 -15 -21 6 -15 39 17 94 31 55 48 63 80 39z m367 -4 l27 -18 -20 -31 c-15 -23 -25 -30 -41 -25 -20 5 -20 5 -1 21 23 18 37 51 22 51 -5 0 -15 -11 -21 -25 -6 -14 -18 -25 -25 -25 -8 0 -12 -4 -9 -9 3 -5 -1 -25 -10 -46 -12 -29 -18 -34 -28 -25 -12 9 -7 23 26 80 22 39 43 70 47 70 3 0 18 -8 33 -18z m-147 -22 c9 -15 -22 -60 -40 -60 -19 0 -19 14 0 30 9 7 14 19 11 27 -6 15 20 18 29 3z m205 -28 c-1 -26 -28 -58 -40 -46 -7 7 -5 21 6 42 16 33 34 35 34 4z m-168 -13 c-3 -28 -26 -54 -40 -45 -13 8 19 78 33 73 5 -3 9 -15 7 -28z m-537 -9 c-8 -9 -15 -22 -15 -28 0 -7 -6 -12 -12 -12 -7 0 -14 -11 -14 -25 -2 -32 -24 -59 -37 -46 -6 6 -4 18 4 34 8 13 24 43 37 65 15 29 27 40 37 35 14 -5 14 -7 0 -23z m-115 -11 c0 -18 -32 -59 -46 -59 -19 0 -18 16 3 50 15 26 43 31 43 9z m165 10 c4 -5 0 -18 -9 -28 -9 -10 -16 -23 -16 -29 0 -6 -7 -9 -15 -6 -19 8 -19 19 1 49 18 27 29 31 39 14z m360 -33 c-8 -13 -12 -26 -8 -29 3 -4 -3 -7 -15 -7 -26 0 -28 12 -5 51 13 21 20 26 30 18 10 -9 9 -15 -2 -33z m-142 12 c12 -7 23 -14 25 -15 6 -3 -29 -63 -37 -63 -17 0 -19 14 -4 36 22 34 10 41 -15 9 -28 -36 -48 -23 -25 16 19 33 24 34 56 17z m372 -4 c28 -19 31 -31 11 -53 -7 -9 -25 -37 -38 -63 -14 -27 -29 -44 -35 -40 -8 5 -5 18 8 42 10 19 18 31 19 27 0 -5 5 -5 11 -1 8 4 7 9 -2 14 -9 6 -9 12 4 25 16 15 23 45 12 45 -3 0 -14 -14 -24 -31 -24 -39 -38 -21 -16 21 18 35 18 35 50 14z m-175 -3 c0 -5 9 -11 20 -14 25 -6 25 -15 0 -47 -17 -22 -22 -23 -39 -12 -29 17 -40 15 -34 -7 3 -10 0 -22 -6 -25 -6 -4 -11 -16 -11 -27 0 -22 -18 -26 -26 -5 -7 18 66 146 83 146 7 0 13 -4 13 -9z m-307 -77 c-9 -19 -20 -34 -24 -34 -10 0 -19 27 -11 35 4 4 7 10 8 13 0 4 4 15 9 25 5 13 11 15 21 6 11 -9 10 -16 -3 -45z m177 44 c0 -7 -9 -26 -19 -41 -23 -36 -38 -19 -19 23 13 30 38 41 38 18z m200 -26 c0 -9 -7 -25 -15 -35 -10 -15 -18 -17 -32 -8 -10 6 -13 11 -6 11 6 0 16 14 22 31 11 31 31 32 31 1z m-535 8 c5 -8 -12 -48 -26 -60 -4 -3 -10 -16 -14 -30 -10 -31 -32 -53 -45 -45 -6 4 -4 15 6 31 19 28 2 33 -18 5 -10 -14 -18 -17 -28 -11 -12 7 -12 12 3 28 9 10 17 27 17 38 1 17 2 17 20 -4 23 -28 35 -23 50 23 12 35 23 44 35 25z m-155 -5 c0 -3 -7 -17 -16 -30 -15 -22 -15 -25 -1 -25 9 0 19 9 22 20 7 22 20 26 30 10 7 -11 -25 -59 -38 -60 -5 0 -15 6 -23 14 -7 8 -19 16 -25 18 -18 6 11 58 33 58 10 0 18 -2 18 -5z m364 -4 c7 -11 -22 -71 -35 -71 -13 0 -11 37 3 60 14 22 24 25 32 11z m160 -18 c-9 -16 -25 -46 -37 -68 -12 -22 -31 -41 -41 -43 -19 -4 -19 -3 -2 23 22 34 11 48 -14 18 -32 -41 -53 -27 -24 15 19 27 12 41 -7 17 -31 -35 -34 -40 -34 -50 -1 -17 -28 -65 -36 -65 -26 0 -18 32 25 105 29 49 38 52 75 26 29 -21 67 -29 57 -12 -11 17 13 61 33 61 18 0 18 -2 5 -27z m209 12 c4 -8 2 -17 -4 -20 -5 -4 -7 -10 -4 -15 7 -11 -22 -33 -34 -26 -7 4 -4 19 7 41 19 38 27 43 35 20z m-542 -40 c-17 -37 -28 -43 -37 -20 -8 20 23 66 40 59 11 -4 10 -11 -3 -39z m62 3 c15 -7 27 -19 27 -25 0 -7 5 -13 10 -13 6 0 10 5 10 11 0 8 4 8 14 0 13 -11 12 -17 -6 -47 -23 -38 -49 -34 -29 5 14 25 4 27 -21 4 -13 -11 -22 -13 -29 -6 -7 7 -5 14 6 23 8 7 15 20 15 29 0 11 -7 7 -23 -13 -28 -34 -48 -19 -26 20 14 28 16 28 52 12z m346 -29 c-16 -23 -17 -29 -5 -29 8 0 18 9 21 20 7 23 13 24 49 10 15 -5 26 -17 26 -28 0 -26 -37 -59 -51 -45 -7 7 -5 14 6 23 8 7 15 20 15 29 -1 11 -7 8 -24 -13 -23 -28 -24 -28 -50 -11 -31 20 -30 18 -11 55 10 19 20 27 30 24 13 -5 12 -11 -6 -35z m-646 5 c3 -3 2 -14 -3 -23 -5 -9 -11 -24 -14 -33 -6 -21 -24 -24 -32 -5 -12 33 27 83 49 61z m201 -22 c3 -4 -1 -19 -9 -33 -8 -13 -24 -43 -35 -66 -15 -28 -26 -40 -36 -36 -8 3 -12 11 -9 17 3 6 8 19 11 29 4 9 12 17 19 17 8 0 17 15 20 33 4 17 9 35 12 40 6 9 21 9 27 -1z m370 -26 c-3 -11 -12 -27 -19 -35 -18 -18 -37 -5 -26 17 5 9 12 25 15 34 3 11 11 15 21 12 11 -4 14 -13 9 -28z m-524 15 c0 -5 -7 -14 -15 -21 -8 -7 -15 -18 -15 -25 0 -8 -4 -15 -10 -17 -5 -1 -11 -14 -12 -28 -2 -14 -11 -31 -20 -38 -24 -18 -23 -26 7 -42 14 -7 25 -18 25 -23 0 -6 -3 -7 -6 -4 -4 3 -15 2 -26 -4 -12 -6 -40 -8 -68 -4 -40 5 -49 11 -54 31 -7 27 20 65 40 57 8 -3 14 1 14 8 0 10 3 10 12 1 17 -17 38 -15 38 3 0 8 9 24 20 35 11 11 20 25 20 31 0 20 21 49 35 49 8 0 15 -4 15 -9z m205 -10 c3 -5 0 -13 -5 -16 -6 -4 -15 -18 -21 -32 -9 -25 -29 -23 -29 3 0 36 40 69 55 45z m529 1 c7 -11 -40 -69 -49 -60 -10 10 17 68 32 68 6 0 14 -4 17 -8z m-701 -8 c9 -10 -25 -64 -40 -64 -18 0 -16 17 5 45 18 26 25 29 35 19z m528 -7 c-4 -44 -25 -70 -43 -51 -8 8 25 65 35 61 5 -1 8 -6 8 -10z m-157 -6 c3 -5 -1 -14 -9 -21 -8 -7 -15 -19 -15 -26 0 -16 -16 -19 -25 -4 -8 12 20 60 35 60 5 0 11 -4 14 -9z m-608 -31 c11 0 14 -9 12 -32 -3 -29 -7 -33 -33 -36 -51 -4 -58 8 -34 58 18 36 23 41 31 27 5 -9 16 -17 24 -17z m112 -6 c4 -33 -11 -24 -23 15 -5 17 -4 22 6 19 8 -3 15 -18 17 -34z m167 26 c8 -13 -24 -60 -41 -60 -18 0 -18 6 3 41 18 30 28 35 38 19z m186 -8 c13 -10 32 -21 42 -25 22 -8 22 -19 -2 -48 -23 -28 -38 -20 -21 11 17 31 2 39 -19 11 -24 -31 -48 -19 -26 12 24 34 17 45 -9 13 -27 -33 -46 -19 -25 20 15 29 28 30 60 6z m347 10 c9 -7 8 -13 -8 -27 -11 -10 -17 -22 -14 -26 3 -5 -2 -9 -10 -9 -19 0 -20 10 -4 45 12 27 16 29 36 17z m-150 -18 c37 -18 37 -17 16 -49 -18 -28 -40 -31 -67 -10 -18 13 -18 15 -1 44 10 17 19 31 20 31 0 0 15 -7 32 -16z m192 -9 c0 -2 -8 -18 -18 -34 -12 -20 -22 -27 -31 -21 -11 6 -10 13 5 34 16 22 44 35 44 21z m24 -58 c-11 -12 -20 -24 -21 -26 -1 -1 -7 0 -13 4 -8 5 -7 14 4 31 9 13 16 31 16 41 0 14 3 14 16 -5 15 -22 15 -25 -2 -45z m-524 34 c0 -19 -23 -71 -31 -71 -5 0 -9 -7 -9 -15 0 -19 -31 -55 -47 -55 -17 0 -16 15 2 30 8 7 15 19 15 26 0 8 7 14 15 14 9 0 15 6 14 13 -3 18 19 67 31 67 5 0 10 -4 10 -9z m558 -52 c-28 -37 -43 -27 -18 13 10 17 17 36 14 42 -3 6 1 3 10 -8 13 -17 13 -21 -6 -47z m-730 10 c-13 -25 -24 -37 -30 -31 -13 13 18 72 37 72 12 0 10 -8 -7 -41z m206 -17 c-26 -52 -47 -23 -21 31 10 21 14 24 25 14 10 -11 9 -19 -4 -45z m171 31 c-4 -16 -11 -33 -17 -40 -15 -19 -30 -5 -22 20 15 49 51 67 39 20z m165 10 c-1 -22 -23 -53 -39 -53 -14 0 -14 10 2 43 14 30 37 36 37 10z m39 -29 c-6 -8 -8 -14 -4 -14 5 0 1 -8 -8 -18 -10 -10 -16 -21 -15 -23 2 -2 -2 2 -9 9 -17 20 15 86 34 70 10 -8 10 -14 2 -24z m-525 18 c6 -10 -35 -72 -48 -72 -4 0 -5 12 -1 27 11 44 36 66 49 45z m364 -11 c10 -6 10 -10 -3 -21 -8 -7 -15 -16 -15 -20 0 -4 -12 -28 -26 -53 -17 -32 -30 -44 -40 -40 -11 4 -12 9 -5 16 6 6 11 19 11 29 0 12 7 18 21 18 12 0 17 4 14 11 -7 11 13 69 24 69 3 0 12 -4 19 -9z m-658 -16 c15 -18 37 -19 43 -2 3 6 6 2 6 -10 1 -24 -38 -41 -77 -35 -23 4 -26 26 -4 28 23 3 24 4 12 19 -7 8 -8 15 -2 15 5 0 15 -7 22 -15z m336 -1 c2 -5 -8 -22 -21 -39 -34 -41 -53 -22 -22 23 21 30 38 37 43 16z m174 8 c0 -4 -8 -15 -17 -24 -23 -22 -38 -41 -42 -53 -18 -53 -25 -65 -37 -65 -21 0 -17 16 22 86 24 44 42 64 55 64 10 0 19 -3 19 -8z m352 2 c8 -8 -25 -64 -37 -64 -5 0 -11 -11 -11 -25 -2 -26 -20 -55 -35 -55 -17 0 -9 24 29 87 36 62 43 69 54 57z m-127 -31 c50 -31 53 -41 28 -72 -14 -16 -22 -18 -33 -11 -13 9 -13 12 3 21 9 5 17 20 17 32 0 21 -1 21 -23 -6 -20 -25 -25 -27 -50 -18 -15 6 -27 16 -27 24 0 12 27 57 35 57 2 0 25 -12 50 -27z m-187 1 c18 -8 32 -19 32 -24 0 -18 -37 -53 -49 -46 -9 6 -8 13 5 27 9 11 15 22 11 25 -10 10 -28 -7 -44 -40 -31 -65 -38 -76 -50 -76 -16 0 -16 -1 -2 39 6 17 18 31 26 31 8 0 11 4 8 10 -5 7 23 70 31 70 0 0 15 -7 32 -16z m362 -2 c0 -4 -11 -19 -25 -34 -14 -15 -25 -31 -25 -36 0 -19 -26 -62 -37 -62 -7 0 -13 3 -13 6 0 5 49 97 67 127 6 9 33 9 33 -1z m-837 -49 c-7 -2 -21 -2 -30 0 -10 3 -4 5 12 5 17 0 24 -2 18 -5z m582 -12 c3 -5 1 -12 -5 -16 -5 -3 -10 -15 -10 -26 0 -10 -6 -19 -13 -19 -23 0 -25 10 -10 41 15 30 27 36 38 20z m45 -16 c0 -4 -7 -19 -15 -35 -19 -37 -3 -39 23 -3 l19 26 26 -19 c31 -23 32 -32 7 -62 l-19 -23 -46 26 c-47 28 -53 42 -33 75 12 18 38 28 38 15z m-131 -30 c11 -11 10 -18 -8 -44 -12 -17 -27 -31 -32 -31 -14 0 -11 23 6 47 8 12 11 24 7 27 -5 3 -16 -8 -26 -25 -9 -16 -21 -29 -27 -29 -14 0 -11 28 7 56 18 26 45 26 73 -1z m34 -60 c-15 -31 -43 -49 -43 -27 0 22 27 62 42 62 17 0 17 -2 1 -35z m217 10 c0 -21 -36 -59 -48 -51 -15 9 19 75 36 69 6 -3 12 -11 12 -18z m-127 -21 c3 -3 -4 -21 -15 -40 -26 -45 -47 -31 -24 15 16 30 27 37 39 25z m47 -33 c0 -5 -7 -14 -15 -21 -8 -7 -15 -19 -15 -26 0 -16 -16 -19 -25 -4 -8 13 24 60 41 60 8 0 14 -4 14 -9z m34 -20 c3 -5 -1 -14 -9 -21 -8 -7 -15 -19 -15 -26 0 -8 -7 -14 -15 -14 -19 0 -19 20 1 48 16 23 29 28 38 13z"/> <path d="M3987 2152 c-19 -21 -22 -32 -7 -32 10 0 34 39 27 46 -2 2 -11 -4 -20 -14z"/> <path d="M3887 1775 c-10 -14 -13 -26 -7 -30 5 -3 16 8 25 25 18 36 7 39 -18 5z"/> <path d="M3781 1111 c-14 -24 -14 -31 -1 -31 14 0 32 38 21 45 -6 3 -15 -3 -20 -14z"/> <path d="M3042 815 c-2 -29 1 -35 18 -35 11 0 20 5 20 10 0 6 -7 10 -15 10 -11 0 -14 7 -9 25 3 14 2 25 -3 25 -5 0 -10 -16 -11 -35z"/> <path d="M2998 823 c6 -2 18 -2 25 0 6 3 1 5 -13 5 -14 0 -19 -2 -12 -5z"/> <path d="M3611 901 c-14 -25 -14 -44 -1 -36 17 11 31 43 21 50 -6 3 -15 -3 -20 -14z"/> <path d="M3612 808 c-6 -6 -12 -19 -12 -27 0 -13 2 -13 16 1 9 9 15 21 13 27 -3 9 -8 8 -17 -1z"/> <path d="M3644 675 c-9 -14 -14 -28 -12 -31 8 -8 38 25 38 42 0 20 -7 17 -26 -11z"/> <path d="M1907 2533 c-4 -3 -7 -11 -7 -17 0 -6 5 -5 12 2 6 6 9 14 7 17 -3 3 -9 2 -12 -2z"/> <path d="M3327 2479 c-3 -12 -2 -31 3 -42 7 -18 9 -14 9 21 1 46 -4 54 -12 21z"/> <path d="M3823 2349 c-7 -18 -11 -35 -8 -37 6 -6 27 48 23 60 -2 5 -9 -6 -15 -23z"/> <path d="M3231 2342 c-15 -29 -91 -202 -91 -209 0 -3 6 0 13 6 8 6 17 7 21 3 5 -4 6 2 4 13 -2 16 3 20 29 21 29 0 32 -2 27 -22 -3 -12 0 -25 7 -29 9 -6 11 2 6 33 -3 23 -1 45 5 48 5 3 7 13 4 21 -4 9 -1 13 6 10 8 -2 13 -23 13 -56 -1 -46 1 -50 12 -35 18 24 16 69 -3 88 -14 15 -14 20 3 56 17 37 20 39 53 33 19 -3 38 -7 42 -10 8 -4 -14 -55 -54 -125 -15 -26 -29 -60 -31 -75 -5 -37 -50 -50 -78 -22 -22 22 -25 12 -5 -17 11 -15 23 -19 50 -16 41 5 47 11 70 75 22 58 34 60 34 5 -1 -50 9 -88 23 -88 11 0 3 87 -12 133 -7 23 -3 40 17 84 32 68 25 77 -55 74 -33 -1 -69 2 -80 8 -16 9 -22 8 -30 -7z m39 -29 c1 -5 -12 -34 -27 -65 -27 -55 -42 -66 -51 -38 -3 7 0 10 6 6 6 -4 17 16 27 49 10 34 21 55 30 55 8 0 15 -3 15 -7z"/> <path d="M2696 2322 c-4 -7 -2 -12 3 -12 6 0 11 -7 11 -16 0 -11 -5 -14 -17 -9 -15 5 -16 4 -5 -6 10 -11 15 -10 27 2 13 13 13 18 2 33 -10 13 -16 15 -21 8z"/> <path d="M2857 2324 c-4 -4 -7 -16 -7 -27 0 -16 3 -17 15 -7 10 9 15 9 15 1 0 -6 5 -11 11 -11 8 0 7 6 -2 17 -8 9 -13 19 -11 22 5 8 -13 12 -21 5z"/> <path d="M2744 2265 c-7 -16 2 -35 17 -35 5 0 9 5 9 11 0 5 -4 7 -10 4 -14 -9 -13 8 2 23 9 9 9 12 0 12 -7 0 -15 -7 -18 -15z"/> <path d="M3095 2260 c3 -5 8 -10 11 -10 2 0 4 5 4 10 0 6 -5 10 -11 10 -5 0 -7 -4 -4 -10z"/> <path d="M3589 2148 c-35 -45 -58 -79 -52 -75 18 11 126 147 121 153 -3 2 -34 -32 -69 -78z"/> <path d="M2890 2200 c-8 -5 -12 -12 -9 -15 4 -3 12 1 19 10 14 17 11 19 -10 5z"/> <path d="M2960 2166 c0 -2 8 -10 18 -17 15 -13 16 -12 3 4 -13 16 -21 21 -21 13z"/> <path d="M3026 2119 c12 -13 19 -31 16 -39 -3 -12 -2 -12 8 -3 10 9 17 7 31 -10 9 -12 20 -20 22 -17 8 8 -14 32 -58 64 -35 26 -37 27 -19 5z"/> <path d="M2721 2111 c-10 -7 -4 -16 28 -36 27 -18 41 -35 41 -49 0 -17 -2 -18 -10 -6 -11 17 -6 21 -200 -175 -192 -195 -210 -214 -210 -225 0 -6 -4 -10 -10 -10 -5 0 -28 -36 -50 -79 -24 -49 -54 -91 -75 -108 -19 -15 -35 -32 -35 -37 0 -6 14 3 30 19 17 16 30 23 30 16 0 -11 3 -11 15 -1 13 11 13 15 3 21 -7 5 -8 9 -2 9 6 0 24 25 40 55 47 90 50 95 70 110 11 8 25 15 33 15 7 0 25 12 38 26 17 19 28 23 35 16 7 -7 0 -20 -25 -42 -27 -23 -35 -38 -35 -61 1 -37 14 -47 21 -17 4 12 2 25 -4 28 -5 4 6 21 26 38 19 18 35 39 35 48 0 23 -29 28 -49 10 -11 -10 -22 -13 -25 -8 -7 12 28 44 39 35 4 -5 5 -3 2 3 -7 12 26 48 36 38 3 -3 13 8 22 25 14 29 35 34 35 10 0 -6 -5 -7 -12 -3 -6 4 -8 3 -5 -3 4 -6 -5 -21 -18 -33 -14 -13 -25 -30 -25 -38 0 -9 6 -7 18 8 11 13 29 23 45 23 15 0 27 3 27 8 0 5 -10 9 -21 9 -19 0 -14 9 32 58 60 63 69 70 69 50 0 -8 -16 -29 -35 -48 -33 -32 -48 -59 -25 -45 6 3 10 2 10 -4 0 -14 57 16 64 34 3 8 0 17 -6 21 -6 4 -8 3 -5 -3 4 -6 0 -16 -7 -22 -8 -7 -17 -8 -20 -3 -7 12 23 54 34 47 5 -3 12 0 16 6 4 8 3 9 -4 5 -7 -4 -12 -1 -12 8 0 28 -22 28 -51 0 -27 -25 -29 -26 -29 -7 0 22 29 53 50 53 7 0 10 3 7 7 -10 9 14 34 26 26 5 -3 7 -1 4 4 -4 6 0 16 7 22 24 20 30 -8 7 -33 -12 -12 -21 -27 -21 -34 0 -18 22 -26 31 -11 7 11 9 11 9 1 0 -7 4 -11 9 -8 5 3 12 -1 15 -10 6 -16 26 -11 26 7 0 6 -4 8 -9 4 -22 -13 -22 19 0 37 18 15 20 18 5 14 -13 -5 -17 -2 -13 8 4 10 1 13 -7 10 -8 -3 -12 3 -10 18 1 13 3 28 3 33 1 6 5 4 10 -3 6 -11 13 -7 30 14 29 36 39 23 11 -15 -12 -17 -18 -31 -14 -31 4 0 12 7 19 17 11 15 14 15 36 0 25 -18 39 -21 39 -9 0 4 -10 12 -22 17 -15 7 -23 19 -23 35 0 17 -5 24 -16 22 -9 -1 -24 9 -34 24 -9 14 -19 23 -23 20 -3 -4 -11 2 -17 13 -7 14 -15 17 -24 12z m39 -196 c0 -1 -8 -9 -17 -16 -15 -12 -16 -12 -8 1 8 13 7 13 -8 1 -10 -8 -21 -11 -25 -7 -10 11 27 36 44 29 8 -3 14 -6 14 -8z m-163 -107 c-13 -20 -28 -19 -35 2 -3 7 0 10 6 6 6 -3 14 3 17 15 5 16 9 18 15 9 5 -7 3 -21 -3 -32z m53 -22 c0 -3 -4 -8 -10 -11 -5 -3 -10 -1 -10 4 0 6 5 11 10 11 6 0 10 -2 10 -4z m-219 -130 c-1 -3 -3 -5 -5 -3 -2 1 -14 -7 -27 -18 l-24 -20 24 28 c22 24 34 29 32 13z"/> <path d="M2895 2098 c4 -9 0 -31 -8 -51 -14 -32 -14 -36 7 -56 20 -21 20 -23 4 -35 -22 -16 -23 -26 -3 -26 8 0 15 7 15 15 0 8 5 15 10 15 13 0 13 -13 -1 -27 -6 -6 -11 -28 -11 -48 0 -21 -9 -53 -19 -72 -23 -41 -24 -47 -4 -39 11 4 15 -2 15 -24 0 -17 3 -30 8 -30 4 0 8 42 10 93 2 50 7 96 12 101 6 6 25 -5 50 -28 22 -20 46 -34 52 -30 10 7 -47 63 -64 64 -14 0 -9 19 22 82 19 41 25 65 18 69 -6 4 -8 11 -5 15 3 5 -15 7 -39 5 -26 -2 -51 2 -59 9 -13 11 -14 10 -10 -2z m79 -49 c14 -29 14 -30 -2 -24 -9 5 -29 10 -44 13 -43 7 -36 42 8 42 15 0 28 -10 38 -31z m-25 -60 c-7 -4 -17 -5 -22 -2 -5 3 -3 9 4 14 7 4 17 5 22 2 5 -3 3 -9 -4 -14z"/> <path d="M2840 2085 c-8 -9 -8 -15 -2 -15 12 0 26 19 19 26 -2 2 -10 -2 -17 -11z"/> <path d="M3120 2081 c0 -13 29 -35 37 -28 7 8 -15 37 -28 37 -5 0 -9 -4 -9 -9z"/> <path d="M3168 2083 c7 -3 16 -2 19 1 4 3 -2 6 -13 5 -11 0 -14 -3 -6 -6z"/> <path d="M3427 2048 c-9 -6 -9 -8 0 -8 33 0 -8 -89 -61 -131 -27 -21 -29 -21 -41 -5 -12 16 -14 16 -34 -5 -11 -12 -24 -19 -28 -16 -3 4 -1 7 6 7 7 0 9 5 6 10 -3 6 1 13 9 16 9 3 16 12 16 20 0 26 -17 14 -35 -25 -21 -47 -44 -59 -63 -34 -11 15 -10 19 7 27 27 12 34 53 9 59 -27 7 -62 -46 -55 -82 6 -27 4 -29 -35 -35 -24 -4 -46 -2 -52 4 -18 18 -27 11 -15 -12 7 -13 15 -30 19 -38 4 -8 -1 -33 -11 -55 -10 -22 -19 -48 -19 -57 0 -21 -4 -22 -31 -8 -14 8 -18 17 -13 36 4 17 2 29 -6 34 -17 10 -3 31 15 23 8 -3 15 0 15 7 0 6 -4 8 -10 5 -5 -3 -10 -2 -10 4 0 5 5 13 10 16 6 3 10 11 10 16 0 16 -19 0 -34 -29 -9 -19 -12 -41 -7 -73 5 -32 3 -49 -6 -58 -7 -6 -13 -8 -13 -4 0 4 -5 0 -11 -10 -6 -9 -14 -15 -19 -12 -13 8 0 35 16 35 8 0 14 9 14 20 0 26 -16 26 -23 -1 -3 -12 -10 -18 -16 -15 -16 10 -8 -38 9 -51 21 -17 43 -16 36 2 -3 8 -1 15 4 15 14 0 12 -21 -5 -69 -8 -22 -10 -41 -5 -41 6 0 10 10 10 22 0 16 3 19 11 11 8 -8 8 -17 0 -31 -6 -11 -11 -27 -10 -34 0 -7 7 1 14 17 22 46 17 18 -10 -70 -14 -44 -25 -81 -25 -82 0 -1 7 -3 17 -5 16 -3 27 -58 12 -58 -20 0 -37 13 -32 25 8 24 -7 38 -25 23 -13 -11 -15 -10 -10 15 3 15 1 27 -3 27 -5 0 -9 -11 -9 -25 0 -14 -4 -25 -9 -25 -10 0 -21 24 -21 46 0 20 -38 60 -47 50 -4 -4 2 -15 15 -24 20 -15 22 -25 19 -90 -1 -41 1 -76 5 -78 5 -3 8 13 8 36 0 37 2 40 23 35 18 -5 26 -1 35 17 l12 23 -6 -25 c-4 -14 -9 -32 -11 -40 -4 -11 -3 -12 4 -2 14 18 75 4 71 -17 -2 -9 -11 -15 -21 -15 -22 2 -22 -5 1 -22 16 -12 15 -13 -8 -23 -14 -5 -19 -10 -13 -10 9 -1 10 -8 4 -23 -4 -13 -6 -28 -4 -35 2 -7 -1 -22 -8 -35 -10 -20 -10 -21 2 -11 8 6 22 26 32 45 15 27 15 29 2 13 -17 -20 -17 -19 -10 5 15 47 46 113 51 107 3 -3 0 -15 -6 -27 -6 -12 -10 -24 -7 -26 8 -8 48 98 43 113 -3 8 1 27 9 44 9 16 11 29 6 29 -5 0 -12 -8 -15 -17 -7 -21 -67 -27 -78 -9 -14 20 -8 30 6 11 12 -17 14 -10 18 65 2 48 0 96 -6 109 -8 18 -8 25 1 28 8 3 8 14 1 39 -5 20 -7 38 -4 42 11 11 20 -9 22 -50 1 -26 8 -44 18 -50 10 -5 13 -14 9 -21 -13 -20 -32 -81 -28 -86 5 -5 35 63 35 80 0 7 10 9 30 6 34 -7 40 7 10 23 -24 13 -25 23 -4 44 24 24 32 19 30 -16 -3 -39 2 -58 17 -58 7 0 7 4 -1 12 -15 15 -16 31 0 22 8 -5 9 -2 4 12 -10 24 -10 25 -1 51 4 13 11 21 15 18 4 -3 13 15 19 40 14 56 14 55 -5 55 -12 0 -15 -7 -12 -25 3 -13 1 -22 -3 -19 -5 3 -9 -4 -9 -15 0 -33 -11 -51 -32 -51 -15 0 -18 4 -13 18 24 58 28 72 22 78 -15 15 -31 -18 -32 -61 0 -25 -3 -45 -7 -45 -5 0 -8 5 -8 10 0 6 -7 10 -15 10 -8 0 -15 -5 -15 -11 0 -5 5 -7 12 -3 8 5 9 0 5 -16 -3 -13 -1 -30 5 -37 8 -10 6 -13 -6 -13 -10 0 -14 5 -11 10 3 6 1 10 -5 10 -6 0 -9 4 -6 9 4 5 2 21 -3 35 -8 20 -7 26 8 31 22 7 46 59 35 76 -4 7 -3 10 3 6 6 -4 13 7 16 26 2 17 0 35 -5 38 -19 12 24 19 77 13 45 -6 56 -3 74 15 24 24 46 26 80 7 15 -8 20 -16 12 -20 -6 -4 -11 -15 -10 -24 0 -11 2 -13 6 -4 4 10 8 8 18 -5 11 -15 16 -16 27 -5 11 11 10 12 -4 7 -14 -6 -18 -2 -18 17 0 13 -5 29 -12 36 -8 8 -8 15 2 27 9 10 16 12 20 5 4 -6 20 8 37 32 17 24 43 56 58 72 15 16 20 26 11 23 -10 -4 -16 -1 -16 7 0 8 7 17 16 20 8 3 13 10 9 15 -6 11 -40 10 -58 -1z m-367 -738 c0 -13 -1 -13 -10 0 -9 13 -10 13 -11 0 -1 -8 -1 -19 0 -23 1 -5 -4 -7 -11 -5 -15 5 -23 42 -14 64 5 12 9 11 26 -3 11 -10 20 -24 20 -33z"/> <path d="M3505 2049 c-11 -17 1 -21 15 -4 8 9 8 15 2 15 -6 0 -14 -5 -17 -11z"/> <path d="M3179 2037 c5 -5 28 -11 52 -13 41 -4 41 -2 -1 13 -25 9 -60 9 -51 0z"/> <path d="M3286 2034 c-4 -9 2 -14 17 -15 12 0 43 -2 70 -4 26 -2 47 0 47 5 0 14 -13 18 -72 24 -43 3 -58 1 -62 -10z"/> <path d="M3061 1994 c0 -11 3 -14 6 -6 3 7 2 16 -1 19 -3 4 -6 -2 -5 -13z"/> <path d="M1630 1969 c0 -5 5 -7 10 -4 6 3 10 8 10 11 0 2 -4 4 -10 4 -5 0 -10 -5 -10 -11z"/> <path d="M3340 1970 c-13 -8 -12 -10 3 -10 9 0 17 5 17 10 0 12 -1 12 -20 0z"/> <path d="M2815 1930 c-3 -5 -1 -10 4 -10 6 0 11 5 11 10 0 6 -2 10 -4 10 -3 0 -8 -4 -11 -10z"/> <path d="M1597 1900 c-10 -16 -14 -30 -8 -30 12 0 34 37 29 51 -2 5 -11 -4 -21 -21z"/> <path d="M1630 1891 c-5 -11 -10 -28 -10 -38 0 -13 6 -8 20 15 23 37 24 42 10 42 -5 0 -14 -9 -20 -19z"/> <path d="M2800 1899 c0 -5 5 -7 10 -4 6 3 10 8 10 11 0 2 -4 4 -10 4 -5 0 -10 -5 -10 -11z"/> <path d="M2840 1888 c-37 -15 -74 -65 -64 -86 4 -9 8 -21 8 -26 1 -5 6 -11 13 -13 12 -4 11 10 -1 39 -9 19 23 57 42 50 7 -2 11 2 10 8 -2 7 3 15 10 17 16 6 16 -47 0 -82 -8 -18 -17 -24 -29 -20 -14 5 -17 1 -14 -18 3 -13 -1 -32 -8 -42 -14 -19 -13 -19 -75 21 -8 5 25 44 37 44 12 0 13 2 2 13 -10 10 -15 8 -27 -8 -9 -11 -19 -19 -24 -18 -13 4 -65 -34 -119 -84 -25 -23 -50 -39 -55 -36 -6 4 -2 -4 9 -17 l20 -23 -22 7 c-25 8 -73 -18 -73 -40 0 -8 4 -14 8 -14 5 0 17 -7 28 -16 18 -15 18 -15 -8 -9 -16 3 -28 1 -28 -5 0 -5 8 -10 19 -10 10 0 37 -6 59 -14 37 -13 41 -13 45 2 4 14 5 14 6 1 0 -8 22 -25 48 -38 l46 -22 -42 -37 c-38 -33 -47 -51 -88 -167 -45 -130 -93 -283 -93 -295 0 -4 26 -8 58 -9 31 -1 65 -4 75 -7 27 -8 8 -26 -22 -20 l-26 7 25 -20 25 -20 13 25 c14 27 24 29 54 13 27 -15 33 -5 14 23 -20 28 -20 38 -1 38 18 0 18 4 4 45 -11 29 -9 37 24 88 31 48 41 57 66 57 39 0 68 42 51 75 -9 17 -9 29 4 58 8 21 11 37 6 37 -4 0 -13 -12 -19 -27 -8 -23 -9 -19 -5 27 4 48 3 53 -10 40 -8 -8 -19 -33 -25 -54 -8 -31 -7 -46 5 -72 17 -36 11 -59 -13 -50 -8 4 -23 -4 -34 -16 l-18 -23 10 35 c6 19 13 44 15 55 2 11 7 34 10 50 14 65 -16 6 -64 -125 -36 -100 -45 -136 -35 -138 7 -2 13 -7 13 -12 0 -11 -66 -60 -83 -60 -21 0 -57 43 -57 68 0 27 10 27 60 2 22 -11 40 -16 40 -11 0 10 -72 41 -95 41 -8 0 -15 1 -15 3 0 1 24 68 53 148 45 126 57 150 90 179 31 27 40 31 48 19 6 -9 9 -10 9 -2 0 8 12 5 34 -8 19 -11 37 -16 40 -11 7 11 -10 20 -66 36 -14 4 -34 16 -44 27 -9 10 -23 19 -29 19 -11 0 -20 18 -30 58 -2 7 2 11 8 9 7 -2 12 -10 12 -18 0 -8 21 -25 47 -39 26 -13 50 -34 53 -45 4 -13 8 -16 12 -7 3 7 -1 20 -9 29 -14 17 -11 16 35 -7 50 -25 57 2 73 250 3 47 8 109 11 138 5 54 4 56 -37 40z m17 -133 c0 -8 -6 -16 -14 -19 -7 -3 -13 1 -13 8 0 8 6 17 13 19 6 3 12 6 13 6 0 1 1 -6 1 -14z m-158 -34 c-12 -17 -26 -28 -31 -25 -10 6 -54 -66 -50 -83 3 -14 -24 -11 -40 5 -10 10 0 23 42 60 30 26 58 46 62 45 4 -2 12 7 19 18 6 11 13 18 16 16 2 -3 -5 -19 -18 -36z m56 -11 c3 -6 -1 -7 -9 -4 -18 7 -21 14 -7 14 6 0 13 -4 16 -10z m95 -6 c0 -8 -5 -12 -11 -8 -8 4 -8 1 -1 -12 13 -24 1 -199 -14 -214 -9 -9 -24 -4 -60 19 -33 20 -52 27 -60 20 -8 -7 -14 -6 -19 1 -3 5 1 10 9 10 9 0 16 5 16 11 0 5 4 8 10 4 5 -3 16 7 24 23 13 25 13 29 0 29 -8 0 -22 -13 -30 -29 -18 -34 -19 -34 -61 -5 -36 24 -41 38 -18 57 21 18 19 35 -2 19 -16 -13 -17 -12 -4 3 7 10 17 15 22 12 5 -3 19 11 30 31 16 26 26 34 38 29 9 -3 26 -9 38 -11 11 -3 24 -14 27 -26 3 -12 8 -18 12 -14 4 4 13 2 20 -4 12 -10 12 -7 5 30 -1 2 -8 -3 -18 -10 -15 -13 -15 -11 1 19 17 33 46 44 46 16z m-189 -37 c-10 -9 -11 -8 -5 6 3 10 9 15 12 12 3 -3 0 -11 -7 -18z m-65 -107 c5 1 -1 9 -14 20 -13 11 -18 21 -12 25 5 3 10 1 10 -5 0 -7 7 -9 17 -6 10 4 14 4 10 0 -4 -4 -1 -14 5 -22 7 -8 13 -20 14 -28 2 -16 2 -16 -90 16 l-50 16 24 17 c23 16 25 16 50 -8 14 -14 30 -25 36 -25z m139 -70 c3 -6 -1 -7 -9 -4 -18 7 -21 14 -7 14 6 0 13 -4 16 -10z m-211 -495 c3 -8 1 -15 -4 -15 -6 0 -10 7 -10 15 0 8 2 15 4 15 2 0 6 -7 10 -15z"/> <path d="M2763 1638 c-22 -29 -24 -38 -8 -38 10 0 13 5 9 12 -4 6 -3 8 4 4 5 -3 12 -1 14 6 3 7 7 5 11 -6 5 -11 3 -15 -5 -10 -8 5 -9 2 -5 -10 4 -10 1 -19 -8 -22 -17 -7 -21 -34 -5 -34 17 0 53 81 41 93 -6 6 -11 7 -11 3 0 -5 -6 -3 -14 3 -10 8 -16 8 -23 -1z"/> <path d="M2933 1855 c0 -22 5 -46 11 -54 6 -7 10 -28 8 -45 -2 -30 -1 -30 10 -8 9 18 9 28 0 42 -6 11 -9 26 -6 35 3 8 1 15 -4 15 -6 0 -13 12 -15 28 -3 18 -4 14 -4 -13z"/> <path d="M4475 1870 c-3 -5 -1 -10 4 -10 6 0 11 5 11 10 0 6 -2 10 -4 10 -3 0 -8 -4 -11 -10z"/> <path d="M3274 1832 c-20 -13 -25 -87 -9 -119 13 -27 13 -35 0 -73 -8 -24 -13 -45 -10 -48 5 -6 23 37 40 98 6 25 15 55 19 67 5 16 2 23 -14 28 -17 5 -20 12 -16 31 7 26 6 27 -10 16z"/> <path d="M3370 1831 c0 -5 5 -13 10 -16 6 -3 10 -2 10 4 0 5 -4 13 -10 16 -5 3 -10 2 -10 -4z"/> <path d="M3417 1783 c-12 -12 -7 -23 11 -23 14 0 15 -2 2 -10 -9 -6 -10 -10 -3 -10 17 0 29 23 15 28 -7 2 -10 8 -6 13 6 10 -9 12 -19 2z"/> <path d="M2548 1696 c-28 -24 -40 -49 -13 -26 8 6 20 8 27 4 7 -4 10 -4 6 1 -4 4 -3 16 3 26 13 25 10 24 -23 -5z"/> <path d="M2890 1669 c4 -29 2 -53 -4 -61 -7 -7 -4 -7 7 1 22 17 22 14 -8 -53 -14 -32 -20 -56 -14 -56 7 0 10 -14 7 -34 -3 -25 1 -36 12 -40 8 -3 26 -13 39 -23 24 -17 24 -17 12 5 -7 12 -21 28 -31 35 -25 15 -27 89 -4 136 12 24 13 35 4 46 -15 18 -9 71 8 67 20 -4 5 15 -16 20 -16 5 -17 0 -12 -43z"/> <path d="M3196 1676 c-18 -37 -21 -60 -6 -36 7 11 10 11 10 2 0 -7 4 -11 10 -7 5 3 13 -9 18 -27 8 -32 8 -32 20 26 7 33 11 60 9 61 -1 2 -12 5 -23 9 -17 5 -25 0 -38 -28z m45 -23 c-5 -34 -6 -35 -9 -10 -3 23 -6 26 -18 16 -15 -13 -17 -9 -8 15 3 9 14 16 23 16 14 0 16 -7 12 -37z"/> <path d="M3150 1602 c0 -9 6 -12 16 -8 12 5 14 1 9 -17 l-6 -22 14 23 c16 28 27 19 27 -22 0 -17 4 -38 10 -46 7 -11 11 -9 20 14 6 16 13 33 16 37 3 5 1 9 -3 9 -5 0 -14 -12 -20 -27 l-11 -28 -1 33 c-1 49 -17 72 -46 70 -14 -1 -25 -9 -25 -16z"/> <path d="M2388 1570 c5 -33 22 -41 22 -10 0 11 0 23 1 28 0 4 -6 8 -14 10 -10 2 -12 -5 -9 -28z"/> <path d="M2937 1594 c-10 -17 -36 -98 -32 -102 6 -6 46 91 42 102 -2 7 -5 7 -10 0z"/> <path d="M3175 1545 c-11 -11 -19 -30 -17 -41 2 -11 -4 -27 -13 -34 -8 -7 -15 -25 -15 -41 0 -31 -14 -39 -24 -13 -10 25 -7 41 5 24 8 -12 9 -11 4 6 -3 12 -1 34 5 49 9 24 8 26 -3 16 -28 -22 -31 -141 -4 -124 5 3 3 -7 -6 -23 -23 -40 -57 -143 -57 -171 0 -13 -4 -23 -10 -23 -5 0 -7 8 -4 18 5 15 4 15 -6 -1 -14 -22 -7 -32 15 -24 8 4 15 18 15 31 0 29 18 74 38 95 8 8 11 22 9 32 -6 23 -3 23 27 4 23 -15 24 -14 44 33 23 52 40 154 26 151 -20 -3 -23 2 -13 27 12 34 9 35 -16 9z m19 -92 c-14 -77 -28 -108 -52 -111 -27 -4 -27 -1 -2 40 11 18 20 41 20 51 0 20 21 57 33 57 4 0 5 -17 1 -37z"/> <path d="M3135 1499 c-4 -6 -5 -12 -2 -15 2 -3 7 2 10 11 7 17 1 20 -8 4z"/> <path d="M2966 1455 c-3 -9 -6 -22 -5 -28 0 -7 5 -1 10 12 5 13 8 26 5 28 -2 2 -6 -3 -10 -12z"/> <path d="M2220 1370 c0 -5 5 -10 10 -10 6 0 10 5 10 10 0 6 -4 10 -10 10 -5 0 -10 -4 -10 -10z"/> <path d="M2455 1370 c-3 -5 -1 -10 4 -10 6 0 11 5 11 10 0 6 -2 10 -4 10 -3 0 -8 -4 -11 -10z"/> <path d="M2767 1373 c-4 -3 -7 -11 -7 -17 0 -6 5 -5 12 2 6 6 9 14 7 17 -3 3 -9 2 -12 -2z"/> <path d="M2151 1349 c-35 -28 -22 -32 14 -3 17 13 26 24 20 24 -5 -1 -21 -10 -34 -21z"/> <path d="M2180 1335 c-16 -17 -19 -25 -9 -25 14 0 44 38 36 46 -2 2 -14 -7 -27 -21z"/> <path d="M2205 1321 c-3 -5 5 -11 17 -13 13 -2 23 -8 23 -15 0 -21 12 -24 18 -3 3 11 2 18 -3 15 -4 -3 -10 2 -14 10 -6 17 -32 20 -41 6z"/> <path d="M2123 1295 c-17 -18 -16 -26 0 -19 10 3 13 -3 9 -25 -3 -19 5 -44 22 -74 l27 -45 -24 -53 c-34 -75 -40 -96 -27 -104 6 -4 9 -14 6 -22 -3 -8 -2 -11 4 -8 5 3 27 -10 49 -30 39 -36 40 -36 51 -15 6 12 9 24 7 27 -3 2 -8 -4 -11 -15 -6 -18 -11 -15 -51 23 -25 23 -45 47 -45 53 0 5 13 37 28 70 l29 61 48 -42 48 -43 -18 -34 c-15 -30 -29 -110 -19 -110 6 0 54 102 54 113 -1 7 -10 -5 -21 -26 -11 -22 -23 -36 -26 -33 -3 3 -1 11 4 18 5 7 15 27 22 45 11 28 11 33 -9 53 -11 11 -18 26 -14 31 4 7 9 7 13 2 11 -17 121 -96 127 -91 2 3 -33 34 -78 69 -46 35 -86 68 -90 74 -5 6 -8 6 -8 -2 0 -6 9 -18 21 -26 13 -10 16 -17 10 -22 -16 -9 -64 33 -91 79 -29 50 -33 116 -8 116 10 0 15 -6 13 -12 -6 -17 5 -31 37 -45 38 -17 47 11 10 31 -15 9 -21 16 -12 16 8 1 -3 7 -25 15 -48 18 -47 18 -62 0z"/> <path d="M2323 1293 c-5 -11 5 -26 30 -48 32 -28 35 -33 21 -46 -18 -18 -9 -49 15 -48 10 0 11 2 4 6 -15 6 -17 33 -3 33 6 0 10 -5 10 -12 0 -6 3 -8 6 -5 4 4 1 13 -6 22 -10 11 -10 15 0 15 6 0 14 -8 17 -18 4 -16 61 -47 70 -39 1 2 5 17 8 33 5 25 0 33 -41 62 -25 19 -47 32 -50 30 -2 -3 16 -20 41 -38 25 -19 45 -36 44 -39 0 -3 -4 -14 -7 -24 -7 -17 -8 -17 -27 0 -16 14 -102 84 -124 100 -2 1 2 9 9 18 9 11 9 15 1 15 -6 0 -15 -8 -18 -17z"/> <path d="M2374 1303 c4 -4 16 -8 28 -10 28 -4 18 6 -12 12 -12 2 -20 1 -16 -2z"/> <path d="M3135 1269 c-9 -17 -15 -37 -13 -46 2 -8 11 6 20 31 20 53 16 60 -7 15z"/> <path d="M2907 1283 c-4 -3 -7 -11 -7 -17 0 -6 5 -5 12 2 6 6 9 14 7 17 -3 3 -9 2 -12 -2z"/> <path d="M2087 1228 c3 -15 2 -19 -4 -11 -12 17 -53 -67 -53 -110 0 -17 -23 -97 -50 -177 -46 -136 -59 -189 -29 -121 8 17 18 31 22 31 5 0 6 4 3 9 -8 12 21 107 38 123 7 7 11 19 8 27 -3 8 0 11 6 7 5 -3 12 1 16 9 3 8 1 17 -3 20 -10 6 -3 44 11 62 6 7 4 13 -4 16 -9 4 -8 6 3 6 9 1 20 8 23 17 10 25 -2 30 -19 8 -12 -15 -12 -11 1 18 17 36 49 56 57 34 2 -6 8 -7 13 -3 5 5 1 14 -9 21 -9 7 -17 18 -17 25 0 6 -4 11 -9 11 -5 0 -7 -10 -4 -22z"/> <path d="M2906 1214 c-4 -9 -4 -19 -1 -22 2 -3 7 3 11 12 4 9 4 19 1 22 -2 3 -7 -3 -11 -12z"/> <path d="M2190 1211 c0 -5 9 -19 19 -32 l19 -24 -5 27 c-5 24 -33 49 -33 29z"/> <path d="M2852 1128 c-6 -51 -14 -140 -18 -198 -4 -58 -11 -111 -16 -117 -6 -7 -6 -13 -1 -13 14 0 45 58 33 62 -7 2 -7 28 1 83 6 43 8 92 5 107 -3 15 -2 28 3 28 4 0 9 32 10 70 1 39 0 70 -2 70 -3 0 -9 -42 -15 -92z"/> <path d="M2263 1198 c-23 -30 -26 -43 -5 -25 23 21 26 20 92 -32 94 -76 97 -79 92 -114 -3 -17 -10 -35 -16 -39 -7 -5 -5 -8 6 -8 11 0 18 12 23 40 6 37 4 42 -31 75 -20 19 -39 35 -41 35 -7 0 -88 64 -91 73 -5 11 -18 9 -29 -5z"/> <path d="M3100 1174 c-6 -16 -12 -34 -15 -41 -2 -6 -1 -14 3 -17 3 -4 12 12 19 36 14 48 9 65 -7 22z"/> <path d="M2093 1166 c3 -7 -6 -30 -19 -50 l-25 -36 21 -30 c11 -16 19 -32 18 -37 -3 -8 5 -13 18 -13 3 0 -6 20 -20 45 -15 25 -23 45 -18 45 9 0 42 63 42 80 0 6 -5 10 -11 10 -6 0 -9 -6 -6 -14z"/> <path d="M2807 1125 c-4 -22 -7 -84 -7 -138 l0 -97 -25 6 c-57 14 -95 8 -95 -16 0 -20 33 -42 84 -54 23 -6 27 -4 22 8 -3 9 -9 23 -13 32 -5 13 -2 15 14 10 20 -6 21 -2 28 128 7 137 4 193 -8 121z m-79 -234 c-2 -5 6 -16 17 -24 27 -21 15 -30 -18 -14 -36 16 -35 35 1 46 1 1 1 -3 0 -8z"/> <path d="M2910 1138 c0 -4 7 -8 15 -8 8 0 15 4 15 8 0 5 -7 9 -15 9 -8 0 -15 -4 -15 -9z"/> <path d="M2904 1108 c3 -15 26 -23 26 -8 0 6 -4 9 -9 6 -5 -4 -12 -1 -14 4 -3 6 -4 5 -3 -2z"/> <path d="M2880 1089 c0 -5 11 -14 25 -19 22 -8 24 -13 15 -30 -6 -11 -7 -20 -3 -20 4 0 13 11 19 24 10 21 8 25 -23 38 -18 9 -33 11 -33 7z"/> <path d="M4020 1075 c-7 -9 -10 -18 -7 -21 3 -3 10 4 17 15 13 25 8 27 -10 6z"/> <path d="M2050 1003 c0 -5 17 -27 38 -49 76 -83 77 -85 64 -93 -7 -4 -15 -21 -17 -37 -3 -16 -9 -51 -15 -79 -6 -27 -8 -60 -5 -72 3 -13 1 -23 -4 -23 -5 0 -11 -9 -14 -20 -4 -15 -14 -20 -42 -20 -32 0 -37 -3 -32 -20 3 -11 1 -20 -4 -20 -5 0 -9 -4 -9 -10 0 -5 7 -7 16 -3 9 3 14 13 11 24 -4 16 1 19 29 19 25 0 37 5 42 19 4 11 11 19 16 18 5 -1 10 12 11 28 1 17 10 69 20 117 l17 86 37 -26 c20 -15 38 -34 38 -44 1 -10 -2 -16 -7 -13 -8 5 -49 -42 -84 -99 -31 -49 2 -17 39 37 51 76 42 44 -14 -47 -47 -79 -54 -112 -25 -123 23 -8 16 -23 -10 -23 -14 0 -28 -4 -31 -10 -3 -5 1 -10 9 -10 9 0 16 -4 16 -10 0 -13 -36 -13 -63 1 -17 8 -16 5 6 -13 15 -13 27 -27 27 -32 0 -9 -31 -4 -65 10 -18 7 -19 6 -6 -10 10 -12 25 -17 48 -14 18 2 33 0 33 -5 0 -4 5 -5 10 -2 6 3 10 14 10 25 0 10 7 20 15 24 8 3 12 12 9 19 -3 9 4 17 18 21 l23 6 -27 21 c-21 15 -25 24 -18 37 5 9 28 55 51 102 22 47 46 91 51 98 16 19 23 5 7 -15 -12 -16 -12 -17 2 -6 9 7 19 10 22 6 4 -3 7 -2 7 4 0 6 -28 32 -62 57 -80 58 -74 52 -135 120 -29 32 -53 54 -53 49z"/> <path d="M2330 1007 c0 -2 25 -21 55 -42 30 -20 55 -39 55 -40 0 -14 -61 -135 -68 -135 -5 0 -15 7 -22 15 -7 8 -20 15 -29 14 -10 0 -12 -2 -3 -6 6 -2 9 -10 6 -15 -4 -7 -2 -8 4 -4 11 7 50 -11 65 -29 5 -6 7 -4 5 5 -3 23 12 61 23 55 5 -4 5 -14 -1 -25 -17 -33 -11 -36 10 -5 11 17 20 35 20 40 0 6 -4 3 -10 -5 -17 -28 -23 16 -6 49 24 46 20 55 -36 92 -59 38 -68 42 -68 36z"/> <path d="M2901 993 c-5 -10 -13 -34 -19 -53 -5 -19 -13 -44 -17 -55 -5 -14 -5 -17 2 -10 6 6 20 38 31 73 20 61 22 79 3 45z"/> <path d="M3977 1003 c-4 -3 -7 -11 -7 -17 0 -6 5 -5 12 2 6 6 9 14 7 17 -3 3 -9 2 -12 -2z"/> <path d="M2990 991 c0 -5 11 -11 25 -13 28 -6 34 6 9 16 -22 8 -34 7 -34 -3z"/> <path d="M2026 934 c-10 -27 -31 -82 -47 -122 -23 -60 -25 -73 -12 -68 9 4 28 -1 42 -11 l26 -17 -30 -7 -30 -8 30 2 c25 2 30 6 31 29 1 16 17 46 40 74 61 72 61 72 39 88 -28 20 -69 30 -73 17 -2 -6 -9 -11 -15 -11 -7 1 -2 9 11 19 17 15 20 24 14 42 -8 21 -11 18 -26 -27z m64 -59 c0 -9 -7 -18 -15 -21 -23 -9 -45 3 -39 21 8 20 54 20 54 0z m-50 -79 c0 -22 -29 -41 -42 -28 -8 8 -8 15 2 27 16 19 40 20 40 1z"/> <path d="M2722 943 c15 -15 31 -23 35 -19 4 4 -3 16 -17 26 -37 29 -49 24 -18 -7z"/> <path d="M2460 885 c-13 -14 -20 -28 -16 -32 7 -7 31 18 39 40 2 6 10 6 22 -1 48 -27 85 -42 85 -35 0 7 -89 53 -102 53 -3 0 -15 -11 -28 -25z"/> <path d="M2247 864 c3 -8 9 -14 15 -14 5 0 7 -3 5 -7 -3 -5 6 -9 19 -9 32 -2 30 0 -10 24 -25 15 -33 17 -29 6z"/> <path d="M2535 840 c-3 -5 -3 -15 1 -22 4 -7 3 -8 -5 -4 -11 7 -33 -32 -24 -46 2 -5 -1 -8 -7 -8 -7 0 -10 -6 -7 -14 7 -17 -18 -15 -53 4 -12 6 -24 9 -27 7 -7 -8 82 -47 104 -47 14 0 15 2 5 9 -11 6 -7 21 17 70 24 46 28 61 17 61 -8 0 -18 -4 -21 -10z"/> <path d="M2564 815 c-9 -13 -14 -29 -12 -35 2 -7 11 5 21 24 19 41 15 47 -9 11z"/> <path d="M2601 826 c-6 -7 -23 -35 -36 -62 -30 -60 -25 -94 15 -94 15 0 39 -11 54 -25 15 -14 33 -25 41 -25 7 0 20 -3 29 -6 9 -3 16 -1 16 5 0 6 -13 14 -29 17 -17 4 -38 15 -47 25 -9 11 -25 19 -36 19 -23 0 -23 -1 9 65 25 50 47 74 39 43 -1 -7 -1 -10 1 -5 3 4 9 7 14 7 5 0 3 -13 -6 -30 -21 -41 -19 -51 5 -15 11 17 20 24 20 17 0 -7 5 -10 10 -7 20 12 9 31 -26 44 -19 7 -37 11 -38 9 -2 -1 -15 -29 -29 -60 -19 -43 -30 -56 -41 -52 -19 7 -22 25 -3 22 7 -2 12 7 12 20 0 12 6 26 14 31 8 5 10 14 6 21 -6 9 -4 11 4 6 8 -6 11 -2 9 10 -2 11 2 18 10 17 6 -2 12 2 12 7 0 14 -16 12 -29 -4z"/> <path d="M2650 830 c0 -5 10 -10 23 -10 18 0 19 2 7 10 -19 13 -30 13 -30 0z"/> <path d="M1893 774 c-4 -10 5 -25 25 -42 24 -21 29 -31 21 -44 -6 -11 -16 -15 -26 -11 -10 4 -14 2 -10 -4 4 -6 1 -14 -5 -16 -8 -4 -7 -6 4 -6 9 -1 24 -11 32 -23 9 -12 19 -18 23 -14 5 4 -2 16 -13 25 -21 17 -21 18 -3 29 26 16 24 34 -6 62 -16 15 -23 30 -19 42 7 22 -14 24 -23 2z"/> <path d="M2310 752 c0 -7 7 -15 15 -18 19 -8 19 -25 -2 -90 -16 -53 -31 -60 -58 -30 -17 18 -55 37 -55 27 0 -11 72 -67 83 -63 12 4 9 -18 -15 -105 -19 -67 -27 -83 -45 -88 -25 -6 -33 -45 -9 -45 8 0 13 -8 11 -17 -2 -10 -4 -25 -4 -32 -1 -12 -4 -12 -13 -3 -14 14 -38 16 -38 3 0 -13 33 -23 51 -16 19 7 21 56 3 76 -14 15 -13 17 3 15 14 -1 25 19 50 94 18 52 32 109 33 126 0 17 3 34 7 38 4 4 13 26 20 49 12 40 11 43 -12 67 -14 13 -25 19 -25 12z"/> <path d="M2530 749 c0 -5 5 -7 10 -4 6 3 10 8 10 11 0 2 -4 4 -10 4 -5 0 -10 -5 -10 -11z"/> <path d="M2246 733 c-6 -14 -5 -15 5 -6 7 7 10 15 7 18 -3 3 -9 -2 -12 -12z"/> <path d="M2374 731 c8 -13 106 -63 106 -54 0 8 -94 63 -106 63 -3 0 -3 -4 0 -9z"/> <path d="M2619 719 c-9 -17 -8 -23 2 -30 25 -15 38 -10 54 24 12 23 12 27 2 15 -8 -10 -20 -18 -26 -18 -7 0 -9 -4 -6 -10 3 -5 2 -10 -3 -10 -17 0 -21 13 -11 31 5 11 7 19 5 19 -3 0 -10 -10 -17 -21z"/> <path d="M2921 635 c-14 -26 -30 -44 -36 -41 -7 2 -34 8 -60 12 -35 5 -46 4 -41 -5 4 -6 17 -11 29 -12 12 0 31 -5 42 -10 14 -6 1 -8 -43 -5 -34 2 -68 9 -75 14 -7 5 -28 12 -47 16 l-35 6 30 -15 c17 -8 35 -14 41 -15 6 0 14 -27 17 -62 5 -54 3 -65 -13 -78 -28 -22 -83 -151 -70 -164 15 -15 12 -36 -4 -30 -8 3 -17 1 -21 -5 -10 -17 -25 -13 -19 4 4 8 10 12 15 10 4 -3 7 8 6 24 -2 28 -17 34 -17 7 0 -7 -9 -21 -20 -31 -11 -10 -20 -22 -20 -26 0 -11 107 -32 120 -24 6 4 8 15 5 24 -3 11 3 25 15 36 27 24 60 100 60 136 0 19 7 32 23 40 44 24 52 49 31 103 -6 14 5 16 94 10 109 -6 145 4 176 48 25 36 20 36 -45 5 -46 -22 -70 -28 -96 -24 -42 7 -49 12 -36 29 15 22 33 68 25 68 -4 0 -18 -20 -31 -45z m-107 -118 c9 -14 5 -22 -17 -42 l-27 -26 0 39 c0 55 20 68 44 29z m-59 -114 c-9 -39 -57 -133 -67 -133 -14 0 -9 26 15 79 36 76 66 107 52 54z"/> <path d="M2520 660 c12 -8 13 -13 2 -30 -8 -14 -9 -20 -1 -20 6 0 13 9 16 20 3 11 10 17 17 14 6 -3 2 2 -8 10 -11 9 -25 16 -30 16 -6 0 -4 -5 4 -10z"/> <path d="M2570 645 c0 -7 58 -35 72 -35 7 1 -3 9 -22 20 -35 19 -50 24 -50 15z"/> <path d="M2469 547 c-18 -29 -53 -79 -77 -112 -63 -86 -77 -115 -60 -126 8 -6 1 -9 -22 -9 -28 -1 -32 -3 -18 -11 21 -12 68 -1 68 15 0 7 -5 17 -10 22 -7 7 3 31 33 76 l44 65 23 -19 c30 -24 37 -23 55 12 17 34 18 40 6 40 -5 0 -14 -15 -21 -32 -7 -18 -14 -27 -17 -20 -2 6 -11 12 -19 12 -8 0 -14 3 -14 6 0 10 22 48 48 81 28 37 52 34 27 -3 -18 -28 -9 -33 11 -6 18 24 17 35 -5 49 -16 10 -22 6 -52 -40z"/> <path d="M2007 529 c-21 -12 -22 -32 -1 -50 13 -11 14 -9 9 13 -5 21 -3 27 12 30 10 2 13 6 8 10 -6 3 -18 2 -28 -3z"/> <path d="M2477 413 c-4 -3 -2 -12 4 -19 7 -9 7 -19 0 -33 -15 -28 -14 -61 3 -61 8 0 21 19 30 41 16 39 16 43 0 60 -18 20 -27 23 -37 12z m14 -86 c-10 -9 -11 -8 -5 6 3 10 9 15 12 12 3 -3 0 -11 -7 -18z"/> <path d="M2253 275 c-9 -10 -7 -17 9 -31 12 -11 18 -13 14 -6 -6 10 -1 11 18 6 32 -8 35 12 4 22 -13 4 -25 10 -28 14 -3 4 -10 2 -17 -5z"/> </g> </svg> 